<svg width="1440" height="928" viewBox="0 0 1440 928" fill="none" xmlns="http://www.w3.org/2000/svg">
<g clip-path="url(#clip0_765_2143)">
<rect width="1440" height="928" fill="url(#paint0_linear_765_2143)"/>
<path fill-rule="evenodd" clip-rule="evenodd" d="M559.374 843.739V876H560.374V843.739H643.376V876H644.376V843.739H727.379V876H728.379V843.739H811.382V876H812.382V843.739H895.385V876H896.385V843.739H979.388V876H980.388V843.739H1063.39V876H1064.39V843.739H1147.39V876H1148.39V843.739H1231.4V876H1232.4V843.739H1315.4V876H1316.4V843.739L1399.4 843.739V876H1400.4V843.739H1483.41V876H1484.41V843.739L1567.41 843.739V876H1568.41V843.739H1640.17V842.739H1568.41V760.348H1640.17V759.348H1568.41V676.957H1640.17V675.957H1568.41V593.565H1640.17V592.565H1568.41V510.174H1640.17V509.174H1568.41V426.783H1640.17V425.783H1568.41V343.392H1640.17V342.392H1568.41V260H1640.17V259H1568.41V176.609H1640.17V175.609H1568.41V93.2177H1640.17V92.2177H1568.41V9.82635H1640.17V8.82635H1568.41V-73.5649H1640.17V-74.5649H1568.41V-156.956L1640.17 -156.956V-157.956L1568.41 -157.956V-240.348L1640.17 -240.348V-241.348L1568.41 -241.348V-323.739L1640.17 -323.739V-324.739L1568.41 -324.739V-357H1567.41V-324.739L1484.4 -324.739V-357H1483.4V-324.739L1400.4 -324.739V-357H1399.4V-324.739L1316.4 -324.739V-357H1315.4V-324.739L1232.4 -324.739V-357H1231.4V-324.739L1148.39 -324.739V-357H1147.39V-324.739L1064.39 -324.739V-357H1063.39V-324.739L980.388 -324.739V-357H979.388V-324.739L896.385 -324.739V-357H895.385V-324.739L812.382 -324.739V-357H811.382V-324.739L728.379 -324.739V-357H727.379V-324.739L644.376 -324.739V-357H643.376V-324.739L560.374 -324.739V-357H559.374V-324.739L484 -324.739V-323.739L559.374 -323.739L559.374 -241.348L484 -241.348V-240.348L559.374 -240.348V-157.957L484 -157.957V-156.957L559.374 -156.957L559.374 -74.5652L484 -74.5652V-73.5652L559.374 -73.5652L559.374 8.82611L484 8.82608V9.82608L559.374 9.82611V92.2174L484 92.2174V93.2174L559.374 93.2174L559.374 175.609H484V176.609H559.374V259H484V260H559.374V342.391H484V343.391H559.374L559.374 425.783H484V426.783H559.374V509.174H484V510.174H559.374L559.374 592.565H484V593.565H559.374L559.374 675.957H484V676.957H559.374V759.348H484V760.348H559.374L559.374 842.739H484V843.739H559.374ZM1567.41 -323.739L1484.4 -323.739V-241.348L1567.41 -241.348V-323.739ZM1567.41 -240.348L1484.4 -240.348V-157.956L1567.41 -157.956V-240.348ZM1567.41 -156.956L1484.4 -156.956V-74.565L1567.41 -74.5649V-156.956ZM1567.41 -73.5649L1484.4 -73.565V8.82632L1567.41 8.82635V-73.5649ZM1567.41 9.82635L1484.4 9.82632V92.2176L1567.41 92.2177V9.82635ZM1567.41 93.2177L1484.4 93.2176V175.609L1567.41 175.609V93.2177ZM1567.41 176.609L1484.4 176.609V259L1567.41 259V176.609ZM1567.41 260L1484.41 260V342.391L1567.41 342.392V260ZM1567.41 343.392L1484.41 343.391V425.783L1567.41 425.783V343.392ZM1567.41 426.783L1484.41 426.783V509.174L1567.41 509.174V426.783ZM1567.41 510.174L1484.41 510.174V592.565L1567.41 592.565V510.174ZM1567.41 593.565L1484.41 593.565V675.957L1567.41 675.957V593.565ZM1567.41 676.957L1484.41 676.957V759.348L1567.41 759.348V676.957ZM1567.41 760.348L1484.41 760.348V842.739L1567.41 842.739V760.348ZM1483.41 760.348V842.739H1400.4V760.348H1483.41ZM1483.41 676.957V759.348H1400.4V676.957H1483.41ZM1483.41 593.565V675.957H1400.4V593.565H1483.41ZM1483.41 510.174V592.565H1400.4V510.174H1483.41ZM1483.41 426.783V509.174H1400.4V426.783H1483.41ZM1483.41 343.391V425.783H1400.4V343.391H1483.41ZM1483.41 260V342.391H1400.4V260H1483.41ZM1483.4 176.609V259H1400.4V176.609H1483.4ZM1483.4 93.2176V175.609H1400.4V93.2176H1483.4ZM1483.4 9.82632V92.2176H1400.4V9.82632H1483.4ZM1483.4 -73.565V8.82632H1400.4V-73.565H1483.4ZM1483.4 -156.956V-74.565H1400.4V-156.956L1483.4 -156.956ZM1483.4 -240.348V-157.956L1400.4 -157.956V-240.348L1483.4 -240.348ZM1483.4 -323.739V-241.348L1400.4 -241.348V-323.739L1483.4 -323.739ZM1399.4 -323.739L1316.4 -323.739V-241.348L1399.4 -241.348V-323.739ZM1399.4 -240.348L1316.4 -240.348V-157.956L1399.4 -157.956V-240.348ZM1399.4 -156.956L1316.4 -156.956V-74.565L1399.4 -74.565V-156.956ZM1399.4 -73.565L1316.4 -73.565V8.82629L1399.4 8.82632V-73.565ZM1399.4 9.82632L1316.4 9.82629V92.2176L1399.4 92.2176V9.82632ZM1399.4 93.2176L1316.4 93.2176V175.609L1399.4 175.609V93.2176ZM1399.4 176.609L1316.4 176.609V259L1399.4 259V176.609ZM1399.4 260L1316.4 260V342.391L1399.4 342.391V260ZM1399.4 343.391L1316.4 343.391V425.783L1399.4 425.783V343.391ZM1399.4 426.783L1316.4 426.783V509.174L1399.4 509.174V426.783ZM1399.4 510.174L1316.4 510.174V592.565L1399.4 592.565V510.174ZM1399.4 593.565L1316.4 593.565V675.957L1399.4 675.957V593.565ZM1399.4 676.957L1316.4 676.957V759.348L1399.4 759.348V676.957ZM1399.4 760.348L1316.4 760.348V842.739L1399.4 842.739V760.348ZM1315.4 760.348V842.739H1232.4V760.348H1315.4ZM1315.4 676.957V759.348H1232.4V676.957H1315.4ZM1315.4 593.565V675.957H1232.4V593.565H1315.4ZM1315.4 510.174V592.565H1232.4V510.174H1315.4ZM1315.4 426.783V509.174H1232.4V426.783H1315.4ZM1315.4 343.391V425.783H1232.4V343.391H1315.4ZM1315.4 260V342.391H1232.4V260H1315.4ZM1315.4 176.609V259H1232.4V176.609H1315.4ZM1315.4 93.2176V175.609H1232.4V93.2176H1315.4ZM1315.4 9.82629V92.2176H1232.4V9.82629H1315.4ZM1315.4 -73.565V8.82629H1232.4V-73.565H1315.4ZM1315.4 -156.956V-74.565H1232.4V-156.956L1315.4 -156.956ZM1315.4 -240.348V-157.956L1232.4 -157.956V-240.348L1315.4 -240.348ZM1315.4 -323.739V-241.348L1232.4 -241.348V-323.739L1315.4 -323.739ZM1231.4 -323.739L1148.39 -323.739V-241.348L1231.4 -241.348V-323.739ZM1231.4 -240.348L1148.39 -240.348V-157.956L1231.4 -157.956V-240.348ZM1231.4 -156.956L1148.39 -156.956V-74.565L1231.4 -74.565V-156.956ZM1231.4 -73.565L1148.39 -73.565V8.82626L1231.4 8.82629V-73.565ZM1231.4 9.82629L1148.39 9.82626V92.2176L1231.4 92.2176V9.82629ZM1231.4 93.2176L1148.39 93.2176V175.609L1231.4 175.609V93.2176ZM1231.4 176.609L1148.39 176.609V259L1231.4 259V176.609ZM1231.4 260L1148.39 260V342.391L1231.4 342.391V260ZM1231.4 343.391L1148.39 343.391V425.783L1231.4 425.783V343.391ZM1231.4 426.783L1148.39 426.783V509.174L1231.4 509.174V426.783ZM1231.4 510.174L1148.39 510.174V592.565L1231.4 592.565V510.174ZM1231.4 593.565L1148.39 593.565V675.957H1231.4V593.565ZM1231.4 676.957H1148.39V759.348H1231.4V676.957ZM1231.4 760.348H1148.39V842.739H1231.4V760.348ZM1147.39 760.348V842.739H1064.39V760.348H1147.39ZM1147.39 676.957V759.348H1064.39V676.957H1147.39ZM1147.39 593.565V675.957H1064.39V593.565H1147.39ZM1147.39 510.174V592.565H1064.39V510.174H1147.39ZM1147.39 426.783V509.174H1064.39V426.783H1147.39ZM1147.39 343.391V425.783H1064.39V343.391H1147.39ZM1147.39 260V342.391H1064.39V260H1147.39ZM1147.39 176.609V259H1064.39V176.609H1147.39ZM1147.39 93.2176V175.609H1064.39V93.2176H1147.39ZM1147.39 9.82626V92.2176H1064.39V9.82626H1147.39ZM1147.39 -73.565V8.82626H1064.39V-73.565H1147.39ZM1147.39 -156.956V-74.565H1064.39V-156.956L1147.39 -156.956ZM1147.39 -240.348V-157.956L1064.39 -157.956V-240.348L1147.39 -240.348ZM1147.39 -323.739V-241.348L1064.39 -241.348V-323.739L1147.39 -323.739ZM1063.39 -323.739L980.388 -323.739V-241.348L1063.39 -241.348V-323.739ZM1063.39 -240.348L980.388 -240.348V-157.956L1063.39 -157.956V-240.348ZM1063.39 -156.956L980.388 -156.956V-74.5651L1063.39 -74.565V-156.956ZM1063.39 -73.565L980.388 -73.5651L980.388 8.82623L1063.39 8.82626V-73.565ZM1063.39 9.82626L980.388 9.82623V92.2175L1063.39 92.2176V9.82626ZM1063.39 93.2176L980.388 93.2175V175.609L1063.39 175.609V93.2176ZM1063.39 176.609L980.388 176.609V259L1063.39 259V176.609ZM1063.39 260L980.388 260V342.391L1063.39 342.391V260ZM1063.39 343.391L980.388 343.391V425.783L1063.39 425.783V343.391ZM1063.39 426.783L980.388 426.783V509.174L1063.39 509.174V426.783ZM1063.39 510.174L980.388 510.174L980.388 592.565L1063.39 592.565V510.174ZM1063.39 593.565L980.388 593.565V675.957H1063.39V593.565ZM1063.39 676.957H980.388V759.348H1063.39V676.957ZM1063.39 760.348H980.388V842.739H1063.39V760.348ZM979.388 760.348V842.739H896.385V760.348H979.388ZM979.388 676.957V759.348H896.385V676.957H979.388ZM979.388 593.565V675.957H896.385V593.565H979.388ZM979.388 510.174L979.388 592.565H896.385L896.385 510.174H979.388ZM979.388 426.783V509.174H896.385V426.783H979.388ZM979.388 343.391V425.783H896.385V343.391H979.388ZM979.388 260V342.391H896.385V260H979.388ZM979.388 176.609V259H896.385V176.609H979.388ZM979.388 93.2175V175.609H896.385V93.2175H979.388ZM979.388 9.82623V92.2175H896.385V9.82623H979.388ZM979.388 -73.5651L979.388 8.82623H896.385L896.385 -73.5651H979.388ZM979.388 -156.956V-74.5651H896.385V-156.956L979.388 -156.956ZM979.388 -240.348V-157.956L896.385 -157.956V-240.348L979.388 -240.348ZM979.388 -323.739V-241.348L896.385 -241.348V-323.739L979.388 -323.739ZM895.385 -323.739L812.382 -323.739V-241.348L895.385 -241.348V-323.739ZM895.385 -240.348L812.382 -240.348V-157.956L895.385 -157.956V-240.348ZM895.385 -156.956L812.382 -156.956V-74.5651L895.385 -74.5651V-156.956ZM895.385 -73.5651L812.382 -73.5651L812.382 8.8262L895.385 8.82623L895.385 -73.5651ZM895.385 9.82623L812.382 9.8262V92.2175L895.385 92.2175V9.82623ZM895.385 93.2175L812.382 93.2175V175.609H895.385V93.2175ZM895.385 176.609H812.382V259H895.385V176.609ZM895.385 260H812.382V342.391H895.385V260ZM895.385 343.391H812.382V425.783H895.385V343.391ZM895.385 426.783H812.382V509.174H895.385V426.783ZM895.385 510.174H812.382L812.382 592.565H895.385L895.385 510.174ZM895.385 593.565H812.382V675.957H895.385V593.565ZM895.385 676.957H812.382V759.348H895.385V676.957ZM895.385 760.348H812.382V842.739H895.385V760.348ZM811.382 760.348V842.739H728.379V760.348H811.382ZM811.382 676.957V759.348H728.379L728.379 676.957H811.382ZM811.382 593.565V675.957H728.379V593.565H811.382ZM811.382 510.174L811.382 592.565H728.379V510.174H811.382ZM811.382 426.783V509.174H728.379V426.783H811.382ZM811.382 343.391V425.783H728.379L728.379 343.391H811.382ZM811.382 260V342.391H728.379V260H811.382ZM811.382 176.609V259H728.379V176.609H811.382ZM811.382 93.2175V175.609H728.379L728.379 93.2175L811.382 93.2175ZM811.382 9.8262V92.2175L728.379 92.2175V9.82617L811.382 9.8262ZM811.382 -73.5651L811.382 8.8262L728.379 8.82617V-73.5651L811.382 -73.5651ZM811.382 -156.956V-74.5651L728.379 -74.5651V-156.956L811.382 -156.956ZM811.382 -240.348V-157.956L728.379 -157.956L728.379 -240.348L811.382 -240.348ZM811.382 -323.739V-241.348L728.379 -241.348V-323.739L811.382 -323.739ZM727.379 -323.739L644.376 -323.739V-241.348L727.379 -241.348V-323.739ZM727.379 -240.348L644.376 -240.348L644.376 -157.956L727.379 -157.956L727.379 -240.348ZM727.379 -156.956L644.376 -156.956V-74.5652L727.379 -74.5651V-156.956ZM727.379 -73.5651L644.376 -73.5652V8.82614L727.379 8.82617V-73.5651ZM727.379 9.82617L644.376 9.82614V92.2174L727.379 92.2175V9.82617ZM727.379 93.2175L644.376 93.2174L644.376 175.609H727.379L727.379 93.2175ZM727.379 176.609H644.376V259H727.379V176.609ZM727.379 260H644.376V342.391H727.379V260ZM727.379 343.391H644.376L644.376 425.783H727.379L727.379 343.391ZM727.379 426.783H644.376V509.174H727.379V426.783ZM727.379 510.174H644.376V592.565H727.379V510.174ZM727.379 593.565H644.376V675.957H727.379V593.565ZM727.379 676.957H644.376L644.376 759.348H727.379L727.379 676.957ZM727.379 760.348H644.376V842.739H727.379V760.348ZM643.376 760.348V842.739H560.374L560.374 760.348H643.376ZM643.376 676.957L643.376 759.348H560.374V676.957H643.376ZM643.376 593.565V675.957H560.374L560.374 593.565H643.376ZM643.376 510.174V592.565H560.374L560.374 510.174H643.376ZM643.376 426.783V509.174H560.374V426.783H643.376ZM643.376 343.391L643.376 425.783H560.374L560.374 343.391H643.376ZM643.376 260V342.391H560.374V260H643.376ZM643.376 176.609V259H560.374V176.609H643.376ZM643.376 93.2174L643.376 175.609H560.374L560.374 93.2174L643.376 93.2174ZM643.376 9.82614V92.2174L560.374 92.2174V9.82611L643.376 9.82614ZM643.376 -73.5652V8.82614L560.374 8.82611L560.374 -73.5652L643.376 -73.5652ZM643.376 -156.956V-74.5652L560.374 -74.5652L560.374 -156.957L643.376 -156.956ZM643.376 -240.348L643.376 -157.956L560.374 -157.957V-240.348L643.376 -240.348ZM643.376 -323.739V-241.348L560.374 -241.348L560.374 -323.739L643.376 -323.739Z" fill="url(#paint1_radial_765_2143)"/>
<path fill-rule="evenodd" clip-rule="evenodd" d="M-267.626 843.739V876H-266.626V843.739H-183.624V876H-182.624V843.739H-99.6205V876H-98.6205V843.739H-15.6178V876H-14.6178V843.739H68.385V876H69.385V843.739H152.388V876H153.388V843.739H236.391V876H237.391V843.739H320.394V876H321.394V843.739H404.396V876H405.396V843.739H488.399V876H489.399V843.739L572.402 843.739V876H573.402V843.739H656.405V876H657.405V843.739L740.408 843.739V876H741.408V843.739H813.168V842.739H741.408V760.348H813.168V759.348H741.408V676.957H813.168V675.957H741.408V593.565H813.168V592.565H741.408V510.174H813.168V509.174H741.408V426.783H813.168V425.783H741.408V343.392H813.168V342.392H741.408V260H813.168V259H741.408V176.609H813.168V175.609H741.408V93.2177H813.168V92.2177H741.408V9.82635H813.168V8.82635H741.408V-73.5649H813.168V-74.5649H741.408V-156.956L813.168 -156.956V-157.956L741.408 -157.956V-240.348L813.168 -240.348V-241.348L741.408 -241.348V-323.739L813.168 -323.739V-324.739L741.408 -324.739V-357H740.408V-324.739L657.405 -324.739V-357H656.405V-324.739L573.402 -324.739V-357H572.402V-324.739L489.399 -324.739V-357H488.399V-324.739L405.396 -324.739V-357H404.396V-324.739L321.394 -324.739V-357H320.394V-324.739L237.391 -324.739V-357H236.391V-324.739L153.388 -324.739V-357H152.388V-324.739L69.385 -324.739V-357H68.385V-324.739L-14.6179 -324.739V-357H-15.6179V-324.739L-98.6206 -324.739V-357H-99.6206V-324.739L-182.624 -324.739V-357H-183.624V-324.739L-266.626 -324.739V-357H-267.626V-324.739L-343 -324.739V-323.739L-267.626 -323.739L-267.626 -241.348L-343 -241.348V-240.348L-267.626 -240.348V-157.957L-343 -157.957V-156.957L-267.626 -156.957L-267.626 -74.5652L-343 -74.5652V-73.5652L-267.626 -73.5652L-267.626 8.82611L-343 8.82608V9.82608L-267.626 9.82611V92.2174L-343 92.2174V93.2174L-267.626 93.2174L-267.626 175.609H-343V176.609H-267.626V259H-343V260H-267.626V342.391H-343V343.391H-267.626L-267.626 425.783H-343V426.783H-267.626V509.174H-343V510.174H-267.626L-267.626 592.565H-343V593.565H-267.626L-267.626 675.957H-343V676.957H-267.626V759.348H-343V760.348H-267.626L-267.626 842.739H-343V843.739H-267.626ZM740.408 -323.739L657.405 -323.739V-241.348L740.408 -241.348V-323.739ZM740.408 -240.348L657.405 -240.348V-157.956L740.408 -157.956V-240.348ZM740.408 -156.956L657.405 -156.956V-74.565L740.408 -74.5649V-156.956ZM740.408 -73.5649L657.405 -73.565V8.82632L740.408 8.82635V-73.5649ZM740.408 9.82635L657.405 9.82632V92.2176L740.408 92.2177V9.82635ZM740.408 93.2177L657.405 93.2176V175.609L740.408 175.609V93.2177ZM740.408 176.609L657.405 176.609V259L740.408 259V176.609ZM740.408 260L657.405 260V342.391L740.408 342.392V260ZM740.408 343.392L657.405 343.391V425.783L740.408 425.783V343.392ZM740.408 426.783L657.405 426.783V509.174L740.408 509.174V426.783ZM740.408 510.174L657.405 510.174V592.565L740.408 592.565V510.174ZM740.408 593.565L657.405 593.565V675.957L740.408 675.957V593.565ZM740.408 676.957L657.405 676.957V759.348L740.408 759.348V676.957ZM740.408 760.348L657.405 760.348V842.739L740.408 842.739V760.348ZM656.405 760.348V842.739H573.402V760.348H656.405ZM656.405 676.957V759.348H573.402V676.957H656.405ZM656.405 593.565V675.957H573.402V593.565H656.405ZM656.405 510.174V592.565H573.402V510.174H656.405ZM656.405 426.783V509.174H573.402V426.783H656.405ZM656.405 343.391V425.783H573.402V343.391H656.405ZM656.405 260V342.391H573.402V260H656.405ZM656.405 176.609V259H573.402V176.609H656.405ZM656.405 93.2176V175.609H573.402V93.2176H656.405ZM656.405 9.82632V92.2176H573.402V9.82632H656.405ZM656.405 -73.565V8.82632H573.402V-73.565H656.405ZM656.405 -156.956V-74.565H573.402V-156.956L656.405 -156.956ZM656.405 -240.348V-157.956L573.402 -157.956V-240.348L656.405 -240.348ZM656.405 -323.739V-241.348L573.402 -241.348V-323.739L656.405 -323.739ZM572.402 -323.739L489.399 -323.739V-241.348L572.402 -241.348V-323.739ZM572.402 -240.348L489.399 -240.348V-157.956L572.402 -157.956V-240.348ZM572.402 -156.956L489.399 -156.956V-74.565L572.402 -74.565V-156.956ZM572.402 -73.565L489.399 -73.565V8.82629L572.402 8.82632V-73.565ZM572.402 9.82632L489.399 9.82629V92.2176L572.402 92.2176V9.82632ZM572.402 93.2176L489.399 93.2176V175.609L572.402 175.609V93.2176ZM572.402 176.609L489.399 176.609V259L572.402 259V176.609ZM572.402 260L489.399 260V342.391L572.402 342.391V260ZM572.402 343.391L489.399 343.391V425.783L572.402 425.783V343.391ZM572.402 426.783L489.399 426.783V509.174L572.402 509.174V426.783ZM572.402 510.174L489.399 510.174V592.565L572.402 592.565V510.174ZM572.402 593.565L489.399 593.565V675.957L572.402 675.957V593.565ZM572.402 676.957L489.399 676.957V759.348L572.402 759.348V676.957ZM572.402 760.348L489.399 760.348V842.739L572.402 842.739V760.348ZM488.399 760.348V842.739H405.396V760.348H488.399ZM488.399 676.957V759.348H405.396V676.957H488.399ZM488.399 593.565V675.957H405.396V593.565H488.399ZM488.399 510.174V592.565H405.396V510.174H488.399ZM488.399 426.783V509.174H405.396V426.783H488.399ZM488.399 343.391V425.783H405.396V343.391H488.399ZM488.399 260V342.391H405.396V260H488.399ZM488.399 176.609V259H405.396V176.609H488.399ZM488.399 93.2176V175.609H405.396V93.2176H488.399ZM488.399 9.82629V92.2176H405.396V9.82629H488.399ZM488.399 -73.565V8.82629H405.396V-73.565H488.399ZM488.399 -156.956V-74.565H405.396V-156.956L488.399 -156.956ZM488.399 -240.348V-157.956L405.396 -157.956V-240.348L488.399 -240.348ZM488.399 -323.739V-241.348L405.396 -241.348V-323.739L488.399 -323.739ZM404.396 -323.739L321.394 -323.739V-241.348L404.396 -241.348V-323.739ZM404.396 -240.348L321.394 -240.348V-157.956L404.396 -157.956V-240.348ZM404.396 -156.956L321.394 -156.956V-74.565L404.396 -74.565V-156.956ZM404.396 -73.565L321.394 -73.565V8.82626L404.396 8.82629V-73.565ZM404.396 9.82629L321.394 9.82626V92.2176L404.396 92.2176V9.82629ZM404.396 93.2176L321.394 93.2176V175.609L404.396 175.609V93.2176ZM404.396 176.609L321.394 176.609V259L404.396 259V176.609ZM404.396 260L321.394 260V342.391L404.396 342.391V260ZM404.396 343.391L321.394 343.391V425.783L404.396 425.783V343.391ZM404.396 426.783L321.394 426.783V509.174L404.396 509.174V426.783ZM404.396 510.174L321.394 510.174V592.565L404.396 592.565V510.174ZM404.396 593.565L321.394 593.565V675.957H404.396V593.565ZM404.396 676.957H321.394V759.348H404.396V676.957ZM404.396 760.348H321.394V842.739H404.396V760.348ZM320.394 760.348V842.739H237.391V760.348H320.394ZM320.394 676.957V759.348H237.391V676.957H320.394ZM320.394 593.565V675.957H237.391V593.565H320.394ZM320.394 510.174V592.565H237.391V510.174H320.394ZM320.394 426.783V509.174H237.391V426.783H320.394ZM320.394 343.391V425.783H237.391V343.391H320.394ZM320.394 260V342.391H237.391V260H320.394ZM320.394 176.609V259H237.391V176.609H320.394ZM320.394 93.2176V175.609H237.391V93.2176H320.394ZM320.394 9.82626V92.2176H237.391V9.82626H320.394ZM320.394 -73.565V8.82626H237.391V-73.565H320.394ZM320.394 -156.956V-74.565H237.391V-156.956L320.394 -156.956ZM320.394 -240.348V-157.956L237.391 -157.956V-240.348L320.394 -240.348ZM320.394 -323.739V-241.348L237.391 -241.348V-323.739L320.394 -323.739ZM236.391 -323.739L153.388 -323.739V-241.348L236.391 -241.348V-323.739ZM236.391 -240.348L153.388 -240.348V-157.956L236.391 -157.956V-240.348ZM236.391 -156.956L153.388 -156.956V-74.5651L236.391 -74.565V-156.956ZM236.391 -73.565L153.388 -73.5651L153.388 8.82623L236.391 8.82626V-73.565ZM236.391 9.82626L153.388 9.82623V92.2175L236.391 92.2176V9.82626ZM236.391 93.2176L153.388 93.2175V175.609L236.391 175.609V93.2176ZM236.391 176.609L153.388 176.609V259L236.391 259V176.609ZM236.391 260L153.388 260V342.391L236.391 342.391V260ZM236.391 343.391L153.388 343.391V425.783L236.391 425.783V343.391ZM236.391 426.783L153.388 426.783V509.174L236.391 509.174V426.783ZM236.391 510.174L153.388 510.174L153.388 592.565L236.391 592.565V510.174ZM236.391 593.565L153.388 593.565V675.957H236.391V593.565ZM236.391 676.957H153.388V759.348H236.391V676.957ZM236.391 760.348H153.388V842.739H236.391V760.348ZM152.388 760.348V842.739H69.385V760.348H152.388ZM152.388 676.957V759.348H69.385V676.957H152.388ZM152.388 593.565V675.957H69.385V593.565H152.388ZM152.388 510.174L152.388 592.565H69.385L69.385 510.174H152.388ZM152.388 426.783V509.174H69.385V426.783H152.388ZM152.388 343.391V425.783H69.385V343.391H152.388ZM152.388 260V342.391H69.385V260H152.388ZM152.388 176.609V259H69.385V176.609H152.388ZM152.388 93.2175V175.609H69.385V93.2175H152.388ZM152.388 9.82623V92.2175H69.385V9.82623H152.388ZM152.388 -73.5651L152.388 8.82623H69.385L69.385 -73.5651H152.388ZM152.388 -156.956V-74.5651H69.385V-156.956L152.388 -156.956ZM152.388 -240.348V-157.956L69.385 -157.956V-240.348L152.388 -240.348ZM152.388 -323.739V-241.348L69.385 -241.348V-323.739L152.388 -323.739ZM68.385 -323.739L-14.6179 -323.739V-241.348L68.385 -241.348V-323.739ZM68.385 -240.348L-14.6179 -240.348V-157.956L68.385 -157.956V-240.348ZM68.385 -156.956L-14.6179 -156.956V-74.5651L68.385 -74.5651V-156.956ZM68.385 -73.5651L-14.6179 -73.5651L-14.6179 8.8262L68.385 8.82623L68.385 -73.5651ZM68.385 9.82623L-14.6179 9.8262V92.2175L68.385 92.2175V9.82623ZM68.385 93.2175L-14.6179 93.2175V175.609H68.385V93.2175ZM68.385 176.609H-14.6179V259H68.385V176.609ZM68.385 260H-14.6179V342.391H68.385V260ZM68.385 343.391H-14.6179V425.783H68.385V343.391ZM68.385 426.783H-14.6179V509.174H68.385V426.783ZM68.385 510.174H-14.6179L-14.6178 592.565H68.385L68.385 510.174ZM68.385 593.565H-14.6178V675.957H68.385V593.565ZM68.385 676.957H-14.6178V759.348H68.385V676.957ZM68.385 760.348H-14.6178V842.739H68.385V760.348ZM-15.6178 760.348V842.739H-98.6205V760.348H-15.6178ZM-15.6178 676.957V759.348H-98.6205L-98.6206 676.957H-15.6178ZM-15.6178 593.565V675.957H-98.6206V593.565H-15.6178ZM-15.6179 510.174L-15.6178 592.565H-98.6206V510.174H-15.6179ZM-15.6179 426.783V509.174H-98.6206V426.783H-15.6179ZM-15.6179 343.391V425.783H-98.6206L-98.6206 343.391H-15.6179ZM-15.6179 260V342.391H-98.6206V260H-15.6179ZM-15.6179 176.609V259H-98.6206V176.609H-15.6179ZM-15.6179 93.2175V175.609H-98.6206L-98.6206 93.2175L-15.6179 93.2175ZM-15.6179 9.8262V92.2175L-98.6206 92.2175V9.82617L-15.6179 9.8262ZM-15.6179 -73.5651L-15.6179 8.8262L-98.6206 8.82617V-73.5651L-15.6179 -73.5651ZM-15.6179 -156.956V-74.5651L-98.6206 -74.5651V-156.956L-15.6179 -156.956ZM-15.6179 -240.348V-157.956L-98.6206 -157.956L-98.6206 -240.348L-15.6179 -240.348ZM-15.6179 -323.739V-241.348L-98.6206 -241.348V-323.739L-15.6179 -323.739ZM-99.6206 -323.739L-182.624 -323.739V-241.348L-99.6206 -241.348V-323.739ZM-99.6206 -240.348L-182.624 -240.348L-182.624 -157.956L-99.6206 -157.956L-99.6206 -240.348ZM-99.6206 -156.956L-182.624 -156.956V-74.5652L-99.6206 -74.5651V-156.956ZM-99.6206 -73.5651L-182.624 -73.5652V8.82614L-99.6206 8.82617V-73.5651ZM-99.6206 9.82617L-182.624 9.82614V92.2174L-99.6206 92.2175V9.82617ZM-99.6206 93.2175L-182.624 93.2174L-182.624 175.609H-99.6206L-99.6206 93.2175ZM-99.6206 176.609H-182.624V259H-99.6206V176.609ZM-99.6206 260H-182.624V342.391H-99.6206V260ZM-99.6206 343.391H-182.624L-182.624 425.783H-99.6206L-99.6206 343.391ZM-99.6206 426.783H-182.624V509.174H-99.6206V426.783ZM-99.6206 510.174H-182.624V592.565H-99.6206V510.174ZM-99.6206 593.565H-182.624V675.957H-99.6206V593.565ZM-99.6206 676.957H-182.624L-182.624 759.348H-99.6205L-99.6206 676.957ZM-99.6205 760.348H-182.624V842.739H-99.6205V760.348ZM-183.624 760.348V842.739H-266.626L-266.626 760.348H-183.624ZM-183.624 676.957L-183.624 759.348H-266.626V676.957H-183.624ZM-183.624 593.565V675.957H-266.626L-266.626 593.565H-183.624ZM-183.624 510.174V592.565H-266.626L-266.626 510.174H-183.624ZM-183.624 426.783V509.174H-266.626V426.783H-183.624ZM-183.624 343.391L-183.624 425.783H-266.626L-266.626 343.391H-183.624ZM-183.624 260V342.391H-266.626V260H-183.624ZM-183.624 176.609V259H-266.626V176.609H-183.624ZM-183.624 93.2174L-183.624 175.609H-266.626L-266.626 93.2174L-183.624 93.2174ZM-183.624 9.82614V92.2174L-266.626 92.2174V9.82611L-183.624 9.82614ZM-183.624 -73.5652V8.82614L-266.626 8.82611L-266.626 -73.5652L-183.624 -73.5652ZM-183.624 -156.956V-74.5652L-266.626 -74.5652L-266.626 -156.957L-183.624 -156.956ZM-183.624 -240.348L-183.624 -157.956L-266.626 -157.957V-240.348L-183.624 -240.348ZM-183.624 -323.739V-241.348L-266.626 -241.348L-266.626 -323.739L-183.624 -323.739Z" fill="url(#paint2_radial_765_2143)"/>
<rect x="1316.25" y="332" width="20.1557" height="20.1557" transform="rotate(45 1316.25 332)" fill="white"/>
<rect x="71.2522" y="80" width="20.1557" height="20.1557" transform="rotate(45 71.2522 80)" fill="#B8D0F8"/>
<rect x="776.248" y="47" width="20.1494" height="20.1494" transform="rotate(45 776.248 47)" fill="#B8D0F8"/>
<rect x="409.248" y="715" width="14.674" height="14.674" transform="rotate(45 409.248 715)" fill="#B8D0F8"/>
<circle cx="-0.5" cy="633.5" r="41.5" fill="#D2E2FF"/>
<path d="M1543 751C1543 600.622 1501.65 456.404 1428.04 350.07C1354.43 243.737 1254.6 184 1150.5 184C1046.4 184 946.569 243.737 872.961 350.07C799.353 456.404 758 600.622 758 751L1150.5 751L1543 751Z" fill="url(#paint3_radial_765_2143)"/>
<ellipse cx="1178.5" cy="738.5" rx="271.5" ry="271.5" transform="rotate(-180 1178.5 738.5)" fill="url(#paint4_linear_765_2143)"/>
<circle cx="1277" cy="349" r="42" fill="url(#paint5_linear_765_2143)"/>
<g clip-path="url(#clip1_765_2143)">
<path d="M1449 750.043H759C758.735 750.043 758.48 749.938 758.293 749.75C758.105 749.563 758 749.308 758 749.043C758 748.778 758.105 748.523 758.293 748.336C758.48 748.148 758.735 748.043 759 748.043H1449C1449.27 748.043 1449.52 748.148 1449.71 748.336C1449.89 748.523 1450 748.778 1450 749.043C1450 749.308 1449.89 749.563 1449.71 749.75C1449.52 749.938 1449.27 750.043 1449 750.043Z" fill="#928787"/>
<path d="M1380.7 575.642H974.704C972.98 575.642 971.327 576.326 970.108 577.545C968.889 578.764 968.204 580.418 968.204 582.142C968.204 583.866 968.889 585.519 970.108 586.738C971.327 587.957 972.98 588.642 974.704 588.642H986.204V744.142C986.204 745.866 986.889 747.519 988.108 748.738C989.327 749.957 990.98 750.642 992.704 750.642C994.428 750.642 996.082 749.957 997.301 748.738C998.52 747.519 999.204 745.866 999.204 744.142L999.303 588.642H1355.2V744.142C1355.2 745.866 1355.89 747.519 1357.11 748.738C1358.33 749.957 1359.98 750.642 1361.7 750.642C1363.43 750.642 1365.08 749.957 1366.3 748.738C1367.52 747.519 1368.2 745.866 1368.2 744.142V592.069L1370.1 588.642H1380.7C1382.43 588.642 1384.08 587.957 1385.3 586.738C1386.52 585.519 1387.2 583.866 1387.2 582.142C1387.2 580.418 1386.52 578.764 1385.3 577.545C1384.08 576.326 1382.43 575.642 1380.7 575.642Z" fill="#252525"/>
<path d="M1199.79 579.043H1076.81C1074.43 579.04 1072.15 578.093 1070.46 576.409C1068.78 574.725 1067.83 572.442 1067.83 570.061V502.352C1067.83 499.971 1068.78 497.688 1070.46 496.004C1072.15 494.32 1074.43 493.373 1076.81 493.37H1199.79C1202.18 493.373 1204.46 494.32 1206.14 496.004C1207.83 497.688 1208.77 499.971 1208.78 502.352V570.061C1208.77 572.442 1207.83 574.725 1206.14 576.409C1204.46 578.093 1202.18 579.04 1199.79 579.043Z" fill="#3F3D56"/>
<path d="M1199.79 500.283H1076.81C1076.26 500.284 1075.74 500.503 1075.35 500.891C1074.96 501.279 1074.74 501.805 1074.74 502.353V570.063C1074.74 570.612 1074.96 571.138 1075.35 571.526C1075.74 571.914 1076.26 572.132 1076.81 572.133H1199.79C1200.34 572.132 1200.87 571.914 1201.26 571.526C1201.64 571.138 1201.86 570.612 1201.86 570.063V502.353C1201.86 501.805 1201.64 501.279 1201.26 500.891C1200.87 500.503 1200.34 500.284 1199.79 500.283Z" fill="white"/>
<path d="M1148.79 548.221C1148.79 548.221 1134.07 544.829 1125.97 551.048C1117.88 557.268 1136.28 571.403 1136.28 571.403L1148.79 548.221Z" fill="#2F2E41"/>
<path d="M1139.02 541.811C1146.69 541.811 1152.91 535.594 1152.91 527.924C1152.91 520.255 1146.69 514.037 1139.02 514.037C1131.35 514.037 1125.14 520.255 1125.14 527.924C1125.14 535.594 1131.35 541.811 1139.02 541.811Z" fill="#A0616A"/>
<path d="M1128.29 508.43C1129.21 506.858 1130.55 505.573 1132.16 504.716C1133.78 503.859 1135.59 503.464 1137.41 503.574C1139.32 503.813 1141.18 504.333 1142.93 505.118L1152.01 508.659C1154.35 509.576 1156.93 510.698 1157.95 513.005C1158.89 515.145 1158.19 517.617 1157.47 519.846L1154.08 530.439C1153.7 528.042 1153.05 525.694 1152.15 523.441C1151.23 521.174 1149.58 519.283 1147.45 518.077C1145.09 516.868 1142.31 516.893 1139.66 517.02C1135.91 517.201 1131.84 517.678 1129.17 520.322C1127.76 521.824 1126.8 523.696 1126.41 525.721C1126.02 527.736 1125.83 529.782 1125.83 531.833C1124.29 529.19 1123 526.414 1121.96 523.538C1121.11 521.396 1120.62 519.126 1120.52 516.823C1120.43 514.5 1121.2 512.226 1122.69 510.436C1123.44 509.561 1124.42 508.914 1125.52 508.567C1126.62 508.221 1127.8 508.189 1128.92 508.475L1128.29 508.43Z" fill="#2F2E41"/>
<path d="M1172.18 560.263C1172.05 559.794 1171.79 559.374 1171.42 559.056C1171.05 558.737 1170.6 558.535 1170.11 558.473C1170.08 558.451 1170.05 558.431 1170.01 558.413L1149.28 546.795C1148.69 546.463 1147.99 546.373 1147.34 546.542C1146.68 546.711 1146.11 547.127 1145.75 547.703L1140.08 556.883L1131.54 548.343L1131.41 548.207C1130.97 547.769 1130.39 547.499 1129.77 547.445C1129.16 547.391 1128.54 547.557 1128.03 547.912L1110.99 559.843C1110.96 559.843 1110.93 559.853 1110.9 559.853C1110.09 559.989 1109.34 560.399 1108.79 561.016C1108.24 561.632 1107.92 562.418 1107.87 563.243L1107.43 572.133H1175.47L1172.18 560.263Z" fill="#6C63FF"/>
<path d="M1210.16 570.752H1197.03C1197.03 570.385 1196.88 570.034 1196.63 569.775C1196.37 569.516 1196.02 569.37 1195.65 569.37H1191.5C1191.14 569.37 1190.79 569.516 1190.53 569.775C1190.27 570.034 1190.12 570.385 1190.12 570.752H1185.98C1185.98 570.385 1185.83 570.034 1185.57 569.775C1185.31 569.516 1184.96 569.37 1184.59 569.37H1180.45C1180.08 569.37 1179.73 569.516 1179.47 569.775C1179.21 570.034 1179.07 570.385 1179.07 570.752H1174.92C1174.92 570.385 1174.78 570.034 1174.52 569.775C1174.26 569.516 1173.91 569.37 1173.54 569.37H1169.39C1169.03 569.37 1168.68 569.516 1168.42 569.775C1168.16 570.034 1168.01 570.385 1168.01 570.752H1163.87C1163.87 570.385 1163.72 570.034 1163.46 569.775C1163.2 569.516 1162.85 569.37 1162.48 569.37H1158.34C1157.97 569.37 1157.62 569.516 1157.36 569.775C1157.1 570.034 1156.96 570.385 1156.96 570.752H1152.81C1152.81 570.385 1152.67 570.034 1152.41 569.775C1152.15 569.516 1151.8 569.37 1151.43 569.37H1147.28C1146.92 569.37 1146.57 569.516 1146.31 569.775C1146.05 570.034 1145.9 570.385 1145.9 570.752H1141.76C1141.76 570.385 1141.61 570.034 1141.35 569.775C1141.09 569.516 1140.74 569.37 1140.38 569.37H1136.23C1135.86 569.37 1135.51 569.516 1135.25 569.775C1134.99 570.034 1134.85 570.385 1134.85 570.752H1130.7C1130.7 570.385 1130.56 570.034 1130.3 569.775C1130.04 569.516 1129.69 569.37 1129.32 569.37H1125.18C1124.81 569.37 1124.46 569.516 1124.2 569.775C1123.94 570.034 1123.79 570.385 1123.79 570.752H1119.65C1119.65 570.385 1119.5 570.034 1119.24 569.775C1118.98 569.516 1118.63 569.37 1118.27 569.37H1114.12C1113.75 569.37 1113.4 569.516 1113.14 569.775C1112.89 570.034 1112.74 570.385 1112.74 570.752H1108.59C1108.59 570.385 1108.45 570.034 1108.19 569.775C1107.93 569.516 1107.58 569.37 1107.21 569.37H1103.07C1102.7 569.37 1102.35 569.516 1102.09 569.775C1101.83 570.034 1101.69 570.385 1101.68 570.752H1097.54C1097.54 570.385 1097.39 570.034 1097.13 569.775C1096.88 569.516 1096.52 569.37 1096.16 569.37H1092.01C1091.65 569.37 1091.29 569.516 1091.04 569.775C1090.78 570.034 1090.63 570.385 1090.63 570.752H1086.48C1086.48 570.385 1086.34 570.034 1086.08 569.775C1085.82 569.516 1085.47 569.37 1085.1 569.37H1080.96C1080.59 569.37 1080.24 569.516 1079.98 569.775C1079.72 570.034 1079.58 570.385 1079.58 570.752H1066.45C1065.35 570.754 1064.3 571.191 1063.52 571.968C1062.75 572.746 1062.31 573.799 1062.31 574.897C1062.31 575.996 1062.75 577.049 1063.52 577.826C1064.3 578.604 1065.35 579.041 1066.45 579.043H1210.16C1211.26 579.043 1212.31 578.606 1213.09 577.829C1213.87 577.051 1214.3 575.997 1214.3 574.897C1214.3 573.798 1213.87 572.744 1213.09 571.966C1212.31 571.189 1211.26 570.752 1210.16 570.752Z" fill="#3F3D56"/>
<path d="M1045.08 546.678V574.204H976.117C974.269 574.268 972.427 573.96 970.702 573.297C968.976 572.635 967.401 571.631 966.071 570.347C964.741 569.062 963.684 567.523 962.961 565.822C962.239 564.12 961.867 562.29 961.867 560.441C961.867 558.592 962.239 556.762 962.961 555.061C963.684 553.359 964.741 551.82 966.071 550.536C967.401 549.251 968.976 548.248 970.702 547.585C972.427 546.922 974.269 546.614 976.117 546.678H1045.08Z" fill="#F2F2F2"/>
<path d="M1046.77 573.992C1046.77 574.273 1046.66 574.542 1046.46 574.741C1046.26 574.939 1045.99 575.051 1045.71 575.051H974.888C971.042 575.051 967.353 573.523 964.633 570.803C961.913 568.083 960.385 564.394 960.385 560.547C960.385 556.7 961.913 553.011 964.633 550.291C967.353 547.571 971.042 546.043 974.888 546.043H1045.71C1046 546.043 1046.26 546.155 1046.46 546.353C1046.66 546.552 1046.77 546.821 1046.77 547.102C1046.77 547.382 1046.66 547.652 1046.46 547.85C1046.26 548.049 1046 548.16 1045.71 548.16H974.888C971.605 548.163 968.458 549.47 966.137 551.792C963.816 554.115 962.513 557.264 962.513 560.547C962.513 563.83 963.816 566.979 966.137 569.302C968.458 571.624 971.605 572.931 974.888 572.933H1045.71C1045.99 572.934 1046.26 573.045 1046.46 573.244C1046.66 573.442 1046.77 573.711 1046.77 573.992Z" fill="#6C63FF"/>
<path d="M1045.08 553.03H970.971C970.943 553.031 970.916 553.025 970.89 553.015C970.864 553.004 970.841 552.989 970.821 552.969C970.801 552.949 970.785 552.926 970.774 552.9C970.764 552.874 970.758 552.847 970.758 552.819C970.758 552.791 970.764 552.763 970.774 552.737C970.785 552.712 970.801 552.688 970.821 552.668C970.841 552.649 970.864 552.633 970.89 552.623C970.916 552.612 970.943 552.607 970.971 552.607H1045.08C1045.13 552.607 1045.19 552.63 1045.23 552.669C1045.27 552.709 1045.29 552.763 1045.29 552.819C1045.29 552.875 1045.27 552.928 1045.23 552.968C1045.19 553.008 1045.13 553.03 1045.08 553.03Z" fill="#252525"/>
<path d="M1045.08 558.112H970.971C970.943 558.112 970.916 558.107 970.89 558.096C970.864 558.086 970.841 558.07 970.821 558.05C970.801 558.031 970.785 558.007 970.774 557.982C970.764 557.956 970.758 557.928 970.758 557.9C970.758 557.872 970.764 557.845 970.774 557.819C970.785 557.793 970.801 557.77 970.821 557.75C970.841 557.73 970.864 557.715 970.89 557.704C970.916 557.694 970.943 557.688 970.971 557.688H1045.08C1045.13 557.689 1045.19 557.711 1045.23 557.751C1045.27 557.791 1045.29 557.844 1045.29 557.9C1045.29 557.956 1045.27 558.01 1045.23 558.049C1045.19 558.089 1045.13 558.112 1045.08 558.112Z" fill="#252525"/>
<path d="M1045.08 563.194H970.971C970.943 563.194 970.916 563.189 970.89 563.178C970.864 563.168 970.841 563.152 970.821 563.132C970.801 563.113 970.785 563.089 970.774 563.064C970.764 563.038 970.758 563.01 970.758 562.982C970.758 562.954 970.764 562.927 970.774 562.901C970.785 562.875 970.801 562.852 970.821 562.832C970.841 562.812 970.864 562.797 970.89 562.786C970.916 562.776 970.943 562.77 970.971 562.771H1045.08C1045.13 562.771 1045.19 562.793 1045.23 562.833C1045.27 562.873 1045.29 562.926 1045.29 562.982C1045.29 563.038 1045.27 563.092 1045.23 563.131C1045.19 563.171 1045.13 563.194 1045.08 563.194Z" fill="#252525"/>
<path d="M1045.08 568.276H970.971C970.943 568.276 970.916 568.27 970.89 568.26C970.864 568.249 970.841 568.234 970.821 568.214C970.801 568.194 970.785 568.171 970.774 568.145C970.764 568.119 970.758 568.092 970.758 568.064C970.758 568.036 970.764 568.008 970.774 567.982C970.785 567.957 970.801 567.933 970.821 567.914C970.841 567.894 970.864 567.878 970.89 567.868C970.916 567.857 970.943 567.852 970.971 567.852H1045.08C1045.13 567.852 1045.19 567.875 1045.23 567.915C1045.27 567.954 1045.29 568.008 1045.29 568.064C1045.29 568.12 1045.27 568.173 1045.23 568.213C1045.19 568.253 1045.13 568.275 1045.08 568.276Z" fill="#252525"/>
<path d="M1032.08 517.678V545.204H963.117C961.269 545.268 959.427 544.96 957.702 544.297C955.976 543.634 954.401 542.631 953.071 541.347C951.741 540.062 950.684 538.523 949.961 536.822C949.239 535.12 948.867 533.29 948.867 531.441C948.867 529.592 949.239 527.762 949.961 526.061C950.684 524.359 951.741 522.82 953.071 521.536C954.401 520.251 955.976 519.248 957.702 518.585C959.427 517.922 961.269 517.614 963.117 517.678H1032.08Z" fill="#F2F2F2"/>
<path d="M1033.77 544.992C1033.77 545.273 1033.66 545.542 1033.46 545.741C1033.26 545.939 1032.99 546.051 1032.71 546.051H961.888C959.984 546.051 958.098 545.676 956.338 544.947C954.578 544.218 952.979 543.15 951.633 541.803C950.286 540.456 949.217 538.857 948.489 537.097C947.76 535.338 947.385 533.452 947.385 531.547C947.385 529.642 947.76 527.756 948.489 525.996C949.217 524.237 950.286 522.638 951.633 521.291C952.979 519.944 954.578 518.876 956.338 518.147C958.098 517.418 959.984 517.043 961.888 517.043H1032.71C1033 517.043 1033.26 517.155 1033.46 517.353C1033.66 517.552 1033.77 517.821 1033.77 518.102C1033.77 518.382 1033.66 518.652 1033.46 518.85C1033.26 519.049 1033 519.16 1032.71 519.16H961.888C958.605 519.163 955.458 520.47 953.137 522.792C950.816 525.115 949.513 528.264 949.513 531.547C949.513 534.83 950.816 537.979 953.137 540.302C955.458 542.624 958.605 543.931 961.888 543.933H1032.71C1032.99 543.934 1033.26 544.045 1033.46 544.244C1033.66 544.442 1033.77 544.711 1033.77 544.992Z" fill="#3F3D56"/>
<path d="M1032.08 524.03H957.971C957.943 524.031 957.916 524.025 957.89 524.015C957.864 524.004 957.841 523.989 957.821 523.969C957.801 523.949 957.785 523.926 957.774 523.9C957.764 523.874 957.758 523.847 957.758 523.819C957.758 523.791 957.764 523.763 957.774 523.737C957.785 523.712 957.801 523.688 957.821 523.668C957.841 523.649 957.864 523.633 957.89 523.623C957.916 523.612 957.943 523.607 957.971 523.607H1032.08C1032.13 523.607 1032.19 523.63 1032.23 523.669C1032.27 523.709 1032.29 523.763 1032.29 523.819C1032.29 523.875 1032.27 523.928 1032.23 523.968C1032.19 524.008 1032.13 524.03 1032.08 524.03Z" fill="#252525"/>
<path d="M1032.08 529.112H957.971C957.943 529.112 957.916 529.107 957.89 529.096C957.864 529.086 957.841 529.07 957.821 529.05C957.801 529.031 957.785 529.007 957.774 528.982C957.764 528.956 957.758 528.928 957.758 528.9C957.758 528.872 957.764 528.845 957.774 528.819C957.785 528.793 957.801 528.77 957.821 528.75C957.841 528.73 957.864 528.715 957.89 528.704C957.916 528.694 957.943 528.688 957.971 528.688H1032.08C1032.13 528.689 1032.19 528.711 1032.23 528.751C1032.27 528.791 1032.29 528.844 1032.29 528.9C1032.29 528.956 1032.27 529.01 1032.23 529.049C1032.19 529.089 1032.13 529.112 1032.08 529.112Z" fill="#252525"/>
<path d="M1032.08 534.194H957.971C957.943 534.194 957.916 534.189 957.89 534.178C957.864 534.168 957.841 534.152 957.821 534.132C957.801 534.113 957.785 534.089 957.774 534.064C957.764 534.038 957.758 534.01 957.758 533.982C957.758 533.954 957.764 533.927 957.774 533.901C957.785 533.875 957.801 533.852 957.821 533.832C957.841 533.812 957.864 533.797 957.89 533.786C957.916 533.776 957.943 533.77 957.971 533.771H1032.08C1032.13 533.771 1032.19 533.793 1032.23 533.833C1032.27 533.873 1032.29 533.926 1032.29 533.982C1032.29 534.038 1032.27 534.092 1032.23 534.131C1032.19 534.171 1032.13 534.194 1032.08 534.194Z" fill="#252525"/>
<path d="M1032.08 539.276H957.971C957.943 539.276 957.916 539.27 957.89 539.26C957.864 539.249 957.841 539.234 957.821 539.214C957.801 539.194 957.785 539.171 957.774 539.145C957.764 539.119 957.758 539.092 957.758 539.064C957.758 539.036 957.764 539.008 957.774 538.982C957.785 538.957 957.801 538.933 957.821 538.914C957.841 538.894 957.864 538.878 957.89 538.868C957.916 538.857 957.943 538.852 957.971 538.852H1032.08C1032.13 538.852 1032.19 538.875 1032.23 538.915C1032.27 538.954 1032.29 539.008 1032.29 539.064C1032.29 539.12 1032.27 539.173 1032.23 539.213C1032.19 539.253 1032.13 539.275 1032.08 539.276Z" fill="#252525"/>
<path d="M1112.3 672.043V648.043C1112.3 646.982 1111.88 645.965 1111.13 645.215C1110.38 644.464 1109.36 644.043 1108.3 644.043H1017.3C1016.24 644.043 1015.22 644.464 1014.47 645.215C1013.72 645.965 1013.3 646.982 1013.3 648.043V672.043H1112.3Z" fill="#252525"/>
<path d="M1112.3 681.043H1013.3V712.043H1112.3V681.043Z" fill="#252525"/>
<path d="M1013.3 721.043V745.043C1013.3 746.104 1013.72 747.121 1014.47 747.871C1015.22 748.621 1016.24 749.043 1017.3 749.043H1108.3C1109.36 749.043 1110.38 748.621 1111.13 747.871C1111.88 747.121 1112.3 746.104 1112.3 745.043V721.043H1013.3Z" fill="#252525"/>
<path d="M1062.3 662.043C1063.96 662.043 1065.3 660.7 1065.3 659.043C1065.3 657.386 1063.96 656.043 1062.3 656.043C1060.65 656.043 1059.3 657.386 1059.3 659.043C1059.3 660.7 1060.65 662.043 1062.3 662.043Z" fill="white"/>
<path d="M1062.3 702.043C1063.96 702.043 1065.3 700.7 1065.3 699.043C1065.3 697.386 1063.96 696.043 1062.3 696.043C1060.65 696.043 1059.3 697.386 1059.3 699.043C1059.3 700.7 1060.65 702.043 1062.3 702.043Z" fill="white"/>
<path d="M1062.46 741.196C1064.12 741.196 1065.46 739.853 1065.46 738.196C1065.46 736.539 1064.12 735.196 1062.46 735.196C1060.81 735.196 1059.46 736.539 1059.46 738.196C1059.46 739.853 1060.81 741.196 1062.46 741.196Z" fill="white"/>
<path d="M1101.08 616.678V644.204H1032.12C1030.27 644.268 1028.43 643.96 1026.7 643.297C1024.98 642.635 1023.4 641.631 1022.07 640.347C1020.74 639.062 1019.68 637.523 1018.96 635.822C1018.24 634.12 1017.87 632.29 1017.87 630.441C1017.87 628.592 1018.24 626.763 1018.96 625.061C1019.68 623.359 1020.74 621.82 1022.07 620.536C1023.4 619.251 1024.98 618.248 1026.7 617.585C1028.43 616.922 1030.27 616.614 1032.12 616.678H1101.08Z" fill="#F2F2F2"/>
<path d="M1102.77 643.992C1102.77 644.273 1102.66 644.542 1102.46 644.741C1102.26 644.939 1102 645.051 1101.71 645.051H1030.89C1028.98 645.052 1027.1 644.678 1025.33 643.95C1023.57 643.222 1021.97 642.154 1020.62 640.807C1019.28 639.46 1018.21 637.861 1017.48 636.1C1016.75 634.34 1016.37 632.453 1016.37 630.547C1016.37 628.641 1016.75 626.754 1017.48 624.994C1018.21 623.233 1019.28 621.634 1020.62 620.287C1021.97 618.94 1023.57 617.872 1025.33 617.144C1027.1 616.415 1028.98 616.041 1030.89 616.043H1101.71C1102 616.043 1102.26 616.154 1102.46 616.353C1102.66 616.552 1102.77 616.821 1102.77 617.102C1102.77 617.382 1102.66 617.652 1102.46 617.85C1102.26 618.049 1102 618.16 1101.71 618.16H1030.89C1027.61 618.163 1024.46 619.47 1022.14 621.792C1019.82 624.115 1018.51 627.264 1018.51 630.547C1018.51 633.83 1019.82 636.979 1022.14 639.302C1024.46 641.624 1027.61 642.931 1030.89 642.933H1101.71C1102 642.934 1102.26 643.045 1102.46 643.244C1102.66 643.442 1102.77 643.711 1102.77 643.992Z" fill="#3F3D56"/>
<path d="M1101.08 623.03H1026.97C1026.94 623.031 1026.92 623.025 1026.89 623.015C1026.86 623.004 1026.84 622.989 1026.82 622.969C1026.8 622.949 1026.79 622.926 1026.77 622.9C1026.76 622.874 1026.76 622.847 1026.76 622.819C1026.76 622.791 1026.76 622.763 1026.77 622.737C1026.79 622.712 1026.8 622.688 1026.82 622.668C1026.84 622.649 1026.86 622.633 1026.89 622.623C1026.92 622.612 1026.94 622.607 1026.97 622.607H1101.08C1101.13 622.607 1101.19 622.63 1101.23 622.669C1101.27 622.709 1101.29 622.763 1101.29 622.819C1101.29 622.875 1101.27 622.928 1101.23 622.968C1101.19 623.008 1101.13 623.03 1101.08 623.03Z" fill="#252525"/>
<path d="M1101.08 628.112H1026.97C1026.94 628.112 1026.92 628.107 1026.89 628.096C1026.86 628.086 1026.84 628.07 1026.82 628.05C1026.8 628.031 1026.79 628.007 1026.77 627.982C1026.76 627.956 1026.76 627.928 1026.76 627.9C1026.76 627.872 1026.76 627.845 1026.77 627.819C1026.79 627.793 1026.8 627.77 1026.82 627.75C1026.84 627.73 1026.86 627.715 1026.89 627.704C1026.92 627.694 1026.94 627.688 1026.97 627.688H1101.08C1101.13 627.689 1101.19 627.711 1101.23 627.751C1101.27 627.791 1101.29 627.844 1101.29 627.9C1101.29 627.956 1101.27 628.01 1101.23 628.049C1101.19 628.089 1101.13 628.112 1101.08 628.112Z" fill="#252525"/>
<path d="M1101.08 633.194H1026.97C1026.94 633.194 1026.92 633.189 1026.89 633.178C1026.86 633.168 1026.84 633.152 1026.82 633.132C1026.8 633.113 1026.79 633.089 1026.77 633.064C1026.76 633.038 1026.76 633.01 1026.76 632.982C1026.76 632.954 1026.76 632.927 1026.77 632.901C1026.79 632.875 1026.8 632.852 1026.82 632.832C1026.84 632.812 1026.86 632.797 1026.89 632.786C1026.92 632.776 1026.94 632.77 1026.97 632.771H1101.08C1101.13 632.771 1101.19 632.793 1101.23 632.833C1101.27 632.873 1101.29 632.926 1101.29 632.982C1101.29 633.038 1101.27 633.092 1101.23 633.131C1101.19 633.171 1101.13 633.194 1101.08 633.194Z" fill="#252525"/>
<path d="M1101.08 638.276H1026.97C1026.94 638.276 1026.92 638.27 1026.89 638.26C1026.86 638.249 1026.84 638.234 1026.82 638.214C1026.8 638.194 1026.79 638.171 1026.77 638.145C1026.76 638.119 1026.76 638.092 1026.76 638.064C1026.76 638.036 1026.76 638.008 1026.77 637.982C1026.79 637.957 1026.8 637.933 1026.82 637.914C1026.84 637.894 1026.86 637.878 1026.89 637.868C1026.92 637.857 1026.94 637.852 1026.97 637.852H1101.08C1101.13 637.852 1101.19 637.875 1101.23 637.915C1101.27 637.954 1101.29 638.008 1101.29 638.064C1101.29 638.12 1101.27 638.173 1101.23 638.213C1101.19 638.253 1101.13 638.275 1101.08 638.276Z" fill="#252525"/>
<path d="M1008.11 437.021V261.521C1008.11 259.527 1008.91 257.616 1010.32 256.205C1011.73 254.795 1013.64 254.002 1015.63 254H1154.36C1156.35 254.002 1158.27 254.795 1159.68 256.206C1161.09 257.616 1161.88 259.527 1161.88 261.521V437.021C1161.88 439.016 1161.09 440.927 1159.68 442.337C1158.27 443.747 1156.35 444.541 1154.36 444.543H1015.63C1013.64 444.541 1011.73 443.747 1010.32 442.337C1008.91 440.927 1008.11 439.016 1008.11 437.021ZM1015.63 255.671C1014.08 255.673 1012.59 256.29 1011.5 257.387C1010.4 258.483 1009.78 259.97 1009.78 261.521V437.021C1009.78 438.572 1010.4 440.059 1011.5 441.156C1012.59 442.253 1014.08 442.87 1015.63 442.871H1154.36C1155.91 442.87 1157.4 442.253 1158.49 441.156C1159.59 440.059 1160.21 438.572 1160.21 437.021V261.521C1160.21 259.97 1159.59 258.483 1158.49 257.387C1157.4 256.29 1155.91 255.673 1154.36 255.671H1015.63Z" fill="white"/>
<path d="M1092.78 334.598V298.562C1092.78 297.565 1093.17 296.609 1093.88 295.904C1094.58 295.199 1095.54 294.802 1096.54 294.801H1127.07C1128.07 294.802 1129.03 295.199 1129.73 295.904C1130.44 296.609 1130.83 297.565 1130.83 298.562V334.598C1130.83 335.595 1130.44 336.551 1129.73 337.256C1129.03 337.961 1128.07 338.357 1127.07 338.358H1096.54C1095.54 338.357 1094.58 337.961 1093.88 337.256C1093.17 336.551 1092.78 335.595 1092.78 334.598Z" fill="#6C63FF"/>
<path d="M1033.44 351.312V315.276C1033.44 314.279 1033.84 313.323 1034.54 312.618C1035.25 311.913 1036.2 311.517 1037.2 311.516H1067.74C1068.73 311.517 1069.69 311.913 1070.4 312.618C1071.1 313.323 1071.5 314.279 1071.5 315.276V351.312C1071.5 352.309 1071.1 353.265 1070.4 353.97C1069.69 354.675 1068.73 355.072 1067.74 355.073H1037.2C1036.2 355.072 1035.25 354.675 1034.54 353.97C1033.84 353.265 1033.44 352.309 1033.44 351.312Z" fill="#252525"/>
<path d="M1081.08 402.291V366.255C1081.08 365.258 1081.47 364.302 1082.18 363.597C1082.88 362.892 1083.84 362.495 1084.84 362.494H1115.37C1116.37 362.495 1117.33 362.892 1118.03 363.597C1118.74 364.302 1119.13 365.258 1119.13 366.255V402.291C1119.13 403.288 1118.74 404.244 1118.03 404.949C1117.33 405.654 1116.37 406.05 1115.37 406.051H1084.84C1083.84 406.05 1082.88 405.654 1082.18 404.949C1081.47 404.244 1081.08 403.288 1081.08 402.291Z" fill="#FF6584"/>
<path d="M1263.56 567.043H1232.14C1231.84 567.043 1231.55 567.111 1231.28 567.243L1223.35 571.213C1223.09 571.324 1222.87 571.509 1222.71 571.746C1222.56 571.982 1222.47 572.26 1222.47 572.543C1222.47 572.827 1222.56 573.104 1222.71 573.341C1222.87 573.577 1223.09 573.762 1223.35 573.873L1231.28 577.843C1231.55 577.975 1231.84 578.044 1232.14 578.043H1263.56C1264 578.068 1264.42 577.922 1264.75 577.635C1265.07 577.349 1265.27 576.946 1265.3 576.513V568.573C1265.27 568.141 1265.07 567.738 1264.75 567.451C1264.42 567.165 1264 567.018 1263.56 567.043Z" fill="#3F3D56"/>
<path d="M1265.3 568.573V576.513C1265.27 576.945 1265.07 577.349 1264.75 577.635C1264.42 577.921 1264 578.068 1263.56 578.043H1257.3V567.043H1263.56C1264 567.018 1264.42 567.164 1264.75 567.451C1265.07 567.737 1265.27 568.14 1265.3 568.573Z" fill="#6C63FF"/>
<path d="M1263.33 507.643C1264.75 507.029 1266.29 506.722 1267.84 506.743C1269.39 506.764 1270.91 507.113 1272.32 507.766C1273.73 508.418 1274.98 509.361 1275.99 510.531C1277.01 511.702 1277.77 513.074 1278.22 514.557C1278.36 515.028 1278.46 515.507 1278.54 515.992L1322.48 537.78L1332.64 531.042L1345.3 545.607L1329.77 558.217C1327.9 559.722 1325.6 560.584 1323.2 560.677C1320.81 560.769 1318.45 560.086 1316.47 558.73L1271.89 527.902C1271.56 528.043 1271.22 528.166 1270.87 528.272C1269.39 528.721 1267.83 528.851 1266.29 528.654C1264.75 528.457 1263.27 527.937 1261.95 527.129C1260.63 526.321 1259.49 525.242 1258.61 523.964C1257.74 522.686 1257.14 521.236 1256.86 519.711C1256.78 519.269 1256.73 518.821 1256.7 518.372C1256.58 516.121 1257.15 513.886 1258.33 511.968C1259.51 510.05 1261.26 508.54 1263.33 507.643Z" fill="#FFB8B8"/>
<path d="M1354.84 641.792H1306.83C1306.83 643.172 1257.35 644.292 1257.35 644.292C1256.57 644.876 1255.87 645.547 1255.24 646.292C1253.36 648.533 1252.33 651.366 1252.34 654.292V656.292C1252.34 659.606 1253.66 662.785 1256 665.129C1258.35 667.473 1261.53 668.79 1264.84 668.792H1354.84C1358.16 668.789 1361.33 667.471 1363.68 665.127C1366.02 662.784 1367.34 659.606 1367.34 656.292V654.292C1367.34 650.978 1366.02 647.801 1363.67 645.458C1361.33 643.115 1358.15 641.796 1354.84 641.792Z" fill="#3F3D56"/>
<path d="M1302.62 752.295H1315.62V668.295H1302.62V752.295Z" fill="#3F3D56"/>
<path d="M1265.62 751.838C1265.62 753.243 1285.32 752.382 1309.62 752.382C1333.92 752.382 1353.62 753.243 1353.62 751.838C1353.62 750.434 1333.92 739.295 1309.62 739.295C1285.32 739.295 1265.62 750.434 1265.62 751.838Z" fill="#3F3D56"/>
<path d="M1277.35 741.993L1265.09 741.992L1259.26 710.195L1277.35 710.196L1277.35 741.993Z" fill="#FFB8B8"/>
<path d="M1280.48 753.877L1240.95 753.875V753.375C1240.95 751.355 1241.35 749.354 1242.12 747.487C1242.89 745.621 1244.03 743.924 1245.46 742.496C1246.88 741.067 1248.58 739.934 1250.45 739.16C1252.31 738.387 1254.32 737.989 1256.34 737.989H1256.34L1280.48 737.99L1280.48 753.877Z" fill="#2F2E41"/>
<path d="M1259.02 722.275L1234.58 667.467C1232.54 662.848 1232.31 657.629 1233.94 652.851C1235.58 648.073 1238.95 644.085 1243.39 641.683L1296.41 613.255L1320.6 611.198L1342.91 609.169L1343.07 609.442C1343.28 609.79 1348.08 618.077 1344.83 627.164C1342.37 634.056 1335.98 639.44 1325.82 643.166C1302.1 651.861 1274.71 659.293 1264.03 662.084C1263.56 662.204 1263.12 662.423 1262.74 662.727C1262.35 663.03 1262.04 663.411 1261.82 663.843C1261.59 664.271 1261.46 664.74 1261.43 665.222C1261.39 665.704 1261.46 666.187 1261.62 666.642L1284.33 717.657C1284.57 718.304 1284.65 718.997 1284.58 719.682C1284.51 720.367 1284.28 721.026 1283.91 721.609C1283.54 722.192 1283.04 722.682 1282.46 723.042C1281.87 723.402 1281.21 723.622 1280.52 723.686L1263.55 724.921C1263.41 724.935 1263.27 724.942 1263.12 724.942C1262.25 724.942 1261.4 724.69 1260.67 724.216C1259.95 723.743 1259.37 723.069 1259.02 722.275Z" fill="#2F2E41"/>
<path d="M1283.35 741.993L1271.09 741.992L1265.26 710.195L1283.35 710.196L1283.35 741.993Z" fill="#FFB8B8"/>
<path d="M1286.48 753.877L1246.95 753.875V753.375C1246.95 751.355 1247.35 749.354 1248.12 747.487C1248.89 745.621 1250.03 743.924 1251.46 742.496C1252.88 741.067 1254.58 739.934 1256.45 739.16C1258.31 738.387 1260.32 737.989 1262.34 737.989H1262.34L1286.48 737.99L1286.48 753.877Z" fill="#2F2E41"/>
<path d="M1266.02 725.275L1241.58 670.467C1239.54 665.848 1239.31 660.629 1240.94 655.851C1242.58 651.073 1245.95 647.085 1250.39 644.683L1303.41 616.255L1327.6 614.198L1349.91 612.169L1350.07 612.442C1350.28 612.79 1355.08 621.077 1351.83 630.164C1349.37 637.056 1342.98 642.44 1332.82 646.166C1309.1 654.861 1281.71 662.293 1271.03 665.084C1270.56 665.204 1270.12 665.423 1269.74 665.727C1269.35 666.03 1269.04 666.411 1268.82 666.843C1268.59 667.271 1268.46 667.74 1268.43 668.222C1268.39 668.704 1268.46 669.187 1268.62 669.642L1291.33 720.657C1291.57 721.304 1291.65 721.997 1291.58 722.682C1291.51 723.367 1291.28 724.026 1290.91 724.609C1290.54 725.192 1290.04 725.682 1289.46 726.042C1288.87 726.402 1288.21 726.622 1287.52 726.686L1270.55 727.921C1270.41 727.935 1270.27 727.942 1270.12 727.942C1269.25 727.942 1268.4 727.69 1267.67 727.216C1266.95 726.743 1266.37 726.069 1266.02 725.275Z" fill="#2F2E41"/>
<path d="M1253.83 557.844C1243.56 544.183 1235.44 529.03 1229.76 512.912C1229.43 511.948 1229.45 510.899 1229.83 509.95C1230.2 509.002 1230.89 508.216 1231.79 507.733L1266.94 488.901C1267.5 488.594 1268.14 488.421 1268.78 488.395C1269.43 488.369 1270.07 488.49 1270.66 488.75C1271.26 489.012 1271.8 489.408 1272.23 489.908C1272.65 490.407 1272.96 490.998 1273.12 491.634C1277.21 507.166 1284.9 521.516 1295.57 533.525C1296.01 534.014 1296.33 534.596 1296.51 535.228C1296.69 535.86 1296.72 536.525 1296.61 537.171C1296.5 537.808 1296.24 538.411 1295.86 538.934C1295.48 539.457 1294.99 539.886 1294.42 540.19L1259.27 559.021C1258.37 559.501 1257.33 559.645 1256.34 559.43C1255.34 559.214 1254.45 558.652 1253.83 557.844Z" fill="#252525"/>
<path d="M1256.23 556.042C1256.42 556.278 1256.69 556.441 1256.98 556.502C1257.28 556.563 1257.59 556.519 1257.85 556.377L1293 537.545C1293.17 537.456 1293.32 537.329 1293.43 537.173C1293.55 537.018 1293.62 536.838 1293.65 536.648C1293.69 536.448 1293.68 536.242 1293.62 536.046C1293.57 535.85 1293.47 535.67 1293.33 535.52C1282.35 523.158 1274.43 508.385 1270.22 492.395C1270.17 492.198 1270.08 492.014 1269.95 491.859C1269.82 491.704 1269.65 491.581 1269.46 491.5C1269.29 491.422 1269.1 491.385 1268.9 491.393C1268.71 491.401 1268.52 491.453 1268.35 491.546L1233.21 510.378C1232.94 510.521 1232.73 510.754 1232.62 511.034C1232.51 511.315 1232.5 511.626 1232.59 511.915C1238.17 527.744 1246.15 542.625 1256.23 556.042Z" fill="white"/>
<path d="M1370.59 552.821L1343.07 563.28L1336.35 544.614C1335.46 542.135 1335.47 539.421 1336.38 536.95C1337.3 534.48 1339.06 532.413 1341.35 531.114C1343.67 529.8 1346.38 529.359 1349 529.87C1351.61 530.38 1353.96 531.809 1355.61 533.899L1370.59 552.821Z" fill="#6C63FF"/>
<path d="M1300.58 626.781C1300 626.371 1299.52 625.843 1299.16 625.231C1298.8 624.619 1298.57 623.937 1298.5 623.232C1294.97 590.322 1297.43 564.568 1306.01 544.497C1307.52 541.035 1309.79 537.961 1312.66 535.505C1315.53 533.049 1318.92 531.275 1322.57 530.317L1344.82 529.194L1344.94 529.25C1349.96 531.709 1354.05 535.721 1356.61 540.69C1359.17 545.66 1360.07 551.322 1359.16 556.838C1352 575.702 1346.01 595.341 1350.58 611.185C1350.77 611.847 1350.82 612.541 1350.74 613.226C1350.66 613.91 1350.44 614.571 1350.09 615.168C1349.76 615.745 1349.31 616.248 1348.77 616.645C1348.24 617.042 1347.63 617.325 1346.98 617.477L1304.6 627.558C1303.91 627.721 1303.2 627.736 1302.51 627.602C1301.81 627.468 1301.16 627.188 1300.58 626.781Z" fill="#6C63FF"/>
<path d="M1337.4 520.884C1350.96 520.884 1361.96 509.888 1361.96 496.323C1361.96 482.759 1350.96 471.762 1337.4 471.762C1323.83 471.762 1312.83 482.759 1312.83 496.323C1312.83 509.888 1323.83 520.884 1337.4 520.884Z" fill="#FFB8B8"/>
<path d="M1269.24 515.776L1250.1 524.226C1249.37 524.546 1248.55 524.565 1247.81 524.278C1247.07 523.99 1246.47 523.42 1246.15 522.693L1245.67 521.62C1245.35 520.892 1245.33 520.067 1245.62 519.325C1245.91 518.584 1246.48 517.986 1247.21 517.664L1266.35 509.215C1267.08 508.894 1267.9 508.876 1268.64 509.163C1269.38 509.451 1269.98 510.021 1270.3 510.748L1270.78 511.82C1271.1 512.548 1271.12 513.374 1270.83 514.115C1270.54 514.857 1269.97 515.454 1269.24 515.776Z" fill="#252525"/>
<path d="M1276.24 528.776L1257.1 537.226C1256.37 537.546 1255.55 537.565 1254.81 537.278C1254.07 536.99 1253.47 536.42 1253.15 535.693L1252.67 534.62C1252.35 533.892 1252.33 533.067 1252.62 532.325C1252.91 531.584 1253.48 530.986 1254.21 530.664L1273.35 522.215C1274.08 521.894 1274.9 521.876 1275.64 522.163C1276.38 522.451 1276.98 523.021 1277.3 523.748L1277.78 524.82C1278.1 525.548 1278.12 526.374 1277.83 527.115C1277.54 527.857 1276.97 528.454 1276.24 528.776Z" fill="#252525"/>
<path d="M1291 579.553L1248.33 545.887C1247.99 546.007 1247.64 546.109 1247.29 546.193C1245.79 546.545 1244.22 546.577 1242.71 546.285C1241.19 545.994 1239.75 545.386 1238.48 544.502C1237.2 543.616 1236.13 542.468 1235.33 541.135C1234.53 539.801 1234.03 538.312 1233.85 536.768C1233.56 534.3 1234.12 531.807 1235.43 529.694C1236.74 527.582 1238.72 525.973 1241.06 525.13C1242.52 524.607 1244.07 524.398 1245.62 524.516C1247.16 524.635 1248.67 525.079 1250.03 525.819C1251.39 526.559 1252.58 527.578 1253.52 528.81C1254.46 530.042 1255.13 531.459 1255.49 532.967C1255.6 533.446 1255.67 533.931 1255.71 534.42L1298.2 558.927L1308.77 552.84L1320.48 568.172L1304.06 579.872C1302.14 581.23 1299.83 581.933 1297.48 581.875C1295.13 581.818 1292.86 581.004 1291 579.553Z" fill="#FFB8B8"/>
<path d="M1325.69 572.947L1301.34 556.39L1312.78 540.183C1314.3 538.031 1316.53 536.486 1319.08 535.819C1321.63 535.153 1324.33 535.41 1326.71 536.543C1329.11 537.69 1331.03 539.659 1332.11 542.095C1333.19 544.531 1333.37 547.273 1332.6 549.826L1325.69 572.947Z" fill="#6C63FF"/>
<path d="M1328.39 492.665C1322.08 496.986 1313.79 501.427 1307.34 496.826C1303.11 493.805 1301.77 488.21 1303.49 483.301C1306.58 474.472 1315.06 470.586 1323.17 467.606C1333.72 463.733 1345.2 460.652 1356.08 463.426C1366.97 466.199 1376.59 476.739 1374.62 487.799C1373.04 496.693 1364.65 504.094 1365.84 513.048C1367.04 522.06 1377.18 526.804 1386.13 528.415C1395.07 530.026 1405.09 530.543 1411.52 536.97C1419.72 545.169 1417.67 559.823 1409.95 568.48C1402.23 577.136 1390.59 581.06 1379.3 583.727C1364.34 587.261 1348.17 589.119 1333.97 583.253C1319.76 577.388 1308.71 561.599 1312.83 546.794C1314.56 540.54 1318.66 535.255 1322.61 530.109C1326.57 524.964 1330.58 519.583 1332.09 513.27C1333.34 508.01 1332.41 501.902 1328.92 497.955C1328.29 497.265 1327.89 496.391 1327.78 495.459C1327.68 494.527 1327.87 493.585 1328.33 492.769L1328.39 492.665Z" fill="#2F2E41"/>
<path d="M867.072 611.998C860.743 614.223 853.948 614.78 847.341 613.616C840.735 612.453 834.539 609.607 829.351 605.354C816.139 594.264 811.997 575.995 808.626 559.079C805.303 542.4 801.98 525.721 798.657 509.043L819.529 523.414C834.538 533.75 849.886 544.416 860.279 559.386C870.671 574.355 875.208 594.791 866.858 610.989" fill="#B8B1B1"/>
<path d="M865.288 672.577C867.401 657.19 869.573 641.605 868.091 626.052C866.775 612.24 862.561 598.749 853.982 587.688C849.428 581.828 843.887 576.807 837.608 572.851C835.971 571.817 834.464 574.412 836.094 575.441C846.959 582.307 855.362 592.447 860.093 604.397C865.318 617.687 866.157 632.173 865.257 646.291C864.712 654.828 863.558 663.309 862.395 671.78C862.304 672.163 862.361 672.566 862.555 672.909C862.75 673.251 863.067 673.507 863.443 673.625C863.826 673.728 864.235 673.676 864.581 673.48C864.926 673.284 865.18 672.959 865.288 672.577Z" fill="#F2F2F2"/>
<path d="M844.941 645.349C842.227 649.474 838.496 652.831 834.107 655.096C829.719 657.361 824.821 658.457 819.886 658.28C807.203 657.678 796.629 648.826 787.111 640.422L758.958 615.565L777.591 614.673C790.99 614.032 804.736 613.434 817.498 617.566C830.261 621.698 842.031 631.643 844.365 644.853" fill="#B8B1B1"/>
<path d="M871.258 681.422C861.09 663.431 849.297 643.436 828.223 637.045C822.364 635.274 816.22 634.64 810.122 635.176C808.201 635.342 808.68 638.305 810.599 638.139C820.82 637.29 831.021 639.989 839.485 645.781C847.63 651.325 853.972 659.033 859.339 667.207C862.627 672.213 865.572 677.432 868.518 682.644C869.459 684.31 872.211 683.108 871.258 681.422Z" fill="#F2F2F2"/>
<path d="M887.55 700.359C887.207 696.39 885.782 692.59 883.429 689.375C881.077 686.159 877.887 683.651 874.207 682.123V671.722H856.762V682.45C853.264 684.054 850.253 686.556 848.036 689.702C845.82 692.848 844.478 696.525 844.146 700.359L840.044 748.043H891.652L887.55 700.359Z" fill="#F2F2F2"/>
</g>
<g filter="url(#filter0_d_765_2143)">
<rect x="222.829" y="497.428" width="343.127" height="243.572" rx="6.62207" fill="white"/>
</g>
<g filter="url(#filter1_d_765_2143)">
<rect x="189" y="452" width="66.6923" height="66.6923" rx="6.62207" fill="#8EB07A"/>
</g>
<path fill-rule="evenodd" clip-rule="evenodd" d="M214.027 466.498H231.629C238.04 466.498 241.658 470.134 241.677 476.544V494.148C241.677 500.556 238.04 504.194 231.629 504.194H214.027C207.617 504.194 203.982 500.556 203.982 494.148V476.544C203.982 470.134 207.617 466.498 214.027 466.498ZM222.922 496.391C223.734 496.391 224.411 495.788 224.486 494.977V475.771C224.562 475.187 224.281 474.601 223.772 474.282C223.242 473.962 222.601 473.962 222.094 474.282C221.584 474.601 221.303 475.187 221.357 475.771V494.977C221.454 495.788 222.13 496.391 222.922 496.391ZM231.594 496.39C232.385 496.39 233.062 495.787 233.158 494.977V488.795C233.213 488.19 232.932 487.626 232.421 487.306C231.914 486.985 231.273 486.985 230.745 487.306C230.235 487.626 229.954 488.19 230.029 488.795V494.977C230.105 495.787 230.781 496.39 231.594 496.39ZM215.703 494.977C215.627 495.788 214.951 496.391 214.138 496.391C213.328 496.391 212.649 495.788 212.576 494.977V481.953C212.519 481.367 212.8 480.785 213.311 480.464C213.818 480.144 214.461 480.144 214.97 480.464C215.477 480.785 215.761 481.367 215.703 481.953V494.977Z" fill="white"/>
<path d="M241.194 541.406H545.659" stroke="#DFDFDF" stroke-width="0.735786" stroke-linecap="round"/>
<path d="M241.194 586.352H545.659" stroke="#DFDFDF" stroke-width="0.735786" stroke-linecap="round"/>
<path d="M241.194 631.296H545.659" stroke="#DFDFDF" stroke-width="0.735786" stroke-linecap="round"/>
<path d="M241.194 676.241H545.659" stroke="#DFDFDF" stroke-width="0.735786" stroke-linecap="round"/>
<path d="M241.194 721.186H545.659" stroke="#DFDFDF" stroke-width="0.735786" stroke-linecap="round"/>
<path d="M260.525 676.927C260.525 673.879 262.996 671.408 266.044 671.408H269.505C272.553 671.408 275.023 673.879 275.023 676.927V720.703H260.525V676.927Z" fill="#E27070"/>
<path d="M304.02 668.227C304.02 665.18 306.491 662.709 309.539 662.709H313C316.048 662.709 318.518 665.18 318.518 668.227V720.702H304.02V668.227Z" fill="#E27070"/>
<path d="M347.515 653.729C347.515 650.682 349.986 648.211 353.034 648.211H356.495C359.543 648.211 362.013 650.682 362.013 653.729V720.703H347.515V653.729Z" fill="#F9C643"/>
<path d="M391.01 641.164C391.01 638.116 393.481 635.646 396.528 635.646H399.99C403.038 635.646 405.508 638.116 405.508 641.164V720.702H391.01V641.164Z" fill="#F9C643"/>
<path d="M434.505 621.833C434.505 618.785 436.976 616.314 440.023 616.314H443.485C446.533 616.314 449.003 618.785 449.003 621.833V720.702H434.505V621.833Z" fill="#5BBAEF"/>
<path d="M478 608.301C478 605.253 480.471 602.783 483.518 602.783H486.98C490.028 602.783 492.498 605.253 492.498 608.301V720.702H478V608.301Z" fill="#5BBAEF"/>
<path d="M521.495 591.87C521.495 588.822 523.966 586.352 527.013 586.352H530.475C533.523 586.352 535.993 588.822 535.993 591.87V720.703H521.495V591.87Z" fill="#85C55F"/>
<path d="M265.358 658.843C306.275 646.116 421.07 620.76 473.65 582.485" stroke="#85C55F" stroke-width="3.67893" stroke-linecap="round"/>
<path d="M348.32 531.88C347.645 531.88 347.035 531.766 346.492 531.536C345.954 531.306 345.508 530.98 345.155 530.556C344.806 530.128 344.579 529.622 344.473 529.039L345.691 528.847C345.846 529.448 346.166 529.918 346.651 530.258C347.141 530.593 347.717 530.761 348.38 530.761C348.808 530.761 349.194 530.695 349.538 530.563C349.887 530.426 350.163 530.231 350.366 529.98C350.569 529.728 350.671 529.43 350.671 529.086C350.671 528.874 350.633 528.693 350.558 528.543C350.488 528.388 350.388 528.258 350.26 528.152C350.137 528.042 349.995 527.949 349.836 527.874C349.678 527.799 349.512 527.737 349.34 527.689L346.91 526.967C346.645 526.887 346.389 526.788 346.141 526.669C345.894 526.545 345.673 526.393 345.479 526.212C345.285 526.026 345.13 525.806 345.016 525.55C344.901 525.289 344.843 524.982 344.843 524.629C344.843 524.064 344.989 523.583 345.28 523.186C345.576 522.784 345.976 522.477 346.479 522.265C346.982 522.053 347.55 521.949 348.181 521.954C348.821 521.958 349.393 522.073 349.896 522.298C350.404 522.519 350.823 522.837 351.154 523.252C351.49 523.667 351.715 524.163 351.83 524.742L350.578 524.96C350.512 524.572 350.364 524.238 350.134 523.96C349.909 523.678 349.627 523.461 349.287 523.311C348.947 523.157 348.574 523.077 348.168 523.073C347.779 523.069 347.428 523.13 347.115 523.258C346.801 523.386 346.552 523.565 346.366 523.795C346.181 524.02 346.088 524.28 346.088 524.576C346.088 524.868 346.172 525.104 346.34 525.285C346.508 525.461 346.713 525.603 346.956 525.709C347.203 525.81 347.444 525.894 347.678 525.96L349.492 526.483C349.7 526.541 349.938 526.62 350.207 526.722C350.481 526.823 350.746 526.967 351.002 527.152C351.258 527.333 351.47 527.576 351.638 527.881C351.805 528.181 351.889 528.56 351.889 529.02C351.889 529.479 351.797 529.887 351.611 530.245C351.43 530.602 351.176 530.902 350.85 531.145C350.523 531.384 350.143 531.565 349.711 531.688C349.278 531.816 348.814 531.88 348.32 531.88ZM353.272 531.682L353.278 522.146H354.47V527.973L357.47 524.53H359L355.841 528.106L359.371 531.682H357.722L354.47 528.238V531.682H353.272ZM360.162 523.265V522.047H361.341V523.265H360.162ZM360.162 531.682V524.53H361.341V531.682H360.162ZM363.46 531.682V521.947H364.639V531.682H363.46ZM366.758 531.682V521.947H367.937V531.682H366.758ZM376.436 531.88C375.783 531.88 375.187 531.766 374.648 531.536C374.11 531.306 373.646 530.977 373.258 530.549C372.869 530.117 372.569 529.596 372.357 528.986C372.15 528.373 372.046 527.682 372.046 526.914C372.046 525.898 372.227 525.02 372.589 524.278C372.951 523.536 373.461 522.965 374.118 522.563C374.776 522.157 375.549 521.954 376.436 521.954C377.505 521.954 378.365 522.203 379.019 522.702C379.672 523.197 380.122 523.874 380.37 524.735L379.178 524.98C378.979 524.402 378.652 523.94 378.198 523.596C377.743 523.252 377.176 523.08 376.496 523.08C375.785 523.075 375.193 523.234 374.721 523.556C374.253 523.874 373.9 524.322 373.662 524.901C373.423 525.479 373.302 526.15 373.297 526.914C373.293 527.673 373.41 528.34 373.648 528.914C373.887 529.488 374.242 529.938 374.714 530.265C375.191 530.587 375.785 530.75 376.496 530.755C377.109 530.759 377.626 530.642 378.045 530.404C378.465 530.165 378.789 529.821 379.019 529.371C379.248 528.92 379.387 528.379 379.436 527.748H377.41V526.775H380.681C380.694 526.863 380.701 526.969 380.701 527.093C380.705 527.212 380.707 527.293 380.707 527.338C380.707 528.207 380.544 528.986 380.217 529.675C379.895 530.359 379.416 530.898 378.78 531.291C378.149 531.684 377.368 531.88 376.436 531.88ZM382.03 531.682V524.53H383.083V526.258L382.911 526.033C382.995 525.812 383.103 525.609 383.235 525.424C383.372 525.238 383.524 525.086 383.692 524.967C383.878 524.817 384.087 524.702 384.321 524.623C384.555 524.543 384.794 524.497 385.037 524.483C385.279 524.466 385.507 524.481 385.719 524.53V525.636C385.471 525.569 385.2 525.552 384.904 525.583C384.608 525.614 384.335 525.722 384.083 525.907C383.853 526.071 383.675 526.269 383.547 526.503C383.423 526.737 383.337 526.991 383.288 527.265C383.24 527.534 383.215 527.81 383.215 528.092V531.682H382.03ZM389.888 531.88C389.177 531.88 388.563 531.719 388.047 531.397C387.535 531.075 387.139 530.629 386.861 530.059C386.583 529.49 386.444 528.836 386.444 528.099C386.444 527.349 386.585 526.691 386.868 526.126C387.15 525.561 387.55 525.121 388.067 524.808C388.583 524.49 389.19 524.331 389.888 524.331C390.603 524.331 391.219 524.492 391.735 524.815C392.252 525.132 392.647 525.576 392.92 526.146C393.199 526.711 393.338 527.362 393.338 528.099C393.338 528.845 393.199 529.503 392.92 530.072C392.642 530.638 392.245 531.081 391.729 531.404C391.212 531.721 390.598 531.88 389.888 531.88ZM389.888 530.761C390.629 530.761 391.181 530.514 391.543 530.02C391.905 529.525 392.086 528.885 392.086 528.099C392.086 527.291 391.903 526.649 391.536 526.172C391.17 525.691 390.62 525.45 389.888 525.45C389.389 525.45 388.978 525.563 388.656 525.788C388.334 526.013 388.093 526.324 387.934 526.722C387.775 527.119 387.696 527.578 387.696 528.099C387.696 528.903 387.881 529.547 388.252 530.033C388.623 530.518 389.168 530.761 389.888 530.761ZM396.06 531.682L393.875 524.523L395.047 524.53L396.643 529.761L398.252 524.53H399.292L400.894 529.761L402.497 524.53H403.662L401.477 531.682H400.497L398.769 526.245L397.04 531.682H396.06ZM408.851 531.682C408.427 531.766 408.008 531.799 407.593 531.781C407.182 531.768 406.816 531.686 406.494 531.536C406.172 531.381 405.926 531.143 405.759 530.821C405.617 530.538 405.54 530.253 405.527 529.967C405.518 529.675 405.514 529.346 405.514 528.98V522.543H406.692V528.927C406.692 529.218 406.695 529.468 406.699 529.675C406.708 529.883 406.754 530.061 406.838 530.212C406.997 530.494 407.249 530.66 407.593 530.708C407.942 530.757 408.361 530.744 408.851 530.668V531.682ZM404.063 525.503V524.53H408.851V525.503H404.063ZM415.396 531.682V528.099C415.396 527.759 415.365 527.432 415.303 527.119C415.246 526.806 415.142 526.525 414.992 526.278C414.846 526.026 414.647 525.828 414.396 525.682C414.148 525.536 413.835 525.464 413.455 525.464C413.16 525.464 412.89 525.514 412.647 525.616C412.409 525.713 412.204 525.863 412.032 526.066C411.859 526.269 411.725 526.525 411.628 526.834C411.535 527.139 411.489 527.499 411.489 527.914L410.714 527.675C410.714 526.982 410.837 526.388 411.085 525.894C411.336 525.395 411.687 525.013 412.138 524.748C412.592 524.479 413.126 524.344 413.74 524.344C414.204 524.344 414.599 524.417 414.925 524.563C415.252 524.709 415.524 524.903 415.74 525.146C415.956 525.384 416.126 525.653 416.25 525.954C416.373 526.249 416.46 526.552 416.508 526.861C416.561 527.165 416.588 527.455 416.588 527.728V531.682H415.396ZM410.297 531.682V522.146H411.356V527.41H411.489V531.682H410.297Z" fill="#7C7C7C"/>
<path d="M384.418 561.155C383.77 561.155 383.167 561.022 382.608 560.757C382.048 560.486 381.566 560.116 381.16 559.645C380.759 559.174 380.471 558.626 380.294 558.002L382.343 557.455C382.425 557.796 382.575 558.091 382.793 558.338C383.017 558.585 383.276 558.776 383.57 558.912C383.87 559.047 384.179 559.115 384.497 559.115C384.909 559.115 385.286 559.015 385.627 558.815C385.969 558.615 386.239 558.347 386.44 558.011C386.64 557.67 386.74 557.293 386.74 556.881C386.74 556.469 386.637 556.095 386.431 555.76C386.231 555.418 385.96 555.151 385.618 554.956C385.277 554.756 384.903 554.656 384.497 554.656C384.009 554.656 383.602 554.744 383.279 554.921C382.961 555.098 382.717 555.286 382.546 555.486L380.727 554.903L381.115 548.175H388.02V550.171H382.254L383.049 549.42L382.767 554.1L382.378 553.623C382.708 553.323 383.09 553.099 383.526 552.952C383.961 552.805 384.382 552.731 384.789 552.731C385.583 552.731 386.287 552.914 386.899 553.279C387.517 553.638 387.999 554.129 388.347 554.753C388.7 555.377 388.877 556.086 388.877 556.881C388.877 557.676 388.671 558.397 388.258 559.044C387.846 559.686 387.302 560.198 386.625 560.581C385.954 560.963 385.218 561.155 384.418 561.155ZM395.568 561.155C394.668 561.155 393.873 560.963 393.184 560.581C392.495 560.192 391.957 559.654 391.568 558.965C391.186 558.276 390.994 557.481 390.994 556.581V552.484C390.994 551.583 391.186 550.789 391.568 550.1C391.957 549.411 392.495 548.876 393.184 548.493C393.873 548.105 394.668 547.91 395.568 547.91C396.469 547.91 397.26 548.105 397.943 548.493C398.632 548.876 399.171 549.411 399.559 550.1C399.948 550.789 400.142 551.583 400.142 552.484V556.581C400.142 557.481 399.948 558.276 399.559 558.965C399.171 559.654 398.632 560.192 397.943 560.581C397.26 560.963 396.469 561.155 395.568 561.155ZM395.568 559.133C396.015 559.133 396.422 559.027 396.787 558.815C397.152 558.597 397.44 558.309 397.652 557.949C397.864 557.584 397.97 557.178 397.97 556.731V552.325C397.97 551.872 397.864 551.466 397.652 551.107C397.44 550.742 397.152 550.453 396.787 550.241C396.422 550.024 396.015 549.915 395.568 549.915C395.121 549.915 394.715 550.024 394.35 550.241C393.985 550.453 393.696 550.742 393.484 551.107C393.272 551.466 393.167 551.872 393.167 552.325V556.731C393.167 557.178 393.272 557.584 393.484 557.949C393.696 558.309 393.985 558.597 394.35 558.815C394.715 559.027 395.121 559.133 395.568 559.133ZM404.383 560.89L402.971 559.477L414.281 548.175L415.694 549.597L404.383 560.89ZM413.045 561.155C412.462 561.155 411.93 561.013 411.447 560.731C410.97 560.442 410.588 560.06 410.299 559.583C410.011 559.1 409.867 558.565 409.867 557.976C409.867 557.399 410.014 556.869 410.308 556.387C410.602 555.904 410.991 555.518 411.474 555.23C411.956 554.942 412.48 554.797 413.045 554.797C413.628 554.797 414.161 554.942 414.643 555.23C415.126 555.513 415.509 555.895 415.791 556.378C416.08 556.855 416.224 557.387 416.224 557.976C416.224 558.565 416.08 559.1 415.791 559.583C415.509 560.06 415.126 560.442 414.643 560.731C414.161 561.013 413.628 561.155 413.045 561.155ZM413.045 559.336C413.287 559.336 413.51 559.274 413.716 559.15C413.928 559.027 414.096 558.862 414.219 558.656C414.343 558.45 414.405 558.223 414.405 557.976C414.405 557.729 414.343 557.502 414.219 557.296C414.096 557.09 413.928 556.925 413.716 556.802C413.51 556.678 413.287 556.616 413.045 556.616C412.798 556.616 412.571 556.678 412.365 556.802C412.159 556.925 411.992 557.09 411.862 557.296C411.738 557.502 411.677 557.729 411.677 557.976C411.677 558.223 411.738 558.45 411.862 558.656C411.992 558.862 412.159 559.027 412.365 559.15C412.571 559.274 412.798 559.336 413.045 559.336ZM405.62 554.268C405.037 554.268 404.504 554.126 404.021 553.844C403.539 553.555 403.153 553.173 402.865 552.696C402.582 552.213 402.441 551.678 402.441 551.089C402.441 550.512 402.588 549.982 402.882 549.5C403.177 549.017 403.565 548.631 404.048 548.343C404.531 548.055 405.055 547.91 405.62 547.91C406.202 547.91 406.732 548.055 407.209 548.343C407.692 548.626 408.077 549.008 408.366 549.491C408.654 549.968 408.798 550.5 408.798 551.089C408.798 551.678 408.654 552.213 408.366 552.696C408.077 553.173 407.692 553.555 407.209 553.844C406.732 554.126 406.202 554.268 405.62 554.268ZM405.62 552.449C405.867 552.449 406.093 552.387 406.299 552.263C406.505 552.14 406.67 551.975 406.794 551.769C406.918 551.563 406.979 551.336 406.979 551.089C406.979 550.842 406.918 550.615 406.794 550.409C406.67 550.203 406.505 550.038 406.299 549.915C406.093 549.791 405.867 549.729 405.62 549.729C405.372 549.729 405.146 549.791 404.94 549.915C404.734 550.038 404.569 550.203 404.445 550.409C404.322 550.615 404.26 550.842 404.26 551.089C404.26 551.336 404.322 551.563 404.445 551.769C404.569 551.975 404.734 552.14 404.94 552.263C405.146 552.387 405.372 552.449 405.62 552.449Z" fill="#85C45F"/>
</g>
<defs>
<filter id="filter0_d_765_2143" x="211.793" y="489.335" width="365.201" height="265.645" filterUnits="userSpaceOnUse" color-interpolation-filters="sRGB">
<feFlood flood-opacity="0" result="BackgroundImageFix"/>
<feColorMatrix in="SourceAlpha" type="matrix" values="0 0 0 0 0 0 0 0 0 0 0 0 0 0 0 0 0 0 127 0" result="hardAlpha"/>
<feOffset dy="2.94314"/>
<feGaussianBlur stdDeviation="5.51839"/>
<feComposite in2="hardAlpha" operator="out"/>
<feColorMatrix type="matrix" values="0 0 0 0 0 0 0 0 0 0 0 0 0 0 0 0 0 0 0.25 0"/>
<feBlend mode="normal" in2="BackgroundImageFix" result="effect1_dropShadow_765_2143"/>
<feBlend mode="normal" in="SourceGraphic" in2="effect1_dropShadow_765_2143" result="shape"/>
</filter>
<filter id="filter1_d_765_2143" x="177.963" y="443.906" width="88.7658" height="88.766" filterUnits="userSpaceOnUse" color-interpolation-filters="sRGB">
<feFlood flood-opacity="0" result="BackgroundImageFix"/>
<feColorMatrix in="SourceAlpha" type="matrix" values="0 0 0 0 0 0 0 0 0 0 0 0 0 0 0 0 0 0 127 0" result="hardAlpha"/>
<feOffset dy="2.94314"/>
<feGaussianBlur stdDeviation="5.51839"/>
<feComposite in2="hardAlpha" operator="out"/>
<feColorMatrix type="matrix" values="0 0 0 0 0 0 0 0 0 0 0 0 0 0 0 0 0 0 0.25 0"/>
<feBlend mode="normal" in2="BackgroundImageFix" result="effect1_dropShadow_765_2143"/>
<feBlend mode="normal" in="SourceGraphic" in2="effect1_dropShadow_765_2143" result="shape"/>
</filter>
<linearGradient id="paint0_linear_765_2143" x1="720" y1="0" x2="720" y2="928" gradientUnits="userSpaceOnUse">
<stop stop-color="#E9F1FF"/>
<stop offset="1" stop-color="#F9FBFF"/>
</linearGradient>
<radialGradient id="paint1_radial_765_2143" cx="0" cy="0" r="1" gradientUnits="userSpaceOnUse" gradientTransform="translate(900 97) rotate(9.78584) scale(567.761 542.361)">
<stop stop-color="#CBDDFE"/>
<stop offset="1" stop-color="#CFE0FD" stop-opacity="0"/>
</radialGradient>
<radialGradient id="paint2_radial_765_2143" cx="0" cy="0" r="1" gradientUnits="userSpaceOnUse" gradientTransform="translate(73 97) rotate(9.78584) scale(567.761 542.361)">
<stop stop-color="#CDDFFF"/>
<stop offset="1" stop-color="#CFE0FD" stop-opacity="0"/>
</radialGradient>
<radialGradient id="paint3_radial_765_2143" cx="0" cy="0" r="1" gradientUnits="userSpaceOnUse" gradientTransform="translate(1160.97 775.778) rotate(89.1859) scale(768.199 531.894)">
<stop stop-color="#99BEF9"/>
<stop offset="1" stop-color="white"/>
</radialGradient>
<linearGradient id="paint4_linear_765_2143" x1="1178.5" y1="727.769" x2="1178.5" y2="1010" gradientUnits="userSpaceOnUse">
<stop stop-color="#DCE4FF" stop-opacity="0"/>
<stop offset="1" stop-color="#5093FF"/>
</linearGradient>
<linearGradient id="paint5_linear_765_2143" x1="1277" y1="307" x2="1277" y2="433" gradientUnits="userSpaceOnUse">
<stop stop-color="#F2B457"/>
<stop offset="1" stop-color="#F5C783" stop-opacity="0"/>
</linearGradient>
<clipPath id="clip0_765_2143">
<rect width="1440" height="928" fill="white"/>
</clipPath>
<clipPath id="clip1_765_2143">
<rect width="692" height="499.877" fill="white" transform="translate(758 254)"/>
</clipPath>
</defs>
</svg>
