<svg width="138" height="14" viewBox="0 0 138 14" fill="none" xmlns="http://www.w3.org/2000/svg">
<path d="M4.512 12.24C3.70667 12.24 3.016 12.04 2.44 11.64C1.864 11.2347 1.41867 10.688 1.104 10C0.794667 9.312 0.64 8.536 0.64 7.672C0.64 6.808 0.794667 6.032 1.104 5.344C1.41867 4.656 1.864 4.11467 2.44 3.72C3.016 3.32 3.704 3.12 4.504 3.12C5.32 3.12 6.00533 3.31733 6.56 3.712C7.11467 4.10667 7.53333 4.648 7.816 5.336C8.104 6.024 8.248 6.80267 8.248 7.672C8.248 8.53067 8.104 9.30667 7.816 10C7.53333 10.688 7.11467 11.2347 6.56 11.64C6.00533 12.04 5.32267 12.24 4.512 12.24ZM4.688 10.936C5.26933 10.936 5.74667 10.7973 6.12 10.52C6.49333 10.2373 6.768 9.85067 6.944 9.36C7.12533 8.864 7.216 8.30133 7.216 7.672C7.216 7.032 7.12533 6.46933 6.944 5.984C6.768 5.49333 6.496 5.112 6.128 4.84C5.76 4.56267 5.29333 4.424 4.728 4.424C4.14133 4.424 3.656 4.568 3.272 4.856C2.89333 5.144 2.61067 5.53333 2.424 6.024C2.24267 6.51467 2.152 7.064 2.152 7.672C2.152 8.28533 2.24533 8.84 2.432 9.336C2.61867 9.82667 2.89867 10.216 3.272 10.504C3.65067 10.792 4.12267 10.936 4.688 10.936ZM7.216 12V5.64H7.056V0.48H8.488V12H7.216ZM14.4734 12.24C13.6254 12.24 12.884 12.0533 12.2494 11.68C11.62 11.3013 11.1294 10.776 10.7774 10.104C10.4254 9.42667 10.2494 8.63733 10.2494 7.736C10.2494 6.792 10.4227 5.976 10.7694 5.288C11.116 4.59467 11.5987 4.06133 12.2174 3.688C12.8414 3.30933 13.572 3.12 14.4094 3.12C15.2787 3.12 16.0174 3.32 16.6254 3.72C17.2387 4.12 17.6974 4.69067 18.0014 5.432C18.3107 6.17333 18.444 7.056 18.4014 8.08H16.9614V7.568C16.9454 6.50667 16.7294 5.71467 16.3134 5.192C15.8974 4.664 15.2787 4.4 14.4574 4.4C13.5774 4.4 12.908 4.68267 12.4494 5.248C11.9907 5.81333 11.7614 6.624 11.7614 7.68C11.7614 8.69867 11.9907 9.488 12.4494 10.048C12.908 10.608 13.5614 10.888 14.4094 10.888C14.98 10.888 15.476 10.7573 15.8974 10.496C16.3187 10.2347 16.6494 9.85867 16.8894 9.368L18.2574 9.84C17.9214 10.6027 17.4147 11.1947 16.7374 11.616C16.0654 12.032 15.3107 12.24 14.4734 12.24ZM11.2814 8.08V6.936H17.6654V8.08H11.2814ZM30.2761 12L30.2841 6.472C30.2841 5.82667 30.1108 5.32267 29.7641 4.96C29.4228 4.592 28.9775 4.408 28.4281 4.408C28.1081 4.408 27.8041 4.48267 27.5161 4.632C27.2281 4.776 26.9935 5.00533 26.8121 5.32C26.6308 5.62933 26.5401 6.02667 26.5401 6.512L25.7881 6.208C25.7775 5.59467 25.9028 5.05867 26.1641 4.6C26.4308 4.136 26.7935 3.776 27.2521 3.52C27.7108 3.264 28.2281 3.136 28.8041 3.136C29.7055 3.136 30.4148 3.41067 30.9321 3.96C31.4495 4.504 31.7081 5.23733 31.7081 6.16L31.7001 12H30.2761ZM19.9401 12V3.36H21.2121V5.672H21.3721V12H19.9401ZM25.1161 12L25.1241 6.528C25.1241 5.86667 24.9535 5.34933 24.6121 4.976C24.2708 4.59733 23.8175 4.408 23.2521 4.408C22.6921 4.408 22.2388 4.6 21.8921 4.984C21.5455 5.368 21.3721 5.87733 21.3721 6.512L20.6201 6.064C20.6201 5.504 20.7535 5.00267 21.0201 4.56C21.2868 4.11733 21.6495 3.77067 22.1081 3.52C22.5668 3.264 23.0868 3.136 23.6681 3.136C24.2495 3.136 24.7561 3.25867 25.1881 3.504C25.6201 3.74933 25.9535 4.10133 26.1881 4.56C26.4228 5.01333 26.5401 5.55467 26.5401 6.184L26.5321 12H25.1161ZM37.3938 12.24C36.5351 12.24 35.7938 12.0453 35.1698 11.656C34.5511 11.2667 34.0738 10.728 33.7378 10.04C33.4018 9.352 33.2338 8.56267 33.2338 7.672C33.2338 6.76533 33.4044 5.97067 33.7458 5.288C34.0871 4.60533 34.5698 4.07467 35.1938 3.696C35.8178 3.312 36.5511 3.12 37.3938 3.12C38.2578 3.12 39.0018 3.31467 39.6258 3.704C40.2498 4.088 40.7271 4.624 41.0578 5.312C41.3938 5.99467 41.5618 6.78133 41.5618 7.672C41.5618 8.57333 41.3938 9.368 41.0578 10.056C40.7218 10.7387 40.2418 11.2747 39.6178 11.664C38.9938 12.048 38.2524 12.24 37.3938 12.24ZM37.3938 10.888C38.2898 10.888 38.9564 10.5893 39.3938 9.992C39.8311 9.39467 40.0498 8.62133 40.0498 7.672C40.0498 6.696 39.8284 5.92 39.3858 5.344C38.9431 4.76267 38.2791 4.472 37.3938 4.472C36.7911 4.472 36.2951 4.608 35.9058 4.88C35.5164 5.152 35.2258 5.528 35.0338 6.008C34.8418 6.488 34.7458 7.04267 34.7458 7.672C34.7458 8.64267 34.9698 9.42133 35.4178 10.008C35.8658 10.5947 36.5244 10.888 37.3938 10.888ZM49.4671 13.68C48.6085 13.68 47.8138 13.5333 47.0831 13.24C46.3578 12.9467 45.7258 12.536 45.1871 12.008C44.6485 11.48 44.2298 10.8587 43.9311 10.144C43.6325 9.42933 43.4831 8.65333 43.4831 7.816C43.4831 6.86667 43.6325 6.016 43.9311 5.264C44.2351 4.50667 44.6565 3.86133 45.1951 3.328C45.7391 2.79467 46.3738 2.38667 47.0991 2.104C47.8298 1.82133 48.6218 1.68 49.4751 1.68C50.4885 1.68 51.3738 1.84 52.1311 2.16C52.8885 2.47467 53.5151 2.90667 54.0111 3.456C54.5125 4 54.8805 4.616 55.1151 5.304C55.3551 5.992 55.4591 6.70933 55.4271 7.456C55.3898 8.47467 55.1631 9.25067 54.7471 9.784C54.3311 10.3173 53.7205 10.584 52.9151 10.584C52.4458 10.584 52.0245 10.4747 51.6511 10.256C51.2778 10.0373 51.0245 9.72267 50.8911 9.312L51.3151 9.344C51.1125 9.73867 50.8245 10.0213 50.4511 10.192C50.0778 10.3573 49.6911 10.44 49.2911 10.44C48.7791 10.44 48.3285 10.3307 47.9391 10.112C47.5551 9.888 47.2511 9.57867 47.0271 9.184C46.8085 8.784 46.6991 8.32267 46.6991 7.8C46.6991 7.256 46.8138 6.78667 47.0431 6.392C47.2725 5.99733 47.5845 5.69333 47.9791 5.48C48.3738 5.26133 48.8191 5.152 49.3151 5.152C49.6618 5.152 50.0218 5.224 50.3951 5.368C50.7685 5.512 51.0565 5.73067 51.2591 6.024L50.9391 6.408V5.376H51.8991L51.8831 8.112C51.8831 8.512 51.9685 8.82667 52.1391 9.056C52.3151 9.28533 52.5871 9.4 52.9551 9.4C53.2378 9.4 53.4645 9.32 53.6351 9.16C53.8111 9 53.9418 8.78133 54.0271 8.504C54.1125 8.22133 54.1605 7.89333 54.1711 7.52C54.1978 6.69867 54.0858 5.99467 53.8351 5.408C53.5845 4.82133 53.2351 4.33867 52.7871 3.96C52.3445 3.58133 51.8431 3.304 51.2831 3.128C50.7285 2.94667 50.1525 2.856 49.5551 2.856C48.7818 2.856 48.0938 2.98133 47.4911 3.232C46.8938 3.48267 46.3871 3.83467 45.9711 4.288C45.5605 4.736 45.2485 5.25867 45.0351 5.856C44.8271 6.45333 44.7285 7.09867 44.7391 7.792C44.7551 8.49067 44.8831 9.13067 45.1231 9.712C45.3631 10.288 45.6965 10.784 46.1231 11.2C46.5551 11.616 47.0591 11.936 47.6351 12.16C48.2165 12.3893 48.8485 12.504 49.5311 12.504C49.9471 12.504 50.3605 12.4533 50.7711 12.352C51.1871 12.2507 51.5605 12.112 51.8911 11.936L52.3071 13.008C51.8698 13.232 51.4111 13.4 50.9311 13.512C50.4511 13.624 49.9631 13.68 49.4671 13.68ZM49.3711 9.248C49.7711 9.248 50.0991 9.13333 50.3551 8.904C50.6165 8.67467 50.7471 8.304 50.7471 7.792C50.7471 7.30667 50.6271 6.94133 50.3871 6.696C50.1471 6.45067 49.8191 6.328 49.4031 6.328C48.9231 6.328 48.5578 6.45867 48.3071 6.72C48.0618 6.976 47.9391 7.33333 47.9391 7.792C47.9391 8.256 48.0671 8.616 48.3231 8.872C48.5791 9.12267 48.9285 9.248 49.3711 9.248ZM61.5828 12.24C60.7348 12.24 59.9934 12.0533 59.3588 11.68C58.7294 11.3013 58.2388 10.776 57.8868 10.104C57.5348 9.42667 57.3588 8.63733 57.3588 7.736C57.3588 6.792 57.5321 5.976 57.8788 5.288C58.2254 4.59467 58.7081 4.06133 59.3268 3.688C59.9508 3.30933 60.6814 3.12 61.5188 3.12C62.3881 3.12 63.1268 3.32 63.7348 3.72C64.3481 4.12 64.8068 4.69067 65.1108 5.432C65.4201 6.17333 65.5534 7.056 65.5108 8.08H64.0708V7.568C64.0548 6.50667 63.8388 5.71467 63.4228 5.192C63.0068 4.664 62.3881 4.4 61.5668 4.4C60.6868 4.4 60.0174 4.68267 59.5588 5.248C59.1001 5.81333 58.8708 6.624 58.8708 7.68C58.8708 8.69867 59.1001 9.488 59.5588 10.048C60.0174 10.608 60.6708 10.888 61.5188 10.888C62.0894 10.888 62.5854 10.7573 63.0068 10.496C63.4281 10.2347 63.7588 9.85867 63.9988 9.368L65.3668 9.84C65.0308 10.6027 64.5241 11.1947 63.8468 11.616C63.1748 12.032 62.4201 12.24 61.5828 12.24ZM58.3908 8.08V6.936H64.7748V8.08H58.3908ZM70.6839 12.24C69.8785 12.24 69.1879 12.04 68.6119 11.64C68.0359 11.2347 67.5905 10.688 67.2759 10C66.9665 9.312 66.8119 8.536 66.8119 7.672C66.8119 6.808 66.9665 6.032 67.2759 5.344C67.5905 4.656 68.0359 4.11467 68.6119 3.72C69.1879 3.32 69.8759 3.12 70.6759 3.12C71.4919 3.12 72.1772 3.31733 72.7319 3.712C73.2865 4.10667 73.7052 4.648 73.9879 5.336C74.2759 6.024 74.4199 6.80267 74.4199 7.672C74.4199 8.53067 74.2759 9.30667 73.9879 10C73.7052 10.688 73.2865 11.2347 72.7319 11.64C72.1772 12.04 71.4945 12.24 70.6839 12.24ZM70.8599 10.936C71.4412 10.936 71.9185 10.7973 72.2919 10.52C72.6652 10.2373 72.9399 9.85067 73.1159 9.36C73.2972 8.864 73.3879 8.30133 73.3879 7.672C73.3879 7.032 73.2972 6.46933 73.1159 5.984C72.9399 5.49333 72.6679 5.112 72.2999 4.84C71.9319 4.56267 71.4652 4.424 70.8999 4.424C70.3132 4.424 69.8279 4.568 69.4439 4.856C69.0652 5.144 68.7825 5.53333 68.5959 6.024C68.4145 6.51467 68.3239 7.064 68.3239 7.672C68.3239 8.28533 68.4172 8.84 68.6039 9.336C68.7905 9.82667 69.0705 10.216 69.4439 10.504C69.8225 10.792 70.2945 10.936 70.8599 10.936ZM73.3879 12V5.64H73.2279V0.48H74.6599V12H73.3879ZM80.6453 12.24C79.7973 12.24 79.0559 12.0533 78.4213 11.68C77.7919 11.3013 77.3013 10.776 76.9493 10.104C76.5973 9.42667 76.4213 8.63733 76.4213 7.736C76.4213 6.792 76.5946 5.976 76.9413 5.288C77.2879 4.59467 77.7706 4.06133 78.3893 3.688C79.0133 3.30933 79.7439 3.12 80.5813 3.12C81.4506 3.12 82.1893 3.32 82.7973 3.72C83.4106 4.12 83.8693 4.69067 84.1733 5.432C84.4826 6.17333 84.6159 7.056 84.5733 8.08H83.1333V7.568C83.1173 6.50667 82.9013 5.71467 82.4853 5.192C82.0693 4.664 81.4506 4.4 80.6293 4.4C79.7493 4.4 79.0799 4.68267 78.6213 5.248C78.1626 5.81333 77.9333 6.624 77.9333 7.68C77.9333 8.69867 78.1626 9.488 78.6213 10.048C79.0799 10.608 79.7333 10.888 80.5813 10.888C81.1519 10.888 81.6479 10.7573 82.0693 10.496C82.4906 10.2347 82.8213 9.85867 83.0613 9.368L84.4293 9.84C84.0933 10.6027 83.5866 11.1947 82.9093 11.616C82.2373 12.032 81.4826 12.24 80.6453 12.24ZM77.4533 8.08V6.936H83.8373V8.08H77.4533ZM85.5544 12V11.744L90.7944 4.656H85.9864V3.36H93.0904V3.632L87.8584 10.704H92.8184V12H85.5544ZM97.9578 12.24C97.1098 12.24 96.3684 12.0533 95.7338 11.68C95.1044 11.3013 94.6138 10.776 94.2618 10.104C93.9098 9.42667 93.7338 8.63733 93.7338 7.736C93.7338 6.792 93.9071 5.976 94.2538 5.288C94.6004 4.59467 95.0831 4.06133 95.7018 3.688C96.3258 3.30933 97.0564 3.12 97.8938 3.12C98.7631 3.12 99.5018 3.32 100.11 3.72C100.723 4.12 101.182 4.69067 101.486 5.432C101.795 6.17333 101.928 7.056 101.886 8.08H100.446V7.568C100.43 6.50667 100.214 5.71467 99.7978 5.192C99.3818 4.664 98.7631 4.4 97.9418 4.4C97.0618 4.4 96.3924 4.68267 95.9338 5.248C95.4751 5.81333 95.2458 6.624 95.2458 7.68C95.2458 8.69867 95.4751 9.488 95.9338 10.048C96.3924 10.608 97.0458 10.888 97.8938 10.888C98.4644 10.888 98.9604 10.7573 99.3818 10.496C99.8031 10.2347 100.134 9.85867 100.374 9.368L101.742 9.84C101.406 10.6027 100.899 11.1947 100.222 11.616C99.5498 12.032 98.7951 12.24 97.9578 12.24ZM94.7658 8.08V6.936H101.15V8.08H94.7658ZM103.61 12V10.432H105.178V12H103.61ZM111.307 12.24C110.432 12.24 109.688 12.0453 109.075 11.656C108.467 11.2613 108.003 10.72 107.683 10.032C107.363 9.344 107.198 8.56 107.187 7.68C107.198 6.77867 107.366 5.98667 107.691 5.304C108.022 4.616 108.494 4.08 109.107 3.696C109.72 3.312 110.459 3.12 111.323 3.12C112.235 3.12 113.019 3.344 113.675 3.792C114.336 4.24 114.779 4.85333 115.003 5.632L113.595 6.056C113.414 5.55467 113.118 5.16533 112.707 4.888C112.302 4.61067 111.835 4.472 111.307 4.472C110.715 4.472 110.227 4.61067 109.843 4.888C109.459 5.16 109.174 5.53867 108.987 6.024C108.8 6.504 108.704 7.056 108.699 7.68C108.71 8.64 108.931 9.416 109.363 10.008C109.8 10.5947 110.448 10.888 111.307 10.888C111.872 10.888 112.342 10.76 112.715 10.504C113.088 10.2427 113.371 9.86667 113.563 9.376L115.003 9.752C114.704 10.5573 114.238 11.1733 113.603 11.6C112.968 12.0267 112.203 12.24 111.307 12.24ZM120.081 12.24C119.223 12.24 118.481 12.0453 117.857 11.656C117.239 11.2667 116.761 10.728 116.425 10.04C116.089 9.352 115.921 8.56267 115.921 7.672C115.921 6.76533 116.092 5.97067 116.433 5.288C116.775 4.60533 117.257 4.07467 117.881 3.696C118.505 3.312 119.239 3.12 120.081 3.12C120.945 3.12 121.689 3.31467 122.313 3.704C122.937 4.088 123.415 4.624 123.745 5.312C124.081 5.99467 124.249 6.78133 124.249 7.672C124.249 8.57333 124.081 9.368 123.745 10.056C123.409 10.7387 122.929 11.2747 122.305 11.664C121.681 12.048 120.94 12.24 120.081 12.24ZM120.081 10.888C120.977 10.888 121.644 10.5893 122.081 9.992C122.519 9.39467 122.737 8.62133 122.737 7.672C122.737 6.696 122.516 5.92 122.073 5.344C121.631 4.76267 120.967 4.472 120.081 4.472C119.479 4.472 118.983 4.608 118.593 4.88C118.204 5.152 117.913 5.528 117.721 6.008C117.529 6.488 117.433 7.04267 117.433 7.672C117.433 8.64267 117.657 9.42133 118.105 10.008C118.553 10.5947 119.212 10.888 120.081 10.888ZM136.339 12L136.347 6.472C136.347 5.82667 136.173 5.32267 135.827 4.96C135.485 4.592 135.04 4.408 134.491 4.408C134.171 4.408 133.867 4.48267 133.579 4.632C133.291 4.776 133.056 5.00533 132.875 5.32C132.693 5.62933 132.603 6.02667 132.603 6.512L131.851 6.208C131.84 5.59467 131.965 5.05867 132.227 4.6C132.493 4.136 132.856 3.776 133.315 3.52C133.773 3.264 134.291 3.136 134.867 3.136C135.768 3.136 136.477 3.41067 136.995 3.96C137.512 4.504 137.771 5.23733 137.771 6.16L137.763 12H136.339ZM126.003 12V3.36H127.275V5.672H127.435V12H126.003ZM131.179 12L131.187 6.528C131.187 5.86667 131.016 5.34933 130.675 4.976C130.333 4.59733 129.88 4.408 129.315 4.408C128.755 4.408 128.301 4.6 127.955 4.984C127.608 5.368 127.435 5.87733 127.435 6.512L126.683 6.064C126.683 5.504 126.816 5.00267 127.083 4.56C127.349 4.11733 127.712 3.77067 128.171 3.52C128.629 3.264 129.149 3.136 129.731 3.136C130.312 3.136 130.819 3.25867 131.251 3.504C131.683 3.74933 132.016 4.10133 132.251 4.56C132.485 5.01333 132.603 5.55467 132.603 6.184L132.595 12H131.179Z" fill="#454A6D"/>
</svg>
