<svg width="26" height="26" viewBox="0 0 26 26" fill="none" xmlns="http://www.w3.org/2000/svg">
<path fill-rule="evenodd" clip-rule="evenodd" d="M0 18.304V7.683C0 3.094 2.9523 0 7.358 0H18.629C23.036 0 26 3.094 26 7.683V18.304C26 22.906 23.036 26 18.629 26H7.358C2.9523 26 0 22.906 0 18.304ZM13.9768 15.951V7.69601C13.9768 7.15001 13.5348 6.72101 13.0018 6.72101C12.4558 6.72101 12.0268 7.15001 12.0268 7.69601V15.951L8.81578 12.727C8.63378 12.545 8.37378 12.441 8.12678 12.441C7.88108 12.441 7.63278 12.545 7.43778 12.727C7.06078 13.104 7.06078 13.728 7.43778 14.105L12.3128 19.006C12.6768 19.37 13.3268 19.37 13.6908 19.006L18.5658 14.105C18.9428 13.728 18.9428 13.104 18.5658 12.727C18.1758 12.35 17.5648 12.35 17.1748 12.727L13.9768 15.951Z" fill="#005DF2"/>
</svg>
