<svg width="208" height="103" viewBox="0 0 208 103" fill="none" xmlns="http://www.w3.org/2000/svg">
<g clip-path="url(#clip0_30_5912)">
<g clip-path="url(#clip1_30_5912)">
<path fill-rule="evenodd" clip-rule="evenodd" d="M71.3427 37.831C71.3427 37.831 72.0486 22.07 55.8652 18.7985C39.6817 15.527 29.8588 24.4486 28.4134 30.6952C26.9679 36.9419 26.2658 40.1421 26.9679 42.5919C27.8345 43.7812 27.5469 44.6741 25.8139 47.6493C24.0808 50.6244 20.6111 53.8959 25.5263 54.4887C28.7047 55.0852 26.6804 57.1636 26.6804 57.1636C26.6804 57.1636 25.8139 58.9495 28.4134 59.2458C28.4134 59.2458 26.6804 62.5173 28.1258 62.5173C29.5712 62.5173 29.8588 63.1139 30.1501 64.3032C30.4377 65.4925 29.8625 72.0355 39.9767 68.1674C42.2887 66.9781 41.9564 72.0115 42.7829 75.2061C43.2762 77.113 39.7163 81.7708 43.5969 80.06C47.0592 78.533 61.2771 71.9192 64.1754 66.9406C65.759 64.2131 61.5871 60.2701 63.6114 54.9164C65.6358 49.5626 66.2707 51.2134 68.295 48.242C70.3156 45.2669 71.0514 41.3989 71.3427 37.831Z" fill="#E4E9FA"/>
</g>
<g clip-path="url(#clip2_30_5912)">
<path d="M77.5739 46.5232C77.5739 44.344 76.7078 42.279 75.1768 40.7603C75.4193 39.9808 75.542 39.1745 75.542 38.3554C75.542 34.4153 72.7288 31.1246 69.0151 30.401C69.299 29.69 69.4462 28.9279 69.4462 28.1458C69.4462 25.6499 67.841 23.6755 65.6918 22.7471C62.1112 19.8813 59.9755 18.421 56.9168 18C55.3874 17.7895 50.2315 16.9821 49.3193 18.2476C48.4071 16.9821 48.8288 18 47.1584 18C44.1535 18 40.2373 19.7079 36.6567 22.5738C34.5075 23.5021 32.9984 25.6499 32.9984 28.1458C32.9984 28.9279 33.1456 29.69 33.4295 30.401C29.7159 31.1246 26.9027 34.4153 26.9027 38.3554C26.9027 39.1745 27.0252 39.9807 27.2678 40.7603C25.7368 42.279 24.8707 44.344 24.8707 46.5232C24.8707 48.2266 25.3976 49.8082 26.2947 51.1143C25.3625 52.4686 24.8707 54.0484 24.8707 55.7118C24.8707 58.6583 26.4692 61.358 29.0001 62.7815C28.9566 63.1455 28.9346 63.5128 28.9346 63.8795C28.9346 67.8541 31.5145 71.3682 35.2577 72.5658C36.8859 75.366 39.8518 77.0883 43.0946 77.0883C46.6498 77.0883 46.0042 78.9225 47.494 75.9243C48.9837 78.9225 55.7948 77.0883 59.35 77.0883C62.5929 77.0883 65.5587 75.366 67.1869 72.5658C70.9301 71.368 73.51 67.854 73.51 63.8795C73.51 63.5128 73.4881 63.1455 73.4445 62.7815C75.9754 61.358 77.5739 58.6583 77.5739 55.7118C77.5739 54.0484 77.0822 52.4686 76.1499 51.1143C77.047 49.8082 77.5739 48.2266 77.5739 46.5232ZM43.0946 75.174C40.424 75.174 37.9905 73.6943 36.7437 71.3127C36.6201 71.0767 36.4045 70.9033 36.1483 70.834C33.0226 69.9886 30.8395 67.1289 30.8395 63.8795C30.8395 63.3933 30.8883 62.9063 30.9844 62.4318C31.0736 61.9919 30.8464 61.5487 30.4381 61.3662C28.2133 60.3723 26.7757 58.1527 26.7757 55.7118C26.7757 54.6017 27.0622 53.5405 27.6089 52.6006C29.0307 53.8603 30.8949 54.6271 32.9349 54.6271C33.461 54.6271 33.8874 54.1986 33.8874 53.6699C33.8874 53.1412 33.461 52.7127 32.9349 52.7127C29.5387 52.7127 26.7757 49.9361 26.7757 46.5232C26.7757 44.6859 27.5823 42.9544 28.9889 41.773C29.3064 41.5063 29.4163 41.0641 29.2607 40.6788C28.96 39.934 28.8076 39.1523 28.8076 38.3554C28.8076 34.9425 31.5706 32.1659 34.9669 32.1659C38.3631 32.1659 41.1262 34.9425 41.1262 38.3554C41.1262 38.8842 41.5526 39.3126 42.0786 39.3126C42.6046 39.3126 43.0311 38.8842 43.0311 38.3554C43.0311 34.062 39.6909 30.5396 35.4849 30.2701C35.1036 29.6297 34.9034 28.9015 34.9034 28.1458C34.9034 26.4397 35.9341 24.9713 37.4024 24.3352C37.4592 24.3182 37.5148 24.296 37.5685 24.2679C38.0234 24.0941 38.516 23.9982 39.0307 23.9982C40.6254 23.9982 42.049 24.8942 42.7461 26.3368C42.976 26.8124 43.5459 27.0108 44.019 26.7796C44.4922 26.5488 44.6895 25.9761 44.4597 25.5006C43.6639 23.8539 42.1579 22.6704 40.4235 22.2512C42.8544 20.7605 45.2477 19.9143 47.1584 19.9143C48.874 19.9143 50.2698 21.3168 50.2698 23.041V35.4267C49.414 34.7444 48.3332 34.3354 47.1584 34.3354C46.6324 34.3354 46.206 34.7638 46.206 35.2926C46.206 35.8213 46.6324 36.2497 47.1584 36.2497C48.874 36.2497 48.9986 37.7467 48.9986 39.4709L49.7765 62.3837C48.5923 60.8483 47.4161 59.6895 45.4523 59.1592C44.9444 59.0226 44.4218 59.3248 44.2853 59.8352C44.1488 60.3459 44.45 60.8709 44.958 61.0079C48.0855 61.8524 50.2698 64.7125 50.2698 67.9634C50.2698 71.9393 47.051 75.174 43.0946 75.174ZM72.0065 61.3663C71.5982 61.5488 71.371 61.9919 71.4602 62.4319C71.5563 62.9064 71.6051 63.3934 71.6051 63.8797C71.6051 67.129 69.422 69.9887 66.2963 70.8341C66.0401 70.9034 65.8244 71.0768 65.7009 71.3128C64.4541 73.6943 62.0206 75.174 59.35 75.174C55.3936 75.174 52.1748 71.9393 52.1748 67.9634C52.1748 67.6942 52.1623 67.4274 52.1391 67.1631C52.1617 67.0813 52.1748 66.9954 52.1748 66.9063V35.2926C52.1748 33.5684 53.5706 32.1659 55.2862 32.1659C55.8122 32.1659 56.2386 31.7374 56.2386 31.2087C56.2386 30.68 55.8122 30.2515 55.2862 30.2515C54.1115 30.2515 53.0306 30.6606 52.1748 31.3428V23.041C52.1748 21.3168 53.5706 19.9143 55.2862 19.9143C57.1969 19.9143 59.5902 20.7605 62.0211 22.2512C60.2867 22.6703 58.7807 23.8539 57.985 25.5006C57.7551 25.9763 57.9524 26.5489 58.4256 26.7796C58.8988 27.0106 59.4686 26.8124 59.6985 26.3368C60.3956 24.8942 61.8192 23.9982 63.4139 23.9982C63.9286 23.9982 64.4213 24.0941 64.8761 24.2679C64.9297 24.296 64.9853 24.3181 65.0418 24.3351C66.5104 24.9711 67.5412 26.4395 67.5412 28.1458C67.5412 28.9015 67.341 29.6297 66.9597 30.2701C62.7538 30.5396 59.4135 34.062 59.4135 38.3554C59.4135 38.8842 59.84 39.3126 60.366 39.3126C60.892 39.3126 61.3185 38.8842 61.3185 38.3554C61.3185 34.9425 64.0815 32.1659 67.4777 32.1659C70.874 32.1659 73.637 34.9425 73.637 38.3554C73.637 39.1523 73.4846 39.934 73.184 40.6788C73.0285 41.0642 73.1383 41.5063 73.4558 41.773C74.8623 42.9544 75.669 44.6859 75.669 46.5232C75.669 49.9361 72.9059 52.7127 69.5097 52.7127C68.9837 52.7127 68.5572 53.1412 68.5572 53.6699C68.5572 54.1986 68.9837 54.6271 69.5097 54.6271C71.5497 54.6271 73.4139 53.8603 74.8357 52.6006C75.3826 53.5405 75.669 54.6017 75.669 55.7118C75.669 58.1527 74.2314 60.3723 72.0065 61.3663Z" fill="#E4E9FA"/>
<path d="M67.4776 48.629C65.5046 48.629 63.8513 47.2302 63.4461 45.3678C67.399 44.8494 70.462 41.4459 70.462 37.3346C70.462 36.8059 70.0355 36.3774 69.5095 36.3774C68.9835 36.3774 68.557 36.8059 68.557 37.3346C68.557 40.7475 65.794 43.5242 62.3977 43.5242C60.7286 43.5242 59.1661 42.8643 57.9979 41.6659C57.6298 41.2884 57.0267 41.2822 56.6509 41.6521C56.2752 42.0221 56.2689 42.628 56.6371 43.0057C57.9581 44.3606 59.6645 45.1884 61.5131 45.3892C61.9505 48.3027 64.4584 50.5433 67.4776 50.5433C68.0036 50.5433 68.43 50.1149 68.43 49.5862C68.43 49.0574 68.0036 48.629 67.4776 48.629Z" fill="#E4E9FA"/>
<path d="M64.4296 59.8595C64.0626 59.8595 63.702 59.8865 63.3478 59.9345C63.3485 59.8882 63.3502 59.8419 63.3502 59.7957C63.3502 55.3272 59.7326 51.6918 55.286 51.6918C54.7599 51.6918 54.3335 52.1202 54.3335 52.6489C54.3335 53.1777 54.7599 53.6061 55.286 53.6061C58.6822 53.6061 61.4452 56.3827 61.4452 59.7957C61.4452 60.0144 61.4337 60.2339 61.4111 60.4507C58.456 61.6542 56.3654 64.5673 56.3654 67.9634C56.3654 68.4921 56.7919 68.9205 57.3179 68.9205C57.8439 68.9205 58.2704 68.4921 58.2704 67.9634C58.2704 64.5504 61.0334 61.7738 64.4296 61.7738C64.9557 61.7738 65.3821 61.3454 65.3821 60.8166C65.3821 60.2879 64.9557 59.8595 64.4296 59.8595Z" fill="#E4E9FA"/>
</g>
<path d="M40.5134 80.258V81.4962L51.7945 81.488L63.0821 81.4756L63.0953 80.2456L63.1084 79.0198H51.8142H40.5134V80.258Z" fill="#E4E9FA"/>
<path d="M42.2902 84.2699V85.4586H51.787H61.2838L61.2714 84.2778L61.2529 83.101L51.7746 83.0891L42.2902 83.0812V84.2699Z" fill="#E4E9FA"/>
<path d="M49.8868 86.1272C49.8868 87.1257 50.6962 87.9351 51.6947 87.9351H51.8109H51.9271C52.9255 87.9351 53.7349 87.1257 53.7349 86.1272C53.7349 85.1288 52.9255 84.3194 51.9271 84.3194H51.8109H51.6947C50.6962 84.3194 49.8868 85.1288 49.8868 86.1272Z" fill="#E4E9FA"/>
<path opacity="0.2" d="M95.8525 72.3496C90.6442 82.1074 80.7698 93.1548 70.6395 97.5952C60.5091 102.036 51.2499 102.08 40.5448 99.2973C29.8397 96.5149 20.8793 91.5053 14.1933 82.694C7.5073 73.8827 2.39487 63.7704 2.59719 52.7114C2.7995 41.6525 5.39264 31.2346 12.3964 22.6737C19.4002 14.1128 28.7895 6.00416 39.5893 3.61513C50.389 1.22609 62.8491 1.94612 72.8102 6.75414C82.7714 11.5622 91.8917 19.7366 96.7396 29.6784" stroke="url(#paint0_linear_30_5912)"/>
<path opacity="0.2" d="M97.8091 68.1728C93.8108 78.4254 86.4943 87.0438 77.0266 92.6532C67.559 98.2627 56.4856 100.54 45.5727 99.1225C34.6598 97.7048 24.5359 92.6734 16.8159 84.831C9.09585 76.9886 4.61686 67.3923 3.37091 56.4584C2.12495 45.5245 4.57632 34.4883 10.334 25.1101C16.0917 15.7318 24.4315 7.94641 34.7457 4.10977C45.0599 0.273126 56.3618 0.000890737 66.8487 3.33649C77.3356 6.67209 86.4035 13.4234 92.6061 22.5135" stroke="url(#paint1_linear_30_5912)"/>
<path opacity="0.2" d="M98.1381 66.6779C94.1193 76.9828 85.6196 89.1196 76.0849 94.7261C66.5503 100.332 57.3612 101.47 46.4022 99.9725C35.4433 98.4746 25.9537 94.559 18.2734 86.5994C10.593 78.6399 4.32144 69.2026 3.21551 58.1972C2.10959 47.1918 3.7084 36.3911 9.6515 27.0626C15.5946 17.7341 23.705 8.72208 34.1468 5.0736C44.5885 1.42511 57.0464 0.667702 67.5059 4.26493C77.9654 7.86216 87.9878 14.9016 93.9766 24.2009" stroke="url(#paint2_linear_30_5912)"/>
<path opacity="0.2" d="M47.5259 99.8158C20.8272 96.0746 0.0396445 71.2146 3.75071 44.7311C7.4657 18.2196 34.3054 -1.91618 60.975 1.82097C87.5918 5.5507 104.243 32.2891 100.52 58.8564C96.8028 85.3869 74.1769 103.55 47.5259 99.8158Z" stroke="url(#paint3_linear_30_5912)"/>
<path d="M107.36 49.896H114.18V55H101.2V26.532H114.18V31.548H107.36V38.236H113.74V43.076H107.36V49.896ZM130.811 26.532C134.448 26.532 136.267 28.468 136.267 32.34V49.192C136.267 53.064 134.448 55 130.811 55H119.503V26.532H130.811ZM130.107 49.896V31.592C130.107 31.3573 130.019 31.152 129.843 30.976C129.696 30.8 129.506 30.712 129.271 30.712H125.663V50.776H129.271C129.506 50.776 129.696 50.688 129.843 50.512C130.019 50.336 130.107 50.1307 130.107 49.896ZM148.778 49.896H155.598V55H142.618V26.532H155.598V31.548H148.778V38.236H155.158V43.076H148.778V49.896ZM175.045 30.536L166.553 50.424H175.045V55H160.129V51.216L168.665 31.152H160.393V26.532H175.045V30.536ZM186.33 49.896H193.15V55H180.17V26.532H193.15V31.548H186.33V38.236H192.71V43.076H186.33V49.896Z" fill="#E4E9FA"/>
<path d="M87.936 73.152C88.048 73.152 88.212 73.152 88.428 73.152C88.652 73.144 88.88 73.136 89.112 73.128C89.344 73.12 89.552 73.116 89.736 73.116C89.92 73.108 90.032 73.104 90.072 73.104L90.144 73.224L90.084 74.772H89.544L89.496 74.724C89.48 74.572 89.456 74.452 89.424 74.364C89.4 74.276 89.328 74.212 89.208 74.172C89.088 74.132 88.9 74.108 88.644 74.1C88.396 74.092 88.048 74.088 87.6 74.088H86.916L86.904 74.196C86.896 74.308 86.888 74.412 86.88 74.508C86.88 74.604 86.876 74.716 86.868 74.844C86.868 74.972 86.868 75.128 86.868 75.312C86.868 75.496 86.868 75.732 86.868 76.02V76.428C87.06 76.42 87.244 76.42 87.42 76.428C87.596 76.428 87.76 76.424 87.912 76.416C88.064 76.408 88.192 76.396 88.296 76.38C88.408 76.356 88.488 76.32 88.536 76.272C88.616 76.192 88.656 76.08 88.656 75.936L88.716 75.876L89.16 75.852L89.208 75.876C89.192 76.06 89.176 76.22 89.16 76.356C89.152 76.492 89.148 76.648 89.148 76.824C89.148 77.016 89.152 77.196 89.16 77.364C89.176 77.524 89.192 77.7 89.208 77.892L89.16 77.916L88.704 77.892L88.656 77.856C88.656 77.656 88.62 77.508 88.548 77.412C88.484 77.324 88.3 77.276 87.996 77.268C87.7 77.252 87.368 77.244 87 77.244H86.868V78.228C86.868 78.46 86.868 78.652 86.868 78.804C86.876 78.956 86.88 79.088 86.88 79.2C86.888 79.304 86.896 79.404 86.904 79.5C86.912 79.596 86.92 79.708 86.928 79.836C86.936 79.988 87.016 80.064 87.168 80.064H87.708C88.164 80.064 88.52 80.056 88.776 80.04C89.04 80.024 89.24 79.988 89.376 79.932C89.512 79.868 89.608 79.78 89.664 79.668C89.728 79.556 89.784 79.404 89.832 79.212L89.88 79.164H90.444L90.216 80.928L90.12 81.048C90.08 81.048 89.98 81.044 89.82 81.036C89.668 81.036 89.496 81.032 89.304 81.024C89.112 81.016 88.92 81.008 88.728 81C88.536 81 88.384 81 88.272 81H85.848C85.792 81 85.7 81.004 85.572 81.012C85.444 81.02 85.312 81.028 85.176 81.036C85.04 81.044 84.908 81.052 84.78 81.06C84.652 81.068 84.56 81.072 84.504 81.072L84.48 81.024L84.516 80.568L84.576 80.52C84.704 80.52 84.824 80.516 84.936 80.508C85.048 80.492 85.14 80.456 85.212 80.4C85.276 80.344 85.336 80.272 85.392 80.184C85.456 80.096 85.496 79.94 85.512 79.716C85.512 79.66 85.512 79.596 85.512 79.524C85.52 79.444 85.524 79.348 85.524 79.236C85.532 79.124 85.536 78.988 85.536 78.828C85.536 78.668 85.536 78.468 85.536 78.228V76.272C85.536 75.992 85.536 75.756 85.536 75.564C85.536 75.372 85.536 75.208 85.536 75.072C85.536 74.936 85.532 74.82 85.524 74.724C85.524 74.628 85.52 74.532 85.512 74.436C85.496 74.22 85.456 74.064 85.392 73.968C85.336 73.872 85.276 73.8 85.212 73.752C85.14 73.688 85.048 73.652 84.936 73.644C84.824 73.636 84.704 73.632 84.576 73.632L84.516 73.584L84.48 73.128L84.504 73.08C84.56 73.08 84.652 73.084 84.78 73.092C84.908 73.1 85.044 73.108 85.188 73.116C85.34 73.124 85.484 73.132 85.62 73.14C85.764 73.148 85.88 73.152 85.968 73.152H87.936ZM96.3383 80.796C96.3383 80.74 96.3503 80.636 96.3743 80.484C96.4063 80.324 96.4303 80.184 96.4463 80.064L96.4343 80.016C96.2263 80.384 95.9383 80.664 95.5703 80.856C95.2023 81.04 94.8183 81.132 94.4183 81.132C93.9783 81.132 93.5943 81.052 93.2663 80.892C92.9463 80.732 92.6783 80.52 92.4623 80.256C92.2463 79.992 92.0863 79.688 91.9823 79.344C91.8783 79 91.8263 78.644 91.8263 78.276C91.8263 77.74 91.9103 77.284 92.0783 76.908C92.2543 76.524 92.4743 76.216 92.7383 75.984C93.0023 75.744 93.2903 75.572 93.6023 75.468C93.9223 75.356 94.2303 75.3 94.5263 75.3C94.8863 75.3 95.2423 75.384 95.5943 75.552C95.9463 75.72 96.2343 75.996 96.4583 76.38L96.4823 76.332C96.4663 76.1 96.4583 75.864 96.4583 75.624C96.4583 75.376 96.4583 75.136 96.4583 74.904C96.4583 74.656 96.4583 74.452 96.4583 74.292C96.4583 74.124 96.4543 73.984 96.4463 73.872C96.4463 73.76 96.4423 73.66 96.4343 73.572C96.4343 73.484 96.4303 73.392 96.4223 73.296C96.4143 73.216 96.3863 73.14 96.3383 73.068C96.2903 72.996 96.2543 72.948 96.2303 72.924C96.1183 72.836 96.0063 72.78 95.8943 72.756C95.7903 72.732 95.6663 72.72 95.5223 72.72L95.4743 72.672V72.276L95.5223 72.228H96.2063C96.3903 72.228 96.5823 72.228 96.7823 72.228C96.9903 72.22 97.1743 72.204 97.3343 72.18L97.7543 72.12L97.8263 72.348C97.8103 72.38 97.7943 72.44 97.7783 72.528C97.7703 72.608 97.7623 72.696 97.7543 72.792C97.7543 72.888 97.7503 72.98 97.7423 73.068C97.7423 73.156 97.7423 73.224 97.7423 73.272C97.7423 73.392 97.7383 73.508 97.7303 73.62C97.7303 73.724 97.7303 73.848 97.7303 73.992C97.7303 74.128 97.7263 74.3 97.7183 74.508C97.7183 74.708 97.7183 74.968 97.7183 75.288V77.904C97.7183 78.24 97.7183 78.512 97.7183 78.72C97.7263 78.92 97.7303 79.088 97.7303 79.224C97.7383 79.36 97.7423 79.48 97.7423 79.584C97.7503 79.68 97.7583 79.8 97.7663 79.944C97.7823 80.088 97.8023 80.192 97.8263 80.256C97.8583 80.32 97.9023 80.372 97.9583 80.412C98.0223 80.476 98.1103 80.516 98.2223 80.532C98.3343 80.54 98.4383 80.544 98.5343 80.544L98.5823 80.592L98.6063 81L98.5823 81.048C98.4463 81.032 98.2983 81.02 98.1383 81.012C97.9783 81.004 97.8263 81 97.6823 81C97.4663 81 97.2503 81 97.0343 81C96.8183 81.008 96.6143 81.02 96.4223 81.036L96.3383 80.796ZM93.2183 78.264C93.2183 78.504 93.2463 78.74 93.3023 78.972C93.3663 79.196 93.4583 79.4 93.5783 79.584C93.6983 79.76 93.8503 79.904 94.0343 80.016C94.2263 80.12 94.4503 80.172 94.7063 80.172C94.9783 80.172 95.2183 80.128 95.4263 80.04C95.6423 79.944 95.8223 79.832 95.9663 79.704C96.1183 79.568 96.2343 79.428 96.3143 79.284C96.4023 79.14 96.4503 79.016 96.4583 78.912V77.58C96.4423 77.476 96.3943 77.352 96.3143 77.208C96.2423 77.056 96.1343 76.912 95.9903 76.776C95.8543 76.64 95.6823 76.524 95.4743 76.428C95.2663 76.324 95.0183 76.272 94.7303 76.272C94.4663 76.272 94.2383 76.332 94.0463 76.452C93.8543 76.564 93.6943 76.712 93.5663 76.896C93.4463 77.08 93.3583 77.292 93.3023 77.532C93.2463 77.772 93.2183 78.016 93.2183 78.264ZM104.415 79.968C104.199 80.312 103.931 80.592 103.611 80.808C103.291 81.024 102.887 81.132 102.399 81.132C102.175 81.132 101.955 81.104 101.739 81.048C101.531 80.992 101.339 80.904 101.163 80.784C100.995 80.664 100.847 80.508 100.719 80.316C100.591 80.116 100.499 79.876 100.443 79.596C100.427 79.524 100.411 79.444 100.395 79.356C100.387 79.268 100.379 79.156 100.371 79.02C100.371 78.876 100.367 78.704 100.359 78.504C100.359 78.296 100.359 78.04 100.359 77.736V76.656C100.359 76.568 100.339 76.48 100.299 76.392C100.259 76.304 100.227 76.248 100.203 76.224C100.123 76.128 100.023 76.072 99.9029 76.056C99.7829 76.04 99.6589 76.032 99.5309 76.032L99.4949 75.984V75.576L99.5309 75.54H100.119C100.303 75.54 100.499 75.54 100.707 75.54C100.915 75.532 101.099 75.516 101.259 75.492L101.679 75.432L101.751 75.66C101.735 75.692 101.723 75.752 101.715 75.84C101.707 75.92 101.699 76.008 101.691 76.104C101.683 76.2 101.679 76.292 101.679 76.38C101.679 76.468 101.679 76.536 101.679 76.584C101.679 76.688 101.675 76.816 101.667 76.968C101.667 77.112 101.663 77.264 101.655 77.424C101.655 77.576 101.651 77.724 101.643 77.868C101.643 78.012 101.643 78.132 101.643 78.228C101.643 78.436 101.651 78.648 101.667 78.864C101.683 79.072 101.715 79.264 101.763 79.44C101.843 79.72 101.963 79.928 102.123 80.064C102.291 80.192 102.523 80.256 102.819 80.256C103.059 80.256 103.271 80.216 103.455 80.136C103.647 80.056 103.811 79.96 103.947 79.848C104.083 79.736 104.195 79.616 104.283 79.488C104.371 79.352 104.427 79.232 104.451 79.128V77.928C104.451 77.56 104.443 77.276 104.427 77.076C104.419 76.876 104.407 76.72 104.391 76.608C104.375 76.504 104.351 76.42 104.319 76.356C104.295 76.292 104.271 76.248 104.247 76.224C104.159 76.128 104.047 76.072 103.911 76.056C103.775 76.04 103.667 76.032 103.587 76.032L103.539 75.984V75.576L103.587 75.54H103.803C103.883 75.54 103.987 75.54 104.115 75.54C104.251 75.54 104.391 75.54 104.535 75.54C104.679 75.532 104.819 75.528 104.955 75.528C105.091 75.52 105.207 75.508 105.303 75.492L105.723 75.432L105.795 75.66C105.755 75.892 105.727 76.196 105.711 76.572C105.703 76.772 105.695 76.936 105.687 77.064C105.687 77.184 105.687 77.284 105.687 77.364C105.687 77.444 105.687 77.508 105.687 77.556C105.687 77.596 105.687 77.636 105.687 77.676V78.66C105.687 79.1 105.699 79.488 105.723 79.824C105.739 79.976 105.759 80.1 105.783 80.196C105.807 80.284 105.851 80.356 105.915 80.412C105.987 80.476 106.071 80.516 106.167 80.532C106.263 80.54 106.379 80.544 106.515 80.544L106.563 80.592L106.587 81L106.563 81.036C106.411 81.02 106.263 81.008 106.119 81C105.975 81 105.807 81 105.615 81C105.423 81 105.219 81 105.003 81C104.787 81.008 104.579 81.02 104.379 81.036L104.307 80.796C104.331 80.708 104.355 80.592 104.379 80.448C104.411 80.296 104.435 80.144 104.451 79.992L104.415 79.968ZM112.276 77.124L112.228 77.088C112.228 76.904 112.172 76.756 112.06 76.644C111.956 76.524 111.828 76.432 111.676 76.368C111.524 76.304 111.36 76.26 111.184 76.236C111.016 76.212 110.868 76.2 110.74 76.2C110.452 76.2 110.2 76.256 109.984 76.368C109.768 76.48 109.592 76.628 109.456 76.812C109.32 76.996 109.216 77.208 109.144 77.448C109.08 77.688 109.048 77.936 109.048 78.192C109.048 78.464 109.084 78.724 109.156 78.972C109.236 79.22 109.352 79.44 109.504 79.632C109.656 79.824 109.848 79.98 110.08 80.1C110.32 80.212 110.6 80.268 110.92 80.268C111.192 80.268 111.48 80.24 111.784 80.184C112.088 80.128 112.36 80.036 112.6 79.908L112.804 80.196L112.624 80.532C112.536 80.596 112.42 80.664 112.276 80.736C112.14 80.8 111.984 80.864 111.808 80.928C111.632 80.984 111.44 81.032 111.232 81.072C111.032 81.112 110.832 81.132 110.632 81.132C110.24 81.132 109.864 81.064 109.504 80.928C109.152 80.784 108.84 80.588 108.568 80.34C108.304 80.084 108.092 79.78 107.932 79.428C107.772 79.068 107.692 78.672 107.692 78.24C107.692 77.8 107.772 77.4 107.932 77.04C108.092 76.68 108.312 76.372 108.592 76.116C108.872 75.86 109.196 75.66 109.564 75.516C109.94 75.372 110.34 75.3 110.764 75.3C110.956 75.3 111.148 75.316 111.34 75.348C111.54 75.372 111.728 75.404 111.904 75.444C112.088 75.484 112.252 75.532 112.396 75.588C112.54 75.636 112.656 75.684 112.744 75.732L112.78 75.84L112.648 77.124H112.276ZM117.402 80.916C117.426 80.844 117.442 80.74 117.45 80.604C117.466 80.468 117.486 80.344 117.51 80.232L117.498 80.196C117.402 80.316 117.29 80.432 117.162 80.544C117.042 80.656 116.906 80.756 116.754 80.844C116.602 80.932 116.438 81 116.262 81.048C116.094 81.104 115.914 81.132 115.722 81.132C115.434 81.132 115.182 81.088 114.966 81C114.75 80.912 114.57 80.796 114.426 80.652C114.282 80.508 114.17 80.34 114.09 80.148C114.018 79.956 113.982 79.756 113.982 79.548C113.982 79.236 114.05 78.964 114.186 78.732C114.322 78.5 114.502 78.312 114.726 78.168C114.934 78.032 115.178 77.928 115.458 77.856C115.738 77.776 116.01 77.716 116.274 77.676C116.538 77.636 116.778 77.612 116.994 77.604C117.21 77.588 117.354 77.58 117.426 77.58H117.594C117.586 77.332 117.57 77.14 117.546 77.004C117.522 76.86 117.49 76.74 117.45 76.644C117.378 76.484 117.258 76.372 117.09 76.308C116.93 76.236 116.738 76.2 116.514 76.2C116.378 76.2 116.23 76.212 116.07 76.236C115.918 76.252 115.774 76.288 115.638 76.344C115.502 76.4 115.382 76.48 115.278 76.584C115.182 76.68 115.126 76.808 115.11 76.968L115.062 77.004H114.678L114.57 75.876L114.606 75.804C114.654 75.756 114.746 75.704 114.882 75.648C115.018 75.592 115.182 75.54 115.374 75.492C115.566 75.436 115.774 75.392 115.998 75.36C116.23 75.32 116.462 75.3 116.694 75.3C117.006 75.3 117.298 75.34 117.57 75.42C117.842 75.492 118.074 75.604 118.266 75.756C118.466 75.908 118.622 76.1 118.734 76.332C118.846 76.556 118.902 76.82 118.902 77.124C118.902 77.452 118.898 77.732 118.89 77.964C118.89 78.196 118.886 78.412 118.878 78.612C118.87 78.812 118.862 79.008 118.854 79.2C118.854 79.384 118.854 79.592 118.854 79.824C118.87 80.008 118.89 80.14 118.914 80.22C118.938 80.3 118.978 80.364 119.034 80.412C119.098 80.476 119.194 80.516 119.322 80.532C119.458 80.54 119.582 80.544 119.694 80.544L119.73 80.592L119.754 81L119.742 81.048C119.606 81.032 119.45 81.02 119.274 81.012C119.098 81.004 118.934 81 118.782 81C118.558 81 118.334 81 118.11 81C117.886 81.008 117.674 81.02 117.474 81.036L117.402 80.916ZM117.402 79.62C117.426 79.58 117.45 79.532 117.474 79.476C117.506 79.42 117.526 79.352 117.534 79.272L117.594 78.252H117.486C117.238 78.252 116.994 78.268 116.754 78.3C116.514 78.332 116.298 78.392 116.106 78.48C115.914 78.568 115.758 78.692 115.638 78.852C115.518 79.012 115.458 79.22 115.458 79.476C115.458 79.692 115.51 79.864 115.614 79.992C115.726 80.12 115.874 80.184 116.058 80.184C116.194 80.184 116.33 80.168 116.466 80.136C116.61 80.096 116.742 80.048 116.862 79.992C116.982 79.936 117.09 79.876 117.186 79.812C117.282 79.74 117.354 79.676 117.402 79.62ZM124.034 76.2H122.714C122.714 76.664 122.71 77.096 122.702 77.496C122.702 77.888 122.702 78.232 122.702 78.528C122.702 78.816 122.698 79.052 122.69 79.236C122.69 79.42 122.69 79.532 122.69 79.572C122.69 79.884 122.75 80.092 122.87 80.196C122.99 80.3 123.13 80.352 123.29 80.352C123.41 80.352 123.546 80.34 123.698 80.316C123.85 80.292 123.978 80.26 124.082 80.22L124.154 80.352L124.034 80.748C123.818 80.868 123.594 80.96 123.362 81.024C123.138 81.096 122.93 81.132 122.738 81.132C122.25 81.132 121.902 81.02 121.694 80.796C121.486 80.572 121.382 80.284 121.382 79.932C121.382 79.86 121.386 79.72 121.394 79.512C121.402 79.296 121.41 79.028 121.418 78.708C121.426 78.38 121.434 78.004 121.442 77.58C121.45 77.156 121.454 76.696 121.454 76.2H120.83L120.782 76.14V75.612L120.83 75.564L121.454 75.396C121.454 75.14 121.446 74.88 121.43 74.616C121.422 74.344 121.41 74.08 121.394 73.824L121.478 73.752L121.646 73.74C121.702 73.74 121.778 73.736 121.874 73.728C121.978 73.72 122.086 73.712 122.198 73.704C122.31 73.688 122.414 73.672 122.51 73.656C122.614 73.64 122.69 73.624 122.738 73.608L122.846 73.656C122.806 73.856 122.774 74.124 122.75 74.46C122.726 74.788 122.714 75.1 122.714 75.396L124.034 75.324L124.094 75.372V76.14L124.034 76.2ZM128.316 81.048C128.26 81.048 128.176 81.044 128.064 81.036C127.952 81.028 127.832 81.02 127.704 81.012C127.576 81.012 127.456 81.008 127.344 81C127.232 81 127.148 81 127.092 81H126.444C126.388 81 126.3 81 126.18 81C126.068 81.008 125.948 81.012 125.82 81.012C125.7 81.02 125.58 81.028 125.46 81.036C125.348 81.044 125.264 81.048 125.208 81.048L125.196 81L125.22 80.592L125.256 80.544C125.376 80.544 125.5 80.54 125.628 80.532C125.756 80.516 125.852 80.476 125.916 80.412C125.972 80.356 126.012 80.284 126.036 80.196C126.06 80.108 126.08 79.984 126.096 79.824C126.104 79.768 126.108 79.712 126.108 79.656C126.116 79.6 126.12 79.54 126.12 79.476C126.128 79.412 126.132 79.336 126.132 79.248C126.132 79.16 126.132 79.052 126.132 78.924V77.568C126.132 77.416 126.132 77.296 126.132 77.208C126.132 77.112 126.128 77.032 126.12 76.968C126.12 76.904 126.116 76.848 126.108 76.8C126.108 76.744 126.104 76.68 126.096 76.608C126.08 76.528 126.056 76.452 126.024 76.38C125.992 76.308 125.964 76.26 125.94 76.236C125.86 76.132 125.76 76.072 125.64 76.056C125.52 76.04 125.396 76.032 125.268 76.032L125.22 75.984V75.576L125.268 75.54H125.88C126.064 75.54 126.26 75.54 126.468 75.54C126.676 75.532 126.86 75.516 127.02 75.492L127.44 75.432L127.512 75.66C127.496 75.692 127.48 75.744 127.464 75.816C127.456 75.88 127.448 75.952 127.44 76.032C127.44 76.104 127.436 76.18 127.428 76.26C127.428 76.332 127.428 76.392 127.428 76.44C127.428 76.504 127.424 76.564 127.416 76.62C127.416 76.668 127.416 76.728 127.416 76.8C127.416 76.864 127.412 76.948 127.404 77.052C127.404 77.156 127.404 77.284 127.404 77.436V78.78C127.404 78.94 127.404 79.072 127.404 79.176C127.412 79.272 127.416 79.356 127.416 79.428C127.424 79.5 127.428 79.568 127.428 79.632C127.436 79.688 127.444 79.752 127.452 79.824C127.468 79.992 127.484 80.12 127.5 80.208C127.524 80.288 127.568 80.356 127.632 80.412C127.696 80.476 127.784 80.516 127.896 80.532C128.016 80.54 128.136 80.544 128.256 80.544L128.316 80.604L128.34 81L128.316 81.048ZM125.88 73.644C125.88 73.548 125.9 73.452 125.94 73.356C125.98 73.26 126.036 73.176 126.108 73.104C126.18 73.024 126.26 72.964 126.348 72.924C126.444 72.876 126.544 72.852 126.648 72.852C126.848 72.852 127.028 72.936 127.188 73.104C127.356 73.264 127.44 73.444 127.44 73.644C127.44 73.748 127.416 73.848 127.368 73.944C127.328 74.032 127.268 74.112 127.188 74.184C127.116 74.256 127.032 74.312 126.936 74.352C126.84 74.392 126.744 74.412 126.648 74.412C126.44 74.412 126.26 74.336 126.108 74.184C125.956 74.032 125.88 73.852 125.88 73.644ZM132.38 75.3C132.852 75.3 133.272 75.384 133.64 75.552C134.008 75.712 134.316 75.932 134.564 76.212C134.82 76.484 135.012 76.8 135.14 77.16C135.276 77.52 135.344 77.892 135.344 78.276C135.344 78.644 135.284 79 135.164 79.344C135.044 79.688 134.86 79.992 134.612 80.256C134.364 80.52 134.056 80.732 133.688 80.892C133.32 81.052 132.892 81.132 132.404 81.132C131.9 81.132 131.46 81.048 131.084 80.88C130.708 80.712 130.396 80.492 130.148 80.22C129.908 79.948 129.728 79.64 129.608 79.296C129.488 78.944 129.428 78.584 129.428 78.216C129.428 77.824 129.496 77.452 129.632 77.1C129.768 76.748 129.96 76.44 130.208 76.176C130.464 75.904 130.772 75.692 131.132 75.54C131.5 75.38 131.916 75.3 132.38 75.3ZM132.392 80.304C132.64 80.304 132.856 80.248 133.04 80.136C133.232 80.016 133.392 79.864 133.52 79.68C133.648 79.488 133.74 79.272 133.796 79.032C133.86 78.784 133.892 78.532 133.892 78.276C133.892 78.028 133.856 77.78 133.784 77.532C133.72 77.276 133.62 77.048 133.484 76.848C133.356 76.648 133.196 76.484 133.004 76.356C132.812 76.228 132.592 76.164 132.344 76.164C132.088 76.164 131.864 76.224 131.672 76.344C131.488 76.464 131.336 76.62 131.216 76.812C131.096 77.004 131.004 77.22 130.94 77.46C130.884 77.7 130.856 77.944 130.856 78.192C130.856 78.448 130.888 78.7 130.952 78.948C131.024 79.196 131.124 79.424 131.252 79.632C131.388 79.832 131.552 79.996 131.744 80.124C131.936 80.244 132.152 80.304 132.392 80.304ZM138.818 76.524C139.002 76.172 139.254 75.88 139.574 75.648C139.894 75.416 140.27 75.3 140.702 75.3C140.95 75.3 141.194 75.332 141.434 75.396C141.674 75.46 141.89 75.56 142.082 75.696C142.282 75.832 142.446 76.008 142.574 76.224C142.71 76.432 142.798 76.68 142.838 76.968C142.862 77.176 142.874 77.396 142.874 77.628C142.882 77.86 142.886 78.092 142.886 78.324C142.894 78.596 142.898 78.848 142.898 79.08C142.898 79.304 142.898 79.552 142.898 79.824C142.898 80.008 142.918 80.148 142.958 80.244C143.006 80.332 143.062 80.392 143.126 80.424C143.214 80.472 143.306 80.504 143.402 80.52C143.506 80.536 143.622 80.544 143.75 80.544L143.786 80.592L143.81 81L143.786 81.048C143.618 81.032 143.43 81.02 143.222 81.012C143.022 81.004 142.826 81 142.634 81C142.442 81 142.25 81 142.058 81C141.866 81.008 141.686 81.02 141.518 81.036L141.434 80.796C141.458 80.692 141.478 80.536 141.494 80.328C141.518 80.12 141.534 79.952 141.542 79.824C141.558 79.52 141.57 79.236 141.578 78.972C141.586 78.708 141.59 78.472 141.59 78.264C141.59 78.08 141.586 77.88 141.578 77.664C141.57 77.448 141.542 77.26 141.494 77.1C141.43 76.844 141.298 76.656 141.098 76.536C140.906 76.408 140.682 76.344 140.426 76.344C140.186 76.344 139.966 76.388 139.766 76.476C139.566 76.564 139.394 76.672 139.25 76.8C139.114 76.92 139.006 77.048 138.926 77.184C138.846 77.32 138.806 77.44 138.806 77.544V78.78C138.806 78.94 138.806 79.072 138.806 79.176C138.806 79.272 138.806 79.356 138.806 79.428C138.814 79.5 138.818 79.568 138.818 79.632C138.826 79.688 138.834 79.752 138.842 79.824C138.858 79.992 138.89 80.12 138.938 80.208C138.994 80.288 139.054 80.356 139.118 80.412C139.182 80.476 139.258 80.516 139.346 80.532C139.434 80.54 139.538 80.544 139.658 80.544L139.718 80.604L139.742 81L139.718 81.048C139.662 81.048 139.578 81.044 139.466 81.036C139.354 81.028 139.234 81.02 139.106 81.012C138.978 81.012 138.858 81.008 138.746 81C138.634 81 138.55 81 138.494 81H137.834C137.778 81 137.69 81 137.57 81C137.458 81.008 137.338 81.012 137.21 81.012C137.09 81.02 136.97 81.028 136.85 81.036C136.738 81.044 136.654 81.048 136.598 81.048L136.586 81L136.61 80.592L136.646 80.544C136.774 80.544 136.886 80.54 136.982 80.532C137.086 80.516 137.17 80.476 137.234 80.412C137.29 80.356 137.342 80.284 137.39 80.196C137.438 80.108 137.47 79.984 137.486 79.824C137.494 79.768 137.498 79.712 137.498 79.656C137.506 79.6 137.51 79.54 137.51 79.476C137.518 79.412 137.522 79.336 137.522 79.248C137.522 79.16 137.522 79.052 137.522 78.924V77.688C137.522 77.536 137.522 77.408 137.522 77.304C137.522 77.2 137.518 77.108 137.51 77.028C137.51 76.948 137.506 76.876 137.498 76.812C137.498 76.748 137.494 76.68 137.486 76.608C137.47 76.528 137.446 76.452 137.414 76.38C137.382 76.308 137.354 76.26 137.33 76.236C137.25 76.132 137.15 76.072 137.03 76.056C136.91 76.04 136.786 76.032 136.658 76.032L136.61 75.984V75.576L136.658 75.54H137.27C137.454 75.54 137.65 75.54 137.858 75.54C138.074 75.532 138.262 75.516 138.422 75.492L138.842 75.432L138.914 75.66C138.85 75.748 138.81 75.872 138.794 76.032C138.786 76.184 138.782 76.34 138.782 76.5L138.818 76.524ZM148.117 75.576L148.165 75.54H148.765C148.949 75.54 149.145 75.54 149.353 75.54C149.569 75.532 149.757 75.516 149.917 75.492L150.337 75.432L150.409 75.66C150.393 75.7 150.377 75.756 150.361 75.828C150.353 75.892 150.341 75.964 150.325 76.044C150.317 76.124 150.309 76.204 150.301 76.284C150.293 76.356 150.289 76.42 150.289 76.476L150.325 76.5C150.413 76.34 150.513 76.188 150.625 76.044C150.745 75.892 150.881 75.764 151.033 75.66C151.185 75.548 151.357 75.46 151.549 75.396C151.741 75.332 151.961 75.3 152.209 75.3C152.649 75.3 153.041 75.412 153.385 75.636C153.737 75.86 153.989 76.172 154.141 76.572C154.229 76.428 154.333 76.28 154.453 76.128C154.573 75.976 154.713 75.84 154.873 75.72C155.033 75.592 155.213 75.492 155.413 75.42C155.621 75.34 155.853 75.3 156.109 75.3C156.357 75.3 156.597 75.332 156.829 75.396C157.061 75.46 157.273 75.56 157.465 75.696C157.657 75.832 157.821 76.004 157.957 76.212C158.093 76.42 158.189 76.672 158.245 76.968C158.285 77.176 158.305 77.396 158.305 77.628C158.313 77.86 158.317 78.092 158.317 78.324V79.824C158.317 79.984 158.337 80.1 158.377 80.172C158.425 80.244 158.469 80.312 158.509 80.376C158.565 80.456 158.653 80.504 158.773 80.52C158.901 80.536 159.029 80.544 159.157 80.544L159.205 80.592L159.229 81L159.205 81.048C159.061 81.032 158.905 81.02 158.737 81.012C158.569 81.004 158.405 81 158.245 81C157.757 81 157.317 81.012 156.925 81.036L156.841 80.796C156.865 80.692 156.885 80.556 156.901 80.388C156.925 80.22 156.941 80.072 156.949 79.944C156.957 79.84 156.961 79.704 156.961 79.536C156.969 79.368 156.977 79.2 156.985 79.032C156.993 78.856 156.997 78.696 156.997 78.552C157.005 78.4 157.009 78.284 157.009 78.204C157.009 78.044 157.001 77.844 156.985 77.604C156.977 77.356 156.953 77.148 156.913 76.98C156.849 76.772 156.729 76.616 156.553 76.512C156.377 76.4 156.181 76.344 155.965 76.344C155.757 76.344 155.565 76.376 155.389 76.44C155.221 76.496 155.069 76.568 154.933 76.656C154.797 76.744 154.681 76.844 154.585 76.956C154.497 77.068 154.429 77.172 154.381 77.268C154.397 77.444 154.405 77.62 154.405 77.796C154.413 77.972 154.417 78.148 154.417 78.324V79.824C154.417 79.992 154.433 80.116 154.465 80.196C154.505 80.276 154.557 80.348 154.621 80.412C154.693 80.476 154.781 80.516 154.885 80.532C154.997 80.54 155.113 80.544 155.233 80.544L155.293 80.604L155.317 81L155.293 81.048C155.237 81.048 155.153 81.044 155.041 81.036C154.929 81.028 154.809 81.02 154.681 81.012C154.553 81.012 154.433 81.008 154.321 81C154.209 81 154.125 81 154.069 81H153.421C153.365 81 153.277 81 153.157 81C153.045 81.008 152.925 81.012 152.797 81.012C152.677 81.02 152.557 81.028 152.437 81.036C152.325 81.044 152.241 81.048 152.185 81.048L152.161 81L152.185 80.592L152.233 80.544C152.361 80.544 152.481 80.54 152.593 80.532C152.713 80.516 152.805 80.476 152.869 80.412C152.933 80.356 152.977 80.284 153.001 80.196C153.033 80.108 153.053 79.984 153.061 79.824C153.061 79.728 153.065 79.604 153.073 79.452C153.081 79.292 153.085 79.132 153.085 78.972C153.093 78.812 153.097 78.664 153.097 78.528C153.105 78.384 153.109 78.276 153.109 78.204C153.109 78.124 153.109 78.032 153.109 77.928C153.109 77.816 153.105 77.704 153.097 77.592C153.089 77.48 153.077 77.372 153.061 77.268C153.053 77.164 153.037 77.068 153.013 76.98C152.941 76.772 152.817 76.616 152.641 76.512C152.473 76.4 152.281 76.344 152.065 76.344C151.801 76.344 151.561 76.388 151.345 76.476C151.129 76.564 150.941 76.672 150.781 76.8C150.629 76.928 150.509 77.06 150.421 77.196C150.341 77.332 150.301 77.452 150.301 77.556V78.66C150.301 78.836 150.301 78.98 150.301 79.092C150.309 79.204 150.313 79.3 150.313 79.38C150.321 79.46 150.325 79.536 150.325 79.608C150.333 79.672 150.341 79.744 150.349 79.824C150.365 79.992 150.401 80.12 150.457 80.208C150.513 80.288 150.585 80.364 150.673 80.436C150.737 80.492 150.809 80.524 150.889 80.532C150.977 80.54 151.069 80.544 151.165 80.544L151.225 80.604L151.249 81L151.225 81.048C151.169 81.048 151.081 81.044 150.961 81.036C150.849 81.028 150.729 81.02 150.601 81.012C150.481 81.012 150.361 81.008 150.241 81C150.129 81 150.045 81 149.989 81H149.341C149.285 81 149.197 81 149.077 81C148.965 81.008 148.845 81.012 148.717 81.012C148.597 81.02 148.477 81.028 148.357 81.036C148.245 81.044 148.161 81.048 148.105 81.048L148.093 81L148.117 80.592L148.153 80.544C148.281 80.544 148.397 80.536 148.501 80.52C148.613 80.504 148.701 80.464 148.765 80.4C148.821 80.344 148.869 80.276 148.909 80.196C148.949 80.108 148.977 79.984 148.993 79.824C149.001 79.696 149.009 79.568 149.017 79.44C149.025 79.304 149.029 79.092 149.029 78.804V77.808C149.029 77.64 149.029 77.5 149.029 77.388C149.029 77.268 149.025 77.164 149.017 77.076C149.017 76.988 149.013 76.908 149.005 76.836C149.005 76.764 149.001 76.688 148.993 76.608C148.977 76.528 148.953 76.452 148.921 76.38C148.889 76.308 148.861 76.26 148.837 76.236C148.757 76.132 148.657 76.072 148.537 76.056C148.417 76.04 148.293 76.032 148.165 76.032L148.117 75.984V75.576ZM163.547 80.916C163.571 80.844 163.587 80.74 163.595 80.604C163.611 80.468 163.631 80.344 163.655 80.232L163.643 80.196C163.547 80.316 163.435 80.432 163.307 80.544C163.187 80.656 163.051 80.756 162.899 80.844C162.747 80.932 162.583 81 162.407 81.048C162.239 81.104 162.059 81.132 161.867 81.132C161.579 81.132 161.327 81.088 161.111 81C160.895 80.912 160.715 80.796 160.571 80.652C160.427 80.508 160.315 80.34 160.235 80.148C160.163 79.956 160.127 79.756 160.127 79.548C160.127 79.236 160.195 78.964 160.331 78.732C160.467 78.5 160.647 78.312 160.871 78.168C161.079 78.032 161.323 77.928 161.603 77.856C161.883 77.776 162.155 77.716 162.419 77.676C162.683 77.636 162.923 77.612 163.139 77.604C163.355 77.588 163.499 77.58 163.571 77.58H163.739C163.731 77.332 163.715 77.14 163.691 77.004C163.667 76.86 163.635 76.74 163.595 76.644C163.523 76.484 163.403 76.372 163.235 76.308C163.075 76.236 162.883 76.2 162.659 76.2C162.523 76.2 162.375 76.212 162.215 76.236C162.063 76.252 161.919 76.288 161.783 76.344C161.647 76.4 161.527 76.48 161.423 76.584C161.327 76.68 161.271 76.808 161.255 76.968L161.207 77.004H160.823L160.715 75.876L160.751 75.804C160.799 75.756 160.891 75.704 161.027 75.648C161.163 75.592 161.327 75.54 161.519 75.492C161.711 75.436 161.919 75.392 162.143 75.36C162.375 75.32 162.607 75.3 162.839 75.3C163.151 75.3 163.443 75.34 163.715 75.42C163.987 75.492 164.219 75.604 164.411 75.756C164.611 75.908 164.767 76.1 164.879 76.332C164.991 76.556 165.047 76.82 165.047 77.124C165.047 77.452 165.043 77.732 165.035 77.964C165.035 78.196 165.031 78.412 165.023 78.612C165.015 78.812 165.007 79.008 164.999 79.2C164.999 79.384 164.999 79.592 164.999 79.824C165.015 80.008 165.035 80.14 165.059 80.22C165.083 80.3 165.123 80.364 165.179 80.412C165.243 80.476 165.339 80.516 165.467 80.532C165.603 80.54 165.727 80.544 165.839 80.544L165.875 80.592L165.899 81L165.887 81.048C165.751 81.032 165.595 81.02 165.419 81.012C165.243 81.004 165.079 81 164.927 81C164.703 81 164.479 81 164.255 81C164.031 81.008 163.819 81.02 163.619 81.036L163.547 80.916ZM163.547 79.62C163.571 79.58 163.595 79.532 163.619 79.476C163.651 79.42 163.671 79.352 163.679 79.272L163.739 78.252H163.631C163.383 78.252 163.139 78.268 162.899 78.3C162.659 78.332 162.443 78.392 162.251 78.48C162.059 78.568 161.903 78.692 161.783 78.852C161.663 79.012 161.603 79.22 161.603 79.476C161.603 79.692 161.655 79.864 161.759 79.992C161.871 80.12 162.019 80.184 162.203 80.184C162.339 80.184 162.475 80.168 162.611 80.136C162.755 80.096 162.887 80.048 163.007 79.992C163.127 79.936 163.235 79.876 163.331 79.812C163.427 79.74 163.499 79.676 163.547 79.62ZM171.439 80.796C171.439 80.74 171.451 80.636 171.475 80.484C171.507 80.324 171.531 80.184 171.547 80.064L171.535 80.016C171.327 80.384 171.039 80.664 170.671 80.856C170.303 81.04 169.919 81.132 169.519 81.132C169.079 81.132 168.695 81.052 168.367 80.892C168.047 80.732 167.779 80.52 167.563 80.256C167.347 79.992 167.187 79.688 167.083 79.344C166.979 79 166.927 78.644 166.927 78.276C166.927 77.74 167.011 77.284 167.179 76.908C167.355 76.524 167.575 76.216 167.839 75.984C168.103 75.744 168.391 75.572 168.703 75.468C169.023 75.356 169.331 75.3 169.627 75.3C169.987 75.3 170.343 75.384 170.695 75.552C171.047 75.72 171.335 75.996 171.559 76.38L171.583 76.332C171.567 76.1 171.559 75.864 171.559 75.624C171.559 75.376 171.559 75.136 171.559 74.904C171.559 74.656 171.559 74.452 171.559 74.292C171.559 74.124 171.555 73.984 171.547 73.872C171.547 73.76 171.543 73.66 171.535 73.572C171.535 73.484 171.531 73.392 171.523 73.296C171.515 73.216 171.487 73.14 171.439 73.068C171.391 72.996 171.355 72.948 171.331 72.924C171.219 72.836 171.107 72.78 170.995 72.756C170.891 72.732 170.767 72.72 170.623 72.72L170.575 72.672V72.276L170.623 72.228H171.307C171.491 72.228 171.683 72.228 171.883 72.228C172.091 72.22 172.275 72.204 172.435 72.18L172.855 72.12L172.927 72.348C172.911 72.38 172.895 72.44 172.879 72.528C172.871 72.608 172.863 72.696 172.855 72.792C172.855 72.888 172.851 72.98 172.843 73.068C172.843 73.156 172.843 73.224 172.843 73.272C172.843 73.392 172.839 73.508 172.831 73.62C172.831 73.724 172.831 73.848 172.831 73.992C172.831 74.128 172.827 74.3 172.819 74.508C172.819 74.708 172.819 74.968 172.819 75.288V77.904C172.819 78.24 172.819 78.512 172.819 78.72C172.827 78.92 172.831 79.088 172.831 79.224C172.839 79.36 172.843 79.48 172.843 79.584C172.851 79.68 172.859 79.8 172.867 79.944C172.883 80.088 172.903 80.192 172.927 80.256C172.959 80.32 173.003 80.372 173.059 80.412C173.123 80.476 173.211 80.516 173.323 80.532C173.435 80.54 173.539 80.544 173.635 80.544L173.683 80.592L173.707 81L173.683 81.048C173.547 81.032 173.399 81.02 173.239 81.012C173.079 81.004 172.927 81 172.783 81C172.567 81 172.351 81 172.135 81C171.919 81.008 171.715 81.02 171.523 81.036L171.439 80.796ZM168.319 78.264C168.319 78.504 168.347 78.74 168.403 78.972C168.467 79.196 168.559 79.4 168.679 79.584C168.799 79.76 168.951 79.904 169.135 80.016C169.327 80.12 169.551 80.172 169.807 80.172C170.079 80.172 170.319 80.128 170.527 80.04C170.743 79.944 170.923 79.832 171.067 79.704C171.219 79.568 171.335 79.428 171.415 79.284C171.503 79.14 171.551 79.016 171.559 78.912V77.58C171.543 77.476 171.495 77.352 171.415 77.208C171.343 77.056 171.235 76.912 171.091 76.776C170.955 76.64 170.783 76.524 170.575 76.428C170.367 76.324 170.119 76.272 169.831 76.272C169.567 76.272 169.339 76.332 169.147 76.452C168.955 76.564 168.795 76.712 168.667 76.896C168.547 77.08 168.459 77.292 168.403 77.532C168.347 77.772 168.319 78.016 168.319 78.264ZM180.02 77.94L179.732 78.156C179.3 78.156 178.872 78.16 178.448 78.168C178.032 78.176 177.604 78.18 177.164 78.18H176.18C176.172 78.236 176.168 78.292 176.168 78.348C176.168 78.396 176.168 78.444 176.168 78.492C176.168 78.7 176.204 78.908 176.276 79.116C176.348 79.324 176.46 79.512 176.612 79.68C176.772 79.84 176.972 79.972 177.212 80.076C177.452 80.172 177.744 80.22 178.088 80.22C178.336 80.22 178.596 80.188 178.868 80.124C179.148 80.052 179.408 79.96 179.648 79.848L179.852 79.932V80.364L179.732 80.496C179.54 80.648 179.256 80.792 178.88 80.928C178.512 81.064 178.112 81.132 177.68 81.132C177.256 81.132 176.868 81.064 176.516 80.928C176.172 80.784 175.872 80.584 175.616 80.328C175.368 80.072 175.172 79.768 175.028 79.416C174.892 79.064 174.824 78.672 174.824 78.24C174.824 77.8 174.896 77.4 175.04 77.04C175.184 76.68 175.38 76.372 175.628 76.116C175.884 75.86 176.18 75.66 176.516 75.516C176.86 75.372 177.228 75.3 177.62 75.3C177.828 75.3 178.06 75.328 178.316 75.384C178.58 75.44 178.832 75.548 179.072 75.708C179.312 75.86 179.528 76.08 179.72 76.368C179.912 76.648 180.044 77.02 180.116 77.484L180.02 77.94ZM177.632 76.2C177.24 76.2 176.924 76.32 176.684 76.56C176.452 76.792 176.304 77.064 176.24 77.376H176.84C177.12 77.376 177.396 77.372 177.668 77.364C177.94 77.348 178.216 77.34 178.496 77.34C178.6 77.34 178.676 77.312 178.724 77.256C178.772 77.192 178.796 77.128 178.796 77.064C178.796 76.824 178.68 76.62 178.448 76.452C178.216 76.284 177.944 76.2 177.632 76.2ZM189.945 77.94L189.657 78.156C189.225 78.156 188.797 78.16 188.373 78.168C187.957 78.176 187.529 78.18 187.089 78.18H186.105C186.097 78.236 186.093 78.292 186.093 78.348C186.093 78.396 186.093 78.444 186.093 78.492C186.093 78.7 186.129 78.908 186.201 79.116C186.273 79.324 186.385 79.512 186.537 79.68C186.697 79.84 186.897 79.972 187.137 80.076C187.377 80.172 187.669 80.22 188.013 80.22C188.261 80.22 188.521 80.188 188.793 80.124C189.073 80.052 189.333 79.96 189.573 79.848L189.777 79.932V80.364L189.657 80.496C189.465 80.648 189.181 80.792 188.805 80.928C188.437 81.064 188.037 81.132 187.605 81.132C187.181 81.132 186.793 81.064 186.441 80.928C186.097 80.784 185.797 80.584 185.541 80.328C185.293 80.072 185.097 79.768 184.953 79.416C184.817 79.064 184.749 78.672 184.749 78.24C184.749 77.8 184.821 77.4 184.965 77.04C185.109 76.68 185.305 76.372 185.553 76.116C185.809 75.86 186.105 75.66 186.441 75.516C186.785 75.372 187.153 75.3 187.545 75.3C187.753 75.3 187.985 75.328 188.241 75.384C188.505 75.44 188.757 75.548 188.997 75.708C189.237 75.86 189.453 76.08 189.645 76.368C189.837 76.648 189.969 77.02 190.041 77.484L189.945 77.94ZM187.557 76.2C187.165 76.2 186.849 76.32 186.609 76.56C186.377 76.792 186.229 77.064 186.165 77.376H186.765C187.045 77.376 187.321 77.372 187.593 77.364C187.865 77.348 188.141 77.34 188.421 77.34C188.525 77.34 188.601 77.312 188.649 77.256C188.697 77.192 188.721 77.128 188.721 77.064C188.721 76.824 188.605 76.62 188.373 76.452C188.141 76.284 187.869 76.2 187.557 76.2ZM194.623 80.916C194.647 80.844 194.663 80.74 194.671 80.604C194.687 80.468 194.707 80.344 194.731 80.232L194.719 80.196C194.623 80.316 194.511 80.432 194.383 80.544C194.263 80.656 194.127 80.756 193.975 80.844C193.823 80.932 193.659 81 193.483 81.048C193.315 81.104 193.135 81.132 192.943 81.132C192.655 81.132 192.403 81.088 192.187 81C191.971 80.912 191.791 80.796 191.647 80.652C191.503 80.508 191.391 80.34 191.311 80.148C191.239 79.956 191.203 79.756 191.203 79.548C191.203 79.236 191.271 78.964 191.407 78.732C191.543 78.5 191.723 78.312 191.947 78.168C192.155 78.032 192.399 77.928 192.679 77.856C192.959 77.776 193.231 77.716 193.495 77.676C193.759 77.636 193.999 77.612 194.215 77.604C194.431 77.588 194.575 77.58 194.647 77.58H194.815C194.807 77.332 194.791 77.14 194.767 77.004C194.743 76.86 194.711 76.74 194.671 76.644C194.599 76.484 194.479 76.372 194.311 76.308C194.151 76.236 193.959 76.2 193.735 76.2C193.599 76.2 193.451 76.212 193.291 76.236C193.139 76.252 192.995 76.288 192.859 76.344C192.723 76.4 192.603 76.48 192.499 76.584C192.403 76.68 192.347 76.808 192.331 76.968L192.283 77.004H191.899L191.791 75.876L191.827 75.804C191.875 75.756 191.967 75.704 192.103 75.648C192.239 75.592 192.403 75.54 192.595 75.492C192.787 75.436 192.995 75.392 193.219 75.36C193.451 75.32 193.683 75.3 193.915 75.3C194.227 75.3 194.519 75.34 194.791 75.42C195.063 75.492 195.295 75.604 195.487 75.756C195.687 75.908 195.843 76.1 195.955 76.332C196.067 76.556 196.123 76.82 196.123 77.124C196.123 77.452 196.119 77.732 196.111 77.964C196.111 78.196 196.107 78.412 196.099 78.612C196.091 78.812 196.083 79.008 196.075 79.2C196.075 79.384 196.075 79.592 196.075 79.824C196.091 80.008 196.111 80.14 196.135 80.22C196.159 80.3 196.199 80.364 196.255 80.412C196.319 80.476 196.415 80.516 196.543 80.532C196.679 80.54 196.803 80.544 196.915 80.544L196.951 80.592L196.975 81L196.963 81.048C196.827 81.032 196.671 81.02 196.495 81.012C196.319 81.004 196.155 81 196.003 81C195.779 81 195.555 81 195.331 81C195.107 81.008 194.895 81.02 194.695 81.036L194.623 80.916ZM194.623 79.62C194.647 79.58 194.671 79.532 194.695 79.476C194.727 79.42 194.747 79.352 194.755 79.272L194.815 78.252H194.707C194.459 78.252 194.215 78.268 193.975 78.3C193.735 78.332 193.519 78.392 193.327 78.48C193.135 78.568 192.979 78.692 192.859 78.852C192.739 79.012 192.679 79.22 192.679 79.476C192.679 79.692 192.731 79.864 192.835 79.992C192.947 80.12 193.095 80.184 193.279 80.184C193.415 80.184 193.551 80.168 193.687 80.136C193.831 80.096 193.963 80.048 194.083 79.992C194.203 79.936 194.311 79.876 194.407 79.812C194.503 79.74 194.575 79.676 194.623 79.62ZM200.714 77.64C201.05 77.72 201.322 77.828 201.53 77.964C201.738 78.1 201.894 78.248 201.998 78.408C202.11 78.568 202.182 78.732 202.214 78.9C202.254 79.068 202.274 79.224 202.274 79.368C202.274 79.624 202.222 79.86 202.118 80.076C202.014 80.292 201.862 80.48 201.662 80.64C201.47 80.792 201.234 80.912 200.954 81C200.674 81.088 200.358 81.132 200.006 81.132C199.638 81.132 199.294 81.092 198.974 81.012C198.654 80.94 198.402 80.852 198.218 80.748L198.074 80.592L198.254 79.116H198.65L198.686 79.164C198.686 79.516 198.794 79.796 199.01 80.004C199.226 80.204 199.546 80.304 199.97 80.304C200.194 80.304 200.382 80.284 200.534 80.244C200.694 80.196 200.818 80.14 200.906 80.076C201.002 80.004 201.07 79.928 201.11 79.848C201.15 79.76 201.17 79.68 201.17 79.608C201.17 79.552 201.166 79.492 201.158 79.428C201.15 79.364 201.126 79.3 201.086 79.236C201.046 79.164 200.986 79.096 200.906 79.032C200.826 78.96 200.71 78.9 200.558 78.852L199.406 78.564C199.142 78.5 198.926 78.408 198.758 78.288C198.59 78.168 198.454 78.036 198.35 77.892C198.254 77.74 198.186 77.58 198.146 77.412C198.114 77.244 198.098 77.076 198.098 76.908C198.098 76.644 198.15 76.412 198.254 76.212C198.358 76.004 198.498 75.836 198.674 75.708C198.858 75.572 199.07 75.472 199.31 75.408C199.55 75.336 199.81 75.3 200.09 75.3C200.442 75.3 200.766 75.344 201.062 75.432C201.358 75.512 201.586 75.6 201.746 75.696L201.902 75.84L201.77 77.004H201.398L201.35 76.968C201.35 76.792 201.302 76.648 201.206 76.536C201.118 76.416 201.006 76.324 200.87 76.26C200.742 76.188 200.606 76.14 200.462 76.116C200.318 76.084 200.19 76.068 200.078 76.068C199.758 76.068 199.53 76.136 199.394 76.272C199.258 76.408 199.19 76.56 199.19 76.728C199.19 76.872 199.234 77.012 199.322 77.148C199.418 77.284 199.598 77.384 199.862 77.448L200.714 77.64ZM206.665 82.392C206.569 82.632 206.441 82.848 206.281 83.04C206.129 83.24 205.953 83.412 205.753 83.556C205.553 83.7 205.341 83.816 205.117 83.904C204.893 84 204.665 84.064 204.433 84.096C204.369 84.112 204.293 84.12 204.205 84.12C204.125 84.12 204.005 84.12 203.845 84.12L203.761 84.096L203.725 83.484L203.773 83.424H203.941C204.037 83.424 204.141 83.412 204.253 83.388C204.365 83.372 204.473 83.336 204.577 83.28C204.809 83.168 205.021 83.008 205.213 82.8C205.413 82.592 205.549 82.392 205.621 82.2L205.957 81.3L204.997 79.104C204.957 79.016 204.893 78.86 204.805 78.636C204.717 78.412 204.617 78.168 204.505 77.904C204.393 77.632 204.273 77.364 204.145 77.1C204.025 76.836 203.913 76.616 203.809 76.44C203.729 76.312 203.637 76.212 203.533 76.14C203.437 76.068 203.305 76.024 203.137 76.008L203.065 75.948V75.54L203.113 75.492C203.249 75.508 203.393 75.524 203.545 75.54C203.697 75.556 203.837 75.564 203.965 75.564H204.913C205.033 75.564 205.177 75.556 205.345 75.54C205.521 75.524 205.681 75.508 205.825 75.492L205.873 75.54V75.924L205.825 75.972C205.673 75.988 205.541 76.036 205.429 76.116C205.325 76.188 205.273 76.296 205.273 76.44C205.273 76.536 205.305 76.696 205.369 76.92C205.441 77.136 205.521 77.368 205.609 77.616C205.705 77.864 205.793 78.096 205.873 78.312C205.961 78.52 206.017 78.66 206.041 78.732L206.557 80.184L207.157 78.732C207.213 78.604 207.281 78.444 207.361 78.252C207.441 78.052 207.517 77.844 207.589 77.628C207.669 77.412 207.737 77.2 207.793 76.992C207.849 76.784 207.877 76.6 207.877 76.44C207.877 76.264 207.817 76.148 207.697 76.092C207.577 76.028 207.449 75.988 207.313 75.972L207.265 75.924V75.54L207.313 75.492C207.465 75.524 207.609 75.544 207.745 75.552C207.881 75.56 208.009 75.564 208.129 75.564H209.101C209.237 75.564 209.369 75.556 209.497 75.54C209.633 75.524 209.777 75.508 209.929 75.492L209.977 75.54V75.948L209.905 76.008C209.769 76.024 209.649 76.064 209.545 76.128C209.449 76.192 209.357 76.296 209.269 76.44C209.149 76.632 209.013 76.88 208.861 77.184C208.717 77.48 208.573 77.78 208.429 78.084C208.293 78.388 208.169 78.664 208.057 78.912C207.945 79.16 207.873 79.332 207.841 79.428L206.665 82.392Z" fill="#F9BA5D"/>
</g>
<defs>
<linearGradient id="paint0_linear_30_5912" x1="11.9718" y1="5.0163" x2="102.645" y2="32.8676" gradientUnits="userSpaceOnUse">
<stop stop-color="#DCDBE5"/>
<stop offset="1" stop-color="#878383" stop-opacity="0"/>
</linearGradient>
<linearGradient id="paint1_linear_30_5912" x1="18.2674" y1="2.6068" x2="98.1537" y2="51.1845" gradientUnits="userSpaceOnUse">
<stop stop-color="#D3D1DA"/>
<stop offset="0.826794" stop-color="#3C3C3C" stop-opacity="0"/>
<stop offset="0.985299" stop-color="#3C3C3C" stop-opacity="0"/>
</linearGradient>
<linearGradient id="paint2_linear_30_5912" x1="2.77766" y1="20.3585" x2="102.774" y2="26.6125" gradientUnits="userSpaceOnUse">
<stop stop-color="#CCCAD7"/>
<stop offset="1" stop-color="#636161" stop-opacity="0"/>
</linearGradient>
<linearGradient id="paint3_linear_30_5912" x1="82.4988" y1="-12.624" x2="43.9522" y2="107.168" gradientUnits="userSpaceOnUse">
<stop stop-color="white"/>
<stop offset="1" stop-color="#F7F6F6" stop-opacity="0"/>
</linearGradient>
<clipPath id="clip0_30_5912">
<rect width="208" height="103" fill="white"/>
</clipPath>
<clipPath id="clip1_30_5912">
<rect width="26.4431" height="58.9892" fill="white" transform="translate(23 18.099)"/>
</clipPath>
<clipPath id="clip2_30_5912">
<rect width="29.4524" height="59.0883" fill="white" transform="translate(51.1693 18)"/>
</clipPath>
</defs>
</svg>
