<svg width="60" height="60" viewBox="0 0 60 60" fill="none" xmlns="http://www.w3.org/2000/svg">
<path d="M59.9875 60H55C55 52.24 55.2975 51.125 50.5975 50.035C43.405 48.375 36.6125 46.8075 34.1375 41.39C33.235 39.4125 32.635 36.1525 34.9125 31.855C40.0175 22.2125 41.2975 13.9425 38.42 9.165C35.0675 3.5925 24.8875 3.5625 21.505 9.25C18.62 14.0925 19.9175 22.3175 25.065 31.8125C27.39 36.0925 26.8075 39.3625 25.91 41.35C23.455 46.795 16.7225 48.3475 9.5975 49.99C4.6875 51.125 5 52.165 5 60H0.0125L0 56.8975C0 50.5975 0.4975 46.96 7.945 45.24C16.3575 43.2975 24.665 41.5575 20.67 34.195C8.8375 12.3725 17.295 0 30 0C42.4575 0 51.1275 11.915 39.33 34.195C35.4525 41.515 43.455 43.255 52.055 45.24C59.5025 46.96 60 50.5975 60 56.8975L59.9875 60ZM26.2925 45L28.5675 50H31.4775L33.7775 45H26.2925ZM33.78 60L32.02 52.5H27.9825L26.2225 60H33.78Z" fill="#061C41"/>
</svg>
