<svg width="53" height="53" viewBox="0 0 53 53" fill="none" xmlns="http://www.w3.org/2000/svg">
<path opacity="0.25" fill-rule="evenodd" clip-rule="evenodd" d="M26.5974 51.1952C40.1821 51.1952 51.1947 40.1826 51.1947 26.5979C51.1947 13.0131 40.1821 2.00049 26.5974 2.00049C13.0126 2.00049 2 13.0131 2 26.5979C2 40.1826 13.0126 51.1952 26.5974 51.1952Z" stroke="white" stroke-width="2.10835"/>
<path d="M20.952 21.6314C22.1037 21.6314 23.0373 20.6978 23.0373 19.5462C23.0373 18.3945 22.1037 17.4609 20.952 17.4609C19.8004 17.4609 18.8668 18.3945 18.8668 19.5462C18.8668 20.6978 19.8004 21.6314 20.952 21.6314Z" fill="white"/>
<path d="M22.6897 23.0244H19.2144C19.0225 23.0244 18.8668 23.1801 18.8668 23.372V33.7981C18.8668 33.9899 19.0225 34.1456 19.2144 34.1456H22.6897C22.8816 34.1456 23.0373 33.9899 23.0373 33.7981V23.372C23.0373 23.1801 22.8816 23.0244 22.6897 23.0244Z" fill="white"/>
<path d="M33.0462 22.4457C31.5608 21.9369 29.7029 22.3838 28.5886 23.1853C28.5504 23.0358 28.4142 22.9246 28.2522 22.9246H24.7769C24.585 22.9246 24.4293 23.0803 24.4293 23.2721V33.6983C24.4293 33.8901 24.585 34.0458 24.7769 34.0458H28.2522C28.4441 34.0458 28.5998 33.8901 28.5998 33.6983V26.2054C29.1614 25.7216 29.885 25.5673 30.4772 25.8189C31.0513 26.0615 31.3801 26.6537 31.3801 27.4426V33.6983C31.3801 33.8901 31.5358 34.0458 31.7276 34.0458H35.203C35.3948 34.0458 35.5505 33.8901 35.5505 33.6983V26.7427C35.5109 23.8866 34.1673 22.8294 33.0462 22.4457Z" fill="white"/>
</svg>
