<svg width="225" height="103" viewBox="0 0 225 103" fill="none" xmlns="http://www.w3.org/2000/svg">
<g clip-path="url(#clip0_30_4743)">
<path fill-rule="evenodd" clip-rule="evenodd" d="M92.3427 37.8311C92.3427 37.8311 93.0486 22.0701 76.8652 18.7986C60.6817 15.5271 50.8588 24.4487 49.4134 30.6954C47.9679 36.942 47.2658 40.1422 47.9679 42.5921C48.8345 43.7814 48.5469 44.6743 46.8139 47.6494C45.0808 50.6245 41.6111 53.896 46.5263 54.4888C49.7047 55.0853 47.6804 57.1638 47.6804 57.1638C47.6804 57.1638 46.8139 58.9496 49.4134 59.246C49.4134 59.246 47.6804 62.5175 49.1258 62.5175C50.5712 62.5175 50.8588 63.114 51.1501 64.3033C51.4377 65.4926 50.8625 72.0356 60.9767 68.1676C63.2887 66.9783 62.9564 72.0116 63.7829 75.2062C64.2762 77.1131 60.7163 81.7709 64.5969 80.0601C68.0592 78.5331 82.2771 71.9193 85.1754 66.9407C86.759 64.2132 82.5871 60.2702 84.6114 54.9165C86.6358 49.5628 87.2707 51.2135 89.295 48.2422C91.3156 45.267 92.0514 41.399 92.3427 37.8311Z" fill="#005DF2"/>
</g>
<g clip-path="url(#clip1_30_4743)">
<path d="M98.5739 46.5232C98.5739 44.344 97.7078 42.279 96.1768 40.7603C96.4193 39.9808 96.542 39.1745 96.542 38.3554C96.542 34.4153 93.7288 31.1246 90.0151 30.401C90.299 29.69 90.4462 28.9279 90.4462 28.1458C90.4462 25.6499 88.841 23.6755 86.6918 22.7471C83.1112 19.8813 80.9755 18.421 77.9168 18C76.3874 17.7895 71.2315 16.9821 70.3193 18.2476C69.4071 16.9821 69.8288 18 68.1584 18C65.1535 18 61.2373 19.7079 57.6567 22.5738C55.5075 23.5021 53.9984 25.6499 53.9984 28.1458C53.9984 28.9279 54.1456 29.69 54.4295 30.401C50.7159 31.1246 47.9027 34.4153 47.9027 38.3554C47.9027 39.1745 48.0252 39.9807 48.2678 40.7603C46.7368 42.279 45.8707 44.344 45.8707 46.5232C45.8707 48.2266 46.3976 49.8082 47.2947 51.1143C46.3625 52.4686 45.8707 54.0484 45.8707 55.7118C45.8707 58.6583 47.4692 61.358 50.0001 62.7815C49.9566 63.1455 49.9346 63.5128 49.9346 63.8795C49.9346 67.8541 52.5145 71.3682 56.2577 72.5658C57.8859 75.366 60.8518 77.0883 64.0946 77.0883C67.6498 77.0883 67.0042 78.9225 68.494 75.9243C69.9837 78.9225 76.7948 77.0883 80.35 77.0883C83.5929 77.0883 86.5587 75.366 88.1869 72.5658C91.9301 71.368 94.51 67.854 94.51 63.8795C94.51 63.5128 94.4881 63.1455 94.4445 62.7815C96.9754 61.358 98.5739 58.6583 98.5739 55.7118C98.5739 54.0484 98.0822 52.4686 97.1499 51.1143C98.047 49.8082 98.5739 48.2266 98.5739 46.5232ZM64.0946 75.174C61.424 75.174 58.9905 73.6943 57.7437 71.3127C57.6201 71.0767 57.4045 70.9033 57.1483 70.834C54.0226 69.9886 51.8395 67.1289 51.8395 63.8795C51.8395 63.3933 51.8883 62.9063 51.9844 62.4318C52.0736 61.9919 51.8464 61.5487 51.4381 61.3662C49.2133 60.3723 47.7757 58.1527 47.7757 55.7118C47.7757 54.6017 48.0622 53.5405 48.6089 52.6006C50.0307 53.8603 51.8949 54.6271 53.9349 54.6271C54.461 54.6271 54.8874 54.1986 54.8874 53.6699C54.8874 53.1412 54.461 52.7127 53.9349 52.7127C50.5387 52.7127 47.7757 49.9361 47.7757 46.5232C47.7757 44.6859 48.5823 42.9544 49.9889 41.773C50.3064 41.5063 50.4163 41.0641 50.2607 40.6788C49.96 39.934 49.8076 39.1523 49.8076 38.3554C49.8076 34.9425 52.5706 32.1659 55.9669 32.1659C59.3631 32.1659 62.1262 34.9425 62.1262 38.3554C62.1262 38.8842 62.5526 39.3126 63.0786 39.3126C63.6046 39.3126 64.0311 38.8842 64.0311 38.3554C64.0311 34.062 60.6909 30.5396 56.4849 30.2701C56.1036 29.6297 55.9034 28.9015 55.9034 28.1458C55.9034 26.4397 56.9341 24.9713 58.4024 24.3352C58.4592 24.3182 58.5148 24.296 58.5685 24.2679C59.0234 24.0941 59.516 23.9982 60.0307 23.9982C61.6254 23.9982 63.049 24.8942 63.7461 26.3368C63.976 26.8124 64.5459 27.0108 65.019 26.7796C65.4922 26.5488 65.6895 25.9761 65.4597 25.5006C64.6639 23.8539 63.1579 22.6704 61.4235 22.2512C63.8544 20.7605 66.2477 19.9143 68.1584 19.9143C69.874 19.9143 71.2698 21.3168 71.2698 23.041V35.4267C70.414 34.7444 69.3332 34.3354 68.1584 34.3354C67.6324 34.3354 67.206 34.7638 67.206 35.2926C67.206 35.8213 67.6324 36.2497 68.1584 36.2497C69.874 36.2497 69.9986 37.7467 69.9986 39.4709L70.7765 62.3837C69.5923 60.8483 68.4161 59.6895 66.4523 59.1592C65.9444 59.0226 65.4218 59.3248 65.2853 59.8352C65.1488 60.3459 65.45 60.8709 65.958 61.0079C69.0855 61.8524 71.2698 64.7125 71.2698 67.9634C71.2698 71.9393 68.051 75.174 64.0946 75.174ZM93.0065 61.3663C92.5982 61.5488 92.371 61.9919 92.4602 62.4319C92.5563 62.9064 92.6051 63.3934 92.6051 63.8797C92.6051 67.129 90.422 69.9887 87.2963 70.8341C87.0401 70.9034 86.8244 71.0768 86.7009 71.3128C85.4541 73.6943 83.0206 75.174 80.35 75.174C76.3936 75.174 73.1748 71.9393 73.1748 67.9634C73.1748 67.6942 73.1623 67.4274 73.1391 67.1631C73.1617 67.0813 73.1748 66.9954 73.1748 66.9063V35.2926C73.1748 33.5684 74.5706 32.1659 76.2862 32.1659C76.8122 32.1659 77.2386 31.7374 77.2386 31.2087C77.2386 30.68 76.8122 30.2515 76.2862 30.2515C75.1115 30.2515 74.0306 30.6606 73.1748 31.3428V23.041C73.1748 21.3168 74.5706 19.9143 76.2862 19.9143C78.1969 19.9143 80.5902 20.7605 83.0211 22.2512C81.2867 22.6703 79.7807 23.8539 78.985 25.5006C78.7551 25.9763 78.9524 26.5489 79.4256 26.7796C79.8988 27.0106 80.4686 26.8124 80.6985 26.3368C81.3956 24.8942 82.8192 23.9982 84.4139 23.9982C84.9286 23.9982 85.4213 24.0941 85.8761 24.2679C85.9297 24.296 85.9853 24.3181 86.0418 24.3351C87.5104 24.9711 88.5412 26.4395 88.5412 28.1458C88.5412 28.9015 88.341 29.6297 87.9597 30.2701C83.7538 30.5396 80.4135 34.062 80.4135 38.3554C80.4135 38.8842 80.84 39.3126 81.366 39.3126C81.892 39.3126 82.3185 38.8842 82.3185 38.3554C82.3185 34.9425 85.0815 32.1659 88.4777 32.1659C91.874 32.1659 94.637 34.9425 94.637 38.3554C94.637 39.1523 94.4846 39.934 94.184 40.6788C94.0285 41.0642 94.1383 41.5063 94.4558 41.773C95.8623 42.9544 96.669 44.6859 96.669 46.5232C96.669 49.9361 93.9059 52.7127 90.5097 52.7127C89.9837 52.7127 89.5572 53.1412 89.5572 53.6699C89.5572 54.1986 89.9837 54.6271 90.5097 54.6271C92.5497 54.6271 94.4139 53.8603 95.8357 52.6006C96.3826 53.5405 96.669 54.6017 96.669 55.7118C96.669 58.1527 95.2314 60.3723 93.0065 61.3663Z" fill="#005DF2"/>
<path d="M88.4776 48.629C86.5046 48.629 84.8513 47.2302 84.4461 45.3678C88.399 44.8494 91.462 41.4459 91.462 37.3346C91.462 36.8059 91.0355 36.3774 90.5095 36.3774C89.9835 36.3774 89.557 36.8059 89.557 37.3346C89.557 40.7475 86.794 43.5242 83.3977 43.5242C81.7286 43.5242 80.1661 42.8643 78.9979 41.6659C78.6298 41.2884 78.0267 41.2822 77.6509 41.6521C77.2752 42.0221 77.2689 42.628 77.6371 43.0057C78.9581 44.3606 80.6645 45.1884 82.5131 45.3892C82.9505 48.3027 85.4584 50.5433 88.4776 50.5433C89.0036 50.5433 89.43 50.1149 89.43 49.5862C89.43 49.0574 89.0036 48.629 88.4776 48.629Z" fill="#005DF2"/>
<path d="M85.4296 59.8596C85.0626 59.8596 84.702 59.8867 84.3478 59.9346C84.3485 59.8883 84.3502 59.842 84.3502 59.7958C84.3502 55.3273 80.7326 51.6919 76.286 51.6919C75.7599 51.6919 75.3335 52.1203 75.3335 52.649C75.3335 53.1778 75.7599 53.6062 76.286 53.6062C79.6822 53.6062 82.4452 56.3828 82.4452 59.7958C82.4452 60.0145 82.4337 60.234 82.4111 60.4509C79.456 61.6543 77.3654 64.5674 77.3654 67.9635C77.3654 68.4922 77.7919 68.9207 78.3179 68.9207C78.8439 68.9207 79.2704 68.4922 79.2704 67.9635C79.2704 64.5506 82.0334 61.7739 85.4296 61.7739C85.9557 61.7739 86.3821 61.3455 86.3821 60.8168C86.3821 60.288 85.9557 59.8596 85.4296 59.8596Z" fill="#005DF2"/>
</g>
<path d="M61.5134 80.2579V81.4961L72.7945 81.4878L84.0821 81.4755L84.0953 80.2455L84.1084 79.0196H72.8142H61.5134V80.2579Z" fill="#005DF2"/>
<path d="M63.2902 84.2698V85.4585H72.787H82.2838L82.2714 84.2777L82.2529 83.1009L72.7746 83.089L63.2902 83.0811V84.2698Z" fill="#005DF2"/>
<path d="M70.8868 86.1272C70.8868 87.1257 71.6962 87.9351 72.6947 87.9351H72.8109H72.9271C73.9255 87.9351 74.7349 87.1257 74.7349 86.1272C74.7349 85.1288 73.9255 84.3194 72.9271 84.3194H72.8109H72.6947C71.6962 84.3194 70.8868 85.1288 70.8868 86.1272Z" fill="#005DF2"/>
<path d="M68.5259 99.8158C41.8272 96.0746 21.0396 71.2146 24.7507 44.7311C28.4657 18.2196 55.3054 -1.91618 81.975 1.82096C108.592 5.5507 125.243 32.2891 121.52 58.8564C117.803 85.3869 95.1769 103.55 68.5259 99.8158Z" stroke="url(#paint0_linear_30_4743)"/>
<path d="M116.852 72.3493C111.644 82.1072 101.77 93.1545 91.6395 97.595C81.5091 102.035 72.2499 102.08 61.5448 99.2971C50.8397 96.5146 41.8793 91.5051 35.1933 82.6938C28.5073 73.8825 23.3949 63.7702 23.5972 52.7112C23.7995 41.6522 26.3926 31.2343 33.3964 22.6734C40.4002 14.1126 49.7895 6.00391 60.5893 3.61488C71.389 1.22585 83.8491 1.94588 93.8102 6.75389C103.771 11.5619 112.892 19.7364 117.74 29.6782" stroke="url(#paint1_linear_30_4743)"/>
<path d="M118.809 68.173C114.811 78.4255 107.494 87.0439 98.0266 92.6534C88.559 98.2629 77.4856 100.54 66.5726 99.1226C55.6597 97.7049 45.5359 92.6736 37.8158 84.8312C30.0958 76.9888 25.6168 67.3924 24.3708 56.4585C23.1249 45.5246 25.5763 34.4884 31.3339 25.1102C37.0916 15.7319 45.4314 7.94653 55.7456 4.10989C66.0598 0.273248 77.3617 0.00101281 87.8486 3.33661C98.3356 6.67222 107.403 13.4235 113.606 22.5137" stroke="url(#paint2_linear_30_4743)"/>
<path d="M119.138 66.6778C115.119 76.9827 106.62 89.1195 97.0849 94.7259C87.5503 100.332 78.3612 101.47 67.4022 99.9724C56.4433 98.4744 46.9537 94.5588 39.2734 86.5993C31.593 78.6398 25.3214 69.2025 24.2155 58.1971C23.1096 47.1917 24.7084 36.391 30.6515 27.0625C36.5946 17.7339 44.705 8.72196 55.1468 5.07348C65.5885 1.42499 78.0464 0.66758 88.5059 4.26481C98.9654 7.86204 108.988 14.9015 114.977 24.2008" stroke="url(#paint3_linear_30_4743)"/>
<path d="M122.36 51.896H129.18V57H116.2V28.532H129.18V33.548H122.36V40.236H128.74V45.076H122.36V51.896ZM145.811 28.532C149.448 28.532 151.267 30.468 151.267 34.34V51.192C151.267 55.064 149.448 57 145.811 57H134.503V28.532H145.811ZM145.107 51.896V33.592C145.107 33.3573 145.019 33.152 144.843 32.976C144.696 32.8 144.506 32.712 144.271 32.712H140.663V52.776H144.271C144.506 52.776 144.696 52.688 144.843 52.512C145.019 52.336 145.107 52.1307 145.107 51.896ZM163.778 51.896H170.598V57H157.618V28.532H170.598V33.548H163.778V40.236H170.158V45.076H163.778V51.896ZM190.045 32.536L181.553 52.424H190.045V57H175.129V53.216L183.665 33.152H175.393V28.532H190.045V32.536ZM201.33 51.896H208.15V57H195.17V28.532H208.15V33.548H201.33V40.236H207.71V45.076H201.33V51.896Z" fill="#005DF2"/>
<path d="M102.936 70.152C103.048 70.152 103.212 70.152 103.428 70.152C103.652 70.144 103.88 70.136 104.112 70.128C104.344 70.12 104.552 70.116 104.736 70.116C104.92 70.108 105.032 70.104 105.072 70.104L105.144 70.224L105.084 71.772H104.544L104.496 71.724C104.48 71.572 104.456 71.452 104.424 71.364C104.4 71.276 104.328 71.212 104.208 71.172C104.088 71.132 103.9 71.108 103.644 71.1C103.396 71.092 103.048 71.088 102.6 71.088H101.916L101.904 71.196C101.896 71.308 101.888 71.412 101.88 71.508C101.88 71.604 101.876 71.716 101.868 71.844C101.868 71.972 101.868 72.128 101.868 72.312C101.868 72.496 101.868 72.732 101.868 73.02V73.428C102.06 73.42 102.244 73.42 102.42 73.428C102.596 73.428 102.76 73.424 102.912 73.416C103.064 73.408 103.192 73.396 103.296 73.38C103.408 73.356 103.488 73.32 103.536 73.272C103.616 73.192 103.656 73.08 103.656 72.936L103.716 72.876L104.16 72.852L104.208 72.876C104.192 73.06 104.176 73.22 104.16 73.356C104.152 73.492 104.148 73.648 104.148 73.824C104.148 74.016 104.152 74.196 104.16 74.364C104.176 74.524 104.192 74.7 104.208 74.892L104.16 74.916L103.704 74.892L103.656 74.856C103.656 74.656 103.62 74.508 103.548 74.412C103.484 74.324 103.3 74.276 102.996 74.268C102.7 74.252 102.368 74.244 102 74.244H101.868V75.228C101.868 75.46 101.868 75.652 101.868 75.804C101.876 75.956 101.88 76.088 101.88 76.2C101.888 76.304 101.896 76.404 101.904 76.5C101.912 76.596 101.92 76.708 101.928 76.836C101.936 76.988 102.016 77.064 102.168 77.064H102.708C103.164 77.064 103.52 77.056 103.776 77.04C104.04 77.024 104.24 76.988 104.376 76.932C104.512 76.868 104.608 76.78 104.664 76.668C104.728 76.556 104.784 76.404 104.832 76.212L104.88 76.164H105.444L105.216 77.928L105.12 78.048C105.08 78.048 104.98 78.044 104.82 78.036C104.668 78.036 104.496 78.032 104.304 78.024C104.112 78.016 103.92 78.008 103.728 78C103.536 78 103.384 78 103.272 78H100.848C100.792 78 100.7 78.004 100.572 78.012C100.444 78.02 100.312 78.028 100.176 78.036C100.04 78.044 99.908 78.052 99.78 78.06C99.652 78.068 99.56 78.072 99.504 78.072L99.48 78.024L99.516 77.568L99.576 77.52C99.704 77.52 99.824 77.516 99.936 77.508C100.048 77.492 100.14 77.456 100.212 77.4C100.276 77.344 100.336 77.272 100.392 77.184C100.456 77.096 100.496 76.94 100.512 76.716C100.512 76.66 100.512 76.596 100.512 76.524C100.52 76.444 100.524 76.348 100.524 76.236C100.532 76.124 100.536 75.988 100.536 75.828C100.536 75.668 100.536 75.468 100.536 75.228V73.272C100.536 72.992 100.536 72.756 100.536 72.564C100.536 72.372 100.536 72.208 100.536 72.072C100.536 71.936 100.532 71.82 100.524 71.724C100.524 71.628 100.52 71.532 100.512 71.436C100.496 71.22 100.456 71.064 100.392 70.968C100.336 70.872 100.276 70.8 100.212 70.752C100.14 70.688 100.048 70.652 99.936 70.644C99.824 70.636 99.704 70.632 99.576 70.632L99.516 70.584L99.48 70.128L99.504 70.08C99.56 70.08 99.652 70.084 99.78 70.092C99.908 70.1 100.044 70.108 100.188 70.116C100.34 70.124 100.484 70.132 100.62 70.14C100.764 70.148 100.88 70.152 100.968 70.152H102.936ZM111.338 77.796C111.338 77.74 111.35 77.636 111.374 77.484C111.406 77.324 111.43 77.184 111.446 77.064L111.434 77.016C111.226 77.384 110.938 77.664 110.57 77.856C110.202 78.04 109.818 78.132 109.418 78.132C108.978 78.132 108.594 78.052 108.266 77.892C107.946 77.732 107.678 77.52 107.462 77.256C107.246 76.992 107.086 76.688 106.982 76.344C106.878 76 106.826 75.644 106.826 75.276C106.826 74.74 106.91 74.284 107.078 73.908C107.254 73.524 107.474 73.216 107.738 72.984C108.002 72.744 108.29 72.572 108.602 72.468C108.922 72.356 109.23 72.3 109.526 72.3C109.886 72.3 110.242 72.384 110.594 72.552C110.946 72.72 111.234 72.996 111.458 73.38L111.482 73.332C111.466 73.1 111.458 72.864 111.458 72.624C111.458 72.376 111.458 72.136 111.458 71.904C111.458 71.656 111.458 71.452 111.458 71.292C111.458 71.124 111.454 70.984 111.446 70.872C111.446 70.76 111.442 70.66 111.434 70.572C111.434 70.484 111.43 70.392 111.422 70.296C111.414 70.216 111.386 70.14 111.338 70.068C111.29 69.996 111.254 69.948 111.23 69.924C111.118 69.836 111.006 69.78 110.894 69.756C110.79 69.732 110.666 69.72 110.522 69.72L110.474 69.672V69.276L110.522 69.228H111.206C111.39 69.228 111.582 69.228 111.782 69.228C111.99 69.22 112.174 69.204 112.334 69.18L112.754 69.12L112.826 69.348C112.81 69.38 112.794 69.44 112.778 69.528C112.77 69.608 112.762 69.696 112.754 69.792C112.754 69.888 112.75 69.98 112.742 70.068C112.742 70.156 112.742 70.224 112.742 70.272C112.742 70.392 112.738 70.508 112.73 70.62C112.73 70.724 112.73 70.848 112.73 70.992C112.73 71.128 112.726 71.3 112.718 71.508C112.718 71.708 112.718 71.968 112.718 72.288V74.904C112.718 75.24 112.718 75.512 112.718 75.72C112.726 75.92 112.73 76.088 112.73 76.224C112.738 76.36 112.742 76.48 112.742 76.584C112.75 76.68 112.758 76.8 112.766 76.944C112.782 77.088 112.802 77.192 112.826 77.256C112.858 77.32 112.902 77.372 112.958 77.412C113.022 77.476 113.11 77.516 113.222 77.532C113.334 77.54 113.438 77.544 113.534 77.544L113.582 77.592L113.606 78L113.582 78.048C113.446 78.032 113.298 78.02 113.138 78.012C112.978 78.004 112.826 78 112.682 78C112.466 78 112.25 78 112.034 78C111.818 78.008 111.614 78.02 111.422 78.036L111.338 77.796ZM108.218 75.264C108.218 75.504 108.246 75.74 108.302 75.972C108.366 76.196 108.458 76.4 108.578 76.584C108.698 76.76 108.85 76.904 109.034 77.016C109.226 77.12 109.45 77.172 109.706 77.172C109.978 77.172 110.218 77.128 110.426 77.04C110.642 76.944 110.822 76.832 110.966 76.704C111.118 76.568 111.234 76.428 111.314 76.284C111.402 76.14 111.45 76.016 111.458 75.912V74.58C111.442 74.476 111.394 74.352 111.314 74.208C111.242 74.056 111.134 73.912 110.99 73.776C110.854 73.64 110.682 73.524 110.474 73.428C110.266 73.324 110.018 73.272 109.73 73.272C109.466 73.272 109.238 73.332 109.046 73.452C108.854 73.564 108.694 73.712 108.566 73.896C108.446 74.08 108.358 74.292 108.302 74.532C108.246 74.772 108.218 75.016 108.218 75.264ZM119.415 76.968C119.199 77.312 118.931 77.592 118.611 77.808C118.291 78.024 117.887 78.132 117.399 78.132C117.175 78.132 116.955 78.104 116.739 78.048C116.531 77.992 116.339 77.904 116.163 77.784C115.995 77.664 115.847 77.508 115.719 77.316C115.591 77.116 115.499 76.876 115.443 76.596C115.427 76.524 115.411 76.444 115.395 76.356C115.387 76.268 115.379 76.156 115.371 76.02C115.371 75.876 115.367 75.704 115.359 75.504C115.359 75.296 115.359 75.04 115.359 74.736V73.656C115.359 73.568 115.339 73.48 115.299 73.392C115.259 73.304 115.227 73.248 115.203 73.224C115.123 73.128 115.023 73.072 114.903 73.056C114.783 73.04 114.659 73.032 114.531 73.032L114.495 72.984V72.576L114.531 72.54H115.119C115.303 72.54 115.499 72.54 115.707 72.54C115.915 72.532 116.099 72.516 116.259 72.492L116.679 72.432L116.751 72.66C116.735 72.692 116.723 72.752 116.715 72.84C116.707 72.92 116.699 73.008 116.691 73.104C116.683 73.2 116.679 73.292 116.679 73.38C116.679 73.468 116.679 73.536 116.679 73.584C116.679 73.688 116.675 73.816 116.667 73.968C116.667 74.112 116.663 74.264 116.655 74.424C116.655 74.576 116.651 74.724 116.643 74.868C116.643 75.012 116.643 75.132 116.643 75.228C116.643 75.436 116.651 75.648 116.667 75.864C116.683 76.072 116.715 76.264 116.763 76.44C116.843 76.72 116.963 76.928 117.123 77.064C117.291 77.192 117.523 77.256 117.819 77.256C118.059 77.256 118.271 77.216 118.455 77.136C118.647 77.056 118.811 76.96 118.947 76.848C119.083 76.736 119.195 76.616 119.283 76.488C119.371 76.352 119.427 76.232 119.451 76.128V74.928C119.451 74.56 119.443 74.276 119.427 74.076C119.419 73.876 119.407 73.72 119.391 73.608C119.375 73.504 119.351 73.42 119.319 73.356C119.295 73.292 119.271 73.248 119.247 73.224C119.159 73.128 119.047 73.072 118.911 73.056C118.775 73.04 118.667 73.032 118.587 73.032L118.539 72.984V72.576L118.587 72.54H118.803C118.883 72.54 118.987 72.54 119.115 72.54C119.251 72.54 119.391 72.54 119.535 72.54C119.679 72.532 119.819 72.528 119.955 72.528C120.091 72.52 120.207 72.508 120.303 72.492L120.723 72.432L120.795 72.66C120.755 72.892 120.727 73.196 120.711 73.572C120.703 73.772 120.695 73.936 120.687 74.064C120.687 74.184 120.687 74.284 120.687 74.364C120.687 74.444 120.687 74.508 120.687 74.556C120.687 74.596 120.687 74.636 120.687 74.676V75.66C120.687 76.1 120.699 76.488 120.723 76.824C120.739 76.976 120.759 77.1 120.783 77.196C120.807 77.284 120.851 77.356 120.915 77.412C120.987 77.476 121.071 77.516 121.167 77.532C121.263 77.54 121.379 77.544 121.515 77.544L121.563 77.592L121.587 78L121.563 78.036C121.411 78.02 121.263 78.008 121.119 78C120.975 78 120.807 78 120.615 78C120.423 78 120.219 78 120.003 78C119.787 78.008 119.579 78.02 119.379 78.036L119.307 77.796C119.331 77.708 119.355 77.592 119.379 77.448C119.411 77.296 119.435 77.144 119.451 76.992L119.415 76.968ZM127.276 74.124L127.228 74.088C127.228 73.904 127.172 73.756 127.06 73.644C126.956 73.524 126.828 73.432 126.676 73.368C126.524 73.304 126.36 73.26 126.184 73.236C126.016 73.212 125.868 73.2 125.74 73.2C125.452 73.2 125.2 73.256 124.984 73.368C124.768 73.48 124.592 73.628 124.456 73.812C124.32 73.996 124.216 74.208 124.144 74.448C124.08 74.688 124.048 74.936 124.048 75.192C124.048 75.464 124.084 75.724 124.156 75.972C124.236 76.22 124.352 76.44 124.504 76.632C124.656 76.824 124.848 76.98 125.08 77.1C125.32 77.212 125.6 77.268 125.92 77.268C126.192 77.268 126.48 77.24 126.784 77.184C127.088 77.128 127.36 77.036 127.6 76.908L127.804 77.196L127.624 77.532C127.536 77.596 127.42 77.664 127.276 77.736C127.14 77.8 126.984 77.864 126.808 77.928C126.632 77.984 126.44 78.032 126.232 78.072C126.032 78.112 125.832 78.132 125.632 78.132C125.24 78.132 124.864 78.064 124.504 77.928C124.152 77.784 123.84 77.588 123.568 77.34C123.304 77.084 123.092 76.78 122.932 76.428C122.772 76.068 122.692 75.672 122.692 75.24C122.692 74.8 122.772 74.4 122.932 74.04C123.092 73.68 123.312 73.372 123.592 73.116C123.872 72.86 124.196 72.66 124.564 72.516C124.94 72.372 125.34 72.3 125.764 72.3C125.956 72.3 126.148 72.316 126.34 72.348C126.54 72.372 126.728 72.404 126.904 72.444C127.088 72.484 127.252 72.532 127.396 72.588C127.54 72.636 127.656 72.684 127.744 72.732L127.78 72.84L127.648 74.124H127.276ZM132.402 77.916C132.426 77.844 132.442 77.74 132.45 77.604C132.466 77.468 132.486 77.344 132.51 77.232L132.498 77.196C132.402 77.316 132.29 77.432 132.162 77.544C132.042 77.656 131.906 77.756 131.754 77.844C131.602 77.932 131.438 78 131.262 78.048C131.094 78.104 130.914 78.132 130.722 78.132C130.434 78.132 130.182 78.088 129.966 78C129.75 77.912 129.57 77.796 129.426 77.652C129.282 77.508 129.17 77.34 129.09 77.148C129.018 76.956 128.982 76.756 128.982 76.548C128.982 76.236 129.05 75.964 129.186 75.732C129.322 75.5 129.502 75.312 129.726 75.168C129.934 75.032 130.178 74.928 130.458 74.856C130.738 74.776 131.01 74.716 131.274 74.676C131.538 74.636 131.778 74.612 131.994 74.604C132.21 74.588 132.354 74.58 132.426 74.58H132.594C132.586 74.332 132.57 74.14 132.546 74.004C132.522 73.86 132.49 73.74 132.45 73.644C132.378 73.484 132.258 73.372 132.09 73.308C131.93 73.236 131.738 73.2 131.514 73.2C131.378 73.2 131.23 73.212 131.07 73.236C130.918 73.252 130.774 73.288 130.638 73.344C130.502 73.4 130.382 73.48 130.278 73.584C130.182 73.68 130.126 73.808 130.11 73.968L130.062 74.004H129.678L129.57 72.876L129.606 72.804C129.654 72.756 129.746 72.704 129.882 72.648C130.018 72.592 130.182 72.54 130.374 72.492C130.566 72.436 130.774 72.392 130.998 72.36C131.23 72.32 131.462 72.3 131.694 72.3C132.006 72.3 132.298 72.34 132.57 72.42C132.842 72.492 133.074 72.604 133.266 72.756C133.466 72.908 133.622 73.1 133.734 73.332C133.846 73.556 133.902 73.82 133.902 74.124C133.902 74.452 133.898 74.732 133.89 74.964C133.89 75.196 133.886 75.412 133.878 75.612C133.87 75.812 133.862 76.008 133.854 76.2C133.854 76.384 133.854 76.592 133.854 76.824C133.87 77.008 133.89 77.14 133.914 77.22C133.938 77.3 133.978 77.364 134.034 77.412C134.098 77.476 134.194 77.516 134.322 77.532C134.458 77.54 134.582 77.544 134.694 77.544L134.73 77.592L134.754 78L134.742 78.048C134.606 78.032 134.45 78.02 134.274 78.012C134.098 78.004 133.934 78 133.782 78C133.558 78 133.334 78 133.11 78C132.886 78.008 132.674 78.02 132.474 78.036L132.402 77.916ZM132.402 76.62C132.426 76.58 132.45 76.532 132.474 76.476C132.506 76.42 132.526 76.352 132.534 76.272L132.594 75.252H132.486C132.238 75.252 131.994 75.268 131.754 75.3C131.514 75.332 131.298 75.392 131.106 75.48C130.914 75.568 130.758 75.692 130.638 75.852C130.518 76.012 130.458 76.22 130.458 76.476C130.458 76.692 130.51 76.864 130.614 76.992C130.726 77.12 130.874 77.184 131.058 77.184C131.194 77.184 131.33 77.168 131.466 77.136C131.61 77.096 131.742 77.048 131.862 76.992C131.982 76.936 132.09 76.876 132.186 76.812C132.282 76.74 132.354 76.676 132.402 76.62ZM139.034 73.2H137.714C137.714 73.664 137.71 74.096 137.702 74.496C137.702 74.888 137.702 75.232 137.702 75.528C137.702 75.816 137.698 76.052 137.69 76.236C137.69 76.42 137.69 76.532 137.69 76.572C137.69 76.884 137.75 77.092 137.87 77.196C137.99 77.3 138.13 77.352 138.29 77.352C138.41 77.352 138.546 77.34 138.698 77.316C138.85 77.292 138.978 77.26 139.082 77.22L139.154 77.352L139.034 77.748C138.818 77.868 138.594 77.96 138.362 78.024C138.138 78.096 137.93 78.132 137.738 78.132C137.25 78.132 136.902 78.02 136.694 77.796C136.486 77.572 136.382 77.284 136.382 76.932C136.382 76.86 136.386 76.72 136.394 76.512C136.402 76.296 136.41 76.028 136.418 75.708C136.426 75.38 136.434 75.004 136.442 74.58C136.45 74.156 136.454 73.696 136.454 73.2H135.83L135.782 73.14V72.612L135.83 72.564L136.454 72.396C136.454 72.14 136.446 71.88 136.43 71.616C136.422 71.344 136.41 71.08 136.394 70.824L136.478 70.752L136.646 70.74C136.702 70.74 136.778 70.736 136.874 70.728C136.978 70.72 137.086 70.712 137.198 70.704C137.31 70.688 137.414 70.672 137.51 70.656C137.614 70.64 137.69 70.624 137.738 70.608L137.846 70.656C137.806 70.856 137.774 71.124 137.75 71.46C137.726 71.788 137.714 72.1 137.714 72.396L139.034 72.324L139.094 72.372V73.14L139.034 73.2ZM143.316 78.048C143.26 78.048 143.176 78.044 143.064 78.036C142.952 78.028 142.832 78.02 142.704 78.012C142.576 78.012 142.456 78.008 142.344 78C142.232 78 142.148 78 142.092 78H141.444C141.388 78 141.3 78 141.18 78C141.068 78.008 140.948 78.012 140.82 78.012C140.7 78.02 140.58 78.028 140.46 78.036C140.348 78.044 140.264 78.048 140.208 78.048L140.196 78L140.22 77.592L140.256 77.544C140.376 77.544 140.5 77.54 140.628 77.532C140.756 77.516 140.852 77.476 140.916 77.412C140.972 77.356 141.012 77.284 141.036 77.196C141.06 77.108 141.08 76.984 141.096 76.824C141.104 76.768 141.108 76.712 141.108 76.656C141.116 76.6 141.12 76.54 141.12 76.476C141.128 76.412 141.132 76.336 141.132 76.248C141.132 76.16 141.132 76.052 141.132 75.924V74.568C141.132 74.416 141.132 74.296 141.132 74.208C141.132 74.112 141.128 74.032 141.12 73.968C141.12 73.904 141.116 73.848 141.108 73.8C141.108 73.744 141.104 73.68 141.096 73.608C141.08 73.528 141.056 73.452 141.024 73.38C140.992 73.308 140.964 73.26 140.94 73.236C140.86 73.132 140.76 73.072 140.64 73.056C140.52 73.04 140.396 73.032 140.268 73.032L140.22 72.984V72.576L140.268 72.54H140.88C141.064 72.54 141.26 72.54 141.468 72.54C141.676 72.532 141.86 72.516 142.02 72.492L142.44 72.432L142.512 72.66C142.496 72.692 142.48 72.744 142.464 72.816C142.456 72.88 142.448 72.952 142.44 73.032C142.44 73.104 142.436 73.18 142.428 73.26C142.428 73.332 142.428 73.392 142.428 73.44C142.428 73.504 142.424 73.564 142.416 73.62C142.416 73.668 142.416 73.728 142.416 73.8C142.416 73.864 142.412 73.948 142.404 74.052C142.404 74.156 142.404 74.284 142.404 74.436V75.78C142.404 75.94 142.404 76.072 142.404 76.176C142.412 76.272 142.416 76.356 142.416 76.428C142.424 76.5 142.428 76.568 142.428 76.632C142.436 76.688 142.444 76.752 142.452 76.824C142.468 76.992 142.484 77.12 142.5 77.208C142.524 77.288 142.568 77.356 142.632 77.412C142.696 77.476 142.784 77.516 142.896 77.532C143.016 77.54 143.136 77.544 143.256 77.544L143.316 77.604L143.34 78L143.316 78.048ZM140.88 70.644C140.88 70.548 140.9 70.452 140.94 70.356C140.98 70.26 141.036 70.176 141.108 70.104C141.18 70.024 141.26 69.964 141.348 69.924C141.444 69.876 141.544 69.852 141.648 69.852C141.848 69.852 142.028 69.936 142.188 70.104C142.356 70.264 142.44 70.444 142.44 70.644C142.44 70.748 142.416 70.848 142.368 70.944C142.328 71.032 142.268 71.112 142.188 71.184C142.116 71.256 142.032 71.312 141.936 71.352C141.84 71.392 141.744 71.412 141.648 71.412C141.44 71.412 141.26 71.336 141.108 71.184C140.956 71.032 140.88 70.852 140.88 70.644ZM147.38 72.3C147.852 72.3 148.272 72.384 148.64 72.552C149.008 72.712 149.316 72.932 149.564 73.212C149.82 73.484 150.012 73.8 150.14 74.16C150.276 74.52 150.344 74.892 150.344 75.276C150.344 75.644 150.284 76 150.164 76.344C150.044 76.688 149.86 76.992 149.612 77.256C149.364 77.52 149.056 77.732 148.688 77.892C148.32 78.052 147.892 78.132 147.404 78.132C146.9 78.132 146.46 78.048 146.084 77.88C145.708 77.712 145.396 77.492 145.148 77.22C144.908 76.948 144.728 76.64 144.608 76.296C144.488 75.944 144.428 75.584 144.428 75.216C144.428 74.824 144.496 74.452 144.632 74.1C144.768 73.748 144.96 73.44 145.208 73.176C145.464 72.904 145.772 72.692 146.132 72.54C146.5 72.38 146.916 72.3 147.38 72.3ZM147.392 77.304C147.64 77.304 147.856 77.248 148.04 77.136C148.232 77.016 148.392 76.864 148.52 76.68C148.648 76.488 148.74 76.272 148.796 76.032C148.86 75.784 148.892 75.532 148.892 75.276C148.892 75.028 148.856 74.78 148.784 74.532C148.72 74.276 148.62 74.048 148.484 73.848C148.356 73.648 148.196 73.484 148.004 73.356C147.812 73.228 147.592 73.164 147.344 73.164C147.088 73.164 146.864 73.224 146.672 73.344C146.488 73.464 146.336 73.62 146.216 73.812C146.096 74.004 146.004 74.22 145.94 74.46C145.884 74.7 145.856 74.944 145.856 75.192C145.856 75.448 145.888 75.7 145.952 75.948C146.024 76.196 146.124 76.424 146.252 76.632C146.388 76.832 146.552 76.996 146.744 77.124C146.936 77.244 147.152 77.304 147.392 77.304ZM153.818 73.524C154.002 73.172 154.254 72.88 154.574 72.648C154.894 72.416 155.27 72.3 155.702 72.3C155.95 72.3 156.194 72.332 156.434 72.396C156.674 72.46 156.89 72.56 157.082 72.696C157.282 72.832 157.446 73.008 157.574 73.224C157.71 73.432 157.798 73.68 157.838 73.968C157.862 74.176 157.874 74.396 157.874 74.628C157.882 74.86 157.886 75.092 157.886 75.324C157.894 75.596 157.898 75.848 157.898 76.08C157.898 76.304 157.898 76.552 157.898 76.824C157.898 77.008 157.918 77.148 157.958 77.244C158.006 77.332 158.062 77.392 158.126 77.424C158.214 77.472 158.306 77.504 158.402 77.52C158.506 77.536 158.622 77.544 158.75 77.544L158.786 77.592L158.81 78L158.786 78.048C158.618 78.032 158.43 78.02 158.222 78.012C158.022 78.004 157.826 78 157.634 78C157.442 78 157.25 78 157.058 78C156.866 78.008 156.686 78.02 156.518 78.036L156.434 77.796C156.458 77.692 156.478 77.536 156.494 77.328C156.518 77.12 156.534 76.952 156.542 76.824C156.558 76.52 156.57 76.236 156.578 75.972C156.586 75.708 156.59 75.472 156.59 75.264C156.59 75.08 156.586 74.88 156.578 74.664C156.57 74.448 156.542 74.26 156.494 74.1C156.43 73.844 156.298 73.656 156.098 73.536C155.906 73.408 155.682 73.344 155.426 73.344C155.186 73.344 154.966 73.388 154.766 73.476C154.566 73.564 154.394 73.672 154.25 73.8C154.114 73.92 154.006 74.048 153.926 74.184C153.846 74.32 153.806 74.44 153.806 74.544V75.78C153.806 75.94 153.806 76.072 153.806 76.176C153.806 76.272 153.806 76.356 153.806 76.428C153.814 76.5 153.818 76.568 153.818 76.632C153.826 76.688 153.834 76.752 153.842 76.824C153.858 76.992 153.89 77.12 153.938 77.208C153.994 77.288 154.054 77.356 154.118 77.412C154.182 77.476 154.258 77.516 154.346 77.532C154.434 77.54 154.538 77.544 154.658 77.544L154.718 77.604L154.742 78L154.718 78.048C154.662 78.048 154.578 78.044 154.466 78.036C154.354 78.028 154.234 78.02 154.106 78.012C153.978 78.012 153.858 78.008 153.746 78C153.634 78 153.55 78 153.494 78H152.834C152.778 78 152.69 78 152.57 78C152.458 78.008 152.338 78.012 152.21 78.012C152.09 78.02 151.97 78.028 151.85 78.036C151.738 78.044 151.654 78.048 151.598 78.048L151.586 78L151.61 77.592L151.646 77.544C151.774 77.544 151.886 77.54 151.982 77.532C152.086 77.516 152.17 77.476 152.234 77.412C152.29 77.356 152.342 77.284 152.39 77.196C152.438 77.108 152.47 76.984 152.486 76.824C152.494 76.768 152.498 76.712 152.498 76.656C152.506 76.6 152.51 76.54 152.51 76.476C152.518 76.412 152.522 76.336 152.522 76.248C152.522 76.16 152.522 76.052 152.522 75.924V74.688C152.522 74.536 152.522 74.408 152.522 74.304C152.522 74.2 152.518 74.108 152.51 74.028C152.51 73.948 152.506 73.876 152.498 73.812C152.498 73.748 152.494 73.68 152.486 73.608C152.47 73.528 152.446 73.452 152.414 73.38C152.382 73.308 152.354 73.26 152.33 73.236C152.25 73.132 152.15 73.072 152.03 73.056C151.91 73.04 151.786 73.032 151.658 73.032L151.61 72.984V72.576L151.658 72.54H152.27C152.454 72.54 152.65 72.54 152.858 72.54C153.074 72.532 153.262 72.516 153.422 72.492L153.842 72.432L153.914 72.66C153.85 72.748 153.81 72.872 153.794 73.032C153.786 73.184 153.782 73.34 153.782 73.5L153.818 73.524ZM163.117 72.576L163.165 72.54H163.765C163.949 72.54 164.145 72.54 164.353 72.54C164.569 72.532 164.757 72.516 164.917 72.492L165.337 72.432L165.409 72.66C165.393 72.7 165.377 72.756 165.361 72.828C165.353 72.892 165.341 72.964 165.325 73.044C165.317 73.124 165.309 73.204 165.301 73.284C165.293 73.356 165.289 73.42 165.289 73.476L165.325 73.5C165.413 73.34 165.513 73.188 165.625 73.044C165.745 72.892 165.881 72.764 166.033 72.66C166.185 72.548 166.357 72.46 166.549 72.396C166.741 72.332 166.961 72.3 167.209 72.3C167.649 72.3 168.041 72.412 168.385 72.636C168.737 72.86 168.989 73.172 169.141 73.572C169.229 73.428 169.333 73.28 169.453 73.128C169.573 72.976 169.713 72.84 169.873 72.72C170.033 72.592 170.213 72.492 170.413 72.42C170.621 72.34 170.853 72.3 171.109 72.3C171.357 72.3 171.597 72.332 171.829 72.396C172.061 72.46 172.273 72.56 172.465 72.696C172.657 72.832 172.821 73.004 172.957 73.212C173.093 73.42 173.189 73.672 173.245 73.968C173.285 74.176 173.305 74.396 173.305 74.628C173.313 74.86 173.317 75.092 173.317 75.324V76.824C173.317 76.984 173.337 77.1 173.377 77.172C173.425 77.244 173.469 77.312 173.509 77.376C173.565 77.456 173.653 77.504 173.773 77.52C173.901 77.536 174.029 77.544 174.157 77.544L174.205 77.592L174.229 78L174.205 78.048C174.061 78.032 173.905 78.02 173.737 78.012C173.569 78.004 173.405 78 173.245 78C172.757 78 172.317 78.012 171.925 78.036L171.841 77.796C171.865 77.692 171.885 77.556 171.901 77.388C171.925 77.22 171.941 77.072 171.949 76.944C171.957 76.84 171.961 76.704 171.961 76.536C171.969 76.368 171.977 76.2 171.985 76.032C171.993 75.856 171.997 75.696 171.997 75.552C172.005 75.4 172.009 75.284 172.009 75.204C172.009 75.044 172.001 74.844 171.985 74.604C171.977 74.356 171.953 74.148 171.913 73.98C171.849 73.772 171.729 73.616 171.553 73.512C171.377 73.4 171.181 73.344 170.965 73.344C170.757 73.344 170.565 73.376 170.389 73.44C170.221 73.496 170.069 73.568 169.933 73.656C169.797 73.744 169.681 73.844 169.585 73.956C169.497 74.068 169.429 74.172 169.381 74.268C169.397 74.444 169.405 74.62 169.405 74.796C169.413 74.972 169.417 75.148 169.417 75.324V76.824C169.417 76.992 169.433 77.116 169.465 77.196C169.505 77.276 169.557 77.348 169.621 77.412C169.693 77.476 169.781 77.516 169.885 77.532C169.997 77.54 170.113 77.544 170.233 77.544L170.293 77.604L170.317 78L170.293 78.048C170.237 78.048 170.153 78.044 170.041 78.036C169.929 78.028 169.809 78.02 169.681 78.012C169.553 78.012 169.433 78.008 169.321 78C169.209 78 169.125 78 169.069 78H168.421C168.365 78 168.277 78 168.157 78C168.045 78.008 167.925 78.012 167.797 78.012C167.677 78.02 167.557 78.028 167.437 78.036C167.325 78.044 167.241 78.048 167.185 78.048L167.161 78L167.185 77.592L167.233 77.544C167.361 77.544 167.481 77.54 167.593 77.532C167.713 77.516 167.805 77.476 167.869 77.412C167.933 77.356 167.977 77.284 168.001 77.196C168.033 77.108 168.053 76.984 168.061 76.824C168.061 76.728 168.065 76.604 168.073 76.452C168.081 76.292 168.085 76.132 168.085 75.972C168.093 75.812 168.097 75.664 168.097 75.528C168.105 75.384 168.109 75.276 168.109 75.204C168.109 75.124 168.109 75.032 168.109 74.928C168.109 74.816 168.105 74.704 168.097 74.592C168.089 74.48 168.077 74.372 168.061 74.268C168.053 74.164 168.037 74.068 168.013 73.98C167.941 73.772 167.817 73.616 167.641 73.512C167.473 73.4 167.281 73.344 167.065 73.344C166.801 73.344 166.561 73.388 166.345 73.476C166.129 73.564 165.941 73.672 165.781 73.8C165.629 73.928 165.509 74.06 165.421 74.196C165.341 74.332 165.301 74.452 165.301 74.556V75.66C165.301 75.836 165.301 75.98 165.301 76.092C165.309 76.204 165.313 76.3 165.313 76.38C165.321 76.46 165.325 76.536 165.325 76.608C165.333 76.672 165.341 76.744 165.349 76.824C165.365 76.992 165.401 77.12 165.457 77.208C165.513 77.288 165.585 77.364 165.673 77.436C165.737 77.492 165.809 77.524 165.889 77.532C165.977 77.54 166.069 77.544 166.165 77.544L166.225 77.604L166.249 78L166.225 78.048C166.169 78.048 166.081 78.044 165.961 78.036C165.849 78.028 165.729 78.02 165.601 78.012C165.481 78.012 165.361 78.008 165.241 78C165.129 78 165.045 78 164.989 78H164.341C164.285 78 164.197 78 164.077 78C163.965 78.008 163.845 78.012 163.717 78.012C163.597 78.02 163.477 78.028 163.357 78.036C163.245 78.044 163.161 78.048 163.105 78.048L163.093 78L163.117 77.592L163.153 77.544C163.281 77.544 163.397 77.536 163.501 77.52C163.613 77.504 163.701 77.464 163.765 77.4C163.821 77.344 163.869 77.276 163.909 77.196C163.949 77.108 163.977 76.984 163.993 76.824C164.001 76.696 164.009 76.568 164.017 76.44C164.025 76.304 164.029 76.092 164.029 75.804V74.808C164.029 74.64 164.029 74.5 164.029 74.388C164.029 74.268 164.025 74.164 164.017 74.076C164.017 73.988 164.013 73.908 164.005 73.836C164.005 73.764 164.001 73.688 163.993 73.608C163.977 73.528 163.953 73.452 163.921 73.38C163.889 73.308 163.861 73.26 163.837 73.236C163.757 73.132 163.657 73.072 163.537 73.056C163.417 73.04 163.293 73.032 163.165 73.032L163.117 72.984V72.576ZM178.547 77.916C178.571 77.844 178.587 77.74 178.595 77.604C178.611 77.468 178.631 77.344 178.655 77.232L178.643 77.196C178.547 77.316 178.435 77.432 178.307 77.544C178.187 77.656 178.051 77.756 177.899 77.844C177.747 77.932 177.583 78 177.407 78.048C177.239 78.104 177.059 78.132 176.867 78.132C176.579 78.132 176.327 78.088 176.111 78C175.895 77.912 175.715 77.796 175.571 77.652C175.427 77.508 175.315 77.34 175.235 77.148C175.163 76.956 175.127 76.756 175.127 76.548C175.127 76.236 175.195 75.964 175.331 75.732C175.467 75.5 175.647 75.312 175.871 75.168C176.079 75.032 176.323 74.928 176.603 74.856C176.883 74.776 177.155 74.716 177.419 74.676C177.683 74.636 177.923 74.612 178.139 74.604C178.355 74.588 178.499 74.58 178.571 74.58H178.739C178.731 74.332 178.715 74.14 178.691 74.004C178.667 73.86 178.635 73.74 178.595 73.644C178.523 73.484 178.403 73.372 178.235 73.308C178.075 73.236 177.883 73.2 177.659 73.2C177.523 73.2 177.375 73.212 177.215 73.236C177.063 73.252 176.919 73.288 176.783 73.344C176.647 73.4 176.527 73.48 176.423 73.584C176.327 73.68 176.271 73.808 176.255 73.968L176.207 74.004H175.823L175.715 72.876L175.751 72.804C175.799 72.756 175.891 72.704 176.027 72.648C176.163 72.592 176.327 72.54 176.519 72.492C176.711 72.436 176.919 72.392 177.143 72.36C177.375 72.32 177.607 72.3 177.839 72.3C178.151 72.3 178.443 72.34 178.715 72.42C178.987 72.492 179.219 72.604 179.411 72.756C179.611 72.908 179.767 73.1 179.879 73.332C179.991 73.556 180.047 73.82 180.047 74.124C180.047 74.452 180.043 74.732 180.035 74.964C180.035 75.196 180.031 75.412 180.023 75.612C180.015 75.812 180.007 76.008 179.999 76.2C179.999 76.384 179.999 76.592 179.999 76.824C180.015 77.008 180.035 77.14 180.059 77.22C180.083 77.3 180.123 77.364 180.179 77.412C180.243 77.476 180.339 77.516 180.467 77.532C180.603 77.54 180.727 77.544 180.839 77.544L180.875 77.592L180.899 78L180.887 78.048C180.751 78.032 180.595 78.02 180.419 78.012C180.243 78.004 180.079 78 179.927 78C179.703 78 179.479 78 179.255 78C179.031 78.008 178.819 78.02 178.619 78.036L178.547 77.916ZM178.547 76.62C178.571 76.58 178.595 76.532 178.619 76.476C178.651 76.42 178.671 76.352 178.679 76.272L178.739 75.252H178.631C178.383 75.252 178.139 75.268 177.899 75.3C177.659 75.332 177.443 75.392 177.251 75.48C177.059 75.568 176.903 75.692 176.783 75.852C176.663 76.012 176.603 76.22 176.603 76.476C176.603 76.692 176.655 76.864 176.759 76.992C176.871 77.12 177.019 77.184 177.203 77.184C177.339 77.184 177.475 77.168 177.611 77.136C177.755 77.096 177.887 77.048 178.007 76.992C178.127 76.936 178.235 76.876 178.331 76.812C178.427 76.74 178.499 76.676 178.547 76.62ZM186.439 77.796C186.439 77.74 186.451 77.636 186.475 77.484C186.507 77.324 186.531 77.184 186.547 77.064L186.535 77.016C186.327 77.384 186.039 77.664 185.671 77.856C185.303 78.04 184.919 78.132 184.519 78.132C184.079 78.132 183.695 78.052 183.367 77.892C183.047 77.732 182.779 77.52 182.563 77.256C182.347 76.992 182.187 76.688 182.083 76.344C181.979 76 181.927 75.644 181.927 75.276C181.927 74.74 182.011 74.284 182.179 73.908C182.355 73.524 182.575 73.216 182.839 72.984C183.103 72.744 183.391 72.572 183.703 72.468C184.023 72.356 184.331 72.3 184.627 72.3C184.987 72.3 185.343 72.384 185.695 72.552C186.047 72.72 186.335 72.996 186.559 73.38L186.583 73.332C186.567 73.1 186.559 72.864 186.559 72.624C186.559 72.376 186.559 72.136 186.559 71.904C186.559 71.656 186.559 71.452 186.559 71.292C186.559 71.124 186.555 70.984 186.547 70.872C186.547 70.76 186.543 70.66 186.535 70.572C186.535 70.484 186.531 70.392 186.523 70.296C186.515 70.216 186.487 70.14 186.439 70.068C186.391 69.996 186.355 69.948 186.331 69.924C186.219 69.836 186.107 69.78 185.995 69.756C185.891 69.732 185.767 69.72 185.623 69.72L185.575 69.672V69.276L185.623 69.228H186.307C186.491 69.228 186.683 69.228 186.883 69.228C187.091 69.22 187.275 69.204 187.435 69.18L187.855 69.12L187.927 69.348C187.911 69.38 187.895 69.44 187.879 69.528C187.871 69.608 187.863 69.696 187.855 69.792C187.855 69.888 187.851 69.98 187.843 70.068C187.843 70.156 187.843 70.224 187.843 70.272C187.843 70.392 187.839 70.508 187.831 70.62C187.831 70.724 187.831 70.848 187.831 70.992C187.831 71.128 187.827 71.3 187.819 71.508C187.819 71.708 187.819 71.968 187.819 72.288V74.904C187.819 75.24 187.819 75.512 187.819 75.72C187.827 75.92 187.831 76.088 187.831 76.224C187.839 76.36 187.843 76.48 187.843 76.584C187.851 76.68 187.859 76.8 187.867 76.944C187.883 77.088 187.903 77.192 187.927 77.256C187.959 77.32 188.003 77.372 188.059 77.412C188.123 77.476 188.211 77.516 188.323 77.532C188.435 77.54 188.539 77.544 188.635 77.544L188.683 77.592L188.707 78L188.683 78.048C188.547 78.032 188.399 78.02 188.239 78.012C188.079 78.004 187.927 78 187.783 78C187.567 78 187.351 78 187.135 78C186.919 78.008 186.715 78.02 186.523 78.036L186.439 77.796ZM183.319 75.264C183.319 75.504 183.347 75.74 183.403 75.972C183.467 76.196 183.559 76.4 183.679 76.584C183.799 76.76 183.951 76.904 184.135 77.016C184.327 77.12 184.551 77.172 184.807 77.172C185.079 77.172 185.319 77.128 185.527 77.04C185.743 76.944 185.923 76.832 186.067 76.704C186.219 76.568 186.335 76.428 186.415 76.284C186.503 76.14 186.551 76.016 186.559 75.912V74.58C186.543 74.476 186.495 74.352 186.415 74.208C186.343 74.056 186.235 73.912 186.091 73.776C185.955 73.64 185.783 73.524 185.575 73.428C185.367 73.324 185.119 73.272 184.831 73.272C184.567 73.272 184.339 73.332 184.147 73.452C183.955 73.564 183.795 73.712 183.667 73.896C183.547 74.08 183.459 74.292 183.403 74.532C183.347 74.772 183.319 75.016 183.319 75.264ZM195.02 74.94L194.732 75.156C194.3 75.156 193.872 75.16 193.448 75.168C193.032 75.176 192.604 75.18 192.164 75.18H191.18C191.172 75.236 191.168 75.292 191.168 75.348C191.168 75.396 191.168 75.444 191.168 75.492C191.168 75.7 191.204 75.908 191.276 76.116C191.348 76.324 191.46 76.512 191.612 76.68C191.772 76.84 191.972 76.972 192.212 77.076C192.452 77.172 192.744 77.22 193.088 77.22C193.336 77.22 193.596 77.188 193.868 77.124C194.148 77.052 194.408 76.96 194.648 76.848L194.852 76.932V77.364L194.732 77.496C194.54 77.648 194.256 77.792 193.88 77.928C193.512 78.064 193.112 78.132 192.68 78.132C192.256 78.132 191.868 78.064 191.516 77.928C191.172 77.784 190.872 77.584 190.616 77.328C190.368 77.072 190.172 76.768 190.028 76.416C189.892 76.064 189.824 75.672 189.824 75.24C189.824 74.8 189.896 74.4 190.04 74.04C190.184 73.68 190.38 73.372 190.628 73.116C190.884 72.86 191.18 72.66 191.516 72.516C191.86 72.372 192.228 72.3 192.62 72.3C192.828 72.3 193.06 72.328 193.316 72.384C193.58 72.44 193.832 72.548 194.072 72.708C194.312 72.86 194.528 73.08 194.72 73.368C194.912 73.648 195.044 74.02 195.116 74.484L195.02 74.94ZM192.632 73.2C192.24 73.2 191.924 73.32 191.684 73.56C191.452 73.792 191.304 74.064 191.24 74.376H191.84C192.12 74.376 192.396 74.372 192.668 74.364C192.94 74.348 193.216 74.34 193.496 74.34C193.6 74.34 193.676 74.312 193.724 74.256C193.772 74.192 193.796 74.128 193.796 74.064C193.796 73.824 193.68 73.62 193.448 73.452C193.216 73.284 192.944 73.2 192.632 73.2ZM204.945 74.94L204.657 75.156C204.225 75.156 203.797 75.16 203.373 75.168C202.957 75.176 202.529 75.18 202.089 75.18H201.105C201.097 75.236 201.093 75.292 201.093 75.348C201.093 75.396 201.093 75.444 201.093 75.492C201.093 75.7 201.129 75.908 201.201 76.116C201.273 76.324 201.385 76.512 201.537 76.68C201.697 76.84 201.897 76.972 202.137 77.076C202.377 77.172 202.669 77.22 203.013 77.22C203.261 77.22 203.521 77.188 203.793 77.124C204.073 77.052 204.333 76.96 204.573 76.848L204.777 76.932V77.364L204.657 77.496C204.465 77.648 204.181 77.792 203.805 77.928C203.437 78.064 203.037 78.132 202.605 78.132C202.181 78.132 201.793 78.064 201.441 77.928C201.097 77.784 200.797 77.584 200.541 77.328C200.293 77.072 200.097 76.768 199.953 76.416C199.817 76.064 199.749 75.672 199.749 75.24C199.749 74.8 199.821 74.4 199.965 74.04C200.109 73.68 200.305 73.372 200.553 73.116C200.809 72.86 201.105 72.66 201.441 72.516C201.785 72.372 202.153 72.3 202.545 72.3C202.753 72.3 202.985 72.328 203.241 72.384C203.505 72.44 203.757 72.548 203.997 72.708C204.237 72.86 204.453 73.08 204.645 73.368C204.837 73.648 204.969 74.02 205.041 74.484L204.945 74.94ZM202.557 73.2C202.165 73.2 201.849 73.32 201.609 73.56C201.377 73.792 201.229 74.064 201.165 74.376H201.765C202.045 74.376 202.321 74.372 202.593 74.364C202.865 74.348 203.141 74.34 203.421 74.34C203.525 74.34 203.601 74.312 203.649 74.256C203.697 74.192 203.721 74.128 203.721 74.064C203.721 73.824 203.605 73.62 203.373 73.452C203.141 73.284 202.869 73.2 202.557 73.2ZM209.623 77.916C209.647 77.844 209.663 77.74 209.671 77.604C209.687 77.468 209.707 77.344 209.731 77.232L209.719 77.196C209.623 77.316 209.511 77.432 209.383 77.544C209.263 77.656 209.127 77.756 208.975 77.844C208.823 77.932 208.659 78 208.483 78.048C208.315 78.104 208.135 78.132 207.943 78.132C207.655 78.132 207.403 78.088 207.187 78C206.971 77.912 206.791 77.796 206.647 77.652C206.503 77.508 206.391 77.34 206.311 77.148C206.239 76.956 206.203 76.756 206.203 76.548C206.203 76.236 206.271 75.964 206.407 75.732C206.543 75.5 206.723 75.312 206.947 75.168C207.155 75.032 207.399 74.928 207.679 74.856C207.959 74.776 208.231 74.716 208.495 74.676C208.759 74.636 208.999 74.612 209.215 74.604C209.431 74.588 209.575 74.58 209.647 74.58H209.815C209.807 74.332 209.791 74.14 209.767 74.004C209.743 73.86 209.711 73.74 209.671 73.644C209.599 73.484 209.479 73.372 209.311 73.308C209.151 73.236 208.959 73.2 208.735 73.2C208.599 73.2 208.451 73.212 208.291 73.236C208.139 73.252 207.995 73.288 207.859 73.344C207.723 73.4 207.603 73.48 207.499 73.584C207.403 73.68 207.347 73.808 207.331 73.968L207.283 74.004H206.899L206.791 72.876L206.827 72.804C206.875 72.756 206.967 72.704 207.103 72.648C207.239 72.592 207.403 72.54 207.595 72.492C207.787 72.436 207.995 72.392 208.219 72.36C208.451 72.32 208.683 72.3 208.915 72.3C209.227 72.3 209.519 72.34 209.791 72.42C210.063 72.492 210.295 72.604 210.487 72.756C210.687 72.908 210.843 73.1 210.955 73.332C211.067 73.556 211.123 73.82 211.123 74.124C211.123 74.452 211.119 74.732 211.111 74.964C211.111 75.196 211.107 75.412 211.099 75.612C211.091 75.812 211.083 76.008 211.075 76.2C211.075 76.384 211.075 76.592 211.075 76.824C211.091 77.008 211.111 77.14 211.135 77.22C211.159 77.3 211.199 77.364 211.255 77.412C211.319 77.476 211.415 77.516 211.543 77.532C211.679 77.54 211.803 77.544 211.915 77.544L211.951 77.592L211.975 78L211.963 78.048C211.827 78.032 211.671 78.02 211.495 78.012C211.319 78.004 211.155 78 211.003 78C210.779 78 210.555 78 210.331 78C210.107 78.008 209.895 78.02 209.695 78.036L209.623 77.916ZM209.623 76.62C209.647 76.58 209.671 76.532 209.695 76.476C209.727 76.42 209.747 76.352 209.755 76.272L209.815 75.252H209.707C209.459 75.252 209.215 75.268 208.975 75.3C208.735 75.332 208.519 75.392 208.327 75.48C208.135 75.568 207.979 75.692 207.859 75.852C207.739 76.012 207.679 76.22 207.679 76.476C207.679 76.692 207.731 76.864 207.835 76.992C207.947 77.12 208.095 77.184 208.279 77.184C208.415 77.184 208.551 77.168 208.687 77.136C208.831 77.096 208.963 77.048 209.083 76.992C209.203 76.936 209.311 76.876 209.407 76.812C209.503 76.74 209.575 76.676 209.623 76.62ZM215.714 74.64C216.05 74.72 216.322 74.828 216.53 74.964C216.738 75.1 216.894 75.248 216.998 75.408C217.11 75.568 217.182 75.732 217.214 75.9C217.254 76.068 217.274 76.224 217.274 76.368C217.274 76.624 217.222 76.86 217.118 77.076C217.014 77.292 216.862 77.48 216.662 77.64C216.47 77.792 216.234 77.912 215.954 78C215.674 78.088 215.358 78.132 215.006 78.132C214.638 78.132 214.294 78.092 213.974 78.012C213.654 77.94 213.402 77.852 213.218 77.748L213.074 77.592L213.254 76.116H213.65L213.686 76.164C213.686 76.516 213.794 76.796 214.01 77.004C214.226 77.204 214.546 77.304 214.97 77.304C215.194 77.304 215.382 77.284 215.534 77.244C215.694 77.196 215.818 77.14 215.906 77.076C216.002 77.004 216.07 76.928 216.11 76.848C216.15 76.76 216.17 76.68 216.17 76.608C216.17 76.552 216.166 76.492 216.158 76.428C216.15 76.364 216.126 76.3 216.086 76.236C216.046 76.164 215.986 76.096 215.906 76.032C215.826 75.96 215.71 75.9 215.558 75.852L214.406 75.564C214.142 75.5 213.926 75.408 213.758 75.288C213.59 75.168 213.454 75.036 213.35 74.892C213.254 74.74 213.186 74.58 213.146 74.412C213.114 74.244 213.098 74.076 213.098 73.908C213.098 73.644 213.15 73.412 213.254 73.212C213.358 73.004 213.498 72.836 213.674 72.708C213.858 72.572 214.07 72.472 214.31 72.408C214.55 72.336 214.81 72.3 215.09 72.3C215.442 72.3 215.766 72.344 216.062 72.432C216.358 72.512 216.586 72.6 216.746 72.696L216.902 72.84L216.77 74.004H216.398L216.35 73.968C216.35 73.792 216.302 73.648 216.206 73.536C216.118 73.416 216.006 73.324 215.87 73.26C215.742 73.188 215.606 73.14 215.462 73.116C215.318 73.084 215.19 73.068 215.078 73.068C214.758 73.068 214.53 73.136 214.394 73.272C214.258 73.408 214.19 73.56 214.19 73.728C214.19 73.872 214.234 74.012 214.322 74.148C214.418 74.284 214.598 74.384 214.862 74.448L215.714 74.64ZM221.665 79.392C221.569 79.632 221.441 79.848 221.281 80.04C221.129 80.24 220.953 80.412 220.753 80.556C220.553 80.7 220.341 80.816 220.117 80.904C219.893 81 219.665 81.064 219.433 81.096C219.369 81.112 219.293 81.12 219.205 81.12C219.125 81.12 219.005 81.12 218.845 81.12L218.761 81.096L218.725 80.484L218.773 80.424H218.941C219.037 80.424 219.141 80.412 219.253 80.388C219.365 80.372 219.473 80.336 219.577 80.28C219.809 80.168 220.021 80.008 220.213 79.8C220.413 79.592 220.549 79.392 220.621 79.2L220.957 78.3L219.997 76.104C219.957 76.016 219.893 75.86 219.805 75.636C219.717 75.412 219.617 75.168 219.505 74.904C219.393 74.632 219.273 74.364 219.145 74.1C219.025 73.836 218.913 73.616 218.809 73.44C218.729 73.312 218.637 73.212 218.533 73.14C218.437 73.068 218.305 73.024 218.137 73.008L218.065 72.948V72.54L218.113 72.492C218.249 72.508 218.393 72.524 218.545 72.54C218.697 72.556 218.837 72.564 218.965 72.564H219.913C220.033 72.564 220.177 72.556 220.345 72.54C220.521 72.524 220.681 72.508 220.825 72.492L220.873 72.54V72.924L220.825 72.972C220.673 72.988 220.541 73.036 220.429 73.116C220.325 73.188 220.273 73.296 220.273 73.44C220.273 73.536 220.305 73.696 220.369 73.92C220.441 74.136 220.521 74.368 220.609 74.616C220.705 74.864 220.793 75.096 220.873 75.312C220.961 75.52 221.017 75.66 221.041 75.732L221.557 77.184L222.157 75.732C222.213 75.604 222.281 75.444 222.361 75.252C222.441 75.052 222.517 74.844 222.589 74.628C222.669 74.412 222.737 74.2 222.793 73.992C222.849 73.784 222.877 73.6 222.877 73.44C222.877 73.264 222.817 73.148 222.697 73.092C222.577 73.028 222.449 72.988 222.313 72.972L222.265 72.924V72.54L222.313 72.492C222.465 72.524 222.609 72.544 222.745 72.552C222.881 72.56 223.009 72.564 223.129 72.564H224.101C224.237 72.564 224.369 72.556 224.497 72.54C224.633 72.524 224.777 72.508 224.929 72.492L224.977 72.54V72.948L224.905 73.008C224.769 73.024 224.649 73.064 224.545 73.128C224.449 73.192 224.357 73.296 224.269 73.44C224.149 73.632 224.013 73.88 223.861 74.184C223.717 74.48 223.573 74.78 223.429 75.084C223.293 75.388 223.169 75.664 223.057 75.912C222.945 76.16 222.873 76.332 222.841 76.428L221.665 79.392Z" fill="#C87E10"/>
<defs>
<linearGradient id="paint0_linear_30_4743" x1="103.499" y1="-12.624" x2="64.9522" y2="107.168" gradientUnits="userSpaceOnUse">
<stop stop-color="white"/>
<stop offset="1" stop-color="#F7F6F6" stop-opacity="0"/>
</linearGradient>
<linearGradient id="paint1_linear_30_4743" x1="32.9718" y1="5.01605" x2="123.645" y2="32.8673" gradientUnits="userSpaceOnUse">
<stop stop-color="#DCDBE5"/>
<stop offset="1" stop-color="#878383" stop-opacity="0"/>
</linearGradient>
<linearGradient id="paint2_linear_30_4743" x1="39.2673" y1="2.60692" x2="119.154" y2="51.1846" gradientUnits="userSpaceOnUse">
<stop stop-color="#D3D1DA"/>
<stop offset="0.826794" stop-color="#3C3C3C" stop-opacity="0"/>
<stop offset="0.985299" stop-color="#3C3C3C" stop-opacity="0"/>
</linearGradient>
<linearGradient id="paint3_linear_30_4743" x1="23.7777" y1="20.3584" x2="123.774" y2="26.6124" gradientUnits="userSpaceOnUse">
<stop stop-color="#CCCAD7"/>
<stop offset="1" stop-color="#636161" stop-opacity="0"/>
</linearGradient>
<clipPath id="clip0_30_4743">
<rect width="26.4431" height="58.9892" fill="white" transform="translate(44 18.0991)"/>
</clipPath>
<clipPath id="clip1_30_4743">
<rect width="29.4524" height="59.0883" fill="white" transform="translate(72.1693 18)"/>
</clipPath>
</defs>
</svg>
