<svg width="1440" height="1107" viewBox="0 0 1440 1107" fill="none" xmlns="http://www.w3.org/2000/svg">
<g clip-path="url(#clip0_191_1733)">
<rect width="1440" height="1107" fill="url(#paint0_linear_191_1733)"/>
<path fill-rule="evenodd" clip-rule="evenodd" d="M559.374 1200.74V1233H560.374V1200.74H643.376V1233H644.376V1200.74H727.379V1233H728.379V1200.74H811.382V1233H812.382V1200.74H895.385V1233H896.385V1200.74H979.388V1233H980.388V1200.74H1063.39V1233H1064.39V1200.74H1147.39V1233H1148.39V1200.74H1231.4V1233H1232.4V1200.74H1315.4V1233H1316.4V1200.74L1399.4 1200.74V1233H1400.4V1200.74H1483.41V1233H1484.41V1200.74L1567.41 1200.74V1233H1568.41V1200.74H1640.17V1199.74H1568.41V1117.35H1640.17V1116.35H1568.41V1033.96H1640.17V1032.96H1568.41V950.565H1640.17V949.565H1568.41V867.174H1640.17V866.174H1568.41V783.783H1640.17V782.783H1568.41V700.392H1640.17V699.392H1568.41V617H1640.17V616H1568.41V533.609H1640.17V532.609H1568.41V450.218H1640.17V449.218H1568.41V366.826H1640.17V365.826H1568.41V283.435H1640.17V282.435H1568.41V200.044L1640.17 200.044V199.044L1568.41 199.044V116.652L1640.17 116.652V115.652L1568.41 115.652V33.2611L1640.17 33.2611V32.2611L1568.41 32.2611V0H1567.41V32.2611L1484.4 32.2611V0H1483.4V32.2611L1400.4 32.2611V0H1399.4V32.2611L1316.4 32.2611V0H1315.4V32.2611L1232.4 32.261V0H1231.4V32.261L1148.39 32.261V0H1147.39V32.261L1064.39 32.261V0H1063.39V32.261L980.388 32.261V0H979.388V32.261L896.385 32.261V0H895.385V32.261L812.382 32.2609V0H811.382V32.2609L728.379 32.2609V0H727.379V32.2609L644.376 32.2609V0H643.376V32.2609L560.374 32.2609V0H559.374V32.2609L484 32.2609V33.2609L559.374 33.2609L559.374 115.652L484 115.652V116.652L559.374 116.652V199.043L484 199.043V200.043L559.374 200.043L559.374 282.435L484 282.435V283.435L559.374 283.435L559.374 365.826L484 365.826V366.826L559.374 366.826V449.217L484 449.217V450.217L559.374 450.217L559.374 532.609H484V533.609H559.374V616H484V617H559.374V699.391H484V700.391H559.374L559.374 782.783H484V783.783H559.374V866.174H484V867.174H559.374L559.374 949.565H484V950.565H559.374L559.374 1032.96H484V1033.96H559.374V1116.35H484V1117.35H559.374L559.374 1199.74H484V1200.74H559.374ZM1567.41 33.2611L1484.4 33.2611V115.652L1567.41 115.652V33.2611ZM1567.41 116.652L1484.4 116.652V199.044L1567.41 199.044V116.652ZM1567.41 200.044L1484.4 200.044V282.435L1567.41 282.435V200.044ZM1567.41 283.435L1484.4 283.435V365.826L1567.41 365.826V283.435ZM1567.41 366.826L1484.4 366.826V449.218L1567.41 449.218V366.826ZM1567.41 450.218L1484.4 450.218V532.609L1567.41 532.609V450.218ZM1567.41 533.609L1484.4 533.609V616L1567.41 616V533.609ZM1567.41 617L1484.41 617V699.391L1567.41 699.392V617ZM1567.41 700.392L1484.41 700.391V782.783L1567.41 782.783V700.392ZM1567.41 783.783L1484.41 783.783V866.174L1567.41 866.174V783.783ZM1567.41 867.174L1484.41 867.174V949.565L1567.41 949.565V867.174ZM1567.41 950.565L1484.41 950.565V1032.96L1567.41 1032.96V950.565ZM1567.41 1033.96L1484.41 1033.96V1116.35L1567.41 1116.35V1033.96ZM1567.41 1117.35L1484.41 1117.35V1199.74L1567.41 1199.74V1117.35ZM1483.41 1117.35V1199.74H1400.4V1117.35H1483.41ZM1483.41 1033.96V1116.35H1400.4V1033.96H1483.41ZM1483.41 950.565V1032.96H1400.4V950.565H1483.41ZM1483.41 867.174V949.565H1400.4V867.174H1483.41ZM1483.41 783.783V866.174H1400.4V783.783H1483.41ZM1483.41 700.391V782.783H1400.4V700.391H1483.41ZM1483.41 617V699.391H1400.4V617H1483.41ZM1483.4 533.609V616H1400.4V533.609H1483.4ZM1483.4 450.218V532.609H1400.4V450.218H1483.4ZM1483.4 366.826V449.218H1400.4V366.826H1483.4ZM1483.4 283.435V365.826H1400.4V283.435H1483.4ZM1483.4 200.044V282.435H1400.4V200.044L1483.4 200.044ZM1483.4 116.652V199.044L1400.4 199.044V116.652L1483.4 116.652ZM1483.4 33.2611V115.652L1400.4 115.652V33.2611L1483.4 33.2611ZM1399.4 33.2611L1316.4 33.2611V115.652L1399.4 115.652V33.2611ZM1399.4 116.652L1316.4 116.652V199.044L1399.4 199.044V116.652ZM1399.4 200.044L1316.4 200.044V282.435L1399.4 282.435V200.044ZM1399.4 283.435L1316.4 283.435V365.826L1399.4 365.826V283.435ZM1399.4 366.826L1316.4 366.826V449.218L1399.4 449.218V366.826ZM1399.4 450.218L1316.4 450.218V532.609L1399.4 532.609V450.218ZM1399.4 533.609L1316.4 533.609V616L1399.4 616V533.609ZM1399.4 617L1316.4 617V699.391L1399.4 699.391V617ZM1399.4 700.391L1316.4 700.391V782.783L1399.4 782.783V700.391ZM1399.4 783.783L1316.4 783.783V866.174L1399.4 866.174V783.783ZM1399.4 867.174L1316.4 867.174V949.565L1399.4 949.565V867.174ZM1399.4 950.565L1316.4 950.565V1032.96L1399.4 1032.96V950.565ZM1399.4 1033.96L1316.4 1033.96V1116.35L1399.4 1116.35V1033.96ZM1399.4 1117.35L1316.4 1117.35V1199.74L1399.4 1199.74V1117.35ZM1315.4 1117.35V1199.74H1232.4V1117.35H1315.4ZM1315.4 1033.96V1116.35H1232.4V1033.96H1315.4ZM1315.4 950.565V1032.96H1232.4V950.565H1315.4ZM1315.4 867.174V949.565H1232.4V867.174H1315.4ZM1315.4 783.783V866.174H1232.4V783.783H1315.4ZM1315.4 700.391V782.783H1232.4V700.391H1315.4ZM1315.4 617V699.391H1232.4V617H1315.4ZM1315.4 533.609V616H1232.4V533.609H1315.4ZM1315.4 450.218V532.609H1232.4V450.218H1315.4ZM1315.4 366.826V449.218H1232.4V366.826H1315.4ZM1315.4 283.435V365.826H1232.4V283.435H1315.4ZM1315.4 200.044V282.435H1232.4V200.044L1315.4 200.044ZM1315.4 116.652V199.044L1232.4 199.044V116.652L1315.4 116.652ZM1315.4 33.2611V115.652L1232.4 115.652V33.261L1315.4 33.2611ZM1231.4 33.261L1148.39 33.261V115.652L1231.4 115.652V33.261ZM1231.4 116.652L1148.39 116.652V199.044L1231.4 199.044V116.652ZM1231.4 200.044L1148.39 200.044V282.435L1231.4 282.435V200.044ZM1231.4 283.435L1148.39 283.435V365.826L1231.4 365.826V283.435ZM1231.4 366.826L1148.39 366.826V449.218L1231.4 449.218V366.826ZM1231.4 450.218L1148.39 450.218V532.609L1231.4 532.609V450.218ZM1231.4 533.609L1148.39 533.609V616L1231.4 616V533.609ZM1231.4 617L1148.39 617V699.391L1231.4 699.391V617ZM1231.4 700.391L1148.39 700.391V782.783L1231.4 782.783V700.391ZM1231.4 783.783L1148.39 783.783V866.174L1231.4 866.174V783.783ZM1231.4 867.174L1148.39 867.174V949.565L1231.4 949.565V867.174ZM1231.4 950.565L1148.39 950.565V1032.96H1231.4V950.565ZM1231.4 1033.96H1148.39V1116.35H1231.4V1033.96ZM1231.4 1117.35H1148.39V1199.74H1231.4V1117.35ZM1147.39 1117.35V1199.74H1064.39V1117.35H1147.39ZM1147.39 1033.96V1116.35H1064.39V1033.96H1147.39ZM1147.39 950.565V1032.96H1064.39V950.565H1147.39ZM1147.39 867.174V949.565H1064.39V867.174H1147.39ZM1147.39 783.783V866.174H1064.39V783.783H1147.39ZM1147.39 700.391V782.783H1064.39V700.391H1147.39ZM1147.39 617V699.391H1064.39V617H1147.39ZM1147.39 533.609V616H1064.39V533.609H1147.39ZM1147.39 450.218V532.609H1064.39V450.218H1147.39ZM1147.39 366.826V449.218H1064.39V366.826H1147.39ZM1147.39 283.435V365.826H1064.39V283.435H1147.39ZM1147.39 200.044V282.435H1064.39V200.044L1147.39 200.044ZM1147.39 116.652V199.044L1064.39 199.044V116.652L1147.39 116.652ZM1147.39 33.261V115.652L1064.39 115.652V33.261L1147.39 33.261ZM1063.39 33.261L980.388 33.261V115.652L1063.39 115.652V33.261ZM1063.39 116.652L980.388 116.652V199.044L1063.39 199.044V116.652ZM1063.39 200.044L980.388 200.044V282.435L1063.39 282.435V200.044ZM1063.39 283.435L980.388 283.435L980.388 365.826L1063.39 365.826V283.435ZM1063.39 366.826L980.388 366.826V449.218L1063.39 449.218V366.826ZM1063.39 450.218L980.388 450.218V532.609L1063.39 532.609V450.218ZM1063.39 533.609L980.388 533.609V616L1063.39 616V533.609ZM1063.39 617L980.388 617V699.391L1063.39 699.391V617ZM1063.39 700.391L980.388 700.391V782.783L1063.39 782.783V700.391ZM1063.39 783.783L980.388 783.783V866.174L1063.39 866.174V783.783ZM1063.39 867.174L980.388 867.174L980.388 949.565L1063.39 949.565V867.174ZM1063.39 950.565L980.388 950.565V1032.96H1063.39V950.565ZM1063.39 1033.96H980.388V1116.35H1063.39V1033.96ZM1063.39 1117.35H980.388V1199.74H1063.39V1117.35ZM979.388 1117.35V1199.74H896.385V1117.35H979.388ZM979.388 1033.96V1116.35H896.385V1033.96H979.388ZM979.388 950.565V1032.96H896.385V950.565H979.388ZM979.388 867.174L979.388 949.565H896.385L896.385 867.174H979.388ZM979.388 783.783V866.174H896.385V783.783H979.388ZM979.388 700.391V782.783H896.385V700.391H979.388ZM979.388 617V699.391H896.385V617H979.388ZM979.388 533.609V616H896.385V533.609H979.388ZM979.388 450.218V532.609H896.385V450.218H979.388ZM979.388 366.826V449.218H896.385V366.826H979.388ZM979.388 283.435L979.388 365.826H896.385L896.385 283.435H979.388ZM979.388 200.044V282.435H896.385V200.044L979.388 200.044ZM979.388 116.652V199.044L896.385 199.044V116.652L979.388 116.652ZM979.388 33.261V115.652L896.385 115.652V33.261L979.388 33.261ZM895.385 33.261L812.382 33.2609V115.652L895.385 115.652V33.261ZM895.385 116.652L812.382 116.652V199.044L895.385 199.044V116.652ZM895.385 200.044L812.382 200.044V282.435L895.385 282.435V200.044ZM895.385 283.435L812.382 283.435L812.382 365.826L895.385 365.826L895.385 283.435ZM895.385 366.826L812.382 366.826V449.217L895.385 449.218V366.826ZM895.385 450.218L812.382 450.217V532.609H895.385V450.218ZM895.385 533.609H812.382V616H895.385V533.609ZM895.385 617H812.382V699.391H895.385V617ZM895.385 700.391H812.382V782.783H895.385V700.391ZM895.385 783.783H812.382V866.174H895.385V783.783ZM895.385 867.174H812.382L812.382 949.565H895.385L895.385 867.174ZM895.385 950.565H812.382V1032.96H895.385V950.565ZM895.385 1033.96H812.382V1116.35H895.385V1033.96ZM895.385 1117.35H812.382V1199.74H895.385V1117.35ZM811.382 1117.35V1199.74H728.379V1117.35H811.382ZM811.382 1033.96V1116.35H728.379L728.379 1033.96H811.382ZM811.382 950.565V1032.96H728.379V950.565H811.382ZM811.382 867.174L811.382 949.565H728.379V867.174H811.382ZM811.382 783.783V866.174H728.379V783.783H811.382ZM811.382 700.391V782.783H728.379L728.379 700.391H811.382ZM811.382 617V699.391H728.379V617H811.382ZM811.382 533.609V616H728.379V533.609H811.382ZM811.382 450.217V532.609H728.379L728.379 450.217L811.382 450.217ZM811.382 366.826V449.217L728.379 449.217V366.826L811.382 366.826ZM811.382 283.435L811.382 365.826L728.379 365.826V283.435L811.382 283.435ZM811.382 200.044V282.435L728.379 282.435V200.044L811.382 200.044ZM811.382 116.652V199.044L728.379 199.044L728.379 116.652L811.382 116.652ZM811.382 33.2609V115.652L728.379 115.652V33.2609L811.382 33.2609ZM727.379 33.2609L644.376 33.2609V115.652L727.379 115.652V33.2609ZM727.379 116.652L644.376 116.652L644.376 199.044L727.379 199.044L727.379 116.652ZM727.379 200.044L644.376 200.044V282.435L727.379 282.435V200.044ZM727.379 283.435L644.376 283.435V365.826L727.379 365.826V283.435ZM727.379 366.826L644.376 366.826V449.217L727.379 449.217V366.826ZM727.379 450.217L644.376 450.217L644.376 532.609H727.379L727.379 450.217ZM727.379 533.609H644.376V616H727.379V533.609ZM727.379 617H644.376V699.391H727.379V617ZM727.379 700.391H644.376L644.376 782.783H727.379L727.379 700.391ZM727.379 783.783H644.376V866.174H727.379V783.783ZM727.379 867.174H644.376V949.565H727.379V867.174ZM727.379 950.565H644.376V1032.96H727.379V950.565ZM727.379 1033.96H644.376L644.376 1116.35H727.379L727.379 1033.96ZM727.379 1117.35H644.376V1199.74H727.379V1117.35ZM643.376 1117.35V1199.74H560.374L560.374 1117.35H643.376ZM643.376 1033.96L643.376 1116.35H560.374V1033.96H643.376ZM643.376 950.565V1032.96H560.374L560.374 950.565H643.376ZM643.376 867.174V949.565H560.374L560.374 867.174H643.376ZM643.376 783.783V866.174H560.374V783.783H643.376ZM643.376 700.391L643.376 782.783H560.374L560.374 700.391H643.376ZM643.376 617V699.391H560.374V617H643.376ZM643.376 533.609V616H560.374V533.609H643.376ZM643.376 450.217L643.376 532.609H560.374L560.374 450.217L643.376 450.217ZM643.376 366.826V449.217L560.374 449.217V366.826L643.376 366.826ZM643.376 283.435V365.826L560.374 365.826L560.374 283.435L643.376 283.435ZM643.376 200.044V282.435L560.374 282.435L560.374 200.043L643.376 200.044ZM643.376 116.652L643.376 199.044L560.374 199.043V116.652L643.376 116.652ZM643.376 33.2609V115.652L560.374 115.652L560.374 33.2609L643.376 33.2609Z" fill="url(#paint1_radial_191_1733)"/>
<path fill-rule="evenodd" clip-rule="evenodd" d="M-267.626 1200.74V1233H-266.626V1200.74H-183.624V1233H-182.624V1200.74H-99.6205V1233H-98.6205V1200.74H-15.6178V1233H-14.6178V1200.74H68.385V1233H69.385V1200.74H152.388V1233H153.388V1200.74H236.391V1233H237.391V1200.74H320.394V1233H321.394V1200.74H404.396V1233H405.396V1200.74H488.399V1233H489.399V1200.74L572.402 1200.74V1233H573.402V1200.74H656.405V1233H657.405V1200.74L740.408 1200.74V1233H741.408V1200.74H813.168V1199.74H741.408V1117.35H813.168V1116.35H741.408V1033.96H813.168V1032.96H741.408V950.565H813.168V949.565H741.408V867.174H813.168V866.174H741.408V783.783H813.168V782.783H741.408V700.392H813.168V699.392H741.408V617H813.168V616H741.408V533.609H813.168V532.609H741.408V450.218H813.168V449.218H741.408V366.826H813.168V365.826H741.408V283.435H813.168V282.435H741.408V200.044L813.168 200.044V199.044L741.408 199.044V116.652L813.168 116.652V115.652L741.408 115.652V33.2611L813.168 33.2611V32.2611L741.408 32.2611V0H740.408V32.2611L657.405 32.2611V0H656.405V32.2611L573.402 32.2611V0H572.402V32.2611L489.399 32.2611V0H488.399V32.2611L405.396 32.261V0H404.396V32.261L321.394 32.261V0H320.394V32.261L237.391 32.261V0H236.391V32.261L153.388 32.261V0H152.388V32.261L69.385 32.261V0H68.385V32.261L-14.6179 32.2609V0H-15.6179V32.2609L-98.6206 32.2609V0H-99.6206V32.2609L-182.624 32.2609V0H-183.624V32.2609L-266.626 32.2609V0H-267.626V32.2609L-343 32.2609V33.2609L-267.626 33.2609L-267.626 115.652L-343 115.652V116.652L-267.626 116.652V199.043L-343 199.043V200.043L-267.626 200.043L-267.626 282.435L-343 282.435V283.435L-267.626 283.435L-267.626 365.826L-343 365.826V366.826L-267.626 366.826V449.217L-343 449.217V450.217L-267.626 450.217L-267.626 532.609H-343V533.609H-267.626V616H-343V617H-267.626V699.391H-343V700.391H-267.626L-267.626 782.783H-343V783.783H-267.626V866.174H-343V867.174H-267.626L-267.626 949.565H-343V950.565H-267.626L-267.626 1032.96H-343V1033.96H-267.626V1116.35H-343V1117.35H-267.626L-267.626 1199.74H-343V1200.74H-267.626ZM740.408 33.2611L657.405 33.2611V115.652L740.408 115.652V33.2611ZM740.408 116.652L657.405 116.652V199.044L740.408 199.044V116.652ZM740.408 200.044L657.405 200.044V282.435L740.408 282.435V200.044ZM740.408 283.435L657.405 283.435V365.826L740.408 365.826V283.435ZM740.408 366.826L657.405 366.826V449.218L740.408 449.218V366.826ZM740.408 450.218L657.405 450.218V532.609L740.408 532.609V450.218ZM740.408 533.609L657.405 533.609V616L740.408 616V533.609ZM740.408 617L657.405 617V699.391L740.408 699.392V617ZM740.408 700.392L657.405 700.391V782.783L740.408 782.783V700.392ZM740.408 783.783L657.405 783.783V866.174L740.408 866.174V783.783ZM740.408 867.174L657.405 867.174V949.565L740.408 949.565V867.174ZM740.408 950.565L657.405 950.565V1032.96L740.408 1032.96V950.565ZM740.408 1033.96L657.405 1033.96V1116.35L740.408 1116.35V1033.96ZM740.408 1117.35L657.405 1117.35V1199.74L740.408 1199.74V1117.35ZM656.405 1117.35V1199.74H573.402V1117.35H656.405ZM656.405 1033.96V1116.35H573.402V1033.96H656.405ZM656.405 950.565V1032.96H573.402V950.565H656.405ZM656.405 867.174V949.565H573.402V867.174H656.405ZM656.405 783.783V866.174H573.402V783.783H656.405ZM656.405 700.391V782.783H573.402V700.391H656.405ZM656.405 617V699.391H573.402V617H656.405ZM656.405 533.609V616H573.402V533.609H656.405ZM656.405 450.218V532.609H573.402V450.218H656.405ZM656.405 366.826V449.218H573.402V366.826H656.405ZM656.405 283.435V365.826H573.402V283.435H656.405ZM656.405 200.044V282.435H573.402V200.044L656.405 200.044ZM656.405 116.652V199.044L573.402 199.044V116.652L656.405 116.652ZM656.405 33.2611V115.652L573.402 115.652V33.2611L656.405 33.2611ZM572.402 33.2611L489.399 33.2611V115.652L572.402 115.652V33.2611ZM572.402 116.652L489.399 116.652V199.044L572.402 199.044V116.652ZM572.402 200.044L489.399 200.044V282.435L572.402 282.435V200.044ZM572.402 283.435L489.399 283.435V365.826L572.402 365.826V283.435ZM572.402 366.826L489.399 366.826V449.218L572.402 449.218V366.826ZM572.402 450.218L489.399 450.218V532.609L572.402 532.609V450.218ZM572.402 533.609L489.399 533.609V616L572.402 616V533.609ZM572.402 617L489.399 617V699.391L572.402 699.391V617ZM572.402 700.391L489.399 700.391V782.783L572.402 782.783V700.391ZM572.402 783.783L489.399 783.783V866.174L572.402 866.174V783.783ZM572.402 867.174L489.399 867.174V949.565L572.402 949.565V867.174ZM572.402 950.565L489.399 950.565V1032.96L572.402 1032.96V950.565ZM572.402 1033.96L489.399 1033.96V1116.35L572.402 1116.35V1033.96ZM572.402 1117.35L489.399 1117.35V1199.74L572.402 1199.74V1117.35ZM488.399 1117.35V1199.74H405.396V1117.35H488.399ZM488.399 1033.96V1116.35H405.396V1033.96H488.399ZM488.399 950.565V1032.96H405.396V950.565H488.399ZM488.399 867.174V949.565H405.396V867.174H488.399ZM488.399 783.783V866.174H405.396V783.783H488.399ZM488.399 700.391V782.783H405.396V700.391H488.399ZM488.399 617V699.391H405.396V617H488.399ZM488.399 533.609V616H405.396V533.609H488.399ZM488.399 450.218V532.609H405.396V450.218H488.399ZM488.399 366.826V449.218H405.396V366.826H488.399ZM488.399 283.435V365.826H405.396V283.435H488.399ZM488.399 200.044V282.435H405.396V200.044L488.399 200.044ZM488.399 116.652V199.044L405.396 199.044V116.652L488.399 116.652ZM488.399 33.2611V115.652L405.396 115.652V33.261L488.399 33.2611ZM404.396 33.261L321.394 33.261V115.652L404.396 115.652V33.261ZM404.396 116.652L321.394 116.652V199.044L404.396 199.044V116.652ZM404.396 200.044L321.394 200.044V282.435L404.396 282.435V200.044ZM404.396 283.435L321.394 283.435V365.826L404.396 365.826V283.435ZM404.396 366.826L321.394 366.826V449.218L404.396 449.218V366.826ZM404.396 450.218L321.394 450.218V532.609L404.396 532.609V450.218ZM404.396 533.609L321.394 533.609V616L404.396 616V533.609ZM404.396 617L321.394 617V699.391L404.396 699.391V617ZM404.396 700.391L321.394 700.391V782.783L404.396 782.783V700.391ZM404.396 783.783L321.394 783.783V866.174L404.396 866.174V783.783ZM404.396 867.174L321.394 867.174V949.565L404.396 949.565V867.174ZM404.396 950.565L321.394 950.565V1032.96H404.396V950.565ZM404.396 1033.96H321.394V1116.35H404.396V1033.96ZM404.396 1117.35H321.394V1199.74H404.396V1117.35ZM320.394 1117.35V1199.74H237.391V1117.35H320.394ZM320.394 1033.96V1116.35H237.391V1033.96H320.394ZM320.394 950.565V1032.96H237.391V950.565H320.394ZM320.394 867.174V949.565H237.391V867.174H320.394ZM320.394 783.783V866.174H237.391V783.783H320.394ZM320.394 700.391V782.783H237.391V700.391H320.394ZM320.394 617V699.391H237.391V617H320.394ZM320.394 533.609V616H237.391V533.609H320.394ZM320.394 450.218V532.609H237.391V450.218H320.394ZM320.394 366.826V449.218H237.391V366.826H320.394ZM320.394 283.435V365.826H237.391V283.435H320.394ZM320.394 200.044V282.435H237.391V200.044L320.394 200.044ZM320.394 116.652V199.044L237.391 199.044V116.652L320.394 116.652ZM320.394 33.261V115.652L237.391 115.652V33.261L320.394 33.261ZM236.391 33.261L153.388 33.261V115.652L236.391 115.652V33.261ZM236.391 116.652L153.388 116.652V199.044L236.391 199.044V116.652ZM236.391 200.044L153.388 200.044V282.435L236.391 282.435V200.044ZM236.391 283.435L153.388 283.435L153.388 365.826L236.391 365.826V283.435ZM236.391 366.826L153.388 366.826V449.218L236.391 449.218V366.826ZM236.391 450.218L153.388 450.218V532.609L236.391 532.609V450.218ZM236.391 533.609L153.388 533.609V616L236.391 616V533.609ZM236.391 617L153.388 617V699.391L236.391 699.391V617ZM236.391 700.391L153.388 700.391V782.783L236.391 782.783V700.391ZM236.391 783.783L153.388 783.783V866.174L236.391 866.174V783.783ZM236.391 867.174L153.388 867.174L153.388 949.565L236.391 949.565V867.174ZM236.391 950.565L153.388 950.565V1032.96H236.391V950.565ZM236.391 1033.96H153.388V1116.35H236.391V1033.96ZM236.391 1117.35H153.388V1199.74H236.391V1117.35ZM152.388 1117.35V1199.74H69.385V1117.35H152.388ZM152.388 1033.96V1116.35H69.385V1033.96H152.388ZM152.388 950.565V1032.96H69.385V950.565H152.388ZM152.388 867.174L152.388 949.565H69.385L69.385 867.174H152.388ZM152.388 783.783V866.174H69.385V783.783H152.388ZM152.388 700.391V782.783H69.385V700.391H152.388ZM152.388 617V699.391H69.385V617H152.388ZM152.388 533.609V616H69.385V533.609H152.388ZM152.388 450.218V532.609H69.385V450.218H152.388ZM152.388 366.826V449.218H69.385V366.826H152.388ZM152.388 283.435L152.388 365.826H69.385L69.385 283.435H152.388ZM152.388 200.044V282.435H69.385V200.044L152.388 200.044ZM152.388 116.652V199.044L69.385 199.044V116.652L152.388 116.652ZM152.388 33.261V115.652L69.385 115.652V33.261L152.388 33.261ZM68.385 33.261L-14.6179 33.2609V115.652L68.385 115.652V33.261ZM68.385 116.652L-14.6179 116.652V199.044L68.385 199.044V116.652ZM68.385 200.044L-14.6179 200.044V282.435L68.385 282.435V200.044ZM68.385 283.435L-14.6179 283.435L-14.6179 365.826L68.385 365.826L68.385 283.435ZM68.385 366.826L-14.6179 366.826V449.217L68.385 449.218V366.826ZM68.385 450.218L-14.6179 450.217V532.609H68.385V450.218ZM68.385 533.609H-14.6179V616H68.385V533.609ZM68.385 617H-14.6179V699.391H68.385V617ZM68.385 700.391H-14.6179V782.783H68.385V700.391ZM68.385 783.783H-14.6179V866.174H68.385V783.783ZM68.385 867.174H-14.6179L-14.6178 949.565H68.385L68.385 867.174ZM68.385 950.565H-14.6178V1032.96H68.385V950.565ZM68.385 1033.96H-14.6178V1116.35H68.385V1033.96ZM68.385 1117.35H-14.6178V1199.74H68.385V1117.35ZM-15.6178 1117.35V1199.74H-98.6205V1117.35H-15.6178ZM-15.6178 1033.96V1116.35H-98.6205L-98.6206 1033.96H-15.6178ZM-15.6178 950.565V1032.96H-98.6206V950.565H-15.6178ZM-15.6179 867.174L-15.6178 949.565H-98.6206V867.174H-15.6179ZM-15.6179 783.783V866.174H-98.6206V783.783H-15.6179ZM-15.6179 700.391V782.783H-98.6206L-98.6206 700.391H-15.6179ZM-15.6179 617V699.391H-98.6206V617H-15.6179ZM-15.6179 533.609V616H-98.6206V533.609H-15.6179ZM-15.6179 450.217V532.609H-98.6206L-98.6206 450.217L-15.6179 450.217ZM-15.6179 366.826V449.217L-98.6206 449.217V366.826L-15.6179 366.826ZM-15.6179 283.435L-15.6179 365.826L-98.6206 365.826V283.435L-15.6179 283.435ZM-15.6179 200.044V282.435L-98.6206 282.435V200.044L-15.6179 200.044ZM-15.6179 116.652V199.044L-98.6206 199.044L-98.6206 116.652L-15.6179 116.652ZM-15.6179 33.2609V115.652L-98.6206 115.652V33.2609L-15.6179 33.2609ZM-99.6206 33.2609L-182.624 33.2609V115.652L-99.6206 115.652V33.2609ZM-99.6206 116.652L-182.624 116.652L-182.624 199.044L-99.6206 199.044L-99.6206 116.652ZM-99.6206 200.044L-182.624 200.044V282.435L-99.6206 282.435V200.044ZM-99.6206 283.435L-182.624 283.435V365.826L-99.6206 365.826V283.435ZM-99.6206 366.826L-182.624 366.826V449.217L-99.6206 449.217V366.826ZM-99.6206 450.217L-182.624 450.217L-182.624 532.609H-99.6206L-99.6206 450.217ZM-99.6206 533.609H-182.624V616H-99.6206V533.609ZM-99.6206 617H-182.624V699.391H-99.6206V617ZM-99.6206 700.391H-182.624L-182.624 782.783H-99.6206L-99.6206 700.391ZM-99.6206 783.783H-182.624V866.174H-99.6206V783.783ZM-99.6206 867.174H-182.624V949.565H-99.6206V867.174ZM-99.6206 950.565H-182.624V1032.96H-99.6206V950.565ZM-99.6206 1033.96H-182.624L-182.624 1116.35H-99.6205L-99.6206 1033.96ZM-99.6205 1117.35H-182.624V1199.74H-99.6205V1117.35ZM-183.624 1117.35V1199.74H-266.626L-266.626 1117.35H-183.624ZM-183.624 1033.96L-183.624 1116.35H-266.626V1033.96H-183.624ZM-183.624 950.565V1032.96H-266.626L-266.626 950.565H-183.624ZM-183.624 867.174V949.565H-266.626L-266.626 867.174H-183.624ZM-183.624 783.783V866.174H-266.626V783.783H-183.624ZM-183.624 700.391L-183.624 782.783H-266.626L-266.626 700.391H-183.624ZM-183.624 617V699.391H-266.626V617H-183.624ZM-183.624 533.609V616H-266.626V533.609H-183.624ZM-183.624 450.217L-183.624 532.609H-266.626L-266.626 450.217L-183.624 450.217ZM-183.624 366.826V449.217L-266.626 449.217V366.826L-183.624 366.826ZM-183.624 283.435V365.826L-266.626 365.826L-266.626 283.435L-183.624 283.435ZM-183.624 200.044V282.435L-266.626 282.435L-266.626 200.043L-183.624 200.044ZM-183.624 116.652L-183.624 199.044L-266.626 199.043V116.652L-183.624 116.652ZM-183.624 33.2609V115.652L-266.626 115.652L-266.626 33.2609L-183.624 33.2609Z" fill="url(#paint2_radial_191_1733)"/>
<g clip-path="url(#clip1_191_1733)">
<path d="M1516 1109C1516 958.622 1474.65 814.404 1401.04 708.07C1327.43 601.737 1227.6 542 1123.5 542C1019.4 542 919.569 601.737 845.961 708.07C772.353 814.404 731 958.622 731 1109L1123.5 1109H1516Z" fill="url(#paint3_radial_191_1733)"/>
<ellipse cx="1151.5" cy="1096.5" rx="271.5" ry="271.5" transform="rotate(-180 1151.5 1096.5)" fill="url(#paint4_linear_191_1733)"/>
<circle cx="1250" cy="707" r="42" fill="url(#paint5_linear_191_1733)"/>
<g clip-path="url(#clip2_191_1733)">
<path d="M1422 1108.04H732C731.735 1108.04 731.48 1107.94 731.293 1107.75C731.105 1107.56 731 1107.31 731 1107.04C731 1106.78 731.105 1106.52 731.293 1106.34C731.48 1106.15 731.735 1106.04 732 1106.04H1422C1422.27 1106.04 1422.52 1106.15 1422.71 1106.34C1422.89 1106.52 1423 1106.78 1423 1107.04C1423 1107.31 1422.89 1107.56 1422.71 1107.75C1422.52 1107.94 1422.27 1108.04 1422 1108.04Z" fill="#928787"/>
<path d="M1353.7 933.642H947.704C945.98 933.642 944.327 934.326 943.108 935.545C941.889 936.764 941.204 938.418 941.204 940.142C941.204 941.866 941.889 943.519 943.108 944.738C944.327 945.957 945.98 946.642 947.704 946.642H959.204V1102.14C959.204 1103.87 959.889 1105.52 961.108 1106.74C962.327 1107.96 963.98 1108.64 965.704 1108.64C967.428 1108.64 969.082 1107.96 970.301 1106.74C971.52 1105.52 972.204 1103.87 972.204 1102.14L972.303 946.642H1328.2V1102.14C1328.2 1103.87 1328.89 1105.52 1330.11 1106.74C1331.33 1107.96 1332.98 1108.64 1334.7 1108.64C1336.43 1108.64 1338.08 1107.96 1339.3 1106.74C1340.52 1105.52 1341.2 1103.87 1341.2 1102.14V950.069L1343.1 946.642H1353.7C1355.43 946.642 1357.08 945.957 1358.3 944.738C1359.52 943.519 1360.2 941.866 1360.2 940.142C1360.2 938.418 1359.52 936.764 1358.3 935.545C1357.08 934.326 1355.43 933.642 1353.7 933.642Z" fill="#252525"/>
<path d="M1172.79 937.043H1049.81C1047.43 937.04 1045.15 936.093 1043.46 934.409C1041.78 932.725 1040.83 930.442 1040.83 928.061V860.352C1040.83 857.971 1041.78 855.688 1043.46 854.004C1045.15 852.32 1047.43 851.373 1049.81 851.37H1172.79C1175.18 851.373 1177.46 852.32 1179.14 854.004C1180.83 855.688 1181.77 857.971 1181.78 860.352V928.061C1181.77 930.442 1180.83 932.725 1179.14 934.409C1177.46 936.093 1175.18 937.04 1172.79 937.043Z" fill="#3F3D56"/>
<path d="M1172.79 858.283H1049.81C1049.26 858.284 1048.74 858.503 1048.35 858.891C1047.96 859.279 1047.74 859.805 1047.74 860.353V928.063C1047.74 928.612 1047.96 929.138 1048.35 929.526C1048.74 929.914 1049.26 930.132 1049.81 930.133H1172.79C1173.34 930.132 1173.87 929.914 1174.26 929.526C1174.64 929.138 1174.86 928.612 1174.86 928.063V860.353C1174.86 859.805 1174.64 859.279 1174.26 858.891C1173.87 858.503 1173.34 858.284 1172.79 858.283Z" fill="white"/>
<path d="M1121.79 906.221C1121.79 906.221 1107.07 902.829 1098.97 909.048C1090.88 915.268 1109.28 929.403 1109.28 929.403L1121.79 906.221Z" fill="#2F2E41"/>
<path d="M1112.02 899.811C1119.69 899.811 1125.91 893.594 1125.91 885.924C1125.91 878.255 1119.69 872.037 1112.02 872.037C1104.35 872.037 1098.14 878.255 1098.14 885.924C1098.14 893.594 1104.35 899.811 1112.02 899.811Z" fill="#A0616A"/>
<path d="M1101.29 866.43C1102.21 864.858 1103.55 863.573 1105.16 862.716C1106.78 861.859 1108.59 861.464 1110.41 861.574C1112.32 861.813 1114.18 862.333 1115.93 863.118L1125.01 866.659C1127.36 867.576 1129.93 868.698 1130.95 871.005C1131.89 873.145 1131.19 875.617 1130.47 877.846L1127.08 888.439C1126.7 886.042 1126.05 883.694 1125.15 881.441C1124.23 879.174 1122.58 877.283 1120.45 876.077C1118.09 874.868 1115.31 874.893 1112.66 875.02C1108.91 875.201 1104.84 875.678 1102.17 878.322C1100.76 879.824 1099.8 881.696 1099.41 883.721C1099.02 885.736 1098.83 887.782 1098.83 889.833C1097.29 887.19 1096 884.414 1094.96 881.538C1094.11 879.396 1093.62 877.126 1093.52 874.823C1093.43 872.5 1094.2 870.226 1095.69 868.436C1096.44 867.561 1097.42 866.914 1098.52 866.567C1099.62 866.221 1100.8 866.189 1101.92 866.475L1101.29 866.43Z" fill="#2F2E41"/>
<path d="M1145.18 918.263C1145.05 917.794 1144.79 917.374 1144.42 917.056C1144.05 916.737 1143.6 916.535 1143.11 916.473C1143.08 916.451 1143.05 916.431 1143.01 916.413L1122.28 904.795C1121.69 904.463 1120.99 904.373 1120.34 904.542C1119.68 904.711 1119.11 905.127 1118.75 905.703L1113.08 914.883L1104.54 906.343L1104.41 906.207C1103.97 905.769 1103.39 905.499 1102.77 905.445C1102.16 905.391 1101.54 905.557 1101.03 905.912L1083.99 917.843C1083.96 917.843 1083.93 917.853 1083.9 917.853C1083.09 917.989 1082.34 918.399 1081.79 919.016C1081.24 919.632 1080.92 920.418 1080.87 921.243L1080.43 930.133H1148.47L1145.18 918.263Z" fill="#6C63FF"/>
<path d="M1183.16 928.752H1170.03C1170.03 928.385 1169.88 928.034 1169.63 927.775C1169.37 927.516 1169.02 927.37 1168.65 927.37H1164.5C1164.14 927.37 1163.79 927.516 1163.53 927.775C1163.27 928.034 1163.12 928.385 1163.12 928.752H1158.98C1158.98 928.385 1158.83 928.034 1158.57 927.775C1158.31 927.516 1157.96 927.37 1157.59 927.37H1153.45C1153.08 927.37 1152.73 927.516 1152.47 927.775C1152.21 928.034 1152.07 928.385 1152.07 928.752H1147.92C1147.92 928.385 1147.78 928.034 1147.52 927.775C1147.26 927.516 1146.91 927.37 1146.54 927.37H1142.39C1142.03 927.37 1141.68 927.516 1141.42 927.775C1141.16 928.034 1141.01 928.385 1141.01 928.752H1136.87C1136.87 928.385 1136.72 928.034 1136.46 927.775C1136.2 927.516 1135.85 927.37 1135.48 927.37H1131.34C1130.97 927.37 1130.62 927.516 1130.36 927.775C1130.1 928.034 1129.96 928.385 1129.96 928.752H1125.81C1125.81 928.385 1125.67 928.034 1125.41 927.775C1125.15 927.516 1124.8 927.37 1124.43 927.37H1120.28C1119.92 927.37 1119.57 927.516 1119.31 927.775C1119.05 928.034 1118.9 928.385 1118.9 928.752H1114.76C1114.76 928.385 1114.61 928.034 1114.35 927.775C1114.09 927.516 1113.74 927.37 1113.38 927.37H1109.23C1108.86 927.37 1108.51 927.516 1108.25 927.775C1107.99 928.034 1107.85 928.385 1107.85 928.752H1103.7C1103.7 928.385 1103.56 928.034 1103.3 927.775C1103.04 927.516 1102.69 927.37 1102.32 927.37H1098.18C1097.81 927.37 1097.46 927.516 1097.2 927.775C1096.94 928.034 1096.79 928.385 1096.79 928.752H1092.65C1092.65 928.385 1092.5 928.034 1092.24 927.775C1091.98 927.516 1091.63 927.37 1091.27 927.37H1087.12C1086.75 927.37 1086.4 927.516 1086.14 927.775C1085.89 928.034 1085.74 928.385 1085.74 928.752H1081.59C1081.59 928.385 1081.45 928.034 1081.19 927.775C1080.93 927.516 1080.58 927.37 1080.21 927.37H1076.07C1075.7 927.37 1075.35 927.516 1075.09 927.775C1074.83 928.034 1074.69 928.385 1074.68 928.752H1070.54C1070.54 928.385 1070.39 928.034 1070.13 927.775C1069.88 927.516 1069.52 927.37 1069.16 927.37H1065.01C1064.65 927.37 1064.29 927.516 1064.04 927.775C1063.78 928.034 1063.63 928.385 1063.63 928.752H1059.48C1059.48 928.385 1059.34 928.034 1059.08 927.775C1058.82 927.516 1058.47 927.37 1058.1 927.37H1053.96C1053.59 927.37 1053.24 927.516 1052.98 927.775C1052.72 928.034 1052.58 928.385 1052.58 928.752H1039.45C1038.35 928.754 1037.3 929.191 1036.52 929.968C1035.75 930.746 1035.31 931.799 1035.31 932.897C1035.31 933.996 1035.75 935.049 1036.52 935.826C1037.3 936.604 1038.35 937.041 1039.45 937.043H1183.16C1184.26 937.043 1185.31 936.606 1186.09 935.829C1186.87 935.051 1187.3 933.997 1187.3 932.897C1187.3 931.798 1186.87 930.744 1186.09 929.966C1185.31 929.189 1184.26 928.752 1183.16 928.752Z" fill="#3F3D56"/>
<path d="M1018.08 904.678V932.204H949.117C947.269 932.268 945.427 931.96 943.702 931.297C941.976 930.635 940.401 929.631 939.071 928.347C937.741 927.062 936.684 925.523 935.961 923.822C935.239 922.12 934.867 920.29 934.867 918.441C934.867 916.592 935.239 914.762 935.961 913.061C936.684 911.359 937.741 909.82 939.071 908.536C940.401 907.251 941.976 906.248 943.702 905.585C945.427 904.922 947.269 904.614 949.117 904.678H1018.08Z" fill="#F2F2F2"/>
<path d="M1019.77 931.992C1019.77 932.273 1019.66 932.542 1019.46 932.741C1019.26 932.939 1018.99 933.051 1018.71 933.051H947.888C944.042 933.051 940.353 931.523 937.633 928.803C934.913 926.083 933.385 922.394 933.385 918.547C933.385 914.7 934.913 911.011 937.633 908.291C940.353 905.571 944.042 904.043 947.888 904.043H1018.71C1019 904.043 1019.26 904.155 1019.46 904.353C1019.66 904.552 1019.77 904.821 1019.77 905.102C1019.77 905.382 1019.66 905.652 1019.46 905.85C1019.26 906.049 1019 906.16 1018.71 906.16H947.888C944.605 906.163 941.458 907.47 939.137 909.792C936.816 912.115 935.513 915.264 935.513 918.547C935.513 921.83 936.816 924.979 939.137 927.302C941.458 929.624 944.605 930.931 947.888 930.933H1018.71C1018.99 930.934 1019.26 931.045 1019.46 931.244C1019.66 931.442 1019.77 931.711 1019.77 931.992Z" fill="#6C63FF"/>
<path d="M1018.08 911.03H943.971C943.943 911.031 943.916 911.025 943.89 911.015C943.864 911.004 943.84 910.989 943.821 910.969C943.801 910.949 943.785 910.926 943.774 910.9C943.764 910.874 943.758 910.847 943.758 910.819C943.758 910.791 943.764 910.763 943.774 910.737C943.785 910.712 943.801 910.688 943.821 910.668C943.84 910.649 943.864 910.633 943.89 910.623C943.916 910.612 943.943 910.607 943.971 910.607H1018.08C1018.13 910.607 1018.19 910.63 1018.23 910.669C1018.27 910.709 1018.29 910.763 1018.29 910.819C1018.29 910.875 1018.27 910.928 1018.23 910.968C1018.19 911.008 1018.13 911.03 1018.08 911.03Z" fill="#252525"/>
<path d="M1018.08 916.112H943.971C943.943 916.112 943.916 916.107 943.89 916.096C943.864 916.086 943.84 916.07 943.821 916.05C943.801 916.031 943.785 916.007 943.774 915.982C943.764 915.956 943.758 915.928 943.758 915.9C943.758 915.872 943.764 915.845 943.774 915.819C943.785 915.793 943.801 915.77 943.821 915.75C943.84 915.73 943.864 915.715 943.89 915.704C943.916 915.694 943.943 915.688 943.971 915.688H1018.08C1018.13 915.689 1018.19 915.711 1018.23 915.751C1018.27 915.791 1018.29 915.844 1018.29 915.9C1018.29 915.956 1018.27 916.01 1018.23 916.049C1018.19 916.089 1018.13 916.112 1018.08 916.112Z" fill="#252525"/>
<path d="M1018.08 921.194H943.971C943.943 921.194 943.916 921.189 943.89 921.178C943.864 921.168 943.84 921.152 943.821 921.132C943.801 921.113 943.785 921.089 943.774 921.064C943.764 921.038 943.758 921.01 943.758 920.982C943.758 920.954 943.764 920.927 943.774 920.901C943.785 920.875 943.801 920.852 943.821 920.832C943.84 920.812 943.864 920.797 943.89 920.786C943.916 920.776 943.943 920.77 943.971 920.771H1018.08C1018.13 920.771 1018.19 920.793 1018.23 920.833C1018.27 920.873 1018.29 920.926 1018.29 920.982C1018.29 921.038 1018.27 921.092 1018.23 921.131C1018.19 921.171 1018.13 921.194 1018.08 921.194Z" fill="#252525"/>
<path d="M1018.08 926.276H943.971C943.943 926.276 943.916 926.27 943.89 926.26C943.864 926.249 943.84 926.234 943.821 926.214C943.801 926.194 943.785 926.171 943.774 926.145C943.764 926.119 943.758 926.092 943.758 926.064C943.758 926.036 943.764 926.008 943.774 925.982C943.785 925.957 943.801 925.933 943.821 925.914C943.84 925.894 943.864 925.878 943.89 925.868C943.916 925.857 943.943 925.852 943.971 925.852H1018.08C1018.13 925.852 1018.19 925.875 1018.23 925.915C1018.27 925.954 1018.29 926.008 1018.29 926.064C1018.29 926.12 1018.27 926.173 1018.23 926.213C1018.19 926.253 1018.13 926.275 1018.08 926.276Z" fill="#252525"/>
<path d="M1005.08 875.678V903.204H936.117C934.269 903.268 932.427 902.96 930.702 902.297C928.976 901.634 927.401 900.631 926.071 899.347C924.741 898.062 923.684 896.523 922.961 894.822C922.239 893.12 921.867 891.29 921.867 889.441C921.867 887.592 922.239 885.762 922.961 884.061C923.684 882.359 924.741 880.82 926.071 879.536C927.401 878.251 928.976 877.248 930.702 876.585C932.427 875.922 934.269 875.614 936.117 875.678H1005.08Z" fill="#F2F2F2"/>
<path d="M1006.77 902.992C1006.77 903.273 1006.66 903.542 1006.46 903.741C1006.26 903.939 1005.99 904.051 1005.71 904.051H934.888C932.984 904.051 931.098 903.676 929.338 902.947C927.578 902.218 925.979 901.15 924.633 899.803C923.286 898.456 922.217 896.857 921.489 895.097C920.76 893.338 920.385 891.452 920.385 889.547C920.385 887.642 920.76 885.756 921.489 883.996C922.217 882.237 923.286 880.638 924.633 879.291C925.979 877.944 927.578 876.876 929.338 876.147C931.098 875.418 932.984 875.043 934.888 875.043H1005.71C1006 875.043 1006.26 875.155 1006.46 875.353C1006.66 875.552 1006.77 875.821 1006.77 876.102C1006.77 876.382 1006.66 876.652 1006.46 876.85C1006.26 877.049 1006 877.16 1005.71 877.16H934.888C931.605 877.163 928.458 878.47 926.137 880.792C923.816 883.115 922.513 886.264 922.513 889.547C922.513 892.83 923.816 895.979 926.137 898.302C928.458 900.624 931.605 901.931 934.888 901.933H1005.71C1005.99 901.934 1006.26 902.045 1006.46 902.244C1006.66 902.442 1006.77 902.711 1006.77 902.992Z" fill="#3F3D56"/>
<path d="M1005.08 882.03H930.971C930.943 882.031 930.916 882.025 930.89 882.015C930.864 882.004 930.84 881.989 930.821 881.969C930.801 881.949 930.785 881.926 930.774 881.9C930.764 881.874 930.758 881.847 930.758 881.819C930.758 881.791 930.764 881.763 930.774 881.737C930.785 881.712 930.801 881.688 930.821 881.668C930.84 881.649 930.864 881.633 930.89 881.623C930.916 881.612 930.943 881.607 930.971 881.607H1005.08C1005.13 881.607 1005.19 881.63 1005.23 881.669C1005.27 881.709 1005.29 881.763 1005.29 881.819C1005.29 881.875 1005.27 881.928 1005.23 881.968C1005.19 882.008 1005.13 882.03 1005.08 882.03Z" fill="#252525"/>
<path d="M1005.08 887.112H930.971C930.943 887.112 930.916 887.107 930.89 887.096C930.864 887.086 930.84 887.07 930.821 887.05C930.801 887.031 930.785 887.007 930.774 886.982C930.764 886.956 930.758 886.928 930.758 886.9C930.758 886.872 930.764 886.845 930.774 886.819C930.785 886.793 930.801 886.77 930.821 886.75C930.84 886.73 930.864 886.715 930.89 886.704C930.916 886.694 930.943 886.688 930.971 886.688H1005.08C1005.13 886.689 1005.19 886.711 1005.23 886.751C1005.27 886.791 1005.29 886.844 1005.29 886.9C1005.29 886.956 1005.27 887.01 1005.23 887.049C1005.19 887.089 1005.13 887.112 1005.08 887.112Z" fill="#252525"/>
<path d="M1005.08 892.194H930.971C930.943 892.194 930.916 892.189 930.89 892.178C930.864 892.168 930.84 892.152 930.821 892.132C930.801 892.113 930.785 892.089 930.774 892.064C930.764 892.038 930.758 892.01 930.758 891.982C930.758 891.954 930.764 891.927 930.774 891.901C930.785 891.875 930.801 891.852 930.821 891.832C930.84 891.812 930.864 891.797 930.89 891.786C930.916 891.776 930.943 891.77 930.971 891.771H1005.08C1005.13 891.771 1005.19 891.793 1005.23 891.833C1005.27 891.873 1005.29 891.926 1005.29 891.982C1005.29 892.038 1005.27 892.092 1005.23 892.131C1005.19 892.171 1005.13 892.194 1005.08 892.194Z" fill="#252525"/>
<path d="M1005.08 897.276H930.971C930.943 897.276 930.916 897.27 930.89 897.26C930.864 897.249 930.84 897.234 930.821 897.214C930.801 897.194 930.785 897.171 930.774 897.145C930.764 897.119 930.758 897.092 930.758 897.064C930.758 897.036 930.764 897.008 930.774 896.982C930.785 896.957 930.801 896.933 930.821 896.914C930.84 896.894 930.864 896.878 930.89 896.868C930.916 896.857 930.943 896.852 930.971 896.852H1005.08C1005.13 896.852 1005.19 896.875 1005.23 896.915C1005.27 896.954 1005.29 897.008 1005.29 897.064C1005.29 897.12 1005.27 897.173 1005.23 897.213C1005.19 897.253 1005.13 897.275 1005.08 897.276Z" fill="#252525"/>
<path d="M1085.3 1030.04V1006.04C1085.3 1004.98 1084.88 1003.96 1084.13 1003.21C1083.38 1002.46 1082.36 1002.04 1081.3 1002.04H990.303C989.242 1002.04 988.225 1002.46 987.475 1003.21C986.725 1003.96 986.303 1004.98 986.303 1006.04V1030.04H1085.3Z" fill="#252525"/>
<path d="M1085.3 1039.04H986.303V1070.04H1085.3V1039.04Z" fill="#252525"/>
<path d="M986.303 1079.04V1103.04C986.303 1104.1 986.725 1105.12 987.475 1105.87C988.225 1106.62 989.242 1107.04 990.303 1107.04H1081.3C1082.36 1107.04 1083.38 1106.62 1084.13 1105.87C1084.88 1105.12 1085.3 1104.1 1085.3 1103.04V1079.04H986.303Z" fill="#252525"/>
<path d="M1035.3 1020.04C1036.96 1020.04 1038.3 1018.7 1038.3 1017.04C1038.3 1015.39 1036.96 1014.04 1035.3 1014.04C1033.65 1014.04 1032.3 1015.39 1032.3 1017.04C1032.3 1018.7 1033.65 1020.04 1035.3 1020.04Z" fill="white"/>
<path d="M1035.3 1060.04C1036.96 1060.04 1038.3 1058.7 1038.3 1057.04C1038.3 1055.39 1036.96 1054.04 1035.3 1054.04C1033.65 1054.04 1032.3 1055.39 1032.3 1057.04C1032.3 1058.7 1033.65 1060.04 1035.3 1060.04Z" fill="white"/>
<path d="M1035.46 1099.2C1037.12 1099.2 1038.46 1097.85 1038.46 1096.2C1038.46 1094.54 1037.12 1093.2 1035.46 1093.2C1033.81 1093.2 1032.46 1094.54 1032.46 1096.2C1032.46 1097.85 1033.81 1099.2 1035.46 1099.2Z" fill="white"/>
<path d="M1074.08 974.678V1002.2H1005.12C1003.27 1002.27 1001.43 1001.96 999.702 1001.3C997.976 1000.63 996.401 999.631 995.071 998.347C993.741 997.062 992.684 995.523 991.961 993.822C991.239 992.12 990.867 990.29 990.867 988.441C990.867 986.592 991.239 984.763 991.961 983.061C992.684 981.359 993.741 979.82 995.071 978.536C996.401 977.251 997.976 976.248 999.702 975.585C1001.43 974.922 1003.27 974.614 1005.12 974.678H1074.08Z" fill="#F2F2F2"/>
<path d="M1075.77 1001.99C1075.77 1002.27 1075.66 1002.54 1075.46 1002.74C1075.26 1002.94 1075 1003.05 1074.71 1003.05H1003.89C1001.98 1003.05 1000.1 1002.68 998.334 1001.95C996.573 1001.22 994.973 1000.15 993.625 998.807C992.277 997.46 991.207 995.861 990.478 994.1C989.748 992.34 989.373 990.453 989.373 988.547C989.373 986.641 989.748 984.754 990.478 982.994C991.207 981.233 992.277 979.634 993.625 978.287C994.973 976.94 996.573 975.872 998.334 975.144C1000.1 974.415 1001.98 974.041 1003.89 974.043H1074.71C1075 974.043 1075.26 974.154 1075.46 974.353C1075.66 974.552 1075.77 974.821 1075.77 975.102C1075.77 975.382 1075.66 975.652 1075.46 975.85C1075.26 976.049 1075 976.16 1074.71 976.16H1003.89C1000.61 976.163 997.458 977.47 995.137 979.792C992.817 982.115 991.513 985.264 991.513 988.547C991.513 991.83 992.817 994.979 995.137 997.302C997.458 999.624 1000.61 1000.93 1003.89 1000.93H1074.71C1075 1000.93 1075.26 1001.05 1075.46 1001.24C1075.66 1001.44 1075.77 1001.71 1075.77 1001.99Z" fill="#3F3D56"/>
<path d="M1074.08 981.03H999.971C999.944 981.031 999.916 981.025 999.89 981.015C999.864 981.004 999.841 980.989 999.821 980.969C999.801 980.949 999.785 980.926 999.775 980.9C999.764 980.874 999.758 980.847 999.758 980.819C999.758 980.791 999.764 980.763 999.775 980.737C999.785 980.712 999.801 980.688 999.821 980.668C999.841 980.649 999.864 980.633 999.89 980.623C999.916 980.612 999.944 980.607 999.971 980.607H1074.08C1074.14 980.607 1074.19 980.63 1074.23 980.669C1074.27 980.709 1074.29 980.763 1074.29 980.819C1074.29 980.875 1074.27 980.928 1074.23 980.968C1074.19 981.008 1074.14 981.03 1074.08 981.03Z" fill="#252525"/>
<path d="M1074.08 986.112H999.971C999.944 986.112 999.916 986.107 999.89 986.096C999.864 986.086 999.841 986.07 999.821 986.05C999.801 986.031 999.785 986.007 999.775 985.982C999.764 985.956 999.758 985.928 999.758 985.9C999.758 985.872 999.764 985.845 999.775 985.819C999.785 985.793 999.801 985.77 999.821 985.75C999.841 985.73 999.864 985.715 999.89 985.704C999.916 985.694 999.944 985.688 999.971 985.688H1074.08C1074.14 985.689 1074.19 985.711 1074.23 985.751C1074.27 985.791 1074.29 985.844 1074.29 985.9C1074.29 985.956 1074.27 986.01 1074.23 986.049C1074.19 986.089 1074.14 986.112 1074.08 986.112Z" fill="#252525"/>
<path d="M1074.08 991.194H999.971C999.944 991.194 999.916 991.189 999.89 991.178C999.864 991.168 999.841 991.152 999.821 991.132C999.801 991.113 999.785 991.089 999.775 991.064C999.764 991.038 999.758 991.01 999.758 990.982C999.758 990.954 999.764 990.927 999.775 990.901C999.785 990.875 999.801 990.852 999.821 990.832C999.841 990.812 999.864 990.797 999.89 990.786C999.916 990.776 999.944 990.77 999.971 990.771H1074.08C1074.14 990.771 1074.19 990.793 1074.23 990.833C1074.27 990.873 1074.29 990.926 1074.29 990.982C1074.29 991.038 1074.27 991.092 1074.23 991.131C1074.19 991.171 1074.14 991.194 1074.08 991.194Z" fill="#252525"/>
<path d="M1074.08 996.276H999.971C999.944 996.276 999.916 996.27 999.89 996.26C999.864 996.249 999.841 996.234 999.821 996.214C999.801 996.194 999.785 996.171 999.775 996.145C999.764 996.119 999.758 996.092 999.758 996.064C999.758 996.036 999.764 996.008 999.775 995.982C999.785 995.957 999.801 995.933 999.821 995.914C999.841 995.894 999.864 995.878 999.89 995.868C999.916 995.857 999.944 995.852 999.971 995.852H1074.08C1074.14 995.852 1074.19 995.875 1074.23 995.915C1074.27 995.954 1074.29 996.008 1074.29 996.064C1074.29 996.12 1074.27 996.173 1074.23 996.213C1074.19 996.253 1074.14 996.275 1074.08 996.276Z" fill="#252525"/>
<path d="M981.11 795.021V619.521C981.113 617.527 981.906 615.616 983.316 614.205C984.726 612.795 986.638 612.002 988.632 612H1127.36C1129.35 612.002 1131.27 612.795 1132.68 614.206C1134.09 615.616 1134.88 617.527 1134.88 619.521V795.021C1134.88 797.016 1134.09 798.927 1132.68 800.337C1131.27 801.747 1129.35 802.541 1127.36 802.543H988.632C986.638 802.541 984.726 801.747 983.316 800.337C981.906 798.927 981.113 797.016 981.11 795.021ZM988.632 613.671C987.081 613.673 985.594 614.29 984.497 615.387C983.4 616.483 982.784 617.97 982.782 619.521V795.021C982.784 796.572 983.4 798.059 984.497 799.156C985.594 800.253 987.081 800.87 988.632 800.871H1127.36C1128.91 800.87 1130.4 800.253 1131.49 799.156C1132.59 798.059 1133.21 796.572 1133.21 795.021V619.521C1133.21 617.97 1132.59 616.483 1131.49 615.387C1130.4 614.29 1128.91 613.673 1127.36 613.671H988.632Z" fill="white"/>
<path d="M1065.78 692.598V656.562C1065.78 655.565 1066.17 654.609 1066.88 653.904C1067.58 653.199 1068.54 652.802 1069.54 652.801H1100.07C1101.07 652.802 1102.03 653.199 1102.73 653.904C1103.44 654.609 1103.83 655.565 1103.83 656.562V692.598C1103.83 693.595 1103.44 694.551 1102.73 695.256C1102.03 695.961 1101.07 696.357 1100.07 696.358H1069.54C1068.54 696.357 1067.58 695.961 1066.88 695.256C1066.17 694.551 1065.78 693.595 1065.78 692.598Z" fill="#6C63FF"/>
<path d="M1006.44 709.312V673.276C1006.44 672.279 1006.84 671.323 1007.54 670.618C1008.25 669.913 1009.2 669.517 1010.2 669.516H1040.74C1041.73 669.517 1042.69 669.913 1043.4 670.618C1044.1 671.323 1044.5 672.279 1044.5 673.276V709.312C1044.5 710.309 1044.1 711.265 1043.4 711.97C1042.69 712.675 1041.73 713.072 1040.74 713.073H1010.2C1009.2 713.072 1008.25 712.675 1007.54 711.97C1006.84 711.265 1006.44 710.309 1006.44 709.312Z" fill="#252525"/>
<path d="M1054.08 760.291V724.255C1054.08 723.258 1054.47 722.302 1055.18 721.597C1055.88 720.892 1056.84 720.495 1057.84 720.494H1088.37C1089.37 720.495 1090.33 720.892 1091.03 721.597C1091.74 722.302 1092.13 723.258 1092.13 724.255V760.291C1092.13 761.288 1091.74 762.244 1091.03 762.949C1090.33 763.654 1089.37 764.05 1088.37 764.051H1057.84C1056.84 764.05 1055.88 763.654 1055.18 762.949C1054.47 762.244 1054.08 761.288 1054.08 760.291Z" fill="#FF6584"/>
<path d="M1236.56 925.043H1205.14C1204.84 925.043 1204.55 925.111 1204.28 925.243L1196.35 929.213C1196.09 929.324 1195.87 929.509 1195.71 929.746C1195.56 929.982 1195.47 930.26 1195.47 930.543C1195.47 930.827 1195.56 931.104 1195.71 931.341C1195.87 931.577 1196.09 931.762 1196.35 931.873L1204.28 935.843C1204.55 935.975 1204.84 936.044 1205.14 936.043H1236.56C1237 936.068 1237.42 935.922 1237.75 935.635C1238.07 935.349 1238.27 934.946 1238.3 934.513V926.573C1238.27 926.141 1238.07 925.738 1237.75 925.451C1237.42 925.165 1237 925.018 1236.56 925.043Z" fill="#3F3D56"/>
<path d="M1238.3 926.573V934.513C1238.27 934.945 1238.07 935.349 1237.75 935.635C1237.42 935.921 1237 936.068 1236.56 936.043H1230.3V925.043H1236.56C1237 925.018 1237.42 925.164 1237.75 925.451C1238.07 925.737 1238.27 926.14 1238.3 926.573Z" fill="#6C63FF"/>
<path d="M1236.33 865.643C1237.75 865.029 1239.29 864.722 1240.84 864.743C1242.39 864.764 1243.91 865.113 1245.32 865.766C1246.73 866.418 1247.98 867.361 1248.99 868.531C1250.01 869.702 1250.77 871.074 1251.22 872.557C1251.36 873.028 1251.46 873.507 1251.54 873.992L1295.48 895.78L1305.64 889.042L1318.3 903.607L1302.77 916.217C1300.9 917.722 1298.6 918.584 1296.2 918.677C1293.81 918.769 1291.45 918.086 1289.47 916.73L1244.89 885.902C1244.56 886.043 1244.22 886.166 1243.87 886.272C1242.39 886.721 1240.83 886.851 1239.29 886.654C1237.75 886.457 1236.27 885.937 1234.95 885.129C1233.63 884.321 1232.49 883.242 1231.62 881.964C1230.74 880.686 1230.14 879.236 1229.86 877.711C1229.78 877.269 1229.73 876.821 1229.7 876.372C1229.58 874.121 1230.15 871.886 1231.33 869.968C1232.52 868.05 1234.26 866.54 1236.33 865.643Z" fill="#FFB8B8"/>
<path d="M1327.84 999.792H1279.83C1279.83 1001.17 1230.35 1002.29 1230.35 1002.29C1229.57 1002.88 1228.87 1003.55 1228.24 1004.29C1226.36 1006.53 1225.33 1009.37 1225.34 1012.29V1014.29C1225.34 1017.61 1226.66 1020.79 1229 1023.13C1231.35 1025.47 1234.53 1026.79 1237.84 1026.79H1327.84C1331.16 1026.79 1334.33 1025.47 1336.68 1023.13C1339.02 1020.78 1340.34 1017.61 1340.34 1014.29V1012.29C1340.34 1008.98 1339.02 1005.8 1336.67 1003.46C1334.33 1001.11 1331.15 999.796 1327.84 999.792Z" fill="#3F3D56"/>
<path d="M1275.62 1110.29H1288.62V1026.29H1275.62V1110.29Z" fill="#3F3D56"/>
<path d="M1238.62 1109.84C1238.62 1111.24 1258.32 1110.38 1282.62 1110.38C1306.92 1110.38 1326.62 1111.24 1326.62 1109.84C1326.62 1108.43 1306.92 1097.29 1282.62 1097.29C1258.32 1097.29 1238.62 1108.43 1238.62 1109.84Z" fill="#3F3D56"/>
<path d="M1250.35 1099.99L1238.09 1099.99L1232.26 1068.19L1250.35 1068.2L1250.35 1099.99Z" fill="#FFB8B8"/>
<path d="M1253.48 1111.88L1213.95 1111.88V1111.38C1213.95 1109.35 1214.35 1107.35 1215.12 1105.49C1215.89 1103.62 1217.03 1101.92 1218.46 1100.5C1219.88 1099.07 1221.58 1097.93 1223.45 1097.16C1225.31 1096.39 1227.32 1095.99 1229.34 1095.99H1229.34L1253.48 1095.99L1253.48 1111.88Z" fill="#2F2E41"/>
<path d="M1232.02 1080.27L1207.58 1025.47C1205.54 1020.85 1205.31 1015.63 1206.94 1010.85C1208.58 1006.07 1211.95 1002.09 1216.39 999.683L1269.41 971.255L1293.6 969.198L1315.91 967.169L1316.07 967.442C1316.28 967.79 1321.08 976.077 1317.83 985.164C1315.37 992.056 1308.98 997.44 1298.82 1001.17C1275.1 1009.86 1247.71 1017.29 1237.03 1020.08C1236.56 1020.2 1236.12 1020.42 1235.74 1020.73C1235.35 1021.03 1235.04 1021.41 1234.82 1021.84C1234.59 1022.27 1234.46 1022.74 1234.43 1023.22C1234.39 1023.7 1234.46 1024.19 1234.62 1024.64L1257.33 1075.66C1257.57 1076.3 1257.65 1077 1257.58 1077.68C1257.51 1078.37 1257.28 1079.03 1256.91 1079.61C1256.54 1080.19 1256.04 1080.68 1255.46 1081.04C1254.87 1081.4 1254.21 1081.62 1253.52 1081.69L1236.55 1082.92C1236.41 1082.94 1236.27 1082.94 1236.12 1082.94C1235.25 1082.94 1234.4 1082.69 1233.67 1082.22C1232.95 1081.74 1232.37 1081.07 1232.02 1080.27Z" fill="#2F2E41"/>
<path d="M1256.35 1099.99L1244.09 1099.99L1238.26 1068.19L1256.35 1068.2L1256.35 1099.99Z" fill="#FFB8B8"/>
<path d="M1259.48 1111.88L1219.95 1111.88V1111.38C1219.95 1109.35 1220.35 1107.35 1221.12 1105.49C1221.89 1103.62 1223.03 1101.92 1224.46 1100.5C1225.88 1099.07 1227.58 1097.93 1229.45 1097.16C1231.31 1096.39 1233.32 1095.99 1235.34 1095.99H1235.34L1259.48 1095.99L1259.48 1111.88Z" fill="#2F2E41"/>
<path d="M1239.02 1083.27L1214.58 1028.47C1212.54 1023.85 1212.31 1018.63 1213.94 1013.85C1215.58 1009.07 1218.95 1005.09 1223.39 1002.68L1276.41 974.255L1300.6 972.198L1322.91 970.169L1323.07 970.442C1323.28 970.79 1328.08 979.077 1324.83 988.164C1322.37 995.056 1315.98 1000.44 1305.82 1004.17C1282.1 1012.86 1254.71 1020.29 1244.03 1023.08C1243.56 1023.2 1243.12 1023.42 1242.74 1023.73C1242.35 1024.03 1242.04 1024.41 1241.82 1024.84C1241.59 1025.27 1241.46 1025.74 1241.43 1026.22C1241.39 1026.7 1241.46 1027.19 1241.62 1027.64L1264.33 1078.66C1264.57 1079.3 1264.65 1080 1264.58 1080.68C1264.51 1081.37 1264.28 1082.03 1263.91 1082.61C1263.54 1083.19 1263.04 1083.68 1262.46 1084.04C1261.87 1084.4 1261.21 1084.62 1260.52 1084.69L1243.55 1085.92C1243.41 1085.94 1243.27 1085.94 1243.12 1085.94C1242.25 1085.94 1241.4 1085.69 1240.67 1085.22C1239.95 1084.74 1239.37 1084.07 1239.02 1083.27Z" fill="#2F2E41"/>
<path d="M1226.83 915.844C1216.56 902.183 1208.45 887.03 1202.76 870.912C1202.43 869.948 1202.45 868.899 1202.83 867.95C1203.2 867.002 1203.89 866.216 1204.79 865.733L1239.94 846.901C1240.5 846.594 1241.14 846.421 1241.78 846.395C1242.43 846.369 1243.07 846.49 1243.66 846.75C1244.26 847.012 1244.8 847.408 1245.23 847.908C1245.65 848.407 1245.96 848.998 1246.12 849.634C1250.21 865.166 1257.9 879.516 1268.57 891.525C1269.01 892.014 1269.33 892.596 1269.51 893.228C1269.69 893.86 1269.72 894.525 1269.61 895.171C1269.5 895.808 1269.24 896.411 1268.86 896.934C1268.48 897.457 1267.99 897.886 1267.42 898.19L1232.27 917.021C1231.37 917.501 1230.33 917.645 1229.34 917.43C1228.34 917.214 1227.46 916.652 1226.83 915.844Z" fill="#252525"/>
<path d="M1229.23 914.042C1229.42 914.278 1229.69 914.441 1229.98 914.502C1230.28 914.563 1230.59 914.519 1230.85 914.377L1266 895.545C1266.17 895.456 1266.32 895.329 1266.43 895.173C1266.55 895.018 1266.62 894.838 1266.65 894.648C1266.69 894.448 1266.68 894.242 1266.62 894.046C1266.57 893.85 1266.47 893.67 1266.33 893.52C1255.35 881.158 1247.43 866.385 1243.22 850.395C1243.17 850.198 1243.08 850.014 1242.95 849.859C1242.82 849.704 1242.65 849.581 1242.46 849.5C1242.29 849.422 1242.1 849.385 1241.9 849.393C1241.71 849.401 1241.52 849.453 1241.35 849.546L1206.21 868.378C1205.94 868.521 1205.73 868.754 1205.62 869.034C1205.51 869.315 1205.5 869.626 1205.59 869.915C1211.17 885.744 1219.15 900.625 1229.23 914.042Z" fill="white"/>
<path d="M1343.59 910.821L1316.07 921.28L1309.35 902.614C1308.46 900.135 1308.47 897.421 1309.38 894.95C1310.3 892.48 1312.06 890.413 1314.35 889.114C1316.67 887.8 1319.38 887.359 1322 887.87C1324.61 888.38 1326.96 889.809 1328.61 891.899L1343.59 910.821Z" fill="#6C63FF"/>
<path d="M1273.58 984.781C1273 984.371 1272.52 983.843 1272.16 983.231C1271.8 982.619 1271.57 981.937 1271.5 981.232C1267.97 948.322 1270.43 922.568 1279.01 902.497C1280.52 899.035 1282.79 895.961 1285.66 893.505C1288.53 891.049 1291.92 889.275 1295.57 888.317L1317.82 887.194L1317.94 887.25C1322.96 889.709 1327.05 893.721 1329.61 898.69C1332.17 903.66 1333.07 909.322 1332.16 914.838C1325 933.702 1319.01 953.341 1323.58 969.185C1323.77 969.847 1323.82 970.541 1323.74 971.226C1323.66 971.91 1323.44 972.571 1323.09 973.168C1322.76 973.745 1322.31 974.248 1321.77 974.645C1321.24 975.042 1320.63 975.325 1319.98 975.477L1277.6 985.558C1276.91 985.721 1276.2 985.736 1275.51 985.602C1274.81 985.468 1274.16 985.188 1273.58 984.781Z" fill="#6C63FF"/>
<path d="M1310.4 878.884C1323.96 878.884 1334.96 867.888 1334.96 854.323C1334.96 840.759 1323.96 829.762 1310.4 829.762C1296.83 829.762 1285.83 840.759 1285.83 854.323C1285.83 867.888 1296.83 878.884 1310.4 878.884Z" fill="#FFB8B8"/>
<path d="M1242.24 873.776L1223.1 882.226C1222.37 882.546 1221.55 882.565 1220.81 882.278C1220.07 881.99 1219.47 881.42 1219.15 880.693L1218.67 879.62C1218.35 878.892 1218.33 878.067 1218.62 877.325C1218.91 876.584 1219.48 875.986 1220.21 875.664L1239.35 867.215C1240.08 866.894 1240.9 866.876 1241.64 867.163C1242.38 867.451 1242.98 868.021 1243.3 868.748L1243.78 869.82C1244.1 870.548 1244.12 871.374 1243.83 872.115C1243.54 872.857 1242.97 873.454 1242.24 873.776Z" fill="#252525"/>
<path d="M1249.24 886.776L1230.1 895.226C1229.37 895.546 1228.55 895.565 1227.81 895.278C1227.07 894.99 1226.47 894.42 1226.15 893.693L1225.67 892.62C1225.35 891.892 1225.33 891.067 1225.62 890.325C1225.91 889.584 1226.48 888.986 1227.21 888.664L1246.35 880.215C1247.08 879.894 1247.9 879.876 1248.64 880.163C1249.38 880.451 1249.98 881.021 1250.3 881.748L1250.78 882.82C1251.1 883.548 1251.12 884.374 1250.83 885.115C1250.54 885.857 1249.97 886.454 1249.24 886.776Z" fill="#252525"/>
<path d="M1264 937.553L1221.33 903.887C1220.99 904.007 1220.64 904.109 1220.29 904.193C1218.79 904.545 1217.22 904.577 1215.71 904.285C1214.19 903.994 1212.75 903.386 1211.48 902.502C1210.2 901.616 1209.13 900.468 1208.33 899.135C1207.53 897.801 1207.03 896.312 1206.85 894.768C1206.56 892.3 1207.12 889.807 1208.43 887.694C1209.74 885.582 1211.72 883.973 1214.06 883.13C1215.52 882.607 1217.07 882.398 1218.62 882.516C1220.16 882.635 1221.67 883.079 1223.03 883.819C1224.39 884.559 1225.58 885.578 1226.52 886.81C1227.46 888.042 1228.13 889.459 1228.49 890.967C1228.6 891.446 1228.67 891.931 1228.71 892.42L1271.2 916.927L1281.77 910.84L1293.48 926.172L1277.06 937.872C1275.14 939.23 1272.83 939.933 1270.48 939.875C1268.13 939.818 1265.86 939.004 1264 937.553Z" fill="#FFB8B8"/>
<path d="M1298.69 930.947L1274.34 914.39L1285.78 898.183C1287.3 896.031 1289.53 894.486 1292.08 893.819C1294.63 893.153 1297.33 893.41 1299.71 894.543C1302.11 895.69 1304.03 897.659 1305.11 900.095C1306.19 902.531 1306.37 905.273 1305.6 907.826L1298.69 930.947Z" fill="#6C63FF"/>
<path d="M1301.39 850.665C1295.08 854.986 1286.79 859.427 1280.34 854.826C1276.11 851.805 1274.77 846.21 1276.49 841.301C1279.58 832.472 1288.06 828.586 1296.17 825.606C1306.72 821.733 1318.2 818.652 1329.08 821.426C1339.97 824.199 1349.59 834.739 1347.62 845.799C1346.04 854.693 1337.65 862.094 1338.84 871.048C1340.04 880.06 1350.18 884.804 1359.13 886.415C1368.07 888.026 1378.09 888.543 1384.52 894.97C1392.72 903.169 1390.67 917.823 1382.95 926.48C1375.23 935.136 1363.59 939.06 1352.3 941.727C1337.34 945.261 1321.17 947.119 1306.97 941.253C1292.76 935.388 1281.71 919.599 1285.83 904.794C1287.56 898.54 1291.66 893.255 1295.61 888.109C1299.57 882.964 1303.58 877.583 1305.09 871.27C1306.34 866.01 1305.41 859.902 1301.92 855.955C1301.29 855.265 1300.89 854.391 1300.78 853.459C1300.68 852.527 1300.87 851.585 1301.33 850.769L1301.39 850.665Z" fill="#2F2E41"/>
<path d="M840.072 969.998C833.743 972.223 826.948 972.78 820.341 971.616C813.735 970.453 807.539 967.607 802.351 963.354C789.139 952.264 784.997 933.995 781.626 917.079C778.303 900.4 774.98 883.721 771.657 867.043L792.529 881.414C807.538 891.75 822.886 902.416 833.279 917.386C843.671 932.355 848.208 952.791 839.858 968.989" fill="#B8B1B1"/>
<path d="M838.288 1030.58C840.4 1015.19 842.573 999.605 841.091 984.052C839.775 970.24 835.561 956.749 826.982 945.688C822.428 939.828 816.887 934.807 810.608 930.851C808.971 929.817 807.464 932.412 809.094 933.441C819.959 940.307 828.362 950.447 833.093 962.397C838.318 975.687 839.157 990.173 838.256 1004.29C837.712 1012.83 836.558 1021.31 835.395 1029.78C835.303 1030.16 835.361 1030.57 835.555 1030.91C835.75 1031.25 836.067 1031.51 836.443 1031.62C836.826 1031.73 837.235 1031.68 837.581 1031.48C837.926 1031.28 838.18 1030.96 838.288 1030.58Z" fill="#F2F2F2"/>
<path d="M817.941 1003.35C815.227 1007.47 811.496 1010.83 807.107 1013.1C802.719 1015.36 797.821 1016.46 792.886 1016.28C780.203 1015.68 769.629 1006.83 760.111 998.422L731.958 973.565L750.591 972.673C763.99 972.032 777.736 971.434 790.498 975.566C803.261 979.698 815.031 989.643 817.365 1002.85" fill="#B8B1B1"/>
<path d="M844.258 1039.42C834.09 1021.43 822.297 1001.44 801.223 995.045C795.364 993.274 789.22 992.64 783.122 993.176C781.201 993.342 781.68 996.305 783.599 996.139C793.82 995.29 804.021 997.989 812.485 1003.78C820.63 1009.33 826.972 1017.03 832.339 1025.21C835.627 1030.21 838.572 1035.43 841.518 1040.64C842.459 1042.31 845.211 1041.11 844.258 1039.42Z" fill="#F2F2F2"/>
<path d="M860.55 1058.36C860.207 1054.39 858.782 1050.59 856.429 1047.37C854.077 1044.16 850.887 1041.65 847.207 1040.12V1029.72H829.762V1040.45C826.264 1042.05 823.253 1044.56 821.036 1047.7C818.82 1050.85 817.478 1054.53 817.146 1058.36L813.044 1106.04H864.652L860.55 1058.36Z" fill="#F2F2F2"/>
</g>
<g filter="url(#filter0_d_191_1733)">
<rect x="195.83" y="855.428" width="343.127" height="243.572" rx="6.62207" fill="white"/>
</g>
<g filter="url(#filter1_d_191_1733)">
<rect x="162" y="810" width="66.6923" height="66.6923" rx="6.62207" fill="#8EB07A"/>
</g>
<path fill-rule="evenodd" clip-rule="evenodd" d="M187.028 824.498H204.63C211.04 824.498 214.658 828.134 214.677 834.544V852.148C214.677 858.556 211.04 862.194 204.63 862.194H187.028C180.617 862.194 176.982 858.556 176.982 852.148V834.544C176.982 828.134 180.617 824.498 187.028 824.498ZM195.922 854.391C196.734 854.391 197.411 853.788 197.486 852.977V833.771C197.562 833.187 197.281 832.601 196.772 832.282C196.242 831.962 195.602 831.962 195.095 832.282C194.584 832.601 194.303 833.187 194.358 833.771V852.977C194.454 853.788 195.13 854.391 195.922 854.391ZM204.594 854.39C205.385 854.39 206.062 853.787 206.158 852.977V846.795C206.213 846.19 205.932 845.626 205.421 845.306C204.914 844.985 204.273 844.985 203.746 845.306C203.235 845.626 202.954 846.19 203.029 846.795V852.977C203.105 853.787 203.781 854.39 204.594 854.39ZM188.703 852.977C188.628 853.788 187.951 854.391 187.139 854.391C186.328 854.391 185.65 853.788 185.576 852.977V839.953C185.52 839.367 185.8 838.785 186.311 838.464C186.818 838.144 187.461 838.144 187.97 838.464C188.477 838.785 188.761 839.367 188.703 839.953V852.977Z" fill="white"/>
<path d="M214.194 899.406H518.659" stroke="#DFDFDF" stroke-width="0.735786" stroke-linecap="round"/>
<path d="M214.194 944.352H518.659" stroke="#DFDFDF" stroke-width="0.735786" stroke-linecap="round"/>
<path d="M214.194 989.296H518.659" stroke="#DFDFDF" stroke-width="0.735786" stroke-linecap="round"/>
<path d="M214.194 1034.24H518.659" stroke="#DFDFDF" stroke-width="0.735786" stroke-linecap="round"/>
<path d="M214.194 1079.19H518.659" stroke="#DFDFDF" stroke-width="0.735786" stroke-linecap="round"/>
<path d="M233.525 1034.93C233.525 1031.88 235.996 1029.41 239.044 1029.41H242.505C245.553 1029.41 248.023 1031.88 248.023 1034.93V1078.7H233.525V1034.93Z" fill="#E27070"/>
<path d="M277.02 1026.23C277.02 1023.18 279.491 1020.71 282.539 1020.71H286C289.048 1020.71 291.519 1023.18 291.519 1026.23V1078.7H277.02V1026.23Z" fill="#E27070"/>
<path d="M320.515 1011.73C320.515 1008.68 322.986 1006.21 326.034 1006.21H329.495C332.543 1006.21 335.013 1008.68 335.013 1011.73V1078.7H320.515V1011.73Z" fill="#F9C643"/>
<path d="M364.01 999.164C364.01 996.116 366.481 993.646 369.528 993.646H372.99C376.038 993.646 378.508 996.116 378.508 999.164V1078.7H364.01V999.164Z" fill="#F9C643"/>
<path d="M407.505 979.833C407.505 976.785 409.976 974.314 413.024 974.314H416.485C419.533 974.314 422.003 976.785 422.003 979.833V1078.7H407.505V979.833Z" fill="#5BBAEF"/>
<path d="M451 966.301C451 963.253 453.471 960.783 456.518 960.783H459.98C463.028 960.783 465.498 963.253 465.498 966.301V1078.7H451V966.301Z" fill="#5BBAEF"/>
<path d="M494.495 949.87C494.495 946.822 496.966 944.352 500.013 944.352H503.475C506.523 944.352 508.993 946.822 508.993 949.87V1078.7H494.495V949.87Z" fill="#85C55F"/>
<path d="M238.358 1016.84C279.275 1004.12 394.07 978.76 446.651 940.485" stroke="#85C55F" stroke-width="3.67893" stroke-linecap="round"/>
<path d="M321.32 889.88C320.645 889.88 320.035 889.766 319.492 889.536C318.954 889.306 318.508 888.98 318.155 888.556C317.806 888.128 317.579 887.622 317.473 887.039L318.691 886.847C318.846 887.448 319.166 887.918 319.651 888.258C320.141 888.593 320.717 888.761 321.38 888.761C321.808 888.761 322.194 888.695 322.538 888.563C322.887 888.426 323.163 888.231 323.366 887.98C323.569 887.728 323.671 887.43 323.671 887.086C323.671 886.874 323.633 886.693 323.558 886.543C323.488 886.388 323.388 886.258 323.26 886.152C323.137 886.042 322.995 885.949 322.836 885.874C322.678 885.799 322.512 885.737 322.34 885.689L319.91 884.967C319.645 884.887 319.389 884.788 319.141 884.669C318.894 884.545 318.673 884.393 318.479 884.212C318.285 884.026 318.13 883.806 318.016 883.55C317.901 883.289 317.843 882.982 317.843 882.629C317.843 882.064 317.989 881.583 318.28 881.186C318.576 880.784 318.976 880.477 319.479 880.265C319.982 880.053 320.55 879.949 321.181 879.954C321.821 879.958 322.393 880.073 322.896 880.298C323.404 880.519 323.823 880.837 324.154 881.252C324.49 881.667 324.715 882.163 324.83 882.742L323.578 882.96C323.512 882.572 323.364 882.238 323.134 881.96C322.909 881.678 322.627 881.461 322.287 881.311C321.947 881.157 321.574 881.077 321.168 881.073C320.779 881.069 320.428 881.13 320.115 881.258C319.801 881.386 319.552 881.565 319.366 881.795C319.181 882.02 319.088 882.28 319.088 882.576C319.088 882.868 319.172 883.104 319.34 883.285C319.508 883.461 319.713 883.603 319.956 883.709C320.203 883.81 320.444 883.894 320.678 883.96L322.492 884.483C322.7 884.541 322.938 884.62 323.207 884.722C323.481 884.823 323.746 884.967 324.002 885.152C324.258 885.333 324.47 885.576 324.638 885.881C324.805 886.181 324.889 886.56 324.889 887.02C324.889 887.479 324.797 887.887 324.611 888.245C324.43 888.602 324.176 888.902 323.85 889.145C323.523 889.384 323.143 889.565 322.711 889.688C322.278 889.816 321.814 889.88 321.32 889.88ZM326.272 889.682L326.278 880.146H327.47V885.973L330.47 882.53H332L328.841 886.106L332.371 889.682H330.722L327.47 886.238V889.682H326.272ZM333.162 881.265V880.047H334.341V881.265H333.162ZM333.162 889.682V882.53H334.341V889.682H333.162ZM336.46 889.682V879.947H337.639V889.682H336.46ZM339.758 889.682V879.947H340.937V889.682H339.758ZM349.436 889.88C348.783 889.88 348.187 889.766 347.648 889.536C347.11 889.306 346.646 888.977 346.258 888.549C345.869 888.117 345.569 887.596 345.357 886.986C345.15 886.373 345.046 885.682 345.046 884.914C345.046 883.898 345.227 883.02 345.589 882.278C345.951 881.536 346.461 880.965 347.118 880.563C347.776 880.157 348.549 879.954 349.436 879.954C350.505 879.954 351.365 880.203 352.019 880.702C352.672 881.197 353.122 881.874 353.37 882.735L352.178 882.98C351.979 882.402 351.652 881.94 351.198 881.596C350.743 881.252 350.176 881.08 349.496 881.08C348.785 881.075 348.193 881.234 347.721 881.556C347.253 881.874 346.9 882.322 346.662 882.901C346.423 883.479 346.302 884.15 346.297 884.914C346.293 885.673 346.41 886.34 346.648 886.914C346.887 887.488 347.242 887.938 347.714 888.265C348.191 888.587 348.785 888.75 349.496 888.755C350.109 888.759 350.626 888.642 351.045 888.404C351.465 888.165 351.789 887.821 352.019 887.371C352.248 886.92 352.387 886.379 352.436 885.748H350.41V884.775H353.681C353.694 884.863 353.701 884.969 353.701 885.093C353.705 885.212 353.707 885.293 353.707 885.338C353.707 886.207 353.544 886.986 353.217 887.675C352.895 888.359 352.416 888.898 351.78 889.291C351.149 889.684 350.368 889.88 349.436 889.88ZM355.03 889.682V882.53H356.083V884.258L355.911 884.033C355.995 883.812 356.103 883.609 356.235 883.424C356.372 883.238 356.524 883.086 356.692 882.967C356.878 882.817 357.087 882.702 357.321 882.623C357.555 882.543 357.794 882.497 358.037 882.483C358.279 882.466 358.507 882.481 358.719 882.53V883.636C358.471 883.569 358.2 883.552 357.904 883.583C357.608 883.614 357.335 883.722 357.083 883.907C356.853 884.071 356.675 884.269 356.547 884.503C356.423 884.737 356.337 884.991 356.288 885.265C356.24 885.534 356.215 885.81 356.215 886.092V889.682H355.03ZM362.888 889.88C362.177 889.88 361.563 889.719 361.047 889.397C360.535 889.075 360.139 888.629 359.861 888.059C359.583 887.49 359.444 886.836 359.444 886.099C359.444 885.349 359.585 884.691 359.868 884.126C360.15 883.561 360.55 883.121 361.067 882.808C361.583 882.49 362.19 882.331 362.888 882.331C363.603 882.331 364.219 882.492 364.735 882.815C365.252 883.132 365.647 883.576 365.92 884.146C366.199 884.711 366.338 885.362 366.338 886.099C366.338 886.845 366.199 887.503 365.92 888.072C365.642 888.638 365.245 889.081 364.729 889.404C364.212 889.721 363.598 889.88 362.888 889.88ZM362.888 888.761C363.629 888.761 364.181 888.514 364.543 888.02C364.905 887.525 365.086 886.885 365.086 886.099C365.086 885.291 364.903 884.649 364.536 884.172C364.17 883.691 363.62 883.45 362.888 883.45C362.389 883.45 361.978 883.563 361.656 883.788C361.334 884.013 361.093 884.324 360.934 884.722C360.775 885.119 360.696 885.578 360.696 886.099C360.696 886.903 360.881 887.547 361.252 888.033C361.623 888.518 362.168 888.761 362.888 888.761ZM369.06 889.682L366.875 882.523L368.047 882.53L369.643 887.761L371.252 882.53H372.292L373.894 887.761L375.497 882.53H376.662L374.477 889.682H373.497L371.769 884.245L370.04 889.682H369.06ZM381.851 889.682C381.427 889.766 381.008 889.799 380.593 889.781C380.182 889.768 379.816 889.686 379.494 889.536C379.172 889.381 378.926 889.143 378.759 888.821C378.617 888.538 378.54 888.253 378.527 887.967C378.518 887.675 378.514 887.346 378.514 886.98V880.543H379.692V886.927C379.692 887.218 379.695 887.468 379.699 887.675C379.708 887.883 379.754 888.061 379.838 888.212C379.997 888.494 380.249 888.66 380.593 888.708C380.942 888.757 381.361 888.744 381.851 888.668V889.682ZM377.063 883.503V882.53H381.851V883.503H377.063ZM388.396 889.682V886.099C388.396 885.759 388.365 885.432 388.303 885.119C388.246 884.806 388.142 884.525 387.992 884.278C387.846 884.026 387.647 883.828 387.396 883.682C387.148 883.536 386.835 883.464 386.455 883.464C386.16 883.464 385.89 883.514 385.647 883.616C385.409 883.713 385.204 883.863 385.032 884.066C384.859 884.269 384.725 884.525 384.628 884.834C384.535 885.139 384.489 885.499 384.489 885.914L383.714 885.675C383.714 884.982 383.837 884.388 384.085 883.894C384.336 883.395 384.687 883.013 385.138 882.748C385.592 882.479 386.126 882.344 386.74 882.344C387.204 882.344 387.599 882.417 387.925 882.563C388.252 882.709 388.524 882.903 388.74 883.146C388.956 883.384 389.126 883.653 389.25 883.954C389.373 884.249 389.46 884.552 389.508 884.861C389.561 885.165 389.588 885.455 389.588 885.728V889.682H388.396ZM383.297 889.682V880.146H384.356V885.41H384.489V889.682H383.297Z" fill="#7C7C7C"/>
<path d="M357.418 919.155C356.77 919.155 356.167 919.022 355.608 918.757C355.048 918.486 354.566 918.116 354.16 917.645C353.759 917.174 353.471 916.626 353.294 916.002L355.343 915.455C355.425 915.796 355.575 916.091 355.793 916.338C356.017 916.585 356.276 916.776 356.57 916.912C356.87 917.047 357.179 917.115 357.497 917.115C357.909 917.115 358.286 917.015 358.627 916.815C358.969 916.615 359.239 916.347 359.44 916.011C359.64 915.67 359.74 915.293 359.74 914.881C359.74 914.469 359.637 914.095 359.431 913.76C359.231 913.418 358.96 913.151 358.618 912.956C358.277 912.756 357.903 912.656 357.497 912.656C357.009 912.656 356.602 912.744 356.279 912.921C355.961 913.098 355.717 913.286 355.546 913.486L353.727 912.903L354.115 906.175H361.02V908.171H355.254L356.049 907.42L355.767 912.1L355.378 911.623C355.708 911.323 356.09 911.099 356.526 910.952C356.961 910.805 357.382 910.731 357.789 910.731C358.583 910.731 359.287 910.914 359.899 911.279C360.517 911.638 360.999 912.129 361.347 912.753C361.7 913.377 361.877 914.086 361.877 914.881C361.877 915.676 361.671 916.397 361.258 917.044C360.846 917.686 360.302 918.198 359.625 918.581C358.954 918.963 358.218 919.155 357.418 919.155ZM368.568 919.155C367.668 919.155 366.873 918.963 366.184 918.581C365.495 918.192 364.957 917.654 364.568 916.965C364.186 916.276 363.994 915.481 363.994 914.581V910.484C363.994 909.583 364.186 908.789 364.568 908.1C364.957 907.411 365.495 906.876 366.184 906.493C366.873 906.105 367.668 905.91 368.568 905.91C369.469 905.91 370.26 906.105 370.943 906.493C371.632 906.876 372.171 907.411 372.559 908.1C372.948 908.789 373.142 909.583 373.142 910.484V914.581C373.142 915.481 372.948 916.276 372.559 916.965C372.171 917.654 371.632 918.192 370.943 918.581C370.26 918.963 369.469 919.155 368.568 919.155ZM368.568 917.133C369.015 917.133 369.422 917.027 369.787 916.815C370.152 916.597 370.44 916.309 370.652 915.949C370.864 915.584 370.97 915.178 370.97 914.731V910.325C370.97 909.872 370.864 909.466 370.652 909.107C370.44 908.742 370.152 908.453 369.787 908.241C369.422 908.024 369.015 907.915 368.568 907.915C368.121 907.915 367.715 908.024 367.35 908.241C366.985 908.453 366.696 908.742 366.484 909.107C366.272 909.466 366.167 909.872 366.167 910.325V914.731C366.167 915.178 366.272 915.584 366.484 915.949C366.696 916.309 366.985 916.597 367.35 916.815C367.715 917.027 368.121 917.133 368.568 917.133ZM377.383 918.89L375.971 917.477L387.281 906.175L388.694 907.597L377.383 918.89ZM386.045 919.155C385.462 919.155 384.93 919.013 384.447 918.731C383.97 918.442 383.588 918.06 383.299 917.583C383.011 917.1 382.867 916.565 382.867 915.976C382.867 915.399 383.014 914.869 383.308 914.387C383.602 913.904 383.991 913.518 384.474 913.23C384.956 912.942 385.48 912.797 386.045 912.797C386.628 912.797 387.161 912.942 387.643 913.23C388.126 913.513 388.509 913.895 388.791 914.378C389.08 914.855 389.224 915.387 389.224 915.976C389.224 916.565 389.08 917.1 388.791 917.583C388.509 918.06 388.126 918.442 387.643 918.731C387.161 919.013 386.628 919.155 386.045 919.155ZM386.045 917.336C386.287 917.336 386.51 917.274 386.716 917.15C386.928 917.027 387.096 916.862 387.219 916.656C387.343 916.45 387.405 916.223 387.405 915.976C387.405 915.729 387.343 915.502 387.219 915.296C387.096 915.09 386.928 914.925 386.716 914.802C386.51 914.678 386.287 914.616 386.045 914.616C385.798 914.616 385.571 914.678 385.365 914.802C385.159 914.925 384.992 915.09 384.862 915.296C384.738 915.502 384.677 915.729 384.677 915.976C384.677 916.223 384.738 916.45 384.862 916.656C384.992 916.862 385.159 917.027 385.365 917.15C385.571 917.274 385.798 917.336 386.045 917.336ZM378.62 912.268C378.037 912.268 377.504 912.126 377.021 911.844C376.539 911.555 376.153 911.173 375.865 910.696C375.582 910.213 375.441 909.678 375.441 909.089C375.441 908.512 375.588 907.982 375.882 907.5C376.177 907.017 376.565 906.631 377.048 906.343C377.531 906.055 378.055 905.91 378.62 905.91C379.202 905.91 379.732 906.055 380.209 906.343C380.692 906.626 381.077 907.008 381.366 907.491C381.654 907.968 381.798 908.5 381.798 909.089C381.798 909.678 381.654 910.213 381.366 910.696C381.077 911.173 380.692 911.555 380.209 911.844C379.732 912.126 379.202 912.268 378.62 912.268ZM378.62 910.449C378.867 910.449 379.093 910.387 379.299 910.263C379.505 910.14 379.67 909.975 379.794 909.769C379.918 909.563 379.979 909.336 379.979 909.089C379.979 908.842 379.918 908.615 379.794 908.409C379.67 908.203 379.505 908.038 379.299 907.915C379.093 907.791 378.867 907.729 378.62 907.729C378.372 907.729 378.146 907.791 377.94 907.915C377.734 908.038 377.569 908.203 377.445 908.409C377.322 908.615 377.26 908.842 377.26 909.089C377.26 909.336 377.322 909.563 377.445 909.769C377.569 909.975 377.734 910.14 377.94 910.263C378.146 910.387 378.372 910.449 378.62 910.449Z" fill="#85C45F"/>
<circle cx="-0.5" cy="944.5" r="41.5" fill="#D2E2FF"/>
</g>
<rect x="69.2522" y="188" width="20.1557" height="20.1557" transform="rotate(45 69.2522 188)" fill="#B8D0F8"/>
<rect x="774.248" y="155" width="20.1494" height="20.1494" transform="rotate(45 774.248 155)" fill="#B8D0F8"/>
</g>
<defs>
<filter id="filter0_d_191_1733" x="184.793" y="847.335" width="365.201" height="265.645" filterUnits="userSpaceOnUse" color-interpolation-filters="sRGB">
<feFlood flood-opacity="0" result="BackgroundImageFix"/>
<feColorMatrix in="SourceAlpha" type="matrix" values="0 0 0 0 0 0 0 0 0 0 0 0 0 0 0 0 0 0 127 0" result="hardAlpha"/>
<feOffset dy="2.94314"/>
<feGaussianBlur stdDeviation="5.51839"/>
<feComposite in2="hardAlpha" operator="out"/>
<feColorMatrix type="matrix" values="0 0 0 0 0 0 0 0 0 0 0 0 0 0 0 0 0 0 0.25 0"/>
<feBlend mode="normal" in2="BackgroundImageFix" result="effect1_dropShadow_191_1733"/>
<feBlend mode="normal" in="SourceGraphic" in2="effect1_dropShadow_191_1733" result="shape"/>
</filter>
<filter id="filter1_d_191_1733" x="150.963" y="801.906" width="88.766" height="88.766" filterUnits="userSpaceOnUse" color-interpolation-filters="sRGB">
<feFlood flood-opacity="0" result="BackgroundImageFix"/>
<feColorMatrix in="SourceAlpha" type="matrix" values="0 0 0 0 0 0 0 0 0 0 0 0 0 0 0 0 0 0 127 0" result="hardAlpha"/>
<feOffset dy="2.94314"/>
<feGaussianBlur stdDeviation="5.51839"/>
<feComposite in2="hardAlpha" operator="out"/>
<feColorMatrix type="matrix" values="0 0 0 0 0 0 0 0 0 0 0 0 0 0 0 0 0 0 0.25 0"/>
<feBlend mode="normal" in2="BackgroundImageFix" result="effect1_dropShadow_191_1733"/>
<feBlend mode="normal" in="SourceGraphic" in2="effect1_dropShadow_191_1733" result="shape"/>
</filter>
<linearGradient id="paint0_linear_191_1733" x1="720" y1="0" x2="720" y2="1559.5" gradientUnits="userSpaceOnUse">
<stop stop-color="#ECF3FF"/>
<stop offset="1" stop-color="white"/>
</linearGradient>
<radialGradient id="paint1_radial_191_1733" cx="0" cy="0" r="1" gradientUnits="userSpaceOnUse" gradientTransform="translate(900 454) rotate(9.78584) scale(567.761 542.361)">
<stop stop-color="#CBDDFE"/>
<stop offset="1" stop-color="#CFE0FD" stop-opacity="0"/>
</radialGradient>
<radialGradient id="paint2_radial_191_1733" cx="0" cy="0" r="1" gradientUnits="userSpaceOnUse" gradientTransform="translate(73 454) rotate(9.78584) scale(567.761 542.361)">
<stop stop-color="#CDDFFF"/>
<stop offset="1" stop-color="#CFE0FD" stop-opacity="0"/>
</radialGradient>
<radialGradient id="paint3_radial_191_1733" cx="0" cy="0" r="1" gradientUnits="userSpaceOnUse" gradientTransform="translate(1133.97 1133.78) rotate(89.1859) scale(768.199 531.894)">
<stop stop-color="#99BEF9"/>
<stop offset="1" stop-color="white"/>
</radialGradient>
<linearGradient id="paint4_linear_191_1733" x1="1151.5" y1="1085.77" x2="1151.5" y2="1368" gradientUnits="userSpaceOnUse">
<stop stop-color="#DCE4FF" stop-opacity="0"/>
<stop offset="1" stop-color="#5093FF"/>
</linearGradient>
<linearGradient id="paint5_linear_191_1733" x1="1250" y1="665" x2="1250" y2="791" gradientUnits="userSpaceOnUse">
<stop stop-color="#F2B457"/>
<stop offset="1" stop-color="#F5C783" stop-opacity="0"/>
</linearGradient>
<clipPath id="clip0_191_1733">
<rect width="1440" height="1107" fill="white"/>
</clipPath>
<clipPath id="clip1_191_1733">
<rect width="1440" height="927" fill="white" transform="translate(0 358)"/>
</clipPath>
<clipPath id="clip2_191_1733">
<rect width="692" height="499.877" fill="white" transform="translate(731 612)"/>
</clipPath>
</defs>
</svg>
