<svg width="68" height="58" viewBox="0 0 68 58" fill="none" xmlns="http://www.w3.org/2000/svg">
<path fill-rule="evenodd" clip-rule="evenodd" d="M68 45.9717L46.0955 45.9688L53.8333 57.3022H50.1188L42.3668 45.9688H36.8333L29.0813 57.3022H25.5L33.2407 45.9688H24.8823V43.1355H48.1667V40.3022H56.6667V43.1355H65.1667V3.46883H17V4.73533H14.1667V0.635498H68V45.9717ZM19.1505 20.4717C20.9893 20.4717 22.814 19.8682 23.9445 19.2363C26.0837 18.0463 31.5803 14.5812 33.8187 13.2183C34.4278 12.85 35.224 12.986 35.6717 13.5413L35.6972 13.5697C36.1618 14.1505 36.108 14.9863 35.5753 15.4963L26.0242 24.6027C24.548 26.0137 23.6952 27.9545 23.6073 29.9917C23.3382 36.2448 22.8678 49.5757 22.6667 55.0213C22.6213 56.2963 21.573 57.305 20.298 57.305C19.04 57.305 18.0682 56.319 17.9265 55.0723C17.612 52.29 16.9943 45.7818 16.7167 43.1383C16.6033 42.0503 15.9262 41.4015 15.062 41.3987C14.2007 41.393 13.5802 42.039 13.5093 43.1213C13.3337 45.7308 12.7557 52.3268 12.5403 55.0808C12.444 56.3303 11.4155 57.305 10.1603 57.305C8.87967 57.305 7.82567 56.2963 7.77183 55.0128C7.497 48.3828 6.72633 29.6177 6.72633 29.6177L3.07983 36.2222C2.68317 36.9418 1.819 37.2535 1.054 36.9588L1.05117 36.956C0.405167 36.7067 0 36.0918 0 35.426L0.0623333 34.9812L3.587 22.5343C3.93267 21.316 5.04617 20.4745 6.3155 20.4745H19.1505V20.4717ZM39.6667 26.1383H53.8333V23.305H39.6667V26.1383ZM39.6667 20.4717H59.5V17.6383H39.6667V20.4717ZM15.2263 6.305C18.7425 6.305 21.6013 9.161 21.6013 12.68C21.6013 16.199 18.7425 19.055 15.2263 19.055C11.7073 19.055 8.85133 16.199 8.85133 12.68C8.85133 9.161 11.7073 6.305 15.2263 6.305ZM39.6667 14.805H59.5V11.9717H39.6667V14.805Z" fill="#061C41"/>
</svg>
