<svg width="97" height="97" viewBox="0 0 97 97" fill="none" xmlns="http://www.w3.org/2000/svg">
<g clip-path="url(#clip0_473_2011)">
<path d="M61.6361 20.2083H38.3965C36.7232 20.2083 35.3652 18.8503 35.3652 17.1771V3.03125C35.3652 1.358 36.7232 0 38.3965 0H61.6361C62.8203 0 63.8954 0.687083 64.3884 1.76621C64.8856 2.84129 64.7077 4.10633 63.9358 5.00763L59.5667 10.1042L63.9398 15.2048C64.7118 16.106 64.8856 17.3711 64.3925 18.4462C63.8954 19.5213 62.8203 20.2083 61.6361 20.2083Z" fill="#F44336"/>
<path d="M38.3965 32.3333C36.7232 32.3333 35.3652 30.9753 35.3652 29.3021V3.03125C35.3652 1.358 36.7232 0 38.3965 0C40.0697 0 41.4277 1.358 41.4277 3.03125V29.3021C41.4277 30.9753 40.0697 32.3333 38.3965 32.3333Z" fill="#607D8B"/>
<path d="M55.0054 52.6224L46.3966 59.8974C45.8308 60.3824 45.1437 60.6249 44.4566 60.6249C43.6887 60.6249 42.9208 60.342 42.3145 59.7357L38.3941 55.8153L34.4737 59.7357C33.3421 60.8674 31.5637 60.9078 30.3916 59.8974L22.0254 52.8649L25.0162 47.449L35.7266 27.847C36.2521 26.877 37.2625 26.2707 38.3941 26.2707C39.4045 26.1495 40.4958 26.8365 41.0212 27.8065L51.9741 47.247L55.0054 52.6224Z" fill="#ECEFF1"/>
<path d="M38.3965 0C36.7232 0 35.3652 1.358 35.3652 3.03125V28.514L35.729 27.8471C36.2544 26.8771 37.2648 26.2708 38.3965 26.2708V0Z" fill="#546D79"/>
<path d="M38.3941 26.271C37.2625 26.271 36.2521 26.8772 35.7266 27.8472L35.3629 28.5141L25.0162 47.4493L22.0254 52.8651L30.3916 59.8976C30.9494 60.3786 31.6486 60.6211 32.3438 60.6211C33.1117 60.6211 33.8796 60.3301 34.4737 59.736L38.3941 55.8156V26.271Z" fill="#CDD0D2"/>
<path d="M93.9689 97.0002H53.1804C52.1256 97.0002 51.1475 96.4505 50.5938 95.5533C50.0441 94.656 49.9996 93.5324 50.4806 92.5948L70.0504 54.1989C70.5596 53.2006 71.5781 52.5661 72.6976 52.5459C73.9748 52.6348 74.864 53.1319 75.4015 54.11L96.6203 92.5059C97.1376 93.4435 97.1255 94.5873 96.5799 95.5129C96.0342 96.4344 95.044 97.0002 93.9689 97.0002Z" fill="#1976D2"/>
<path d="M72.6976 52.542C71.5781 52.5622 70.5596 53.1967 70.0504 54.195L50.4806 92.5909C49.9996 93.5326 50.0441 94.6521 50.5938 95.5494C51.1475 96.4506 52.1256 97.0003 53.1804 97.0003H72.7502V52.546C72.734 52.546 72.7178 52.542 72.6976 52.542Z" fill="#1667B7"/>
<path d="M77.3988 92.4734L55.008 52.6226L46.3993 59.8976C45.8334 60.3826 45.1463 60.6251 44.4593 60.6251C43.6913 60.6251 42.9234 60.3421 42.3172 59.7359L38.3968 55.8155L34.4763 59.7359C33.3447 60.8676 31.5663 60.908 30.3943 59.8976L22.028 52.8651L0.364671 92.5138C-0.160746 93.4434 -0.120329 94.5751 0.405088 95.5046C0.970921 96.4342 1.98134 97.0001 3.03217 97.0001H74.7718C75.863 97.0001 76.833 96.4342 77.3988 95.5046C77.9242 94.5751 77.9242 93.403 77.3988 92.4734Z" fill="#2196F3"/>
<path d="M22.028 52.8647L0.364671 92.5135C-0.160746 93.4431 -0.120329 94.5747 0.405088 95.5043C0.970921 96.4339 1.98134 96.9997 3.03217 96.9997H38.3968V55.8152L34.4763 59.7356C33.8822 60.3257 33.1143 60.6207 32.3464 60.6207C31.6472 60.6207 30.952 60.3782 30.3943 59.8972L22.028 52.8647Z" fill="#1D83D4"/>
</g>
<defs>
<clipPath id="clip0_473_2011">
<rect width="97" height="97" fill="white"/>
</clipPath>
</defs>
</svg>
