<svg width="146" height="146" viewBox="0 0 146 146" fill="none" xmlns="http://www.w3.org/2000/svg">
<rect width="146" height="146" rx="5" fill="white"/>
<circle cx="72" cy="73" r="48" fill="#005DF2"/>
<circle cx="72" cy="73" r="44" fill="#77ACFF"/>
<circle cx="72" cy="73" r="26" fill="white"/>
<circle cx="72" cy="73" r="22" fill="#B3D0FF"/>
<rect x="21" y="61" width="103" height="23" rx="5" fill="#005DF2"/>
<path d="M48.127 52.4233C47.5661 52.9428 46.9753 53.2598 46.3544 53.3744C45.7336 53.4889 45.116 53.4212 44.5016 53.1712C43.8899 52.9188 43.3158 52.503 42.7795 51.9239C42.2431 51.3448 41.8725 50.7406 41.6677 50.1113C41.4655 49.4796 41.4453 48.8586 41.607 48.2484C41.7688 47.6382 42.1301 47.0733 42.691 46.5539C43.3431 45.9499 44.0326 45.6191 44.7595 45.5614C45.4889 45.5013 46.1929 45.678 46.8714 46.0915L46.3372 46.9352C45.8334 46.6215 45.3218 46.4799 44.8023 46.5103C44.2829 46.5407 43.7844 46.777 43.3071 47.2191C42.8871 47.6081 42.6257 48.027 42.5229 48.476C42.4202 48.9249 42.4566 49.3855 42.6322 49.8577C42.8055 50.3273 43.0997 50.7889 43.5151 51.2426C43.928 51.6937 44.3632 52.0249 44.8205 52.2362C45.2755 52.4448 45.7332 52.5152 46.1937 52.4473C46.6518 52.3768 47.0909 52.1471 47.5109 51.7581C47.9883 51.316 48.262 50.8371 48.3321 50.3215C48.3998 49.8033 48.2977 49.2824 48.0259 48.7587L48.9081 48.2906C49.266 48.9962 49.3883 49.7116 49.2749 50.4369C49.1618 51.1572 48.7791 51.8193 48.127 52.4233Z" fill="white"/>
<path d="M52.2503 48.9842L48.3827 42.3491L52.5757 39.905L53.0296 40.6837L49.6568 42.6498L50.8681 44.7278L53.688 43.0841L54.1419 43.8628L51.322 45.5065L52.6166 47.7274L55.9894 45.7614L56.4433 46.5401L52.2503 48.9842Z" fill="white"/>
<path d="M58.8641 45.5237L56.4826 38.2222L59.3677 37.2812C59.4387 37.2581 59.5243 37.2339 59.6246 37.2087C59.7237 37.1801 59.8216 37.1594 59.9184 37.1465C60.3338 37.0783 60.7091 37.1055 61.0445 37.228C61.3833 37.3494 61.6727 37.5486 61.9126 37.8256C62.1515 38.0992 62.3343 38.4304 62.4611 38.8192C62.6452 39.3837 62.658 39.9218 62.4996 40.4335C62.34 40.9418 61.9933 41.341 61.4596 41.631L61.133 41.7992L58.8868 42.5318L59.7666 45.2293L58.8641 45.5237ZM63.2095 44.1064L60.8003 41.6048L61.6034 41.0399L64.2438 43.769L63.2095 44.1064ZM58.6073 41.6749L60.5594 41.0382C60.6237 41.0173 60.6952 40.9902 60.7742 40.957C60.8565 40.9226 60.932 40.8849 61.0009 40.8437C61.2165 40.7136 61.3738 40.5538 61.4729 40.3644C61.5742 40.1706 61.6272 39.9663 61.632 39.7515C61.6357 39.5334 61.6044 39.323 61.5383 39.1202C61.4721 38.9173 61.3738 38.7306 61.2434 38.56C61.1118 38.386 60.948 38.2506 60.7518 38.1537C60.5591 38.0558 60.3378 38.0195 60.088 38.0448C60.007 38.0488 59.9237 38.0629 59.8381 38.0871C59.7548 38.1068 59.681 38.1271 59.6168 38.1481L57.6647 38.7848L58.6073 41.6749Z" fill="white"/>
<path d="M68.5601 43.2192L67.8645 36.4763L65.2596 36.7451L65.1671 35.8485L71.3211 35.2136L71.4136 36.1102L68.8088 36.3789L69.5045 43.1218L68.5601 43.2192Z" fill="white"/>
<path d="M74.3151 43.0798L74.7885 35.4144L75.7361 35.473L75.2626 43.1384L74.3151 43.0798Z" fill="white"/>
<path d="M78.5575 43.5239L80.2285 36.0279L84.6011 37.0026L84.3946 37.9292L80.9485 37.161L80.4228 39.5192L83.2443 40.1481L83.0377 41.0747L80.2163 40.4457L79.4841 43.7305L78.5575 43.5239Z" fill="white"/>
<path d="M85.4919 45.4933L88.319 38.3525L89.2016 38.702L86.3746 45.8427L85.4919 45.4933Z" fill="white"/>
<path d="M89.3734 47.2074L93.3316 40.6259L97.4907 43.1273L97.0262 43.8997L93.6806 41.8876L92.4409 43.9489L95.2381 45.6311L94.7735 46.4035L91.9764 44.7213L90.6515 46.9243L93.9971 48.9363L93.5325 49.7087L89.3734 47.2074Z" fill="white"/>
<path d="M95.5878 51.3424L100.845 45.7437L102.571 47.3646C102.628 47.4181 102.727 47.5131 102.867 47.6496C103.007 47.786 103.133 47.9242 103.246 48.064C103.625 48.5275 103.838 49.0251 103.885 49.5569C103.937 50.0885 103.851 50.622 103.626 51.1573C103.402 51.6926 103.065 52.1987 102.618 52.6756C102.17 53.1526 101.686 53.52 101.166 53.7778C100.646 54.0357 100.117 54.1567 99.5811 54.1409C99.0498 54.1249 98.541 53.9422 98.0546 53.5928C97.9104 53.4866 97.7632 53.368 97.6132 53.2369C97.4682 53.1056 97.3685 53.0144 97.3141 52.9633L95.5878 51.3424ZM96.9199 51.3495L97.9347 52.3024C98.0332 52.3949 98.1458 52.4957 98.2725 52.6049C98.4016 52.7115 98.5188 52.7996 98.6242 52.8693C98.9836 53.0994 99.3516 53.2036 99.7282 53.1816C100.105 53.1597 100.477 53.0411 100.845 52.8258C101.213 52.6104 101.559 52.3304 101.883 51.9857C102.214 51.6331 102.474 51.2652 102.663 50.882C102.855 50.5012 102.948 50.1234 102.944 49.7487C102.94 49.3741 102.812 49.0172 102.56 48.678C102.486 48.5746 102.389 48.462 102.27 48.34C102.15 48.218 102.044 48.1132 101.95 48.0255L100.936 47.0727L96.9199 51.3495Z" fill="white"/>
<path d="M43.0265 101.122L47.6579 95.213L49.9928 97.0431C50.0502 97.0881 50.1165 97.1444 50.1915 97.2121C50.2687 97.277 50.3389 97.3452 50.402 97.4168C50.6835 97.7169 50.8658 98.0365 50.949 98.3755C51.0349 98.7166 51.0307 99.06 50.9365 99.4057C50.8443 99.7486 50.675 100.077 50.4284 100.392C50.184 100.704 49.9038 100.946 49.588 101.118C49.277 101.289 48.9445 101.375 48.5906 101.376C48.2415 101.376 47.889 101.277 47.5331 101.077C47.4507 101.03 47.3676 100.978 47.284 100.922C47.2004 100.865 47.1299 100.814 47.0724 100.769L45.4679 99.5115L43.7569 101.695L43.0265 101.122ZM46.0115 98.818L47.5913 100.056C47.6433 100.097 47.7043 100.14 47.7742 100.186C47.8469 100.234 47.9187 100.275 47.9896 100.309C48.2127 100.413 48.428 100.454 48.6357 100.431C48.8483 100.408 49.0431 100.34 49.22 100.226C49.3991 100.111 49.5529 99.9707 49.6816 99.8066C49.8102 99.6425 49.9083 99.461 49.9758 99.2622C50.0455 99.0606 50.0662 98.8539 50.038 98.6419C50.0126 98.432 49.9216 98.2326 49.765 98.0437C49.7177 97.9801 49.6609 97.9201 49.5946 97.8638C49.5333 97.8068 49.4766 97.758 49.4246 97.7173L47.8448 96.479L46.0115 98.818Z" fill="white"/>
<path d="M49.2156 105.501L52.7399 98.8717L55.3594 100.264C55.4238 100.299 55.4989 100.342 55.5846 100.396C55.672 100.446 55.7531 100.501 55.8278 100.561C56.1575 100.807 56.393 101.089 56.5343 101.409C56.6786 101.729 56.7347 102.068 56.7024 102.425C56.6718 102.779 56.5627 103.132 56.3751 103.485C56.1026 103.998 55.7325 104.372 55.2648 104.607C54.7987 104.84 54.2826 104.866 53.7164 104.687L53.3765 104.572L51.3371 103.487L50.035 105.937L49.2156 105.501ZM53.1609 107.598L53.2877 104.206L54.23 104.388L54.1 108.098L53.1609 107.598ZM51.7507 102.709L53.5231 103.652C53.5814 103.683 53.649 103.715 53.7259 103.748C53.8059 103.782 53.8837 103.81 53.9594 103.831C54.1973 103.894 54.4165 103.896 54.617 103.838C54.8222 103.777 55.002 103.676 55.1564 103.534C55.3124 103.389 55.4393 103.224 55.5372 103.04C55.6351 102.856 55.6999 102.66 55.7315 102.452C55.7648 102.241 55.7489 102.034 55.6841 101.83C55.6223 101.628 55.4977 101.448 55.3104 101.289C55.2527 101.235 55.1863 101.186 55.1112 101.142C55.0408 101.097 54.9764 101.059 54.9181 101.028L53.1457 100.085L51.7507 102.709Z" fill="white"/>
<path d="M59.4355 110.004C58.7218 109.782 58.165 109.437 57.765 108.967C57.3651 108.497 57.1211 107.94 57.0331 107.298C56.9484 106.657 57.0205 105.968 57.2494 105.231C57.4782 104.494 57.8092 103.885 58.2424 103.404C58.6788 102.925 59.195 102.605 59.7909 102.444C60.3867 102.283 61.0415 102.314 61.7551 102.535C62.4721 102.758 63.0306 103.104 63.4306 103.574C63.8306 104.044 64.0729 104.6 64.1576 105.242C64.2423 105.883 64.1702 106.572 63.9413 107.309C63.7124 108.046 63.3814 108.655 62.9483 109.135C62.5151 109.616 62.0006 109.936 61.4048 110.097C60.8089 110.258 60.1525 110.227 59.4355 110.004ZM59.6984 109.158C60.2318 109.327 60.7137 109.346 61.1441 109.214C61.5789 109.079 61.9518 108.822 62.2628 108.442C62.5771 108.063 62.8229 107.588 63.0002 107.017C63.1786 106.442 63.2452 105.912 63.1999 105.425C63.158 104.938 62.9955 104.518 62.7122 104.165C62.4323 103.812 62.0256 103.551 61.4923 103.382C60.9589 103.213 60.4769 103.194 60.0465 103.326C59.6194 103.459 59.2487 103.715 58.9344 104.094C58.6201 104.473 58.3721 104.95 58.1904 105.523C58.0098 106.093 57.9421 106.621 57.9873 107.109C58.0325 107.596 58.1946 108.017 58.4735 108.373C58.7567 108.727 59.165 108.988 59.6984 109.158Z" fill="white"/>
<path d="M67.8393 111.544C67.3279 111.488 66.8711 111.348 66.469 111.123C66.0669 110.897 65.732 110.6 65.4642 110.232C65.1968 109.861 65.0061 109.427 64.8919 108.933C64.7815 108.435 64.7589 107.885 64.8241 107.284C64.9102 106.489 65.1264 105.817 65.4727 105.267C65.819 104.717 66.2666 104.313 66.8156 104.054C67.3649 103.792 67.9868 103.699 68.6814 103.774C69.5177 103.864 70.1704 104.133 70.6395 104.579C71.1089 105.021 71.4039 105.59 71.5244 106.285L70.5706 106.375C70.4642 105.906 70.2476 105.517 69.9209 105.209C69.5942 104.901 69.1647 104.718 68.6326 104.66C68.0766 104.596 67.6001 104.671 67.203 104.883C66.8097 105.092 66.4953 105.413 66.2596 105.845C66.0239 106.278 65.872 106.793 65.8037 107.39C65.7359 107.984 65.7709 108.516 65.9088 108.985C66.0467 109.455 66.2867 109.837 66.6287 110.133C66.9746 110.426 67.4255 110.604 67.9815 110.668C68.4614 110.723 68.8757 110.675 69.2242 110.524C69.5727 110.373 69.8559 110.131 70.0738 109.798C70.2917 109.465 70.4464 109.054 70.538 108.564L68.9518 108.392L69.0344 107.63L71.595 107.907C71.5979 107.978 71.5941 108.061 71.5836 108.158C71.5769 108.252 71.5717 108.316 71.568 108.35C71.4942 109.031 71.3003 109.627 70.9861 110.138C70.6758 110.647 70.2552 111.028 69.7243 111.281C69.1968 111.535 68.5685 111.623 67.8393 111.544Z" fill="white"/>
<path d="M73.364 111.54L72.7674 104.056L75.7247 103.82C75.7974 103.814 75.8843 103.811 75.9854 103.81C76.0861 103.805 76.184 103.808 76.2789 103.818C76.6893 103.848 77.0399 103.959 77.3307 104.152C77.625 104.345 77.8546 104.6 78.0194 104.919C78.184 105.233 78.2821 105.59 78.3139 105.988C78.36 106.567 78.2493 107.081 77.9819 107.531C77.7141 107.978 77.2935 108.278 76.72 108.432L76.3711 108.518L74.0687 108.701L74.2891 111.466L73.364 111.54ZM77.8181 111.185L76.0993 108.257L76.9916 107.903L78.8783 111.1L77.8181 111.185ZM73.9987 107.823L75.9997 107.663C76.0655 107.658 76.1397 107.649 76.2223 107.635C76.3084 107.621 76.3888 107.603 76.4637 107.579C76.6983 107.505 76.8843 107.389 77.0217 107.231C77.1623 107.07 77.2594 106.888 77.3129 106.685C77.3662 106.479 77.3846 106.271 77.368 106.064C77.3514 105.856 77.3006 105.656 77.2156 105.464C77.1303 105.268 77.0054 105.102 76.8411 104.965C76.6802 104.828 76.4782 104.743 76.235 104.71C76.1571 104.696 76.0747 104.69 75.9878 104.693C75.9041 104.693 75.8293 104.696 75.7635 104.701L73.7626 104.86L73.9987 107.823Z" fill="white"/>
<path d="M80.855 110.63L81.3427 102.728L82.5918 102.394L86.9594 108.997L86.0277 109.246L81.9562 103.125L82.2383 103.049L81.7868 110.381L80.855 110.63ZM81.5695 108.62L81.3445 107.779L85.1119 106.771L85.3369 107.612L81.5695 108.62Z" fill="white"/>
<path d="M89.1085 108.026L85.7739 101.299L86.5306 100.924L91.7279 105.022L91.599 98.4114L92.365 98.0316L95.6973 104.754L94.9079 105.145L92.481 100.249L92.6259 106.282L92.1822 106.502L87.4688 102.734L89.8979 107.634L89.1085 108.026Z" fill="white"/>
<path d="M99.5825 101.837C99.1621 102.163 98.7276 102.385 98.2789 102.504C97.833 102.621 97.398 102.633 96.9738 102.539C96.5502 102.441 96.165 102.236 95.8181 101.924L96.4839 101.217C96.8695 101.516 97.2955 101.655 97.7616 101.632C98.2284 101.605 98.6679 101.431 99.08 101.112C99.3466 100.906 99.5551 100.678 99.7056 100.43C99.8566 100.176 99.9347 99.9223 99.9398 99.6678C99.9449 99.4132 99.8644 99.1788 99.6984 98.9645C99.5962 98.8326 99.4856 98.738 99.3665 98.6808C99.248 98.6187 99.1234 98.5855 98.9926 98.5813C98.8625 98.5722 98.7298 98.5826 98.5947 98.6125C98.4596 98.6424 98.3268 98.6838 98.1962 98.7366L96.3355 99.4591C96.1323 99.5373 95.9251 99.599 95.7137 99.644C95.5002 99.6863 95.2894 99.6979 95.0812 99.6789C94.8709 99.6571 94.6683 99.5942 94.4734 99.4902C94.2764 99.3834 94.0927 99.2201 93.9224 99.0003C93.65 98.6486 93.5086 98.2788 93.4984 97.891C93.4888 97.4984 93.5896 97.1148 93.8006 96.7402C94.0117 96.3657 94.3148 96.0276 94.7099 95.7259C95.1104 95.42 95.5216 95.2158 95.9434 95.1133C96.3658 95.0059 96.7801 95.0015 97.1863 95.1002C97.5952 95.1967 97.9748 95.3973 98.3251 95.7019L97.6515 96.4414C97.423 96.2315 97.1702 96.0953 96.8932 96.0329C96.6168 95.9656 96.3367 95.9672 96.0527 96.0377C95.7666 96.1054 95.4961 96.2358 95.2412 96.4289C94.9973 96.6134 94.8086 96.8211 94.6753 97.052C94.5419 97.2828 94.4729 97.5143 94.4681 97.7466C94.4613 97.9761 94.5292 98.183 94.6718 98.3671C94.8123 98.5484 94.9784 98.655 95.17 98.6868C95.3596 98.7158 95.5555 98.7047 95.7577 98.6536C95.9605 98.5976 96.1507 98.5338 96.3283 98.4622L97.7099 97.913C97.8667 97.8487 98.0534 97.7832 98.27 97.7165C98.4893 97.6478 98.7233 97.6094 98.9721 97.6013C99.2188 97.5905 99.4677 97.6395 99.719 97.7482C99.9682 97.8541 100.203 98.05 100.425 98.3358C100.646 98.6215 100.785 98.9204 100.842 99.2324C100.902 99.5422 100.889 99.8515 100.803 100.16C100.714 100.466 100.565 100.762 100.356 101.047C100.148 101.336 99.8903 101.599 99.5825 101.837Z" fill="white"/>
<path d="M54.51 80V69.407L52.08 70.892V68.498L54.51 67.04H56.724V80H54.51ZM64.8146 80.27C63.8966 80.27 63.0866 80.075 62.3846 79.685C61.6826 79.289 61.1336 78.74 60.7376 78.038C60.3476 77.336 60.1526 76.526 60.1526 75.608V71.432C60.1526 70.514 60.3476 69.704 60.7376 69.002C61.1336 68.3 61.6826 67.754 62.3846 67.364C63.0866 66.968 63.8966 66.77 64.8146 66.77C65.7326 66.77 66.5396 66.968 67.2356 67.364C67.9376 67.754 68.4866 68.3 68.8826 69.002C69.2786 69.704 69.4766 70.514 69.4766 71.432V75.608C69.4766 76.526 69.2786 77.336 68.8826 78.038C68.4866 78.74 67.9376 79.289 67.2356 79.685C66.5396 80.075 65.7326 80.27 64.8146 80.27ZM64.8146 78.209C65.2706 78.209 65.6846 78.101 66.0566 77.885C66.4286 77.663 66.7226 77.369 66.9386 77.003C67.1546 76.631 67.2626 76.217 67.2626 75.761V71.27C67.2626 70.808 67.1546 70.394 66.9386 70.028C66.7226 69.656 66.4286 69.362 66.0566 69.146C65.6846 68.924 65.2706 68.813 64.8146 68.813C64.3586 68.813 63.9446 68.924 63.5726 69.146C63.2006 69.362 62.9066 69.656 62.6906 70.028C62.4746 70.394 62.3666 70.808 62.3666 71.27V75.761C62.3666 76.217 62.4746 76.631 62.6906 77.003C62.9066 77.369 63.2006 77.663 63.5726 77.885C63.9446 78.101 64.3586 78.209 64.8146 78.209ZM76.6622 80.27C75.7442 80.27 74.9342 80.075 74.2322 79.685C73.5302 79.289 72.9812 78.74 72.5852 78.038C72.1952 77.336 72.0002 76.526 72.0002 75.608V71.432C72.0002 70.514 72.1952 69.704 72.5852 69.002C72.9812 68.3 73.5302 67.754 74.2322 67.364C74.9342 66.968 75.7442 66.77 76.6622 66.77C77.5802 66.77 78.3872 66.968 79.0832 67.364C79.7852 67.754 80.3342 68.3 80.7302 69.002C81.1262 69.704 81.3242 70.514 81.3242 71.432V75.608C81.3242 76.526 81.1262 77.336 80.7302 78.038C80.3342 78.74 79.7852 79.289 79.0832 79.685C78.3872 80.075 77.5802 80.27 76.6622 80.27ZM76.6622 78.209C77.1182 78.209 77.5322 78.101 77.9042 77.885C78.2762 77.663 78.5702 77.369 78.7862 77.003C79.0022 76.631 79.1102 76.217 79.1102 75.761V71.27C79.1102 70.808 79.0022 70.394 78.7862 70.028C78.5702 69.656 78.2762 69.362 77.9042 69.146C77.5322 68.924 77.1182 68.813 76.6622 68.813C76.2062 68.813 75.7922 68.924 75.4202 69.146C75.0482 69.362 74.7542 69.656 74.5382 70.028C74.3222 70.394 74.2142 70.808 74.2142 71.27V75.761C74.2142 76.217 74.3222 76.631 74.5382 77.003C74.7542 77.369 75.0482 77.663 75.4202 77.885C75.7922 78.101 76.2062 78.209 76.6622 78.209ZM85.6479 80L84.2079 78.56L95.7369 67.04L97.1769 68.489L85.6479 80ZM94.4769 80.27C93.8829 80.27 93.3399 80.126 92.8479 79.838C92.3619 79.544 91.9719 79.154 91.6779 78.668C91.3839 78.176 91.2369 77.63 91.2369 77.03C91.2369 76.442 91.3869 75.902 91.6869 75.41C91.9869 74.918 92.3829 74.525 92.8749 74.231C93.3669 73.937 93.9009 73.79 94.4769 73.79C95.0709 73.79 95.6139 73.937 96.1059 74.231C96.5979 74.519 96.9879 74.909 97.2759 75.401C97.5699 75.887 97.7169 76.43 97.7169 77.03C97.7169 77.63 97.5699 78.176 97.2759 78.668C96.9879 79.154 96.5979 79.544 96.1059 79.838C95.6139 80.126 95.0709 80.27 94.4769 80.27ZM94.4769 78.416C94.7229 78.416 94.9509 78.353 95.1609 78.227C95.3769 78.101 95.5479 77.933 95.6739 77.723C95.7999 77.513 95.8629 77.282 95.8629 77.03C95.8629 76.778 95.7999 76.547 95.6739 76.337C95.5479 76.127 95.3769 75.959 95.1609 75.833C94.9509 75.707 94.7229 75.644 94.4769 75.644C94.2249 75.644 93.9939 75.707 93.7839 75.833C93.5739 75.959 93.4029 76.127 93.2709 76.337C93.1449 76.547 93.0819 76.778 93.0819 77.03C93.0819 77.282 93.1449 77.513 93.2709 77.723C93.4029 77.933 93.5739 78.101 93.7839 78.227C93.9939 78.353 94.2249 78.416 94.4769 78.416ZM86.9079 73.25C86.3139 73.25 85.7709 73.106 85.2789 72.818C84.7869 72.524 84.3939 72.134 84.0999 71.648C83.8119 71.156 83.6679 70.61 83.6679 70.01C83.6679 69.422 83.8179 68.882 84.1179 68.39C84.4179 67.898 84.8139 67.505 85.3059 67.211C85.7979 66.917 86.3319 66.77 86.9079 66.77C87.5019 66.77 88.0419 66.917 88.5279 67.211C89.0199 67.499 89.4129 67.889 89.7069 68.381C90.0009 68.867 90.1479 69.41 90.1479 70.01C90.1479 70.61 90.0009 71.156 89.7069 71.648C89.4129 72.134 89.0199 72.524 88.5279 72.818C88.0419 73.106 87.5019 73.25 86.9079 73.25ZM86.9079 71.396C87.1599 71.396 87.3909 71.333 87.6009 71.207C87.8109 71.081 87.9789 70.913 88.1049 70.703C88.2309 70.493 88.2939 70.262 88.2939 70.01C88.2939 69.758 88.2309 69.527 88.1049 69.317C87.9789 69.107 87.8109 68.939 87.6009 68.813C87.3909 68.687 87.1599 68.624 86.9079 68.624C86.6559 68.624 86.4249 68.687 86.2149 68.813C86.0049 68.939 85.8369 69.107 85.7109 69.317C85.5849 69.527 85.5219 69.758 85.5219 70.01C85.5219 70.262 85.5849 70.493 85.7109 70.703C85.8369 70.913 86.0049 71.081 86.2149 71.207C86.4249 71.333 86.6559 71.396 86.9079 71.396Z" fill="white"/>
</svg>
