<svg width="20" height="20" viewBox="0 0 20 20" fill="none" xmlns="http://www.w3.org/2000/svg">
<path fill-rule="evenodd" clip-rule="evenodd" d="M10 20C4.48 20 0 15.53 0 10C0 4.48 4.48 0 10 0C15.53 0 20 4.48 20 10C20 15.53 15.53 20 10 20ZM13.19 13.7101C13.31 13.7801 13.44 13.8201 13.58 13.8201C13.83 13.8201 14.08 13.6901 14.22 13.4501C14.43 13.1001 14.32 12.6401 13.96 12.4201L10.4 10.3001V5.68005C10.4 5.26005 10.06 4.93005 9.65002 4.93005C9.24002 4.93005 8.90002 5.26005 8.90002 5.68005V10.7301C8.90002 10.9901 9.04002 11.2301 9.27002 11.3701L13.19 13.7101Z" fill="#0041EC"/>
</svg>
