<svg width="57" height="64" viewBox="0 0 57 64" fill="none" xmlns="http://www.w3.org/2000/svg">
<path fill-rule="evenodd" clip-rule="evenodd" d="M7.96259 25.9014C7.61325 25.512 7.31725 25.104 7.08259 24.6773V16.1947L26.0346 26.3387L46.9733 17.544V24.6773C46.7759 25.0773 46.5226 25.4614 46.2159 25.8267C47.1279 28.3547 47.2613 31.3547 47.2799 32.8213C50.5573 31.656 53.6746 34.4027 53.6746 39.4667C53.6746 48.0213 47.1093 50.1787 46.8453 50.2747C40.4079 63.0107 30.1093 64 27.1013 64C24.0933 64 13.7946 63.008 7.35992 50.2747C7.09325 50.1787 0.525252 48.0213 0.525252 39.4453C0.525252 34.104 3.96259 31.6667 6.92525 32.832C6.94392 31.3627 7.07459 28.408 7.96259 25.9014ZM44.0159 27.6853C39.6959 30.4373 32.1999 31.7493 27.0266 31.7493C21.4079 31.7493 14.3973 30.4133 10.1759 27.728C9.75992 29.384 9.53325 31.1893 9.53325 33.1493C9.53325 34.5574 8.39992 35.5973 7.14125 35.5973C6.81859 35.5973 6.49059 35.528 6.16792 35.384C6.00792 35.3067 5.76259 35.248 5.48525 35.248C5.18659 35.248 4.85592 35.3173 4.56792 35.512C2.17325 37.0987 2.42392 45.7467 8.28259 47.7734C8.86659 47.976 9.35725 48.408 9.63992 48.976C15.3999 60.44 24.4586 61.3334 27.1013 61.3334C29.7413 61.3334 38.8053 60.44 44.5599 48.976C44.8479 48.408 45.3359 47.976 45.9199 47.7734C51.7786 45.7467 52.0293 37.0987 49.6346 35.512C48.6613 34.8587 47.9493 35.5973 47.0639 35.5973C45.8053 35.5973 44.6693 34.5627 44.6693 33.1493C44.6693 31.1733 44.4426 29.352 44.0159 27.6853ZM56.3333 26.6907H48.3599L51.0586 21.352L51.0186 12.9734L26.1759 23.392L0.333252 9.73868L28.2026 0.00268555L53.6746 11.8587V21.352L56.3333 26.6907Z" fill="#061C41"/>
</svg>
