<svg width="27" height="21" viewBox="0 0 27 21" fill="none" xmlns="http://www.w3.org/2000/svg">
<path fill-rule="evenodd" clip-rule="evenodd" d="M5.55208 0H13.3706C16.64 0 18.9227 2.25299 18.9227 5.48172V14.7664C18.9227 17.9951 16.64 20.2481 13.3706 20.2481H5.55208C2.28266 20.2481 0 17.9951 0 14.7664V5.48172C0 2.25299 2.28266 0 5.55208 0ZM24.2435 3.21139C24.8361 2.9099 25.5313 2.94142 26.0969 3.29773C26.6625 3.65267 27 4.26936 27 4.94361V15.3054C27 15.9811 26.6625 16.5964 26.0969 16.9513C25.7878 17.1445 25.4422 17.2432 25.094 17.2432C24.8037 17.2432 24.5135 17.1747 24.2422 17.0363L22.243 16.0276C21.5033 15.6521 21.0443 14.8984 21.0443 14.0611V6.18659C21.0443 5.34789 21.5033 4.59416 22.243 4.2214L24.2435 3.21139Z" fill="#005DF2"/>
</svg>
