<svg width="102" height="102" viewBox="0 0 102 102" fill="none" xmlns="http://www.w3.org/2000/svg">
<path d="M85.9961 56.8662H73.804C71.8119 56.8662 70.1979 58.481 70.1979 60.4724V75.0605C70.1979 73.0691 68.5831 71.4543 66.5917 71.4543H54.3989C52.4067 71.4543 50.7927 73.0683 50.7927 75.0605V84.6782C50.7927 82.6868 49.178 81.0721 47.1866 81.0721H34.9937C33.0016 81.0721 31.3876 82.6868 31.3876 84.6782V93.6314C31.3876 91.64 29.7728 90.0252 27.7806 90.0252H15.5886C13.5972 90.0252 11.9824 91.6392 11.9824 93.6314V100.477H89.603V60.4724C89.603 58.481 87.9883 56.8662 85.9961 56.8662Z" fill="#A7C7D3"/>
<path d="M75.4651 58.389C74.6231 58.389 73.9414 57.7073 73.9414 56.8661V1.52293C73.9414 0.681702 74.6231 0 75.4651 0C76.3064 0 76.9881 0.681702 76.9881 1.52293V56.8661C76.9881 57.7073 76.3056 58.389 75.4651 58.389Z" fill="#A7C7D3"/>
<path d="M31.3876 100.477H11.9824V93.6311C11.9824 91.6397 13.5972 90.0249 15.5886 90.0249H27.7814C29.7728 90.0249 31.3876 91.6389 31.3876 93.6311V100.477Z" fill="#A7C7D3"/>
<path d="M50.7919 100.477H31.3867V84.6779C31.3867 82.6865 33.0015 81.0718 34.9929 81.0718H47.1857C49.1771 81.0718 50.7919 82.6865 50.7919 84.6779V100.477Z" fill="#89B4C9"/>
<path d="M70.1981 100.477H50.793V75.0603C50.793 73.0689 52.407 71.4541 54.3991 71.4541H66.5919C68.5834 71.4541 70.1981 73.0681 70.1981 75.0603V100.477Z" fill="#6C96B3"/>
<path d="M89.6024 100.477H70.1973V60.4724C70.1973 58.481 71.8112 56.8662 73.8034 56.8662H85.9955C87.9877 56.8662 89.6024 58.481 89.6024 60.4724V100.477Z" fill="#618AAA"/>
<path d="M94.9807 102H6.90184C6.06061 102 5.37891 101.318 5.37891 100.477C5.37891 99.6358 6.06061 98.9541 6.90184 98.9541H94.9807C95.8219 98.9541 96.5036 99.6358 96.5036 100.477C96.5036 101.318 95.8219 102 94.9807 102Z" fill="#2F5066"/>
<path d="M75.4648 16.0027H94.9828C95.5875 16.0027 95.87 15.2541 95.4163 14.8549L90.3463 10.3896C90.0491 10.1289 90.0491 9.66661 90.3463 9.40514L95.4163 4.94061C95.87 4.54062 95.5875 3.79199 94.9828 3.79199H75.4648V16.0027Z" fill="#FDB659"/>
<path d="M77.0183 21.7173L55.8746 33.2012C53.9883 34.226 53.4723 36.0268 52.814 38.3466L48.6094 53.2172L54.1626 55.1246L58.9135 48.9939L62.9127 36.903L73.553 30.4378C76.5265 28.6316 77.9404 25.0721 77.0183 21.7173Z" fill="#83D9FF"/>
<path d="M77.0183 21.7173L74.5786 23.0426C74.1677 25.1421 72.8993 27.0386 70.981 28.2043L61.2854 34.0953C60.6753 34.4657 60.217 35.0424 59.9921 35.7202L58.6077 39.9061C57.1688 44.2562 53.9003 47.7605 49.6607 49.4982L48.6094 53.2172L58.9135 48.9947L62.9127 36.9038L73.553 30.4378C76.5265 28.6316 77.9404 25.0721 77.0183 21.7173Z" fill="#5FC9ED"/>
<path d="M58.9135 48.9937L65.0021 56.1904C66.0114 57.5266 66.8893 58.4659 66.7072 59.9359L65.2831 71.4478H61.5672L60.596 61.5514C60.5368 60.9522 60.1578 60.4332 59.6053 60.195L48.6094 53.2169L58.9135 48.9937Z" fill="#38627C"/>
<path d="M48.6098 53.2169L48.016 64.1281C47.9771 65.0331 48.1039 65.6448 47.7498 66.3179L40.7383 81.0718H44.6799L55.2221 67.0658C55.8384 66.3483 55.91 65.3739 56.1178 64.4775L58.9131 48.9937L48.6098 53.2169Z" fill="#4F7693"/>
<path d="M58.1597 24.0729L59.8889 27.4488C60.7013 29.0347 60.0741 30.9802 58.4874 31.7927L57.1512 32.4767C55.5645 33.2891 53.6197 32.6619 52.8073 31.0752L51.0781 27.6993C50.2657 26.1126 50.8929 24.1679 52.4797 23.3554L53.8158 22.6714C55.4018 21.859 57.3465 22.4862 58.1597 24.0729Z" fill="#FECBAA"/>
</svg>
